<svg width="120" height="120" viewBox="0 0 120 120" fill="none" xmlns="http://www.w3.org/2000/svg">
<rect width="120" height="120" fill="white"/>
<g clip-path="url(#clip0_2_417)">
<path d="M108.95 28.675C107.892 28.1583 107.433 29.1458 106.817 29.65C106.604 29.8125 106.425 30.025 106.246 30.2166C104.696 31.8708 102.888 32.9541 100.525 32.825C97.0708 32.6333 94.1208 33.7166 91.5125 36.3583C90.9583 33.1 89.1167 31.1583 86.3167 29.9083C84.85 29.2583 83.3667 28.6125 82.3375 27.2C81.6208 26.1958 81.425 25.075 81.0667 23.975C80.8375 23.3083 80.6083 22.6291 79.8458 22.5166C79.0125 22.3875 78.6875 23.0833 78.3625 23.6666C77.0583 26.05 76.5542 28.675 76.6042 31.3333C76.7167 37.3166 79.2417 42.0833 84.2625 45.4708C84.8333 45.8583 84.9792 46.25 84.8 46.8166C84.4583 47.9833 84.05 49.1166 83.6917 50.2875C83.4625 51.0333 83.1208 51.1916 82.3208 50.8708C79.6177 49.7091 77.1623 48.0401 75.0875 45.9541C71.5167 42.5041 68.2917 38.6958 64.2667 35.7125C63.3341 35.0234 62.3765 34.3688 61.3958 33.75C57.2917 29.7625 61.9375 26.4875 63.0125 26.1C64.1375 25.6916 63.4 24.3 59.7667 24.3166C56.1333 24.3333 52.8083 25.5458 48.5708 27.1666C47.9411 27.4079 47.2933 27.5988 46.6333 27.7375C42.6735 26.9914 38.6235 26.8481 34.6208 27.3125C26.7667 28.1875 20.4958 31.9041 15.8833 38.2416C10.3417 45.8583 9.0375 54.5166 10.6333 63.5416C12.3125 73.0583 17.1708 80.9375 24.6333 87.0958C32.375 93.4833 41.2875 96.6125 51.4583 96.0125C57.6333 95.6583 64.5125 94.8291 72.2667 88.2625C74.225 89.2375 76.275 89.625 79.6833 89.9166C82.3083 90.1625 84.8333 89.7916 86.7875 89.3833C89.85 88.7333 89.6375 85.8958 88.5333 85.3791C79.5542 81.1958 81.525 82.9 79.7292 81.5208C84.2958 76.1208 91.1708 70.5125 93.8625 52.3416C94.0708 50.8958 93.8917 49.9875 93.8625 48.8208C93.8458 48.1125 94.0083 47.8333 94.8208 47.7541C97.0752 47.5203 99.262 46.8479 101.258 45.775C107.075 42.5958 109.425 37.3791 109.979 31.1208C110.063 30.1625 109.962 29.1791 108.95 28.675ZM58.2542 85C49.55 78.1583 45.3292 75.9041 43.5875 76C41.9542 76.1 42.25 77.9625 42.6083 79.1791C42.9833 80.3791 43.4708 81.2041 44.1542 82.2583C44.6292 82.9541 44.9542 83.9916 43.6833 84.7708C40.8792 86.5041 36.0083 84.1875 35.7792 84.075C30.1083 80.7333 25.3625 76.325 22.025 70.2958C18.8 64.4916 16.925 58.2666 16.6167 51.6208C16.5333 50.0125 17.0042 49.4458 18.6042 49.1541C20.7046 48.7522 22.8568 48.6973 24.975 48.9916C33.8583 50.2916 41.4167 54.2625 47.7583 60.55C51.375 64.1333 54.1125 68.4125 56.9333 72.5958C59.9333 77.0375 63.1583 81.2708 67.2667 84.7375C68.7167 85.9541 69.8708 86.8791 70.9792 87.5583C67.6375 87.9333 62.0625 88.0166 58.2542 85ZM62.4208 58.1666C62.4201 57.9597 62.4698 57.7556 62.5656 57.5721C62.6614 57.3886 62.8004 57.2312 62.9706 57.1135C63.1408 56.9958 63.3372 56.9213 63.5427 56.8964C63.7482 56.8715 63.9566 56.8971 64.15 56.9708C64.3965 57.0592 64.6093 57.2224 64.7587 57.4375C64.908 57.6526 64.9866 57.9089 64.9833 58.1708C64.9839 58.34 64.9508 58.5076 64.8859 58.6639C64.8211 58.8202 64.7257 58.9619 64.6055 59.081C64.4853 59.2001 64.3426 59.294 64.1857 59.3573C64.0288 59.4207 63.8609 59.4522 63.6917 59.45C63.5238 59.4505 63.3574 59.4176 63.2024 59.3531C63.0474 59.2886 62.9067 59.1938 62.7888 59.0743C62.6708 58.9548 62.5779 58.813 62.5154 58.6571C62.453 58.5013 62.4181 58.3345 62.4208 58.1666ZM75.3792 64.8166C74.5458 65.1541 73.7167 65.4458 72.9208 65.4833C71.7235 65.525 70.5487 65.1511 69.5958 64.425C68.4542 63.4666 67.6375 62.9333 67.2958 61.2666C67.178 60.4521 67.2006 59.6235 67.3625 58.8166C67.6542 57.4541 67.3292 56.5791 66.3667 55.7875C65.5875 55.1375 64.5917 54.9583 63.5 54.9583C63.1262 54.9366 62.7632 54.8251 62.4417 54.6333C61.9833 54.4083 61.6083 53.8416 61.9667 53.1416C62.0833 52.9166 62.6333 52.3666 62.7667 52.2666C64.25 51.425 65.9625 51.7 67.5417 52.3333C69.0083 52.9333 70.1167 54.0333 71.7125 55.5916C73.3417 57.4708 73.6375 57.9916 74.5667 59.4C75.3 60.5041 75.9667 61.6375 76.4208 62.9333C76.7 63.7458 76.3417 64.4083 75.3792 64.8166Z" fill="#4D6BFE"/>
</g>
<defs>
<clipPath id="clip0_2_417">
<rect width="100" height="100" fill="white" transform="translate(10 10)"/>
</clipPath>
</defs>
</svg>
