<svg width="32" height="32" viewBox="0 0 32 32" fill="none" xmlns="http://www.w3.org/2000/svg">
<rect width="32" height="32" fill="white"/>
<g clip-path="url(#clip0_2_418)">
<path d="M29.0534 7.64664C28.7711 7.50886 28.6489 7.7722 28.4845 7.90664C28.4278 7.94997 28.38 8.00664 28.3323 8.05775C27.9189 8.49886 27.4367 8.78775 26.8067 8.75331C25.8856 8.7022 25.0989 8.99108 24.4034 9.69553C24.2556 8.82664 23.7645 8.30886 23.0178 7.97553C22.6267 7.8022 22.2311 7.62997 21.9567 7.25331C21.7656 6.98553 21.7134 6.68664 21.6178 6.39331C21.5567 6.21553 21.4956 6.03442 21.2922 6.00442C21.07 5.96997 20.9834 6.15553 20.8967 6.31108C20.5489 6.94664 20.4145 7.64664 20.4278 8.35553C20.4578 9.95108 21.1311 11.2222 22.47 12.1255C22.6222 12.2289 22.6611 12.3333 22.6134 12.4844C22.5222 12.7955 22.4134 13.0978 22.3178 13.41C22.2567 13.6089 22.1656 13.6511 21.9522 13.5655C21.2314 13.2557 20.5767 12.8107 20.0234 12.2544C19.0711 11.3344 18.2111 10.3189 17.1378 9.52331C16.8891 9.33955 16.6338 9.16499 16.3722 8.99997C15.2778 7.93664 16.5167 7.06331 16.8034 6.95997C17.1034 6.85108 16.9067 6.47997 15.9378 6.48442C14.9689 6.48886 14.0822 6.8122 12.9522 7.24442C12.7843 7.30876 12.6116 7.35966 12.4356 7.39664C11.3796 7.19768 10.2996 7.15947 9.23225 7.28331C7.1378 7.51664 5.46558 8.50775 4.23558 10.1978C2.7578 12.2289 2.41003 14.5378 2.83558 16.9444C3.28336 19.4822 4.57891 21.5833 6.56891 23.2255C8.63336 24.9289 11.01 25.7633 13.7222 25.6033C15.3689 25.5089 17.2034 25.2878 19.2711 23.5366C19.7934 23.7966 20.34 23.9 21.2489 23.9778C21.9489 24.0433 22.6223 23.9444 23.1434 23.8355C23.96 23.6622 23.9034 22.9055 23.6089 22.7678C21.2145 21.6522 21.74 22.1066 21.2611 21.7389C22.4789 20.2989 24.3123 18.8033 25.03 13.9578C25.0856 13.5722 25.0378 13.33 25.03 13.0189C25.0256 12.83 25.0689 12.7555 25.2856 12.7344C25.8867 12.6721 26.4699 12.4928 27.0023 12.2066C28.5534 11.3589 29.18 9.96775 29.3278 8.29886C29.35 8.04331 29.3234 7.78108 29.0534 7.64664ZM15.5345 22.6666C13.2134 20.8422 12.0878 20.2411 11.6234 20.2666C11.1878 20.2933 11.2667 20.79 11.3622 21.1144C11.4622 21.4344 11.5922 21.6544 11.7745 21.9355C11.9011 22.1211 11.9878 22.3978 11.6489 22.6055C10.9011 23.0678 9.60225 22.45 9.54114 22.42C8.02891 21.5289 6.76336 20.3533 5.87336 18.7455C5.01336 17.1978 4.51336 15.5378 4.43114 13.7655C4.40891 13.3366 4.53447 13.1855 4.96114 13.1078C5.52126 13.0006 6.09517 12.9859 6.66003 13.0644C9.02891 13.4111 11.0445 14.47 12.7356 16.1466C13.7 17.1022 14.43 18.2433 15.1822 19.3589C15.9822 20.5433 16.8422 21.6722 17.9378 22.5966C18.3245 22.9211 18.6322 23.1678 18.9278 23.3489C18.0367 23.4489 16.55 23.4711 15.5345 22.6666ZM16.6456 15.5111C16.6454 15.4559 16.6586 15.4015 16.6842 15.3525C16.7097 15.3036 16.7468 15.2616 16.7922 15.2303C16.8376 15.1989 16.8899 15.179 16.9447 15.1724C16.9995 15.1657 17.0551 15.1725 17.1067 15.1922C17.1724 15.2158 17.2292 15.2593 17.269 15.3166C17.3088 15.374 17.3298 15.4424 17.3289 15.5122C17.3291 15.5573 17.3202 15.602 17.3029 15.6437C17.2856 15.6854 17.2602 15.7232 17.2282 15.7549C17.1961 15.7867 17.158 15.8117 17.1162 15.8286C17.0744 15.8455 17.0296 15.8539 16.9845 15.8533C16.9397 15.8535 16.8953 15.8447 16.854 15.8275C16.8127 15.8103 16.7752 15.785 16.7437 15.7531C16.7122 15.7213 16.6875 15.6834 16.6708 15.6419C16.6542 15.6003 16.6448 15.5559 16.6456 15.5111ZM20.1011 17.2844C19.8789 17.3744 19.6578 17.4522 19.4456 17.4622C19.1263 17.4733 18.813 17.3736 18.5589 17.18C18.2545 16.9244 18.0367 16.7822 17.9456 16.3378C17.9142 16.1206 17.9202 15.8996 17.9634 15.6844C18.0411 15.3211 17.9545 15.0878 17.6978 14.8766C17.49 14.7033 17.2245 14.6555 16.9334 14.6555C16.8337 14.6497 16.7369 14.62 16.6511 14.5689C16.5289 14.5089 16.4289 14.3578 16.5245 14.1711C16.5556 14.1111 16.7022 13.9644 16.7378 13.9378C17.1334 13.7133 17.59 13.7866 18.0111 13.9555C18.4022 14.1155 18.6978 14.4089 19.1234 14.8244C19.5578 15.3255 19.6367 15.4644 19.8845 15.84C20.08 16.1344 20.2578 16.4366 20.3789 16.7822C20.4534 16.9989 20.3578 17.1755 20.1011 17.2844Z" fill="#4D6BFE"/>
</g>
<defs>
<clipPath id="clip0_2_418">
<rect width="26.6667" height="26.6667" fill="white" transform="translate(2.66669 2.66663)"/>
</clipPath>
</defs>
</svg>
