<svg width="32" height="32" viewBox="0 0 32 32" fill="none" xmlns="http://www.w3.org/2000/svg">
<rect width="32" height="32" fill="white"/>
<g clip-path="url(#clip0_2_635)">
<path fill-rule="evenodd" clip-rule="evenodd" d="M16.0445 9.28119C15.9239 8.87144 15.8322 8.45376 15.77 8.03119V6.80008C18.0681 6.82283 20.2738 7.70795 21.95 9.28008L16.0445 9.28119ZM15.2778 9.28119C15.4034 8.86675 15.4989 8.4423 15.5634 8.00897V6.80008C13.2653 6.82283 11.0597 7.70795 9.38337 9.28008H15.2767L15.2778 9.28119ZM9.24115 9.48897H15.2112C15.1244 9.75123 15.0254 10.0093 14.9145 10.2623C14.4559 11.3593 13.7922 12.3586 12.9589 13.2067L9.24115 9.48897ZM8.94782 9.28119H5.64115V9.48897H8.88004C7.22146 11.2125 6.28455 13.5049 6.26115 15.8967H2.33337V16.1034H6.26115C6.28455 18.4953 7.22146 20.7877 8.88004 22.5112H5.64115V22.7179H8.94782V26.0256H9.1556V22.7867C10.8791 24.4453 13.1715 25.3822 15.5634 25.4056V29.3334H15.77V25.4056C18.1619 25.3822 20.4543 24.4453 22.1778 22.7867V26.0256H22.3845V22.7179H25.6923V22.5112H22.4534C24.112 20.7877 25.0489 18.4953 25.0723 16.1034H29V15.8967H25.0723C25.0489 13.5049 24.112 11.2125 22.4534 9.48897H25.6923V9.28119H22.3845V5.97453H22.1778V9.21341C20.4543 7.55484 18.1619 6.61792 15.77 6.59453V2.66675H15.5634V6.59453C13.1715 6.61792 10.8791 7.55484 9.1556 9.21341V5.97453H8.94782V9.28119ZM15.77 25.199C18.0682 25.1759 20.2739 24.2904 21.95 22.7179H16.0445C15.9245 23.1256 15.8334 23.5434 15.77 23.969V25.199ZM15.5634 23.9912C15.4991 23.5603 15.4033 23.1347 15.2767 22.7179H9.38337C11.0595 24.2904 13.2652 25.1759 15.5634 25.199V23.9912ZM6.46782 15.8967H7.69782C8.12038 15.8346 8.53807 15.7429 8.94782 15.6223V9.71675C7.37569 11.393 6.49057 13.5987 6.46782 15.8967ZM7.6756 16.1034H6.46671C6.48946 18.4015 7.37458 20.6071 8.94671 22.2834V16.3901C8.53021 16.2636 8.10611 16.1677 7.6756 16.1034ZM24.8645 15.8967C24.8417 13.5987 23.9566 11.393 22.3845 9.71675V15.6223C22.7923 15.7423 23.21 15.8334 23.6356 15.8967H24.8645ZM23.6578 16.1034C23.2245 16.1679 22.8 16.2634 22.3845 16.3901V22.2834C23.957 20.6073 24.8425 18.4016 24.8656 16.1034H23.6578ZM22.1778 22.4256V16.4556C21.9156 16.5424 21.6575 16.6414 21.4045 16.7523C20.3075 17.2109 19.3082 17.8746 18.46 18.7079L22.1778 22.4256ZM22.1778 15.559V9.50341L22.1645 9.48897H16.1078C16.1923 9.75008 16.2878 10.009 16.3967 10.2623C16.8771 11.3758 17.5627 12.389 18.4178 13.249C19.2777 14.1045 20.2908 14.7905 21.4045 15.2712C21.6578 15.379 21.9156 15.4745 22.1778 15.559ZM9.1556 22.4979V16.4556C9.41671 16.5423 9.6756 16.6412 9.92893 16.7523C11.0445 17.2189 12.0589 17.8978 12.9156 18.7512C13.769 19.6079 14.4479 20.6223 14.9145 21.7379C15.0256 21.9912 15.1256 22.249 15.2112 22.5112H9.16893L9.1556 22.4979ZM9.1556 15.559V9.69564L12.8112 13.3512C11.9736 14.1592 10.9972 14.8096 9.92893 15.2712C9.67566 15.3788 9.41762 15.4749 9.1556 15.559ZM16.1078 22.5112H21.9712L18.3156 18.8556C17.5076 19.6932 16.8572 20.6696 16.3956 21.7379C16.2879 21.9911 16.1919 22.2492 16.1078 22.5112ZM13.5 13.8334C12.5778 14.7517 11.4926 15.4902 10.3 16.0112C11.4947 16.5186 12.5809 17.2503 13.5 18.1667C14.4164 19.0859 15.1482 20.1721 15.6556 21.3667C16.1766 20.1742 16.9151 19.089 17.8334 18.1667C18.7525 17.2503 19.8388 16.5186 21.0334 16.0112C19.8408 15.4902 18.7556 14.7517 17.8334 13.8334C16.9151 12.9112 16.1766 11.826 15.6556 10.6334C15.1482 11.828 14.4164 12.9143 13.5 13.8334Z" fill="url(#paint0_linear_2_635)"/>
</g>
<defs>
<linearGradient id="paint0_linear_2_635" x1="9.00004" y1="25.8668" x2="28.0667" y2="8.66675" gradientUnits="userSpaceOnUse">
<stop stop-color="#446EFF"/>
<stop offset="0.36661" stop-color="#2E96FF"/>
<stop offset="0.83221" stop-color="#B1C5FF"/>
</linearGradient>
<clipPath id="clip0_2_635">
<rect width="26.6667" height="26.6667" fill="white" transform="translate(2.66669 2.66675)"/>
</clipPath>
</defs>
</svg>
