<svg width="120" height="120" viewBox="0 0 120 120" fill="none" xmlns="http://www.w3.org/2000/svg">
<rect width="120" height="120" fill="white"/>
<g clip-path="url(#clip0_2_634)">
<path fill-rule="evenodd" clip-rule="evenodd" d="M61.4167 34.8042C60.9646 33.2676 60.6207 31.7013 60.3875 30.1167V25.5C69.0052 25.5853 77.2764 28.9045 83.5625 34.8L61.4167 34.8042ZM58.5417 34.8042C59.0125 33.25 59.3708 31.6583 59.6125 30.0333V25.5C50.9948 25.5853 42.7236 28.9045 36.4375 34.8H58.5375L58.5417 34.8042ZM35.9042 35.5833H58.2917C57.9662 36.5668 57.595 37.5345 57.1792 38.4833C55.4594 42.5969 52.9705 46.3445 49.8458 49.525L35.9042 35.5833ZM34.8042 34.8042H22.4042V35.5833H34.55C28.3303 42.0466 24.8169 50.6431 24.7292 59.6125H10V60.3875H24.7292C24.8169 69.3569 28.3303 77.9534 34.55 84.4167H22.4042V85.1917H34.8042V97.5958H35.5833V85.45C42.0466 91.6697 50.6431 95.1831 59.6125 95.2708V110H60.3875V95.2708C69.3569 95.1831 77.9534 91.6697 84.4167 85.45V97.5958H85.1917V85.1917H97.5958V84.4167H85.45C91.6697 77.9534 95.1831 69.3569 95.2708 60.3875H110V59.6125H95.2708C95.1831 50.6431 91.6697 42.0466 85.45 35.5833H97.5958V34.8042H85.1917V22.4042H84.4167V34.55C77.9534 28.3303 69.3569 24.8169 60.3875 24.7292V10H59.6125V24.7292C50.6431 24.8169 42.0466 28.3303 35.5833 34.55V22.4042H34.8042V34.8042ZM60.3875 94.4958C69.0057 94.4094 77.2771 91.0887 83.5625 85.1917H61.4167C60.9667 86.7208 60.625 88.2875 60.3875 89.8833V94.4958ZM59.6125 89.9667C59.3714 88.3508 59.0121 86.7549 58.5375 85.1917H36.4375C42.7229 91.0887 50.9943 94.4094 59.6125 94.4958V89.9667ZM25.5042 59.6125H30.1167C31.7013 59.3793 33.2676 59.0354 34.8042 58.5833V36.4375C28.9087 42.7236 25.5895 50.9948 25.5042 59.6125ZM30.0333 60.3875H25.5C25.5853 69.0052 28.9045 77.2764 34.8 83.5625V61.4625C33.2381 60.988 31.6478 60.6287 30.0333 60.3875ZM94.4917 59.6125C94.4063 50.9948 91.0871 42.7236 85.1917 36.4375V58.5833C86.7208 59.0333 88.2875 59.375 89.8833 59.6125H94.4917ZM89.9667 60.3875C88.3417 60.6292 86.75 60.9875 85.1917 61.4625V83.5625C91.0887 77.2771 94.4094 69.0057 94.4958 60.3875H89.9667ZM84.4167 84.0958V61.7083C83.4332 62.0337 82.4654 62.405 81.5167 62.8208C77.403 64.5405 73.6554 67.0295 70.475 70.1542L84.4167 84.0958ZM84.4167 58.3458V35.6375L84.3667 35.5833H61.6542C61.9708 36.5625 62.3292 37.5333 62.7375 38.4833C64.5388 42.6591 67.1099 46.4586 70.3167 49.6833C73.541 52.8915 77.3405 55.4641 81.5167 57.2667C82.4667 57.6708 83.4333 58.0292 84.4167 58.3458ZM35.5833 84.3667V61.7083C36.5625 62.0333 37.5333 62.4042 38.4833 62.8208C42.6669 64.5706 46.4706 67.1163 49.6833 70.3167C52.8836 73.5294 55.4293 77.3332 57.1792 81.5167C57.5958 82.4667 57.9708 83.4333 58.2917 84.4167H35.6333L35.5833 84.3667ZM35.5833 58.3458V36.3583L49.2917 50.0667C46.1508 53.0966 42.4895 55.5356 38.4833 57.2667C37.5336 57.6703 36.5659 58.0304 35.5833 58.3458ZM61.6542 84.4167H83.6417L69.9333 70.7083C66.9034 73.8492 64.4644 77.5105 62.7333 81.5167C62.3297 82.4664 61.9696 83.4341 61.6542 84.4167ZM51.875 51.875C48.4166 55.3185 44.3472 58.0879 39.875 60.0417C44.3548 61.9445 48.4283 64.6885 51.875 68.125C55.3115 71.5717 58.0555 75.6452 59.9583 80.125C61.9121 75.6528 64.6815 71.5834 68.125 68.125C71.5717 64.6885 75.6452 61.9445 80.125 60.0417C75.6528 58.0879 71.5834 55.3185 68.125 51.875C64.6814 48.4167 61.912 44.3473 59.9583 39.875C58.0555 44.3548 55.3115 48.4283 51.875 51.875Z" fill="url(#paint0_linear_2_634)"/>
</g>
<defs>
<linearGradient id="paint0_linear_2_634" x1="35" y1="97" x2="106.5" y2="32.5" gradientUnits="userSpaceOnUse">
<stop stop-color="#446EFF"/>
<stop offset="0.36661" stop-color="#2E96FF"/>
<stop offset="0.83221" stop-color="#B1C5FF"/>
</linearGradient>
<clipPath id="clip0_2_634">
<rect width="100" height="100" fill="white" transform="translate(10 10)"/>
</clipPath>
</defs>
</svg>
