<svg width="280" height="184" viewBox="0 0 280 184" fill="none" xmlns="http://www.w3.org/2000/svg">
<rect width="280" height="184" fill="white"/>
<g clip-path="url(#clip0_2_638)">
<path fill-rule="evenodd" clip-rule="evenodd" d="M49.9208 75.1227C49.627 74.1239 49.4035 73.1058 49.2519 72.0758V69.075C54.8534 69.1305 60.2297 71.2879 64.3156 75.12L49.9208 75.1227ZM48.0521 75.1227C48.3581 74.1125 48.591 73.0779 48.7481 72.0217V69.075C43.1466 69.1305 37.7703 71.2879 33.6844 75.12H48.0494L48.0521 75.1227ZM33.3377 75.6292H47.8896C47.678 76.2684 47.4367 76.8974 47.1665 77.5142C46.0486 80.188 44.4308 82.6239 42.3998 84.6912L33.3377 75.6292ZM32.6227 75.1227H24.5627V75.6292H32.4575C28.4147 79.8303 26.131 85.418 26.074 91.2481H16.5V91.7519H26.074C26.131 97.582 28.4147 103.17 32.4575 107.371H24.5627V107.875H32.6227V115.937H33.1292V108.042C37.3303 112.085 42.918 114.369 48.7481 114.426V124H49.2519V114.426C55.082 114.369 60.6697 112.085 64.8708 108.042V115.937H65.3746V107.875H73.4373V107.371H65.5425C69.5853 103.17 71.869 97.582 71.926 91.7519H81.5V91.2481H71.926C71.869 85.418 69.5853 79.8303 65.5425 75.6292H73.4373V75.1227H65.3746V67.0627H64.8708V74.9575C60.6697 70.9147 55.082 68.631 49.2519 68.574V59H48.7481V68.574C42.918 68.631 37.3303 70.9147 33.1292 74.9575V67.0627H32.6227V75.1227ZM49.2519 113.922C54.8537 113.866 60.2301 111.708 64.3156 107.875H49.9208C49.6283 108.869 49.4062 109.887 49.2519 110.924V113.922ZM48.7481 110.978C48.5914 109.928 48.3579 108.891 48.0494 107.875H33.6844C37.7699 111.708 43.1463 113.866 48.7481 113.922V110.978ZM26.5777 91.2481H29.5758C30.6058 91.0966 31.624 90.873 32.6227 90.5792V76.1844C28.7906 80.2703 26.6332 85.6466 26.5777 91.2481ZM29.5217 91.7519H26.575C26.6305 97.3534 28.7879 102.73 32.62 106.816V92.4506C31.6048 92.1422 30.571 91.9087 29.5217 91.7519ZM71.4196 91.2481C71.3641 85.6466 69.2066 80.2703 65.3746 76.1844V90.5792C66.3685 90.8717 67.3869 91.0937 68.4242 91.2481H71.4196ZM68.4783 91.7519C67.4221 91.909 66.3875 92.1419 65.3746 92.4506V106.816C69.2076 102.73 71.3661 97.3537 71.4223 91.7519H68.4783ZM64.8708 107.162V92.6104C64.2316 92.8219 63.6025 93.0632 62.9858 93.3335C60.312 94.4513 57.876 96.0691 55.8087 98.1002L64.8708 107.162ZM64.8708 90.4248V75.6644L64.8383 75.6292H50.0752C50.281 76.2656 50.514 76.8967 50.7794 77.5142C51.9502 80.2284 53.6215 82.6981 55.7058 84.7942C57.8017 86.8795 60.2713 88.5517 62.9858 89.7233C63.6033 89.986 64.2317 90.219 64.8708 90.4248ZM33.1292 107.338V92.6104C33.7656 92.8217 34.3967 93.0627 35.0142 93.3335C37.7335 94.4709 40.2059 96.1256 42.2942 98.2058C44.3743 100.294 46.0291 102.767 47.1665 105.486C47.4373 106.103 47.681 106.732 47.8896 107.371H33.1617L33.1292 107.338ZM33.1292 90.4248V76.1329L42.0396 85.0433C39.998 87.0128 37.6181 88.5981 35.0142 89.7233C34.3968 89.9857 33.7678 90.2198 33.1292 90.4248ZM50.0752 107.371H64.3671L55.4567 98.4604C53.4872 100.502 51.9019 102.882 50.7767 105.486C50.5143 106.103 50.2802 106.732 50.0752 107.371ZM43.7187 86.2187C41.4708 88.457 38.8257 90.2571 35.9187 91.5271C38.8306 92.7639 41.4784 94.5475 43.7187 96.7812C45.9525 99.0216 47.7361 101.669 48.9729 104.581C50.2429 101.674 52.043 99.0292 54.2812 96.7812C56.5216 94.5475 59.1694 92.7639 62.0812 91.5271C59.1743 90.2571 56.5292 88.457 54.2812 86.2187C52.0429 83.9708 50.2428 81.3257 48.9729 78.4187C47.7361 81.3306 45.9525 83.9784 43.7187 86.2187Z" fill="url(#paint0_linear_2_638)"/>
</g>
<path fill-rule="evenodd" clip-rule="evenodd" d="M110.072 110C106.612 110 103.425 109.171 100.51 107.511C97.6212 105.875 95.2259 103.508 93.5705 100.654C91.8563 97.7381 91 94.5202 91 91C91 87.4764 91.8563 84.2602 93.5688 81.348C95.2247 78.493 97.6206 76.126 100.51 74.4907C103.425 72.8291 106.612 72 110.072 72C112.781 72 115.325 72.475 117.708 73.4233C120.088 74.3715 122.051 75.7085 123.594 77.4357L120.457 80.5345C119.292 79.1129 117.801 78.0195 115.984 77.2578C114.129 76.4882 112.136 76.0992 110.124 76.1144C107.521 76.1144 105.095 76.7327 102.85 77.9695C100.604 79.2062 98.806 80.949 97.4517 83.2031C96.0974 85.452 95.4211 88.0515 95.4211 91C95.4211 93.9467 96.0974 96.5445 97.4517 98.7986C98.7478 100.996 100.622 102.805 102.876 104.032C105.091 105.256 107.587 105.894 110.124 105.886C112.592 105.886 114.657 105.506 116.319 104.742C117.932 104.015 119.389 102.989 120.611 101.719C121.537 100.717 122.269 99.5546 122.771 98.2908C123.32 96.9522 123.662 95.4702 123.798 93.8448H110.175V89.8324H127.859C128.031 90.7806 128.116 91.6598 128.116 92.4734C128.116 94.7085 127.758 96.8848 127.038 99.0025C126.335 101.092 125.157 102.995 123.594 104.564C120.2 108.186 115.692 110 110.072 110ZM142.797 110C140.295 110 138.051 109.408 136.062 108.221C134.082 107.044 132.472 105.347 131.41 103.319C130.295 101.236 129.738 98.8919 129.738 96.2837C129.738 93.7775 130.262 91.475 131.307 89.3746C132.302 87.3314 133.839 85.5931 135.755 84.3448C137.673 83.0925 139.901 82.4655 142.437 82.4655C145.006 82.4655 147.235 83.0321 149.119 84.1669C150.993 85.289 152.501 86.9198 153.463 88.8651C154.475 90.8653 154.98 93.1505 154.98 95.7241C154.98 96.2319 154.928 96.6741 154.827 97.0455H134.108C134.212 99.0094 134.692 100.669 135.548 102.023C136.405 103.379 137.493 104.395 138.813 105.072C140.088 105.738 141.508 106.087 142.951 106.088C146.309 106.088 148.897 104.53 150.713 101.414L154.416 103.193C153.283 105.293 151.751 106.951 149.815 108.171C147.877 109.39 145.539 110 142.795 110H142.797ZM150.353 93.489C150.27 92.3547 149.955 91.2488 149.427 90.2383C148.88 89.1535 148.015 88.2398 146.832 87.4954C145.651 86.7492 144.167 86.3778 142.386 86.3778C140.329 86.3778 138.589 87.029 137.168 88.3331C135.746 89.6372 134.811 91.3558 134.365 93.489H150.353ZM157.733 83.2774H161.897V87.0877H162.103C162.858 85.7681 163.989 84.6661 165.497 83.7869C166.939 82.9243 168.592 82.4674 170.278 82.4655C172.196 82.4655 173.867 82.9233 175.289 83.837C176.674 84.7067 177.744 85.9874 178.348 87.4954C179.249 85.9948 180.512 84.738 182.024 83.837C183.55 82.9215 185.323 82.4655 187.345 82.4655C190.361 82.4655 192.631 83.3706 194.157 85.1825C195.681 86.9962 196.444 89.4593 196.444 92.5753V109.186H192.126V93.2351C192.126 90.8307 191.628 89.0862 190.636 88.0015C189.64 86.9185 188.167 86.3778 186.215 86.3778C184.911 86.3778 183.73 86.7492 182.667 87.4954C181.605 88.2398 180.773 89.2399 180.174 90.4922C179.57 91.7633 179.262 93.1522 179.274 94.5565V109.186H174.905V93.2869C174.905 90.848 174.407 89.0862 173.413 88.0015C172.418 86.9185 170.963 86.3778 169.044 86.3778C167.74 86.3778 166.559 86.7578 165.497 87.5195C164.434 88.2813 163.602 89.2986 163.003 90.5682C162.401 91.849 162.093 93.246 162.103 94.6584V109.186H157.734L157.733 83.2774ZM200.38 83.2774H204.544V87.0877H204.748C205.503 85.7681 206.636 84.6661 208.142 83.7869C209.584 82.9243 211.237 82.4674 212.923 82.4655C214.842 82.4655 216.512 82.9233 217.935 83.837C219.319 84.7067 220.39 85.9874 220.993 87.4954C221.894 85.9948 223.158 84.738 224.67 83.837C226.195 82.9215 227.969 82.4655 229.991 82.4655C233.007 82.4655 235.277 83.3706 236.802 85.1825C238.328 86.9962 239.092 89.4593 239.092 92.5753V109.186H234.772V93.2351C234.772 90.8307 234.275 89.0862 233.281 88.0015C232.287 86.9185 230.814 86.3778 228.86 86.3778C227.558 86.3778 226.375 86.7492 225.313 87.4954C224.25 88.2398 223.418 89.2399 222.819 90.4922C222.215 91.7633 221.908 93.1522 221.919 94.5565V109.186H217.55V93.2869C217.55 90.848 217.052 89.0862 216.06 88.0015C215.064 86.9185 213.608 86.3778 211.689 86.3778C210.387 86.3778 209.204 86.7578 208.142 87.5195C207.08 88.2813 206.248 89.2986 205.648 90.5682C205.046 91.849 204.739 93.246 204.748 94.6584V109.186H200.38V83.2774ZM251.147 110C249.229 110 247.514 109.627 246.006 108.882C244.498 108.138 243.333 107.112 242.511 105.808C241.69 104.506 241.278 103.024 241.278 101.364C241.278 98.6207 242.323 96.4789 244.413 94.9382C246.504 93.3957 249.143 92.6254 252.329 92.6254C253.907 92.6254 255.373 92.7946 256.725 93.1332C258.08 93.4717 259.116 93.8621 259.836 94.3025V92.7273C259.836 90.7962 259.151 89.2468 257.779 88.0792C256.409 86.9098 254.677 86.326 252.587 86.326C251.177 86.3112 249.783 86.6336 248.526 87.2656C247.328 87.8602 246.315 88.7645 245.596 89.8825L242.305 87.4418C243.334 85.8838 244.748 84.6644 246.546 83.7852C248.346 82.9043 250.342 82.4638 252.537 82.4638C256.101 82.4638 258.903 83.3862 260.942 85.2326C262.981 87.0774 264 89.5923 264 92.7756V109.185H259.836V105.476H259.631C258.878 106.73 257.748 107.796 256.239 108.677C254.731 109.558 253.033 110 251.147 110ZM251.56 106.19C253.033 106.19 254.403 105.817 255.672 105.072C256.923 104.343 257.967 103.312 258.705 102.075C259.458 100.821 259.836 99.4498 259.836 97.9592C259.014 97.4185 258.001 96.9781 256.802 96.6395C255.564 96.2958 254.284 96.1248 252.998 96.1317C250.599 96.1317 248.792 96.6223 247.575 97.6051C246.357 98.5862 245.749 99.8557 245.749 101.414C245.749 102.837 246.298 103.987 247.396 104.868C248.491 105.749 249.88 106.19 251.56 106.19Z" fill="black"/>
<defs>
<linearGradient id="paint0_linear_2_638" x1="32.75" y1="115.55" x2="79.225" y2="73.625" gradientUnits="userSpaceOnUse">
<stop stop-color="#446EFF"/>
<stop offset="0.36661" stop-color="#2E96FF"/>
<stop offset="0.83221" stop-color="#B1C5FF"/>
</linearGradient>
<clipPath id="clip0_2_638">
<rect width="65" height="65" fill="white" transform="translate(16 59)"/>
</clipPath>
</defs>
</svg>
