<svg width="120" height="120" viewBox="0 0 120 120" fill="none" xmlns="http://www.w3.org/2000/svg">
<rect width="120" height="120" fill="white"/>
<path d="M15.6805 58.3434C15.6805 42.8566 24.0762 28.5517 37.6994 20.806C44.4131 17.0004 51.9986 15 59.7159 15C67.4332 15 75.0187 17.0004 81.7324 20.806C95.3556 28.5517 103.751 42.8566 103.751 58.3434C103.751 82.2805 84.037 101.686 59.7182 101.686C35.3993 101.686 15.6805 82.2759 15.6805 58.3434Z" fill="#FF9D0B"/>
<path d="M59.7182 97.2124C81.5233 97.2124 99.2057 79.8074 99.2057 58.3431C99.2057 36.8789 81.5233 19.4784 59.7182 19.4784C37.9085 19.4784 20.2261 36.8789 20.2261 58.3431C20.2261 79.8074 37.9085 97.2079 59.7182 97.2079V97.2124Z" fill="#FFD21E"/>
<path d="M59.4318 74.6075C70.6003 74.6075 74.205 64.8073 74.205 59.7753C74.205 57.157 72.4186 57.9843 69.5548 59.3707C66.9093 60.6571 63.3501 62.439 59.4455 62.439C51.2725 62.439 44.6723 54.7433 44.6723 59.7753C44.6723 64.8073 48.2633 74.6075 59.4455 74.6075H59.4318Z" fill="#FF323D"/>
<path d="M72.5458 47.7748C74.0004 48.2657 74.5686 51.1976 76.0323 50.4339C78.0641 49.3748 79.246 47.2156 79.0278 44.961C78.9146 43.8528 78.4742 42.8032 77.7627 41.946C77.0512 41.0888 76.1007 40.4626 75.0322 40.1473C73.9597 39.8227 72.8157 39.8194 71.7413 40.1376C70.6669 40.4559 69.7093 41.0819 68.9866 41.9382C67.5229 43.6837 67.2729 46.1202 68.3502 48.1202C69.0457 49.4066 71.2503 47.3157 72.5549 47.7611L72.5458 47.7748ZM45.7859 47.7748C44.3314 48.2657 43.7495 51.1976 42.2949 50.4339C41.3075 49.9239 40.4951 49.1303 39.9621 48.1551C39.4292 47.1798 39.1999 46.0675 39.3039 44.961C39.5221 42.711 41.0994 40.8109 43.295 40.1473C44.3675 39.8227 45.5115 39.8194 46.5859 40.1376C47.6603 40.4559 48.6179 41.0819 49.3406 41.9382C50.8043 43.6837 51.0543 46.1202 49.977 48.1202C49.286 49.4066 47.0678 47.3157 45.7723 47.7611L45.7859 47.7748ZM50.877 72.0482C51.4827 70.8421 52.33 69.7735 53.3661 68.9087C54.4022 68.0438 55.605 67.4012 56.8999 67.0208C57.2181 66.9299 57.5545 67.2935 57.8954 67.7981L58.7681 69.189C59.0818 69.6436 59.4 69.9845 59.7182 69.9845C60.0545 69.9845 60.4 69.6481 60.7318 69.2026L61.6637 67.8299C62.0273 67.3299 62.3773 66.9753 62.7273 67.0799C65.1683 67.8435 67.2093 69.5163 68.4093 71.7436C72.6458 68.4526 74.2049 63.0843 74.2049 59.7751C74.2049 57.4659 72.814 57.8387 70.523 58.9114L67.7229 60.2569C65.3592 61.3479 62.5046 62.4388 59.4318 62.4388C56.359 62.4388 53.5134 61.3479 51.1452 60.2569L48.4678 58.9705C46.1041 57.8432 44.6586 57.4159 44.6586 59.7751C44.6586 62.9707 46.1132 68.0981 50.0542 71.4118L50.8724 72.0482H50.877Z" fill="#3A3B45"/>
<path d="M86.4189 53.0295C86.9005 53.0337 87.3781 52.943 87.8245 52.7624C88.2709 52.5819 88.6773 52.3151 89.0206 51.9774C89.3638 51.6397 89.6371 51.2376 89.8248 50.7941C90.0125 50.3507 90.1109 49.8746 90.1145 49.3931C90.1145 47.3885 88.4599 45.7566 86.4189 45.7566C85.9378 45.753 85.4607 45.8442 85.0148 46.025C84.5689 46.2058 84.163 46.4727 83.8203 46.8104C83.4775 47.1481 83.2046 47.5499 83.0172 47.9931C82.8298 48.4362 82.7315 48.9119 82.7279 49.3931C82.7279 51.4022 84.3825 53.0295 86.4189 53.0295ZM33.5811 53.0295C34.0622 53.0331 34.5393 52.9419 34.9852 52.7611C35.4311 52.5803 35.837 52.3135 36.1797 51.9758C36.5225 51.6381 36.7954 51.2362 36.9828 50.7931C37.1702 50.3499 37.2685 49.8742 37.2721 49.3931C37.2721 47.3885 35.6175 45.7566 33.5811 45.7566C33.0995 45.7524 32.6219 45.8432 32.1755 46.0237C31.7291 46.2043 31.3227 46.471 30.9794 46.8088C30.6362 47.1465 30.3629 47.5486 30.1752 47.992C29.9875 48.4355 29.8891 48.9116 29.8855 49.3931C29.8855 51.4022 31.5401 53.0295 33.5811 53.0295ZM25.9763 65.3344C24.1353 65.3344 22.4989 66.0708 21.3534 67.4254C20.3763 68.6089 19.8412 70.0954 19.8398 71.6301C19.1237 71.4179 18.3819 71.3047 17.6351 71.2937C15.876 71.2937 14.285 71.9574 13.1577 73.1529C12.1562 74.17 11.5228 75.4924 11.3581 76.9104C11.1934 78.3284 11.5068 79.7607 12.2486 80.9803C11.2471 81.7837 10.5339 82.8909 10.2167 84.135C9.94401 85.1441 9.67128 87.2714 11.1259 89.4351C10.5801 90.257 10.2546 91.2053 10.1806 92.1891C10.1065 93.1729 10.2865 94.1592 10.7031 95.0535C11.785 97.4763 14.385 99.4082 19.2943 101.44L20.3852 101.876C23.8762 103.24 27.0809 104.113 27.1036 104.122C31.1492 105.227 35.322 105.827 39.5221 105.913C46.1814 105.913 50.9452 103.899 53.6816 99.94C57.909 93.8398 57.509 88.2351 52.4361 82.835L51.7498 82.1349C48.6042 79.0257 46.4996 74.4529 46.0678 73.4438C45.1814 70.4664 42.8404 67.1572 38.9676 67.1572C36.8766 67.189 34.9266 68.2164 33.7402 69.9073C32.6038 68.4982 31.4901 67.3936 30.4901 66.7527C29.15 65.8623 27.5848 65.3705 25.9763 65.3344ZM94.0237 65.3344C95.8647 65.3344 97.5102 66.0708 98.6466 67.4254C99.6284 68.6164 100.16 70.0982 100.16 71.6301C100.878 71.4164 101.624 71.3073 102.374 71.2937C104.138 71.2937 105.729 71.9574 106.851 73.1529C107.853 74.17 108.486 75.4924 108.651 76.9104C108.816 78.3284 108.502 79.7607 107.76 80.9803C108.76 81.7895 109.474 82.8986 109.783 84.135C110.056 85.1441 110.329 87.2714 108.874 89.4351C109.983 91.117 110.142 93.2353 109.297 95.0535C108.215 97.4763 105.615 99.4082 100.71 101.44L99.6239 101.876C96.1238 103.24 92.9191 104.113 92.8964 104.122C88.8508 105.227 84.678 105.827 80.4779 105.913C73.8186 105.913 69.0548 103.899 66.3184 99.94C62.091 93.8398 62.491 88.2351 67.5638 82.835L68.2502 82.1349C71.4094 79.0257 73.5095 74.4529 73.9413 73.4438C74.8277 70.4664 77.1596 67.1572 81.0324 67.1572C83.1234 67.189 85.0734 68.2164 86.2598 69.9073C87.3962 68.4982 88.5099 67.3936 89.5236 66.7527C90.6327 66.0163 91.9009 65.5481 93.2237 65.389L94.0237 65.3344Z" fill="#FF9D0B"/>
<path d="M49.9315 97.4221C53.0589 92.9038 52.8316 89.5128 48.5451 85.299C44.2495 81.0807 41.7495 74.8987 41.7495 74.8987C41.7495 74.8987 40.8176 71.3168 38.6948 71.6532C36.5675 71.9896 35.0129 77.3352 39.4676 80.6125C43.9086 83.8899 38.5812 86.1127 36.863 83.0399C35.1584 79.9625 30.4764 72.0577 28.0445 70.535C25.6263 69.0258 23.9217 69.8622 24.4899 72.9941C25.0581 76.117 35.2038 83.6763 34.2174 85.299C33.2265 86.9445 29.7491 83.3899 29.7491 83.3899C29.7491 83.3899 18.8761 73.6396 16.4987 76.1851C14.135 78.7216 18.3079 80.8489 24.2262 84.3808C30.1719 87.9173 30.6355 88.8582 29.7946 90.1992C28.9446 91.5401 15.8396 80.6534 14.6123 85.2763C13.385 89.8719 27.99 91.2037 27.09 94.3947C26.1808 97.5767 16.7942 88.3764 14.8851 91.9538C12.9532 95.5448 28.1263 99.7631 28.2491 99.7949C33.1356 101.049 45.5814 103.7 49.9315 97.4221ZM70.0776 97.4221C66.9547 92.9038 67.1684 89.5128 71.464 85.299C75.7504 81.0807 78.2505 74.8987 78.2505 74.8987C78.2505 74.8987 79.1824 71.3168 81.3188 71.6532C83.4325 71.9896 84.9871 77.3352 80.546 80.6125C76.0914 83.8899 81.4324 86.1127 83.137 83.0399C84.8507 79.9625 89.5327 72.0577 91.9555 70.535C94.3737 69.0258 96.0919 69.8622 95.5101 72.9941C94.9419 76.117 84.8052 83.6763 85.7962 85.299C86.7735 86.9445 90.2509 83.3899 90.2509 83.3899C90.2509 83.3899 101.138 73.6396 103.501 76.1851C105.865 78.7216 101.706 80.8489 95.7737 84.3808C89.8281 87.9173 89.3736 88.8582 90.2054 90.1992C91.0554 91.5401 104.16 80.6534 105.388 85.2763C106.615 89.8719 92.0236 91.2037 92.9191 94.3947C93.8282 97.5767 103.206 88.3764 105.124 91.9538C107.047 95.5448 91.8873 99.7631 91.76 99.7949C86.8644 101.049 74.4186 103.7 70.0776 97.4221Z" fill="#FFD21E"/>
</svg>
