<svg width="280" height="184" viewBox="0 0 280 184" fill="none" xmlns="http://www.w3.org/2000/svg">
<rect width="280" height="184" fill="white"/>
<g clip-path="url(#clip0_5659_4763)">
<path d="M87.4533 121.051H55.123V125.695H87.4533V121.051Z" fill="#1F70C1"/>
<path d="M87.4533 112.181H55.123V116.826H87.4533V112.181Z" fill="#1F70C1"/>
<path d="M78.214 103.32H64.3462V107.965H78.214V103.32Z" fill="#1F70C1"/>
<path d="M78.214 94.46H64.3462V99.1046H78.214V94.46Z" fill="#1F70C1"/>
<path d="M78.214 85.5977H64.3462V90.2423H78.214V85.5977Z" fill="#1F70C1"/>
<path d="M78.214 76.7222H64.3462V81.3668H78.214V76.7222Z" fill="#1F70C1"/>
<path d="M87.4533 67.8604H55.123V72.5049H87.4533V67.8604Z" fill="#1F70C1"/>
<path d="M87.4533 59H55.123V63.6446H87.4533V59Z" fill="#1F70C1"/>
<path d="M92.0659 125.654L126.505 125.703C131.116 125.703 135.283 123.924 138.396 121.059H92.0664L92.0659 125.654Z" fill="#1F70C1"/>
<path d="M92.0659 116.826H141.789C142.629 115.393 143.255 113.828 143.634 112.181H92.0666L92.0659 116.826Z" fill="#1F70C1"/>
<path d="M115.156 103.32H101.305V107.965H115.156V103.32Z" fill="#1F70C1"/>
<path d="M129.024 103.32V107.965H144.143C144.143 106.367 143.929 104.803 143.518 103.32H129.024Z" fill="#1F70C1"/>
<path d="M137.918 94.46H101.305V99.1046H141.788C140.734 97.3257 139.432 95.7611 137.917 94.46H137.918Z" fill="#1F70C1"/>
<path d="M101.305 85.5977V90.2423H137.918C139.467 88.9411 140.768 87.3764 141.789 85.5977H101.305Z" fill="#1F70C1"/>
<path d="M115.156 76.7222H101.305V81.3668H115.156V76.7222Z" fill="#1F70C1"/>
<path d="M129.024 81.3668H143.518C143.929 79.8845 144.143 78.3198 144.143 76.7222H129.024V81.3668Z" fill="#1F70C1"/>
<path d="M141.789 67.8604H92.0659V72.5049H143.633C143.205 70.8579 142.579 69.2934 141.789 67.8604H141.789Z" fill="#1F70C1"/>
<path d="M126.505 59H92.0659V63.6446H138.381C135.284 60.7787 131.084 59 126.506 59H126.505Z" fill="#1F70C1"/>
<path d="M147.504 72.5049H178.616L177.018 67.8604H147.504V72.5049Z" fill="#1F70C1"/>
<path d="M147.504 63.6446H175.553L173.955 59H147.504V63.6446Z" fill="#1F70C1"/>
<path d="M198.297 125.706V121.062H221.405V125.706H198.297Z" fill="#1F70C1"/>
<path d="M198.297 116.825V112.181H221.405V116.825H198.297Z" fill="#1F70C1"/>
<path d="M184.446 89.3523L183.146 85.5977H170.595H156.727V90.2419H170.595V85.9768L172.062 90.2419H196.833L198.298 85.9768V90.2419H212.166V85.5977H198.298H185.748L184.446 89.3523Z" fill="#1F70C1"/>
<path d="M212.165 76.7222H188.811L187.213 81.3664H212.165V76.7222Z" fill="#1F70C1"/>
<path d="M221.406 63.6446V59H194.955L193.357 63.6446H221.406Z" fill="#1F70C1"/>
<path d="M182.851 121.06L184.447 125.654L186.045 121.06H182.851Z" fill="#1F70C1"/>
<path d="M179.752 112.181L181.384 116.825H187.511L189.157 112.181H179.752Z" fill="#1F70C1"/>
<path d="M176.64 103.32L178.271 107.965H190.624L192.254 103.32H176.64Z" fill="#1F70C1"/>
<path d="M175.173 99.1042H193.735L195.317 94.46H173.575L175.173 99.1042Z" fill="#1F70C1"/>
<path d="M156.727 81.3664H181.679L180.083 76.7222H156.727V81.3664Z" fill="#1F70C1"/>
<path d="M221.405 67.8604H191.874L190.294 72.5049H221.405V67.8604Z" fill="#1F70C1"/>
<path d="M170.613 121.06H147.504V125.704H170.613V121.06Z" fill="#1F70C1"/>
<path d="M170.613 112.181H147.504V116.826H170.613V112.181Z" fill="#1F70C1"/>
<path d="M170.595 103.32H156.727V107.965H170.595V103.32Z" fill="#1F70C1"/>
<path d="M170.595 94.46H156.727V99.1046H170.595V94.46Z" fill="#1F70C1"/>
<path d="M212.165 94.46H198.297V99.1046H212.165V94.46Z" fill="#1F70C1"/>
<path d="M212.165 103.32H198.297V107.965H212.165V103.32Z" fill="#1F70C1"/>
<path d="M230.052 118.386C229.082 118.386 228.152 118.772 227.466 119.458C226.779 120.144 226.394 121.074 226.394 122.044C226.394 123.015 226.779 123.945 227.466 124.631C228.152 125.317 229.082 125.703 230.052 125.703C231.022 125.703 231.953 125.317 232.639 124.631C233.325 123.945 233.71 123.015 233.71 122.044C233.71 121.074 233.325 120.144 232.639 119.458C231.953 118.772 231.022 118.386 230.052 118.386ZM230.052 119.051C230.846 119.051 231.607 119.367 232.169 119.928C232.73 120.489 233.045 121.251 233.045 122.044C233.045 122.838 232.73 123.6 232.169 124.161C231.607 124.722 230.846 125.038 230.052 125.038C229.258 125.038 228.497 124.722 227.936 124.161C227.375 123.6 227.059 122.838 227.059 122.044C227.059 121.251 227.375 120.489 227.936 119.928C228.497 119.367 229.258 119.051 230.052 119.051ZM228.498 120.181V123.908H229.405V122.623H229.92L230.612 123.908H231.607L230.771 122.481C231.181 122.321 231.447 121.946 231.447 121.359C231.447 120.68 231.021 120.181 230.186 120.181H228.498ZM229.405 120.894H230.079C230.363 120.894 230.523 121.019 230.523 121.286V121.554C230.523 121.821 230.363 121.946 230.079 121.946H229.405V120.894Z" fill="#1F70C1"/>
</g>
<defs>
<clipPath id="clip0_5659_4763">
<rect width="178.753" height="66.7041" fill="white" transform="translate(55.123 59)"/>
</clipPath>
</defs>
</svg>
