<svg width="32" height="32" viewBox="0 0 32 32" fill="none" xmlns="http://www.w3.org/2000/svg">
<rect width="32" height="32" fill="white"/>
<g clip-path="url(#clip0_5659_4809)">
<path d="M9.01866 20.0117H4.5332V20.6561H9.01866V20.0117Z" fill="#1F70C1"/>
<path d="M9.01866 18.7812H4.5332V19.4256H9.01866V18.7812Z" fill="#1F70C1"/>
<path d="M7.73698 17.5518H5.81299V18.1961H7.73698V17.5518Z" fill="#1F70C1"/>
<path d="M7.73698 16.3228H5.81299V16.9671H7.73698V16.3228Z" fill="#1F70C1"/>
<path d="M7.73698 15.0933H5.81299V15.7376H7.73698V15.0933Z" fill="#1F70C1"/>
<path d="M7.73698 13.8618H5.81299V14.5062H7.73698V13.8618Z" fill="#1F70C1"/>
<path d="M9.01866 12.6323H4.5332V13.2767H9.01866V12.6323Z" fill="#1F70C1"/>
<path d="M9.01866 11.4028H4.5332V12.0472H9.01866V11.4028Z" fill="#1F70C1"/>
<path d="M9.65869 20.6502L14.4367 20.6571C15.0765 20.6571 15.6546 20.4103 16.0865 20.0127H9.65876L9.65869 20.6502Z" fill="#1F70C1"/>
<path d="M9.65869 19.4256H16.5572C16.6738 19.2268 16.7606 19.0098 16.8132 18.7812H9.65878L9.65869 19.4256Z" fill="#1F70C1"/>
<path d="M12.8621 17.5518H10.9404V18.1961H12.8621V17.5518Z" fill="#1F70C1"/>
<path d="M14.7861 17.5518V18.1961H16.8838C16.8838 17.9745 16.8541 17.7574 16.797 17.5518H14.7861Z" fill="#1F70C1"/>
<path d="M16.0202 16.3228H10.9404V16.9671H16.557C16.4107 16.7203 16.2302 16.5033 16.02 16.3228H16.0202Z" fill="#1F70C1"/>
<path d="M10.9404 15.0933V15.7376H16.0202C16.235 15.5571 16.4155 15.34 16.5572 15.0933H10.9404Z" fill="#1F70C1"/>
<path d="M12.8621 13.8618H10.9404V14.5062H12.8621V13.8618Z" fill="#1F70C1"/>
<path d="M14.7861 14.5062H16.797C16.8541 14.3006 16.8838 14.0835 16.8838 13.8618H14.7861V14.5062Z" fill="#1F70C1"/>
<path d="M16.5572 12.6323H9.65869V13.2767H16.8131C16.7537 13.0482 16.6668 12.8311 16.5572 12.6323H16.5572Z" fill="#1F70C1"/>
<path d="M14.4367 11.4028H9.65869V12.0472H16.0843C15.6547 11.6496 15.0721 11.4028 14.4368 11.4028H14.4367Z" fill="#1F70C1"/>
<path d="M17.3501 13.2767H21.6665L21.4448 12.6323H17.3501V13.2767Z" fill="#1F70C1"/>
<path d="M17.3501 12.0472H21.2415L21.0198 11.4028H17.3501V12.0472Z" fill="#1F70C1"/>
<path d="M24.397 20.6575V20.0132H27.603V20.6575H24.397Z" fill="#1F70C1"/>
<path d="M24.397 19.4256V18.7812H27.603V19.4256H24.397Z" fill="#1F70C1"/>
<path d="M22.4756 15.6142L22.2952 15.0933H20.5539H18.6299V15.7376H20.5539V15.1459L20.7574 15.7376H24.1941L24.3973 15.1459V15.7376H26.3213V15.0933H24.3973H22.6562L22.4756 15.6142Z" fill="#1F70C1"/>
<path d="M26.3212 13.8618H23.0811L22.8594 14.5062H26.3212V13.8618Z" fill="#1F70C1"/>
<path d="M27.6033 12.0472V11.4028H23.9336L23.7119 12.0472H27.6033Z" fill="#1F70C1"/>
<path d="M22.2539 20.0132L22.4754 20.6506L22.6971 20.0132H22.2539Z" fill="#1F70C1"/>
<path d="M21.8242 18.7812L22.0505 19.4256H22.9007L23.129 18.7812H21.8242Z" fill="#1F70C1"/>
<path d="M21.3921 17.5518L21.6184 18.1961H23.3323L23.5583 17.5518H21.3921Z" fill="#1F70C1"/>
<path d="M21.189 16.9671H23.7643L23.9837 16.3228H20.9673L21.189 16.9671Z" fill="#1F70C1"/>
<path d="M18.6299 14.5062H22.0917L21.8703 13.8618H18.6299V14.5062Z" fill="#1F70C1"/>
<path d="M27.603 12.6323H23.5058L23.2866 13.2767H27.603V12.6323Z" fill="#1F70C1"/>
<path d="M20.5561 20.0132H17.3501V20.6576H20.5561V20.0132Z" fill="#1F70C1"/>
<path d="M20.5561 18.7812H17.3501V19.4256H20.5561V18.7812Z" fill="#1F70C1"/>
<path d="M20.5539 17.5518H18.6299V18.1961H20.5539V17.5518Z" fill="#1F70C1"/>
<path d="M20.5539 16.3228H18.6299V16.9671H20.5539V16.3228Z" fill="#1F70C1"/>
<path d="M26.321 16.3228H24.397V16.9671H26.321V16.3228Z" fill="#1F70C1"/>
<path d="M26.321 17.5518H24.397V18.1961H26.321V17.5518Z" fill="#1F70C1"/>
<path d="M28.8029 19.6421C28.6683 19.6421 28.5392 19.6956 28.4441 19.7907C28.3489 19.8859 28.2954 20.015 28.2954 20.1496C28.2954 20.2842 28.3489 20.4133 28.4441 20.5085C28.5392 20.6037 28.6683 20.6572 28.8029 20.6572C28.9376 20.6572 29.0666 20.6037 29.1618 20.5085C29.257 20.4133 29.3105 20.2842 29.3105 20.1496C29.3105 20.015 29.257 19.8859 29.1618 19.7907C29.0666 19.6956 28.9376 19.6421 28.8029 19.6421ZM28.8029 19.7344C28.9131 19.7344 29.0187 19.7781 29.0966 19.856C29.1745 19.9339 29.2182 20.0395 29.2182 20.1496C29.2182 20.2598 29.1745 20.3654 29.0966 20.4433C29.0187 20.5211 28.9131 20.5649 28.8029 20.5649C28.6928 20.5649 28.5872 20.5211 28.5093 20.4433C28.4314 20.3654 28.3877 20.2598 28.3877 20.1496C28.3877 20.0395 28.4314 19.9339 28.5093 19.856C28.5872 19.7781 28.6928 19.7344 28.8029 19.7344ZM28.5873 19.8911V20.4082H28.7131V20.2298H28.7846L28.8806 20.4082H29.0186L28.9027 20.2102C28.9595 20.1879 28.9964 20.136 28.9964 20.0545C28.9964 19.9603 28.9374 19.8911 28.8215 19.8911H28.5873ZM28.7131 19.99H28.8066C28.8461 19.99 28.8682 20.0073 28.8682 20.0444V20.0816C28.8682 20.1186 28.8461 20.136 28.8066 20.136H28.7131V19.99Z" fill="#1F70C1"/>
</g>
<defs>
<clipPath id="clip0_5659_4809">
<rect width="24.8" height="9.25444" fill="white" transform="translate(4.5332 11.4028)"/>
</clipPath>
</defs>
</svg>
