<svg width="280" height="184" viewBox="0 0 280 184" fill="none" xmlns="http://www.w3.org/2000/svg">
<rect width="280" height="184" fill="white"/>
<g clip-path="url(#clip0_4_1114)">
<path d="M26.2498 93.467C26.2141 92.9428 26.1445 92.4183 26.1507 91.8946C26.1598 91.1202 26.3276 90.3722 26.6978 89.6814C26.9678 89.1775 27.3179 88.7335 27.7446 88.3553C28.1666 87.9811 28.6285 87.659 29.1433 87.4238C29.5352 87.2448 29.9415 87.0993 30.3745 87.0591C30.6785 87.031 30.986 86.9944 31.289 87.0119C31.882 87.046 32.4508 87.1986 32.9946 87.4431C33.4127 87.631 33.8054 87.8592 34.1698 88.1373C34.5043 88.3927 34.7982 88.6874 35.0491 89.0257C35.3511 89.4328 35.5858 89.8761 35.7181 90.3647C35.8073 90.6945 35.8838 91.0322 35.9183 91.3712C35.9626 91.8064 35.9606 92.2465 35.9758 92.6846C35.9868 93 35.9816 93.3165 36.0046 93.6309C36.0478 94.2212 36.1092 94.809 36.3084 95.3737C36.4468 95.766 36.6301 96.1344 36.845 96.4982L36.3744 97.0215C36.3348 97.0655 36.3024 97.1158 36.2649 97.1617L35.7674 97.7675C35.4107 97.6273 35.0609 97.4637 34.6951 97.3534C34.3444 97.2477 33.9796 97.1793 33.6163 97.1275C33.2236 97.0716 32.826 97.0381 32.4295 97.0233C31.8227 97.0007 31.215 96.9961 30.6077 96.9968C30.3282 96.9972 30.0485 97.0255 29.7693 97.0464C29.6312 97.0567 29.4941 97.0787 29.3454 97.0844C29.2744 96.8868 29.2094 96.7018 29.1558 96.5134C29.0758 96.2323 29.0445 95.9328 28.817 95.713C28.7501 95.6483 28.6865 95.5755 28.6398 95.4956C28.476 95.2154 28.3186 94.9314 28.1618 94.6472C28.0542 94.4522 27.9452 94.2771 27.7237 94.1694C27.4575 94.04 27.2208 93.8505 26.9692 93.6903C26.8875 93.6383 26.8041 93.5793 26.713 93.554C26.5622 93.512 26.4046 93.4947 26.2499 93.467L26.2498 93.467Z" fill="#E95A0F"/>
<path d="M54.0732 96.9899C53.7637 96.991 53.4541 96.9921 53.1327 96.9803C53.1291 96.7606 53.1386 96.5538 53.1443 96.3469C53.1452 96.3165 53.1362 96.27 53.1165 96.2594C53.0958 96.2482 53.0553 96.2681 53.0259 96.2802C53.0039 96.2893 52.9857 96.3077 52.9335 96.3451C52.9274 96.2599 52.9164 96.2013 52.9202 96.1436C52.9327 95.9494 52.9771 95.7532 52.9602 95.5621C52.934 95.2673 52.9961 95.1865 52.6427 95.1909C52.5451 95.1922 52.5496 95.1188 52.557 95.0537C52.5698 94.9399 52.5943 94.8271 52.6025 94.7131C52.6105 94.6019 52.6043 94.4898 52.6043 94.382C52.5385 94.37 52.4929 94.3598 52.4467 94.3537C52.3331 94.3386 52.291 94.2958 52.3163 94.1655C52.3478 94.0039 52.3382 93.8344 52.3492 93.6685C52.3541 93.5949 52.3242 93.5534 52.2515 93.5462C52.1456 93.5357 52.0393 93.519 51.9335 93.5211C51.8135 93.5235 51.7999 93.4626 51.8112 93.3663C51.8301 93.206 51.8435 93.045 51.8595 92.8843L51.8879 92.6141C51.7359 92.6061 51.6009 92.5934 51.4661 92.5941C51.3806 92.5945 51.3329 92.558 51.3228 92.4808C51.2926 92.2499 51.259 92.0189 51.2455 91.7868C51.2389 91.6714 51.1957 91.6399 51.091 91.6382C50.852 91.6341 50.6131 91.6229 50.3742 91.6136C50.1878 91.6064 50.1133 91.5425 50.0833 91.3588C50.0641 91.241 50.0134 91.158 49.8831 91.1475C49.6839 91.1315 49.4838 91.122 49.2857 91.097C49.0971 91.0733 48.9102 91.0349 48.7232 90.9998C48.5939 90.9756 48.4657 90.9461 48.3369 90.919C48.4532 90.3281 48.6747 89.7765 49.0136 89.2821C49.4783 88.6039 50.0803 88.066 50.7924 87.6527C51.2004 87.416 51.6301 87.2337 52.0892 87.1225C52.518 87.0186 52.9546 86.9753 53.3924 87.0096C54.2505 87.0767 55.0357 87.3688 55.7714 87.8115C56.1798 88.0572 56.5499 88.3485 56.8595 88.7062C57.0683 88.9475 57.2508 89.2154 57.4186 89.4877C57.6959 89.9378 57.8522 90.4382 57.9491 90.9548C57.995 91.1995 58.0216 91.4495 58.0346 91.6982C58.0541 92.0735 58.054 92.4498 58.0513 92.8389L56.7244 93.354C56.5241 93.4328 56.3164 93.4924 56.1644 93.6724C56.0426 93.8165 55.89 93.9379 55.7384 94.0527C55.4836 94.2456 55.2638 94.4642 55.0927 94.7382C55.0069 94.8756 54.8894 95.0055 54.7581 95.0996C54.4658 95.3092 54.3103 95.588 54.2532 95.9343L54.0733 96.99L54.0732 96.9899Z" fill="#ED6D7B"/>
<path d="M24.189 101.217C24.1709 101.672 24.1675 102.129 24.1309 102.583C24.0872 103.125 23.9689 103.652 23.7501 104.155C23.5184 104.688 23.1917 105.151 22.7591 105.535C22.3453 105.901 21.8684 106.157 21.3347 106.318C20.7763 106.487 20.2068 106.527 19.6354 106.486C19.0492 106.444 18.5058 106.246 18.0203 105.902C17.4997 105.532 17.1053 105.054 16.7827 104.509C16.5359 104.092 16.3681 103.646 16.2884 103.17C16.2282 102.811 16.229 102.449 16.278 102.084C16.3457 101.581 16.5103 101.114 16.7405 100.667C17.0395 100.086 17.4437 99.5903 17.9859 99.2222C18.3932 98.9457 18.8471 98.7671 19.336 98.6956C19.5617 98.6626 19.7915 98.6533 20.0199 98.6427C20.3225 98.6288 20.6257 98.6283 20.9283 98.6142C21.1483 98.6039 21.3677 98.5809 21.6026 98.571C21.6373 98.6166 21.6603 98.6534 21.6756 98.6931C21.7973 99.0087 21.9478 99.3075 22.1553 99.5776C22.3548 99.8372 22.5371 100.11 22.7397 100.367C22.8405 100.495 22.9551 100.623 23.09 100.711C23.2885 100.839 23.508 100.937 23.7237 101.037C23.8743 101.107 24.0336 101.158 24.189 101.217Z" fill="#EC663E"/>
<path d="M49.0835 81.6513C49.1812 80.8854 49.4394 80.188 49.9263 79.577C50.3469 79.0492 50.8534 78.6374 51.4631 78.3513C51.8406 78.1742 52.2346 78.0509 52.6526 78.0231C52.9117 78.0059 53.1736 77.9824 53.4314 78.0009C53.8587 78.0316 54.2718 78.1402 54.6645 78.3168C55.1636 78.5414 55.6025 78.8515 55.9666 79.2604C56.36 79.7022 56.6182 80.2175 56.7772 80.7866C56.9164 81.2846 56.9397 81.7947 56.8983 82.3009C56.8373 83.0486 56.5937 83.7405 56.1145 84.3316C55.8439 84.6654 55.5357 84.962 55.1573 85.1978C55.0216 85.0533 54.8997 84.9109 54.783 84.7642C54.6373 84.5809 54.501 84.3901 54.3511 84.2104C54.2335 84.0694 54.1053 83.9365 53.9746 83.8073C53.8822 83.7159 53.7838 83.6281 53.6773 83.5543C53.5476 83.4646 53.4053 83.3933 53.2706 83.3106C53.0528 83.1769 52.8327 83.0617 52.5759 83.0043C52.2625 82.9343 51.9365 82.8864 51.6588 82.6997C51.6219 82.6748 51.5705 82.669 51.5247 82.66C51.1933 82.5949 50.8694 82.5148 50.573 82.3389C50.4389 82.2594 50.2753 82.231 50.1351 82.1596C50.0113 82.0967 49.9092 81.9896 49.7838 81.9318C49.5558 81.8266 49.3175 81.7436 49.0835 81.6513V81.6513Z" fill="#EA580E"/>
<path d="M29.5139 85.4645C29.2703 85.3182 29.0116 85.1918 28.7868 85.0208C28.4554 84.7685 28.1682 84.4653 27.9448 84.1092C27.6546 83.6467 27.4401 83.153 27.381 82.6058C27.3477 82.2981 27.3183 81.9861 27.3328 81.6782C27.354 81.2289 27.4592 80.7936 27.631 80.3729C27.858 79.8168 28.2037 79.3486 28.6495 78.9554C29.1135 78.5463 29.6577 78.2843 30.2546 78.1231C30.7494 77.9895 31.2545 77.9641 31.7572 78.0028C32.37 78.0499 32.93 78.2773 33.4321 78.6334C33.8747 78.9473 34.2478 79.3306 34.5363 79.8078C34.2427 80.0214 33.9536 80.2227 33.6587 80.415C33.2186 80.7018 32.7767 80.984 32.4221 81.381C32.1957 81.6346 31.9793 81.9022 31.7237 82.1234C31.2897 82.4988 31.0094 82.9935 30.6668 83.4367C30.3614 83.8319 30.1349 84.2893 29.8854 84.7259C29.7489 84.9649 29.6369 85.2179 29.5139 85.4645L29.5139 85.4645Z" fill="#F8AB00"/>
<path d="M43.29 106.34C43.1001 106.382 42.912 106.445 42.7198 106.462C42.4233 106.489 42.1235 106.499 41.826 106.49C41.328 106.473 40.8477 106.369 40.3885 106.164C40.0004 105.991 39.6521 105.766 39.3441 105.473C38.726 104.886 38.2616 104.206 38.0694 103.364C38.0322 103.201 38.019 103.03 38.0119 102.862C37.9967 102.504 38.0062 102.144 37.98 101.786C37.9565 101.465 37.8987 101.145 37.8666 100.813C37.9066 100.778 37.9472 100.76 37.9638 100.729C38.0856 100.503 38.2764 100.339 38.4551 100.162C38.6064 100.012 38.7302 99.8335 38.8874 99.6911C39.0675 99.528 39.1927 99.3411 39.2572 99.109L39.4771 98.3369C39.6834 98.3829 39.8886 98.4353 40.0964 98.473C40.3061 98.511 40.5178 98.5397 40.7297 98.5629C40.9473 98.5868 41.1662 98.5992 41.3962 98.6301C41.425 99.0443 41.4366 99.4453 41.4611 99.8455C41.4785 100.13 41.497 100.416 41.5444 100.696C41.6066 101.065 41.6913 101.43 41.778 101.795C41.868 102.173 41.8817 102.565 42.0461 102.932C42.3075 103.516 42.5169 104.123 42.7741 104.708C42.9588 105.129 43.0957 105.557 43.1622 106.011C43.1789 106.125 43.2461 106.231 43.29 106.34L43.29 106.34Z" fill="#EA5227"/>
<path d="M43.3003 106.339C43.246 106.231 43.1788 106.125 43.1622 106.012C43.0956 105.557 42.9587 105.129 42.7741 104.709C42.5169 104.123 42.3075 103.516 42.046 102.932C41.8816 102.565 41.868 102.173 41.7779 101.795C41.6913 101.431 41.6066 101.065 41.5443 100.696C41.497 100.416 41.4785 100.13 41.4611 99.8456C41.4366 99.4454 41.425 99.0444 41.4078 98.6319C41.6284 98.6273 41.8492 98.6445 42.0695 98.6393L43.1473 98.6033C43.1706 98.6997 43.1793 98.7845 43.1957 98.8678L43.4184 99.9671C43.4417 100.073 43.4785 100.184 43.5393 100.272C43.7238 100.538 43.9205 100.796 44.1174 101.053C44.226 101.195 44.3308 101.344 44.4613 101.464C44.6838 101.668 44.9264 101.85 45.1582 102.044C45.4674 102.302 45.7877 102.54 46.1918 102.632C46.1492 102.918 46.1302 103.21 46.0587 103.488C45.9353 103.968 45.74 104.42 45.456 104.832C45.12 105.32 44.7072 105.724 44.1784 105.992C43.9015 106.132 43.6007 106.225 43.3003 106.339L43.3003 106.339Z" fill="#EA5330"/>
<path d="M67.2047 100.211C67.3385 100.437 67.4997 100.652 67.5995 100.893C67.7366 101.223 67.8504 101.567 67.9309 101.916C68.0068 102.244 68.0139 102.583 67.9821 102.925C67.9462 103.311 67.8625 103.679 67.7156 104.033C67.567 104.392 67.3687 104.72 67.1197 105.022C66.7557 105.462 66.3162 105.806 65.8118 106.064C65.4421 106.253 65.0505 106.393 64.6343 106.44C64.3693 106.469 64.1006 106.5 63.8355 106.488C63.2106 106.46 62.6192 106.297 62.0816 105.967C61.9247 105.87 61.7746 105.763 61.6252 105.649C61.7621 105.505 61.8919 105.37 62.0292 105.242L62.9835 104.366C63.0086 104.344 63.0379 104.325 63.0628 104.302C63.2414 104.136 63.4429 103.988 63.5919 103.799C63.8205 103.508 64.1084 103.293 64.3936 103.07C64.5045 102.984 64.6268 102.907 64.7199 102.804C64.8709 102.636 64.9987 102.448 65.1426 102.274C65.3183 102.061 65.496 101.85 65.6817 101.646C65.7864 101.531 65.9133 101.437 66.0228 101.326C66.4038 100.94 66.7634 100.532 67.2047 100.211V100.211Z" fill="#F8AA05"/>
<path d="M48.3352 90.9297C48.4656 90.9462 48.5939 90.9757 48.7231 90.9999C48.9102 91.035 49.097 91.0734 49.2857 91.0972C49.4838 91.1221 49.6838 91.1317 49.8831 91.1476C50.0134 91.1581 50.0641 91.2411 50.0833 91.3589C50.1132 91.5426 50.1878 91.6066 50.3742 91.6137L51.0909 91.6383C51.1957 91.6401 51.2388 91.6715 51.2455 91.7869C51.2589 92.019 51.2926 92.2501 51.3227 92.4809C51.3328 92.5582 51.3806 92.5946 51.466 92.5942C51.6009 92.5935 51.7358 92.6063 51.8878 92.6142L51.8595 92.8844L51.8112 93.3665C51.7999 93.4627 51.8135 93.5236 51.9335 93.5212C52.0393 93.5191 52.1456 93.5358 52.2515 93.5463C52.3241 93.5535 52.354 93.595 52.3491 93.6687C52.3381 93.8346 52.3478 94.004 52.3163 94.1657C52.2909 94.2959 52.333 94.3387 52.4467 94.3538C52.4928 94.36 52.5385 94.3702 52.6042 94.3821C52.6042 94.4899 52.6105 94.6021 52.6025 94.7132C52.5943 94.8272 52.5698 94.94 52.5569 95.0538C52.5496 95.1189 52.545 95.1923 52.6427 95.1911C52.9961 95.1866 52.934 95.2675 52.9601 95.5622C52.9771 95.7533 52.9327 95.9495 52.9201 96.1437C52.9164 96.2014 52.9273 96.2601 52.9335 96.3452C52.9856 96.3079 53.0038 96.2894 53.0259 96.2803C53.0553 96.2682 53.0957 96.2483 53.1164 96.2595C53.1362 96.2701 53.1451 96.3167 53.1443 96.347L53.1207 96.9787C52.832 96.9998 52.5427 97.0018 52.2548 97.0218L51.1233 97.1102C51.0954 97.0328 51.0636 96.9668 51.0642 96.9012C51.0664 96.6619 50.9492 96.4743 50.8302 96.2804C50.7305 96.118 50.6046 95.9444 50.5862 95.7659C50.5586 95.4983 50.4391 95.3556 50.2029 95.2773C50.1747 95.2679 50.1473 95.2556 50.1202 95.2431C49.9277 95.1549 49.7199 95.0908 49.6296 94.8638C49.6063 94.8054 49.5354 94.7666 49.489 94.7165C49.4262 94.6487 49.3702 94.5743 49.3035 94.5109C49.2353 94.4461 49.1657 94.3733 49.0823 94.3364C48.9588 94.2818 48.823 94.2544 48.6917 94.2181L48.2854 94.1112C48.2924 93.7792 48.3297 93.4444 48.2993 93.1159C48.2569 92.6581 48.2103 92.2014 48.2335 91.7425C48.2471 91.4741 48.2989 91.2076 48.3351 90.9297L48.3352 90.9297Z" fill="#ED6876"/>
<path d="M29.5186 85.4726C29.6369 85.2178 29.7489 84.9648 29.8855 84.7258C30.1349 84.2892 30.3614 83.8318 30.6669 83.4366C31.0095 82.9934 31.2897 82.4987 31.7237 82.1233C31.9793 81.9021 32.1957 81.6345 32.4221 81.3809C32.7767 80.9839 33.2187 80.7017 33.6587 80.4149C33.9537 80.2226 34.2427 80.0213 34.5402 79.8154C34.8415 80.2465 35.0477 80.7273 35.1203 81.2497C35.1777 81.6633 35.1778 82.0848 35.1911 82.5148C35.0687 82.5565 34.9521 82.5723 34.8498 82.6192C34.6843 82.6951 34.5359 82.8126 34.3665 82.8751C33.8552 83.0639 33.4963 83.4505 33.1328 83.8221C32.9305 84.0289 32.785 84.2925 32.6209 84.5353C32.5067 84.7041 32.3803 84.8709 32.3027 85.0566C32.1934 85.3186 32.1241 85.5973 32.0377 85.8689C31.7203 85.8703 31.4008 85.8953 31.086 85.8676C30.5645 85.8217 30.0504 85.7243 29.5735 85.4895C29.5588 85.4823 29.5401 85.4834 29.5186 85.4725L29.5186 85.4726Z" fill="#F6A200"/>
<path d="M67.2035 100.201C66.7634 100.532 66.4039 100.94 66.0228 101.326C65.9133 101.436 65.7864 101.531 65.6818 101.645C65.496 101.849 65.3184 102.061 65.1426 102.274C64.9987 102.448 64.8709 102.636 64.7199 102.803C64.6269 102.907 64.5045 102.984 64.3937 103.07C64.1084 103.293 63.8205 103.508 63.5919 103.798C63.4429 103.988 63.2414 104.136 63.0628 104.302C63.0379 104.325 63.0087 104.343 62.9836 104.366L62.0292 105.242C61.8919 105.369 61.7621 105.505 61.621 105.641C61.0701 105.198 60.6566 104.651 60.3693 104.004C60.4595 103.958 60.5525 103.937 60.6222 103.885C60.846 103.716 61.1471 103.668 61.3249 103.429C61.3489 103.396 61.393 103.378 61.4295 103.356C61.8897 103.078 62.3649 102.822 62.8052 102.516C63.0705 102.331 63.285 102.072 63.5153 101.84C63.6136 101.741 63.7067 101.632 63.7804 101.513C64.0966 101.007 64.4093 100.498 64.82 100.06C65.1346 99.7239 65.2642 99.2997 65.4002 98.8774C65.8082 98.9854 66.1678 99.1897 66.4976 99.4458C66.7701 99.6574 67.0069 99.9062 67.2035 100.201L67.2035 100.201Z" fill="#F7A80D"/>
<path d="M54.0851 96.9917C54.1333 96.6381 54.195 96.2865 54.2531 95.9343C54.3102 95.588 54.4657 95.3093 54.758 95.0996C54.8893 95.0055 55.0069 94.8756 55.0927 94.7382C55.2638 94.4643 55.4835 94.2457 55.7384 94.0527C55.8899 93.9379 56.0426 93.8165 56.1643 93.6724C56.3164 93.4924 56.5241 93.4328 56.7243 93.3541L58.0495 92.8508C58.0689 93.1558 58.0665 93.4632 58.0918 93.7682C58.1374 94.3179 58.1967 94.8667 58.3942 95.3888C58.3986 95.4004 58.397 95.4142 58.3937 95.4444C58.2149 95.5508 58.0368 95.6333 57.8676 95.7312C57.7663 95.7899 57.6681 95.8624 57.5878 95.9471C57.4331 96.1104 57.303 96.2978 57.1428 96.4549C56.9087 96.6845 56.8136 96.9874 56.6748 97.268C56.6696 97.2786 56.673 97.2934 56.6723 97.3061C56.4538 97.2619 56.2363 97.2114 56.0165 97.175C55.7671 97.1338 55.5164 97.0956 55.2648 97.0734C54.8762 97.039 54.4863 97.0193 54.0851 96.9917L54.0851 96.9917Z" fill="#EF7A72"/>
<path d="M40.6613 97.1958C40.1377 97.055 39.6627 96.811 39.2273 96.4942C39.0162 96.3406 38.8296 96.1534 38.6363 95.9698C38.7128 95.8796 38.7796 95.7955 38.8577 95.7236C39.04 95.5558 39.1481 95.3397 39.2644 95.1276C39.3914 94.896 39.5307 94.6709 39.6497 94.4353C39.7177 94.3007 39.7924 94.1519 39.7962 94.0077C39.7992 93.888 39.8011 93.7778 39.8625 93.6797C40.0818 93.3291 40.2611 92.9583 40.3458 92.5547C40.4001 92.296 40.5489 92.0714 40.5469 91.7869C40.5452 91.5529 40.6573 91.318 40.7201 91.0838C40.8028 90.7753 40.9098 90.4712 40.9645 90.1579C41.0469 89.6853 41.0966 89.2068 41.1536 88.73L41.2792 87.551C41.4515 87.5584 41.6237 87.5658 41.8079 87.5862C41.8113 87.6752 41.7974 87.7511 41.7951 87.8274L41.7659 88.9239C41.7505 89.2213 41.7127 89.5174 41.6865 89.8143L41.5875 90.9593C41.5634 91.2219 41.5417 91.4853 41.503 91.7459C41.4783 91.9123 41.3882 92.0714 41.4738 92.2449C41.4827 92.263 41.4628 92.2936 41.4622 92.3186C41.4565 92.5739 41.308 92.8187 41.4057 93.0818C41.4084 93.0889 41.4049 93.0987 41.4033 93.1071L41.1859 94.2965C41.1542 94.463 41.1103 94.6272 41.0736 94.7928C41.035 94.9667 41.0066 95.1434 40.9589 95.3148C40.8662 95.6476 40.6845 95.9661 40.814 96.3308C40.8235 96.3575 40.82 96.3914 40.8145 96.4203L40.6613 97.1958H40.6613Z" fill="#E94E3B"/>
<path d="M40.6702 97.2003C40.7126 96.9373 40.7644 96.679 40.8144 96.4203C40.82 96.3914 40.8235 96.3575 40.814 96.3308C40.6845 95.966 40.8661 95.6476 40.9588 95.3147C41.0066 95.1434 41.0349 94.9667 41.0735 94.7928C41.1103 94.6272 41.1542 94.463 41.1859 94.2965L41.4033 93.107C41.4048 93.0986 41.4084 93.0889 41.4057 93.0817C41.308 92.8187 41.4564 92.5739 41.4622 92.3186C41.4628 92.2936 41.4827 92.263 41.4737 92.2448C41.3882 92.0714 41.4783 91.9123 41.503 91.7459C41.5417 91.4852 41.5633 91.2219 41.5875 90.9593L41.6865 89.8143C41.7127 89.5174 41.7505 89.2212 41.7659 88.9238C41.7847 88.5588 41.7845 88.1928 41.7951 87.8273C41.7973 87.7511 41.8112 87.6751 41.8197 87.5879C41.9576 87.5755 42.0955 87.5743 42.2454 87.5858C42.3027 87.9745 42.2932 88.3512 42.2872 88.729C42.2832 88.9881 42.3243 89.2475 42.3327 89.5072C42.3413 89.7707 42.3318 90.0347 42.3357 90.2983C42.3379 90.4454 42.356 90.5923 42.3579 90.7393C42.3593 90.8497 42.3458 90.9603 42.3398 91.0708C42.338 91.1049 42.3363 91.1393 42.339 91.1732L42.4043 92.0588L42.3603 92.9931L42.3112 94.2465C42.3065 94.4551 42.3368 94.6645 42.3321 94.8731C42.3251 95.184 42.2993 95.4944 42.2861 95.8052C42.2834 95.8673 42.2835 95.9412 42.3134 95.991C42.4247 96.1769 42.4282 96.3827 42.4353 96.5857C42.4447 96.8574 42.4375 97.1296 42.4375 97.4016C42.143 97.4686 41.8495 97.4193 41.5595 97.378C41.2638 97.3359 40.9724 97.2639 40.6702 97.2003V97.2003Z" fill="#EA5043"/>
<path d="M26.2479 93.479C26.4046 93.4949 26.5622 93.5122 26.713 93.5541C26.8041 93.5795 26.8875 93.6385 26.9692 93.6905C27.2207 93.8507 27.4575 94.0401 27.7237 94.1696C27.9452 94.2773 28.0542 94.4524 28.1617 94.6473L28.6398 95.4958C28.6865 95.5756 28.7501 95.6485 28.817 95.7131C29.0444 95.933 29.0758 96.2325 29.1558 96.5136C29.2094 96.7019 29.2744 96.887 29.3346 97.0832C28.5759 97.161 27.8166 97.2269 27.0799 97.4751C27.0494 97.4158 27.0337 97.3628 27.0087 97.3146C26.8954 97.0971 26.8361 96.8467 26.624 96.6891C26.5594 96.641 26.4926 96.5909 26.4426 96.529C26.2274 96.263 26.0043 96.0071 25.7019 95.8347C25.8158 95.5392 25.9413 95.2476 26.0405 94.9472C26.1539 94.6036 26.2136 94.2475 26.2206 93.8837C26.2231 93.7526 26.2372 93.6218 26.2479 93.479H26.2479Z" fill="#EB5D19"/>
<path d="M41.2678 87.5493C41.2376 87.9441 41.2004 88.3377 41.1536 88.7301C41.0966 89.2069 41.0469 89.6854 40.9644 90.1579C40.9098 90.4713 40.8028 90.7754 40.7201 91.0838C40.6573 91.3181 40.5452 91.553 40.5469 91.787C40.5489 92.0714 40.4001 92.296 40.3458 92.5547C40.2611 92.9583 40.0818 93.3291 39.8625 93.6798C39.8011 93.7779 39.7992 93.8881 39.7961 94.0078C39.7924 94.152 39.7177 94.3007 39.6496 94.4354C39.5307 94.6709 39.3914 94.8961 39.2644 95.1277C39.1481 95.3398 39.04 95.5559 38.8577 95.7237C38.7795 95.7955 38.7127 95.8797 38.6328 95.9619C38.3188 95.6892 38.0904 95.3533 37.8785 95.0033C37.6827 94.6797 37.5366 94.335 37.4245 93.9641C37.7669 93.7867 38.0905 93.6068 38.3335 93.3124C38.3519 93.29 38.3833 93.2786 38.4032 93.2571C38.5326 93.118 38.6739 92.9873 38.7856 92.835C38.9437 92.6194 39.0652 92.3765 39.2286 92.1655C39.4402 91.8922 39.5801 91.5826 39.744 91.2783C39.8585 91.2621 39.9172 91.1956 39.9529 91.1009C39.9904 91.0014 40.021 90.8977 40.0715 90.8051C40.1847 90.5978 40.3197 90.402 40.4244 90.1908C40.5108 90.0168 40.5663 89.8275 40.6356 89.6449C40.783 89.2567 40.8229 88.8405 40.9579 88.4459C41.0533 88.1672 41.0387 87.8508 41.0732 87.5513L41.2678 87.5494V87.5493Z" fill="#E94C32"/>
<path d="M65.3913 98.873C65.2642 99.2999 65.1346 99.724 64.8199 100.06C64.4092 100.498 64.0966 101.007 63.7804 101.514C63.7066 101.632 63.6135 101.741 63.5152 101.84C63.2849 102.073 63.0704 102.332 62.8051 102.516C62.3649 102.822 61.8896 103.078 61.4294 103.356C61.3929 103.378 61.3488 103.396 61.3248 103.429C61.1471 103.668 60.846 103.716 60.6221 103.885C60.5525 103.937 60.4594 103.958 60.3679 103.995C60.2801 103.742 60.1899 103.491 60.127 103.233C60.0875 103.071 60.089 102.899 60.0841 102.72C60.1334 102.7 60.171 102.693 60.2079 102.683C60.6152 102.577 61.0186 102.477 61.3359 102.16C61.5792 101.918 61.8603 101.713 62.1219 101.488C62.2802 101.353 62.4572 101.23 62.5841 101.068C62.9654 100.583 63.3275 100.083 63.6939 99.5859C63.7615 99.4943 63.8357 99.3989 63.8698 99.2933C63.9388 99.0793 63.9824 98.8572 64.0365 98.6384C64.497 98.6456 64.946 98.7203 65.3913 98.873Z" fill="#F7A617"/>
<path d="M46.1937 102.621C45.7876 102.54 45.4674 102.302 45.1582 102.043C44.9264 101.849 44.6837 101.668 44.4613 101.463C44.3308 101.344 44.2259 101.195 44.1173 101.053C43.9205 100.795 43.7237 100.538 43.5393 100.272C43.4785 100.184 43.4417 100.073 43.4184 99.967C43.3381 99.6019 43.2678 99.2346 43.1957 98.8677C43.1793 98.7844 43.1706 98.6996 43.1583 98.6049C43.5505 98.5486 43.9427 98.5028 44.353 98.4602C44.4223 98.6071 44.4786 98.7491 44.5236 98.8946C44.5983 99.1361 44.7238 99.3373 44.9107 99.5137C45.0923 99.6852 45.2532 99.8821 45.4036 100.083C45.6483 100.409 45.9959 100.573 46.3536 100.728C46.3267 100.919 46.2912 101.11 46.2747 101.302C46.2501 101.59 46.2388 101.878 46.2219 102.166L46.1937 102.621H46.1937Z" fill="#EA553A"/>
<path d="M45.9418 95.5792C45.8387 95.7109 45.7439 95.8503 45.6309 95.9729C45.3003 96.3316 44.9191 96.628 44.475 96.862C44.3935 96.7151 44.3294 96.5714 44.2642 96.4179C44.1787 96.0869 44.1031 95.7633 44.0078 95.4455C43.8893 95.0509 43.7349 94.6684 43.7156 94.2469C43.7075 94.07 43.6828 93.8791 43.5325 93.7412C43.5055 93.7164 43.4992 93.6626 43.4948 93.621L43.3894 92.5931C43.3752 92.4581 43.3796 92.3144 43.3325 92.191C43.2393 91.9463 43.2155 91.6953 43.2119 91.4402C43.2096 91.2829 43.2393 91.1247 43.232 90.968C43.2147 90.6004 43.1867 90.2332 43.1573 89.8662C43.1404 89.6546 43.1071 89.4442 43.0913 89.2324C43.0795 89.0745 43.084 88.9152 43.0886 88.7637C43.1133 88.9138 43.1163 89.0604 43.1512 89.199C43.2028 89.4045 43.2857 89.6022 43.3397 89.8073C43.4227 90.1221 43.3795 90.4565 43.5129 90.7689C43.6239 91.0289 43.6774 91.313 43.7634 91.5842C43.8208 91.7649 43.9222 91.9374 43.9468 92.1212C43.9756 92.3368 44.1038 92.481 44.2139 92.6545L44.266 92.9268C44.3101 93.164 44.3471 93.3974 44.4847 93.6115C44.6492 93.8675 44.7768 94.1473 44.9208 94.4166C45.0243 94.6102 45.0804 94.8304 45.2535 94.9846L45.8833 95.5577C45.8976 95.5706 45.9221 95.5724 45.9418 95.5793L45.9418 95.5792Z" fill="#EA5453"/>
<path d="M49.0816 81.6626C49.3175 81.7437 49.5557 81.8267 49.7838 81.9319C49.9092 81.9897 50.0113 82.0968 50.1351 82.1597C50.2753 82.231 50.4389 82.2595 50.573 82.339C50.8694 82.5149 51.1933 82.595 51.5246 82.6601C51.5705 82.6691 51.6219 82.6749 51.6588 82.6998C51.9365 82.8865 52.2625 82.9344 52.5758 83.0044C52.8327 83.0618 53.0528 83.177 53.2706 83.3107C53.4053 83.3934 53.5476 83.4647 53.6773 83.5544C53.7838 83.6281 53.8822 83.7161 53.9746 83.8074C54.1053 83.9366 54.2335 84.0695 54.3511 84.2105C54.501 84.3902 54.6373 84.581 54.783 84.7643C54.8997 84.911 55.0216 85.0534 55.1492 85.2016C54.8916 85.351 54.6325 85.5106 54.3584 85.6377C54.1603 85.7296 53.9423 85.7784 53.7228 85.8351C53.6487 85.6527 53.5851 85.4814 53.5212 85.3102C53.5005 85.2548 53.4892 85.1931 53.4569 85.1455C53.3398 84.9731 53.2069 84.8109 53.0962 84.6346C52.9245 84.3611 52.7013 84.1473 52.4253 83.9814C52.1844 83.8366 51.9525 83.677 51.7137 83.5287C51.548 83.4258 51.3815 83.3226 51.2076 83.2351C51.0757 83.1687 50.9217 83.144 50.7945 83.0711C50.3521 82.8172 49.8902 82.6106 49.4036 82.4593C49.2903 82.424 49.1731 82.4009 49.0577 82.3722L49.0816 81.6626V81.6626Z" fill="#EA5B15"/>
<path d="M44.2653 96.4277L44.4659 96.8625C44.0787 97.1012 43.6504 97.2488 43.1997 97.3258C42.9561 97.3674 42.7075 97.3798 42.4493 97.4035C42.4375 97.1297 42.4447 96.8575 42.4353 96.5858C42.4283 96.3828 42.4248 96.1769 42.3134 95.9911C42.2835 95.9412 42.2835 95.8674 42.2861 95.8052L42.3321 94.8732C42.3368 94.6646 42.3065 94.4552 42.3112 94.2466C42.3206 93.8287 42.3435 93.411 42.3603 92.9932C42.3728 92.6843 42.3846 92.3754 42.4113 92.0647C42.5547 92.327 42.685 92.5904 42.811 92.8557C42.8399 92.9165 42.8776 92.9867 42.8713 93.0485C42.8317 93.43 43.0227 93.7394 43.2049 94.0352C43.4626 94.4533 43.6275 94.8986 43.7283 95.3729C43.7871 95.6498 43.85 95.9236 44.0361 96.1494L44.2653 96.4277Z" fill="#EA504B"/>
<path d="M64.03 98.6294C63.9824 98.8571 63.9387 99.0792 63.8698 99.2932C63.8357 99.3988 63.7615 99.4942 63.6939 99.5858L62.5841 101.068C62.4572 101.23 62.2802 101.352 62.1219 101.488C61.8603 101.713 61.5792 101.917 61.3359 102.16C61.0186 102.477 60.6152 102.577 60.2079 102.683C60.171 102.693 60.1334 102.7 60.0858 102.709C60.0573 102.27 60.0391 101.831 60.0323 101.381C60.0649 101.368 60.0885 101.37 60.1066 101.362C60.3794 101.231 60.6421 101.077 60.9455 101.02C60.989 101.012 61.0306 100.98 61.0673 100.952L61.76 100.408C61.8885 100.305 62.0487 100.218 62.1302 100.084C62.4207 99.6078 62.7059 99.1248 62.8259 98.5686L63.7538 98.6152C63.8436 98.6195 63.9336 98.6188 64.03 98.6294Z" fill="#F6A320"/>
<path d="M24.1977 101.211C24.0336 101.158 23.8743 101.107 23.7237 101.037C23.508 100.937 23.2885 100.839 23.09 100.711C22.9551 100.623 22.8405 100.495 22.7397 100.367C22.5371 100.11 22.3547 99.8372 22.1553 99.5776C21.9478 99.3075 21.7973 99.0088 21.6756 98.6931C21.6603 98.6534 21.6373 98.6166 21.6143 98.57C21.7904 98.5289 21.9694 98.4922 22.1499 98.4643C22.6352 98.3894 23.0878 98.2199 23.5332 98.0056C23.5512 98.0285 23.5561 98.0456 23.5665 98.0584L24.0278 98.6221C24.1344 98.7492 24.2353 98.8844 24.3589 98.9931C24.5049 99.1214 24.6726 99.2249 24.8309 99.3392C24.6008 99.7584 24.4081 100.193 24.2981 100.66C24.256 100.839 24.2363 101.023 24.1976 101.211L24.1977 101.211Z" fill="#EC6333"/>
<path d="M32.0497 85.8708C32.1241 85.5975 32.1934 85.3187 32.3028 85.0568C32.3803 84.871 32.5068 84.7042 32.6209 84.5354C32.785 84.2926 32.9305 84.029 33.1328 83.8222C33.4963 83.4506 33.8552 83.064 34.3666 82.8753C34.536 82.8127 34.6843 82.6952 34.8499 82.6193C34.9522 82.5724 35.0687 82.5566 35.1893 82.5269C35.2394 83.0046 35.2729 83.4832 35.4031 83.9604C35.0053 84.1645 34.6604 84.4261 34.3616 84.7325C34.0934 85.0075 33.8697 85.3275 33.6405 85.638C33.5571 85.751 33.5146 85.8941 33.4535 86.0235C32.9952 85.9208 32.5328 85.8562 32.0497 85.8708V85.8708Z" fill="#F49700"/>
<path d="M44.2642 96.4178C44.1889 96.335 44.1125 96.2422 44.0361 96.1494C43.85 95.9236 43.7871 95.6498 43.7283 95.3729C43.6275 94.8986 43.4625 94.4533 43.2049 94.0352C43.0226 93.7394 42.8317 93.43 42.8712 93.0485C42.8776 92.9868 42.8399 92.9166 42.811 92.8558L42.4189 92.0572L42.339 91.1733C42.3362 91.1394 42.3379 91.105 42.3398 91.071C42.3458 90.9604 42.3593 90.8498 42.3579 90.7394C42.356 90.5924 42.3379 90.4455 42.3357 90.2985L42.3327 89.5073C42.3243 89.2476 42.2831 88.9882 42.2872 88.7291C42.2931 88.3514 42.3026 87.9746 42.2573 87.5877C42.4985 87.567 42.7397 87.5573 42.9925 87.56C43.0297 87.9671 43.0554 88.3618 43.0812 88.7565C43.0839 88.9151 43.0795 89.0743 43.0913 89.2323C43.1071 89.4441 43.1404 89.6544 43.1573 89.8661L43.2319 90.9679C43.2393 91.1246 43.2096 91.2828 43.2118 91.4401C43.2155 91.6952 43.2392 91.9462 43.3325 92.1908C43.3795 92.3143 43.3751 92.458 43.3894 92.593L43.4947 93.6208C43.4991 93.6625 43.5055 93.7164 43.5324 93.7411C43.6827 93.879 43.7075 94.0699 43.7156 94.2468C43.7348 94.6683 43.8893 95.0508 44.0077 95.4454C44.1031 95.7631 44.1787 96.0868 44.2642 96.4178H44.2642Z" fill="#EA544C"/>
<path d="M47.0155 92.0775C47.0478 92.7301 46.9724 93.3688 46.7538 93.9982C46.5325 93.8725 46.2859 93.774 46.1269 93.5969C45.9353 93.3835 45.7683 93.1479 45.5689 92.935C45.3501 92.7015 45.1382 92.4478 45.0261 92.1341C45.0122 92.0951 44.9826 92.0618 44.9594 92.0166C44.8408 91.7786 44.761 91.5392 44.7544 91.2677C44.733 91.0837 44.7232 90.9088 44.6873 90.7394C44.6303 90.4703 44.5425 90.2118 44.5045 89.9336C44.4398 89.4595 44.319 88.9937 44.3668 88.5087C44.373 88.4462 44.3625 88.3813 44.3546 88.3182L44.2395 87.4225C44.3096 87.4128 44.3797 87.4031 44.4605 87.4054C44.5056 87.6314 44.5365 87.846 44.575 88.0592C44.6217 88.3176 44.6688 88.5762 44.7278 88.8319C44.7545 88.9473 44.8296 89.0526 44.8496 89.1682C44.8957 89.4354 44.9713 89.6896 45.0883 89.9346C45.1633 90.0918 45.2108 90.2618 45.2812 90.4215C45.355 90.5887 45.4425 90.7498 45.5219 90.9146C45.6188 91.1155 45.7193 91.3011 45.9364 91.415C46.1301 91.5168 46.2894 91.6821 46.4765 91.7992C46.6474 91.9061 46.8352 91.9859 47.0155 92.0776L47.0155 92.0775Z" fill="#EC5C61"/>
<path d="M45.3658 87.2179C45.839 87.0928 46.2983 86.9293 46.7554 86.7295C46.8383 86.8162 46.902 86.9031 46.9799 86.9744C47.0399 87.0293 47.1202 87.1049 47.1875 87.1011C47.3838 87.09 47.5058 87.1703 47.6331 87.3126C47.7755 87.4717 47.9612 87.592 48.128 87.7292C47.9961 87.9143 47.8587 88.0958 47.7335 88.2854C47.3811 88.8192 47.1417 89.3989 47.0441 90.034C47.0301 90.125 47.0111 90.2153 46.9832 90.3152C46.6161 90.15 46.3033 89.9301 46.1406 89.548C46.1126 89.4823 46.0738 89.4211 46.0384 89.3587C45.9948 89.2816 45.9465 89.207 45.906 89.1284C45.8654 89.0496 45.8308 88.9676 45.7955 88.8861C45.755 88.7929 45.7052 88.7017 45.6804 88.6043C45.648 88.4774 45.664 88.3322 45.6102 88.2179C45.4601 87.8987 45.418 87.5581 45.3658 87.2179H45.3658Z" fill="#ED676F"/>
<path d="M48.2838 94.1223C48.4209 94.1467 48.5568 94.1808 48.6918 94.2181C48.8231 94.2544 48.9589 94.2818 49.0824 94.3364C49.1658 94.3733 49.2354 94.4462 49.3035 94.5109C49.3703 94.5743 49.4263 94.6487 49.4891 94.7165C49.5355 94.7667 49.6064 94.8054 49.6296 94.8638C49.72 95.0908 49.9278 95.1549 50.1203 95.2431C50.1474 95.2556 50.1747 95.2679 50.203 95.2773C50.4391 95.3556 50.5587 95.4984 50.5863 95.7659C50.6047 95.9444 50.7306 96.118 50.8303 96.2804C50.9493 96.4743 51.0665 96.6619 51.0643 96.9012C51.0637 96.9668 51.0955 97.0328 51.1126 97.1086C50.6013 97.1743 50.0881 97.2191 49.5784 97.3426L49.2799 96.7453C49.2514 96.6894 49.2148 96.6332 49.169 96.5914C48.9798 96.4191 48.7864 96.2514 48.5931 96.0837L48.1474 95.7061C48.0759 95.6483 47.9946 95.6027 47.9178 95.5516L48.2166 94.5686C48.2554 94.4282 48.2613 94.2788 48.2838 94.1223Z" fill="#ED656E"/>
<path d="M45.3546 87.2175C45.4181 87.558 45.4602 87.8987 45.6103 88.2178C45.6641 88.3321 45.6481 88.4773 45.6804 88.6043C45.7053 88.7016 45.7551 88.7928 45.7955 88.886C45.8308 88.9675 45.8654 89.0495 45.9061 89.1283C45.9466 89.2069 45.9949 89.2815 46.0385 89.3586C46.0738 89.421 46.1127 89.4822 46.1406 89.5479C46.3033 89.93 46.6162 90.1499 46.9809 90.3256C46.9826 90.4575 46.968 90.5882 46.9697 90.7188L46.9951 91.7C46.999 91.818 47.0109 91.9358 47.0174 92.0655C46.8353 91.9856 46.6475 91.9059 46.4766 91.799C46.2895 91.6819 46.1302 91.5166 45.9365 91.4148C45.7194 91.3008 45.6189 91.1153 45.522 90.9144C45.4426 90.7496 45.3551 90.5885 45.2813 90.4212C45.2109 90.2616 45.1634 90.0916 45.0884 89.9344C44.9714 89.6894 44.8959 89.4351 44.8497 89.168C44.8297 89.0524 44.7546 88.9471 44.7279 88.8317C44.6689 88.576 44.6218 88.3174 44.5752 88.059C44.5367 87.8458 44.5057 87.6312 44.4713 87.4068C44.7377 87.3435 45.0042 87.2907 45.2707 87.2374C45.2953 87.2325 45.3193 87.2241 45.3547 87.2176L45.3546 87.2175Z" fill="#EC6168"/>
<path d="M39.7347 91.2792C39.5801 91.5826 39.4402 91.8922 39.2286 92.1655C39.0652 92.3765 38.9437 92.6195 38.7856 92.835C38.6739 92.9873 38.5326 93.118 38.4032 93.2571C38.3833 93.2786 38.3519 93.29 38.3335 93.3124C38.0905 93.6068 37.7669 93.7867 37.4233 93.9541C37.3147 93.6739 37.2446 93.3838 37.2378 93.0813L37.2246 91.806C37.4161 91.7315 37.5966 91.6722 37.7738 91.6041C37.8188 91.5868 37.8536 91.5423 37.8923 91.5094C38.066 91.3615 38.223 91.1843 38.4176 91.0732C38.6163 90.9598 38.7881 90.8389 38.9001 90.6384C38.9162 90.6095 38.9436 90.585 38.9703 90.5644C39.1556 90.4219 39.2942 90.2423 39.4055 90.0382C39.423 90.0061 39.4698 89.9899 39.5112 89.97C39.5842 90.0062 39.6468 90.0444 39.7142 90.0702C39.8147 90.1085 39.8272 90.1711 39.7871 90.2617C39.7492 90.3471 39.7184 90.4356 39.6823 90.5218C39.6502 90.5986 39.6711 90.6568 39.7445 90.6903C39.8167 90.7233 39.8249 90.7711 39.7911 90.8345L39.6133 91.1639L39.7347 91.2792Z" fill="#E94C28"/>
<path d="M44.9603 92.0257C44.9826 92.0617 45.0122 92.095 45.0261 92.1339C45.1382 92.4476 45.3501 92.7013 45.5689 92.9349C45.7683 93.1477 45.9353 93.3834 46.1269 93.5967C46.2859 93.7739 46.5325 93.8724 46.7492 94.0069C46.5928 94.5813 46.3199 95.0995 45.9497 95.5755C45.922 95.5722 45.8975 95.5704 45.8832 95.5575L45.2535 94.9844C45.0804 94.8302 45.0243 94.61 44.9208 94.4164C44.7768 94.1471 44.6492 93.8673 44.4846 93.6113C44.347 93.3973 44.31 93.1638 44.266 92.9266C44.2497 92.8392 44.2313 92.7523 44.2212 92.6473C44.2117 92.4848 44.1947 92.3401 44.1763 92.1826L44.3395 92.2866L44.3727 92.2692L44.3175 91.8732L44.5609 91.9043V91.6843L44.9603 92.0257Z" fill="#EB5659"/>
<path d="M62.8146 98.5669C62.7059 99.1249 62.4207 99.6079 62.1302 100.084C62.0487 100.218 61.8885 100.305 61.76 100.408L61.0673 100.952C61.0306 100.98 60.989 101.012 60.9455 101.02C60.6421 101.077 60.3794 101.231 60.1067 101.362C60.0885 101.371 60.0649 101.368 60.034 101.37C59.9534 101.006 59.8825 100.639 59.8213 100.271C59.9409 100.216 60.062 100.19 60.1629 100.13C60.3065 100.045 60.4542 99.9516 60.5663 99.8303C60.7709 99.6089 60.9375 99.3522 61.1443 99.1332C61.3642 98.9003 61.5013 98.6276 61.6161 98.3372L62.8146 98.5668V98.5669Z" fill="#F5A02D"/>
<path d="M44.9594 92.0165C44.8284 91.9131 44.6966 91.8004 44.5609 91.6844V91.9044L44.3175 91.8733L44.3727 92.2694L44.3396 92.2867L44.1763 92.1827C44.1948 92.3402 44.2117 92.4849 44.2213 92.6366C44.1038 92.4809 43.9756 92.3368 43.9468 92.1212C43.9222 91.9373 43.8208 91.7648 43.7635 91.5841C43.6774 91.3129 43.6239 91.0288 43.5129 90.7688C43.3796 90.4565 43.4227 90.1221 43.3397 89.8072C43.2857 89.6021 43.2029 89.4045 43.1512 89.1989C43.1164 89.0603 43.1134 88.9137 43.0887 88.7636L43.0039 87.5617C43.2394 87.5321 43.4763 87.5142 43.7136 87.5081C43.768 87.8267 43.8075 88.1338 43.8546 88.4398C43.8868 88.6486 43.9275 88.8562 43.9685 89.0636C44.0046 89.2464 44.0455 89.4283 44.0856 89.6103C44.1237 89.783 44.0926 89.9708 44.204 90.1275C44.3431 90.323 44.3887 90.5527 44.4477 90.7797C44.498 90.9732 44.5971 91.1466 44.7545 91.2793C44.761 91.5391 44.8409 91.7785 44.9594 92.0165L44.9594 92.0165Z" fill="#EB5A57"/>
<path d="M39.4682 98.3327C39.4036 98.5944 39.3287 98.8513 39.2572 99.1092C39.1927 99.3413 39.0674 99.5282 38.8874 99.6913C38.7302 99.8337 38.6064 100.012 38.455 100.162C38.2763 100.339 38.0855 100.503 37.9638 100.729C37.9472 100.76 37.9066 100.778 37.8684 100.803C37.8069 100.599 37.7628 100.391 37.6994 100.19C37.559 99.7436 37.3801 99.3149 37.0966 98.9324L37.6534 98.3894C37.7353 98.3047 37.7958 98.1994 37.8669 98.1041L38.1414 97.7395C38.3867 97.8626 38.6286 97.993 38.8783 98.1063C39.0668 98.1917 39.2653 98.2552 39.4682 98.3328L39.4682 98.3327Z" fill="#EA541C"/>
<path d="M49.0558 82.3831C49.1731 82.4008 49.2903 82.4239 49.4036 82.4592C49.8902 82.6106 50.3521 82.8171 50.7945 83.071C50.9216 83.144 51.0757 83.1686 51.2076 83.235C51.3815 83.3225 51.548 83.4257 51.7136 83.5286L52.4253 83.9813C52.7013 84.1472 52.9245 84.361 53.0962 84.6346C53.2069 84.8108 53.3398 84.973 53.4569 85.1455C53.4892 85.193 53.5005 85.2548 53.5212 85.3101L53.7127 85.8335C53.4119 85.8787 53.1109 85.9142 52.798 85.9374C52.7791 85.8836 52.7724 85.8418 52.7647 85.8002C52.6834 85.3611 52.4031 85.0238 52.1718 84.6638C52.0938 84.5426 51.9713 84.4442 51.8543 84.3551C51.6137 84.1719 51.365 83.9989 51.1158 83.8276C50.9445 83.7099 50.7731 83.5894 50.5898 83.4929C50.3826 83.3837 50.1656 83.2908 49.9465 83.2074C49.6448 83.0924 49.3371 82.993 49.032 82.8869L49.0558 82.3831Z" fill="#EB5D19"/>
<path d="M49.03 82.8977C49.3371 82.9929 49.6448 83.0924 49.9465 83.2073C50.1656 83.2907 50.3826 83.3837 50.5898 83.4928C50.7731 83.5894 50.9445 83.7098 51.1158 83.8275C51.365 83.9989 51.6137 84.1718 51.8543 84.355C51.9713 84.4442 52.0938 84.5425 52.1718 84.6637C52.4031 85.0238 52.6835 85.3611 52.7647 85.8002C52.7724 85.8418 52.7791 85.8835 52.7862 85.9357C52.442 85.9301 52.0977 85.9141 51.742 85.8862C51.6665 85.6369 51.6237 85.3991 51.4257 85.2129C51.0248 84.8358 50.6432 84.438 50.2528 84.0496C50.2352 84.032 50.211 84.0198 50.188 84.0088L48.9733 83.4266L49.03 82.8977Z" fill="#EB5E24"/>
<path d="M39.503 89.9663C39.4698 89.9898 39.423 90.006 39.4055 90.0381C39.2943 90.2422 39.1556 90.4218 38.9703 90.5643C38.9436 90.5848 38.9162 90.6094 38.9001 90.6383C38.7881 90.8388 38.6163 90.9596 38.4176 91.0731C38.223 91.1842 38.066 91.3614 37.8923 91.5093C37.8536 91.5422 37.8188 91.5867 37.7738 91.604C37.5967 91.6721 37.4161 91.7314 37.2265 91.7939C37.2232 91.5069 37.2317 91.2198 37.2362 90.9327C37.237 90.884 37.2207 90.835 37.2244 90.7752C37.5778 90.73 37.8317 90.5299 38.0811 90.3205C38.1528 90.2603 38.2375 90.2134 38.3007 90.1459L39.0487 89.3257C39.0884 89.2817 39.1367 89.2381 39.1573 89.1852C39.3032 88.8117 39.4531 88.4392 39.5804 88.0593C39.6529 87.8429 39.6853 87.613 39.7357 87.3892C39.8655 87.4075 39.9952 87.4259 40.1357 87.4568C40.1123 87.6877 40.0762 87.9057 40.0444 88.1244C39.9824 88.5504 39.8941 88.9697 39.7357 89.3719L39.503 89.9663Z" fill="#E9511F"/>
<path d="M46.3621 100.722C45.9959 100.573 45.6484 100.409 45.4036 100.083C45.2532 99.8822 45.0923 99.6853 44.9107 99.5138C44.7238 99.3374 44.5983 99.1362 44.5237 98.8947C44.4787 98.7492 44.4223 98.6072 44.3627 98.4563C44.7514 98.3531 45.1404 98.2341 45.52 98.0564L46.2502 98.9924C46.407 99.1987 46.5881 99.3721 46.8351 99.4654C46.6445 99.838 46.485 100.223 46.3851 100.63C46.3782 100.659 46.3753 100.688 46.3621 100.722Z" fill="#EA5741"/>
<path d="M39.5112 89.97C39.5805 89.7683 39.6578 89.57 39.7357 89.372C39.8941 88.9698 39.9824 88.5505 40.0444 88.1245L40.1464 87.4587C40.3416 87.4669 40.5369 87.4853 40.732 87.505C40.8394 87.5158 40.9465 87.5289 41.0635 87.5461C41.0387 87.8508 41.0533 88.1671 40.9579 88.4459C40.8229 88.8405 40.783 89.2567 40.6356 89.6449C40.5663 89.8274 40.5108 90.0168 40.4244 90.1908C40.3197 90.4019 40.1847 90.5978 40.0716 90.805C40.021 90.8976 39.9904 91.0014 39.9529 91.1009C39.9173 91.1956 39.8585 91.2621 39.744 91.2782C39.6927 91.2393 39.6507 91.1995 39.6133 91.1639L39.7911 90.8344C39.8249 90.7711 39.8167 90.7233 39.7445 90.6903C39.6711 90.6567 39.6503 90.5985 39.6824 90.5218C39.7184 90.4356 39.7493 90.3471 39.7871 90.2616C39.8272 90.1711 39.8147 90.1085 39.7142 90.0701C39.6468 90.0444 39.5842 90.0062 39.5112 89.97V89.97Z" fill="#EA522A"/>
<path d="M25.694 95.8386C26.0043 96.0069 26.2274 96.2629 26.4426 96.5289C26.4927 96.5908 26.5594 96.6409 26.624 96.689C26.8361 96.8466 26.8954 97.097 27.0087 97.3145C27.0337 97.3626 27.0494 97.4157 27.0698 97.4764C26.8859 97.5721 26.6931 97.6437 26.5193 97.7471C26.272 97.8942 26.0386 98.0646 25.7876 98.2208C25.6999 98.1247 25.6272 98.03 25.5472 97.9419L24.7495 97.0702C25.0548 96.7717 25.3253 96.4451 25.5489 96.0809C25.5968 96.0028 25.6404 95.9222 25.6939 95.8386L25.694 95.8386Z" fill="#EB5E24"/>
<path d="M38.1376 97.7312C38.0499 97.8609 37.9579 97.9821 37.8669 98.104C37.7958 98.1993 37.7353 98.3046 37.6534 98.3893C37.4762 98.5725 37.2882 98.7454 37.0961 98.9236C36.7557 98.4685 36.3388 98.1073 35.8558 97.8198C35.8309 97.805 35.8026 97.7958 35.7717 97.7758C35.9333 97.5658 36.0994 97.3641 36.2649 97.1619C36.3025 97.116 36.3349 97.0656 36.3744 97.0216L36.8464 96.5076C36.9728 96.645 37.094 96.784 37.2089 96.928C37.4591 97.2418 37.7704 97.4832 38.106 97.6969C38.1165 97.7036 38.1246 97.7142 38.1376 97.7312Z" fill="#E95514"/>
<path d="M24.7417 97.0735L25.5473 97.9419C25.6272 98.0301 25.6999 98.1248 25.7796 98.2245C25.4479 98.5236 25.1476 98.8459 24.9069 99.2209C24.8845 99.2558 24.8668 99.2939 24.8389 99.3348C24.6726 99.2249 24.5049 99.1213 24.3589 98.993C24.2353 98.8844 24.1344 98.7492 24.0278 98.622L23.5665 98.0584C23.5561 98.0456 23.5512 98.0284 23.5426 98.0042C23.9735 97.7338 24.3813 97.4412 24.7417 97.0735L24.7417 97.0735Z" fill="#EB5F2D"/>
<path d="M33.4635 86.0254C33.5147 85.894 33.5571 85.7509 33.6405 85.638C33.8696 85.3274 34.0934 85.0075 34.3616 84.7325C34.6604 84.426 35.0053 84.1645 35.4043 83.9707C35.5298 84.2702 35.6468 84.5734 35.7562 84.8869C35.608 84.9921 35.4598 85.0775 35.3291 85.1843C35.2155 85.2772 35.1199 85.3926 35.0196 85.501C34.8819 85.6496 34.741 85.7959 34.6133 85.9527C34.5122 86.0769 34.4287 86.2155 34.3374 86.3477L33.4635 86.0255L33.4635 86.0254Z" fill="#F28D00"/>
<path d="M56.6779 97.3139C56.673 97.2932 56.6696 97.2784 56.6749 97.2679C56.8136 96.9872 56.9087 96.6844 57.1429 96.4548C57.3031 96.2977 57.4332 96.1102 57.5879 95.947C57.6681 95.8623 57.7664 95.7898 57.8677 95.7311C58.0369 95.6332 58.215 95.5507 58.3944 95.4543C58.44 95.5375 58.4777 95.6295 58.5219 95.7182L58.8368 96.3616C58.8016 96.4122 58.77 96.4464 58.7355 96.4774C58.5335 96.6594 58.3155 96.8266 58.1329 97.0263C57.9535 97.2225 57.8098 97.4515 57.6504 97.6661L56.678 97.3139L56.6779 97.3139Z" fill="#F08369"/>
<path d="M57.6551 97.6737C57.8098 97.4515 57.9534 97.2226 58.1329 97.0263C58.3155 96.8267 58.5335 96.6595 58.7355 96.4775C58.7699 96.4465 58.8016 96.4123 58.8383 96.3704L59.5848 97.2387C59.6336 97.2955 59.6987 97.3383 59.7562 97.4033C59.5896 97.5962 59.4224 97.7726 59.2567 97.9505L58.7829 98.4641C58.4493 98.1447 58.0754 97.8832 57.6551 97.6737Z" fill="#F18B5E"/>
<path d="M61.606 98.3353C61.5013 98.6276 61.3642 98.9004 61.1443 99.1332C60.9376 99.3523 60.7709 99.609 60.5663 99.8304C60.4542 99.9516 60.3065 100.045 60.1629 100.13C60.0621 100.19 59.9409 100.216 59.82 100.261C59.7094 100.005 59.6075 99.746 59.5085 99.4694C59.6306 99.3566 59.764 99.2742 59.8659 99.163C60.055 98.9565 60.2287 98.7356 60.403 98.516C60.529 98.3572 60.6457 98.191 60.7665 98.0281L61.606 98.3353H61.606Z" fill="#F49C3A"/>
<path d="M34.3442 86.354C34.4287 86.2154 34.5121 86.0768 34.6133 85.9527C34.741 85.7958 34.8819 85.6496 35.0195 85.501C35.1199 85.3926 35.2154 85.2771 35.329 85.1843C35.4598 85.0775 35.608 84.992 35.7573 84.8962C35.9641 85.1992 36.164 85.5069 36.3567 85.8191C36.2313 85.9795 36.1076 86.1253 35.9801 86.2675L35.3315 86.9832C35.03 86.7357 34.7026 86.529 34.3442 86.354Z" fill="#F08000"/>
<path d="M35.3355 86.9909C35.5479 86.7447 35.7652 86.5072 35.9801 86.2675C36.1077 86.1252 36.2313 85.9795 36.3602 85.8271C36.5437 85.9874 36.7178 86.1629 36.9057 86.322C37.0444 86.4396 37.2011 86.536 37.3569 86.6546C37.2151 86.8571 37.0835 87.0644 36.9128 87.232C36.6842 87.4563 36.4253 87.6499 36.1794 87.8566C36.0326 87.687 35.8925 87.5109 35.7368 87.3499C35.6143 87.2232 35.4726 87.1151 35.3355 86.991L35.3355 86.9909Z" fill="#ED6E04"/>
<path d="M39.7301 87.3804C39.6853 87.6132 39.653 87.8431 39.5805 88.0595C39.4531 88.4394 39.3032 88.8119 39.1573 89.1854C39.1367 89.2383 39.0885 89.2819 39.0487 89.3259L38.3007 90.146C38.2375 90.2136 38.1528 90.2605 38.0811 90.3207C37.8317 90.5301 37.5778 90.7302 37.2263 90.7644C37.1806 90.514 37.1453 90.2635 37.121 90.0024L38.051 89.5709C38.066 89.564 38.078 89.55 38.0903 89.5382C38.2971 89.3403 38.5088 89.1472 38.7084 88.9422C38.8204 88.8273 38.9453 88.7069 39.0067 88.5641C39.1776 88.167 39.3941 87.7841 39.4514 87.345C39.5424 87.3538 39.6334 87.3627 39.7301 87.3804L39.7301 87.3804Z" fill="#EA541C"/>
<path d="M60.7583 98.0237C60.6457 98.1909 60.529 98.3571 60.403 98.5159C60.2287 98.7354 60.055 98.9564 59.8659 99.1628C59.764 99.2741 59.6306 99.3565 59.5074 99.4599C59.3005 99.1133 59.0836 98.7689 58.7867 98.4717C58.9408 98.2928 59.098 98.1209 59.2567 97.9504L59.7599 97.4111L60.7583 98.0237Z" fill="#F3944D"/>
<path d="M47.9101 95.5562C47.9945 95.6026 48.0759 95.6482 48.1473 95.706C48.2987 95.8284 48.4459 95.956 48.593 96.0836L49.1689 96.5913C49.2148 96.6331 49.2513 96.6893 49.2798 96.7452C49.3787 96.939 49.4723 97.1357 49.568 97.3407C49.2909 97.4609 49.0137 97.5717 48.7265 97.6749L48.1413 96.9704C48.0897 96.9083 48.0358 96.848 47.9818 96.7879C47.8907 96.6864 47.8035 96.5808 47.7053 96.4866C47.6392 96.4232 47.557 96.3764 47.482 96.3221L47.91 95.5562L47.9101 95.5562Z" fill="#EC6168"/>
<path d="M50.7784 86.0236L50.0447 86.2896C50.0372 86.2923 50.031 86.299 50.014 86.2964C49.7291 85.8068 49.3183 85.4582 48.8755 85.1417C48.7657 85.0631 48.6502 84.9925 48.5373 84.9182L48.782 84.2874C49.0408 84.3921 49.2923 84.4991 49.534 84.6248C49.6369 84.6783 49.7219 84.768 49.8108 84.8461C49.89 84.9157 49.9586 84.9978 50.0406 85.0636C50.1465 85.1486 50.2925 85.2012 50.3654 85.3064C50.522 85.5323 50.6429 85.783 50.7784 86.0236Z" fill="#EC663E"/>
<path d="M47.4741 96.326C47.557 96.3763 47.6392 96.423 47.7054 96.4865C47.8035 96.5807 47.8907 96.6863 47.9818 96.7877L48.1413 96.9703L48.7175 97.6759C48.3814 97.8519 48.066 98.0521 47.7718 98.2979L46.7596 97.1472L47.3901 96.4303C47.4177 96.3988 47.4409 96.3635 47.4741 96.3259L47.4741 96.326Z" fill="#EB5E5B"/>
<path d="M38.5505 87.1389C38.7017 87.1736 38.8529 87.2083 39.0091 87.2622C38.9882 87.3978 38.9399 87.5143 38.9411 87.6302C38.9443 87.9255 38.8264 88.1549 38.6134 88.3475C38.56 88.3958 38.5192 88.4578 38.4675 88.5083L37.8804 89.0738C37.869 89.0847 37.8492 89.0864 37.8337 89.0933L37.2387 89.3608L36.9845 89.477C36.9252 89.3202 36.8659 89.1634 36.8142 88.9962C37.0109 88.8717 37.215 88.7763 37.3852 88.6391C37.6348 88.4377 37.8725 88.2179 38.0917 87.9838C38.2362 87.8294 38.4181 87.6921 38.4572 87.4567C38.4752 87.3486 38.5186 87.2447 38.5505 87.1389L38.5505 87.1389Z" fill="#EA580E"/>
<path d="M36.9828 89.487C37.0692 89.4382 37.1538 89.3991 37.2387 89.3608L37.8337 89.0933C37.8492 89.0864 37.869 89.0847 37.8804 89.0739L38.4675 88.5084C38.5192 88.4579 38.56 88.3958 38.6134 88.3475C38.8264 88.155 38.9443 87.9255 38.9411 87.6303C38.9399 87.5143 38.9882 87.3978 39.0144 87.271C39.1541 87.2854 39.2934 87.3103 39.442 87.34C39.394 87.7839 39.1776 88.1668 39.0067 88.5639C38.9452 88.7067 38.8203 88.8271 38.7084 88.9421C38.5088 89.147 38.2971 89.3401 38.0903 89.538C38.078 89.5498 38.066 89.5638 38.051 89.5707L37.1225 89.9917C37.0691 89.8269 37.0251 89.662 36.9828 89.487Z" fill="#E95514"/>
<path d="M36.1807 87.8659C36.4253 87.6499 36.6842 87.4564 36.9128 87.2321C37.0835 87.0645 37.2151 86.8571 37.3652 86.6587C37.6039 86.7621 37.8415 86.8743 38.0832 87.0044C37.9768 87.1864 37.8769 87.3591 37.7529 87.5123C37.604 87.6964 37.4412 87.8706 37.2724 88.0369C37.0667 88.2394 36.8485 88.4293 36.6357 88.6246L36.1808 87.8659H36.1807Z" fill="#EB620B"/>
<path d="M46.8392 99.4571C46.5881 99.372 46.407 99.1986 46.2503 98.9923L45.5294 98.0548C45.7508 97.9019 45.976 97.7571 46.2183 97.6152C46.2598 97.6416 46.2862 97.6635 46.3085 97.689L46.9949 98.4726C47.0907 98.5791 47.2007 98.673 47.3042 98.7726L46.8392 99.4572L46.8392 99.4571Z" fill="#EA544C"/>
<path d="M50.7888 86.0253C50.6429 85.7831 50.5221 85.5324 50.3654 85.3064C50.2925 85.2012 50.1465 85.1487 50.0406 85.0636C49.9586 84.9979 49.89 84.9158 49.8108 84.8462C49.7219 84.7681 49.6369 84.6784 49.534 84.6249C49.2922 84.4992 49.0408 84.3922 48.7839 84.2774C48.8143 84.1373 48.8541 83.9975 48.9077 83.8499C49.2145 83.9702 49.5309 84.0625 49.7949 84.235C50.1615 84.4745 50.5417 84.71 50.8142 85.0707C50.8756 85.152 50.946 85.2272 51.0171 85.3004C51.1861 85.4745 51.2784 85.6847 51.3189 85.9206L50.7888 86.0253Z" fill="#EC6333"/>
<path d="M44.7545 91.2677C44.5971 91.1466 44.4979 90.9732 44.4477 90.7797C44.3887 90.5527 44.343 90.3231 44.204 90.1275C44.0926 89.9708 44.1236 89.783 44.0856 89.6104L43.9684 89.0636C43.9275 88.8562 43.8868 88.6487 43.8546 88.4398L43.7249 87.5098C43.8892 87.473 44.0538 87.4464 44.229 87.4211C44.2781 87.7209 44.3172 88.0194 44.3546 88.3181C44.3625 88.3812 44.3731 88.4461 44.3669 88.5086C44.319 88.9936 44.4398 89.4594 44.5045 89.9335C44.5425 90.2117 44.6303 90.4702 44.6873 90.7393C44.7232 90.9087 44.733 91.0836 44.7545 91.2676L44.7545 91.2677Z" fill="#EB5E5B"/>
<path d="M48.5293 84.9226C48.6502 84.9924 48.7657 85.0631 48.8755 85.1417C49.3183 85.4582 49.7291 85.8067 50.0049 86.2977C49.7983 86.4193 49.5906 86.5321 49.3657 86.6419C49.0663 86.2316 48.7055 85.9079 48.2874 85.6459C48.246 85.62 48.1959 85.6078 48.1499 85.5893C48.2098 85.4902 48.2726 85.3925 48.329 85.2914L48.5293 84.9226Z" fill="#EC644B"/>
<path d="M51.3305 85.9222C51.2783 85.6846 51.1861 85.4744 51.0171 85.3003C50.946 85.227 50.8756 85.1519 50.8142 85.0706C50.5417 84.71 50.1614 84.4744 49.7949 84.2349C49.5309 84.0624 49.2145 83.97 48.9123 83.8407C48.9207 83.7057 48.9382 83.5719 48.9645 83.4324L50.188 84.0089C50.211 84.0199 50.2351 84.032 50.2528 84.0496L51.4257 85.213C51.6237 85.3992 51.6665 85.637 51.7308 85.8845C51.6012 85.9044 51.4716 85.9142 51.3305 85.9222V85.9222Z" fill="#EB5F2D"/>
<path d="M36.6398 88.6322C36.8485 88.4293 37.0667 88.2394 37.2724 88.0369C37.4412 87.8706 37.6039 87.6964 37.7529 87.5123C37.8769 87.3591 37.9768 87.1864 38.0878 87.0127C38.2355 87.0471 38.3829 87.0912 38.5404 87.1372C38.5186 87.2449 38.4753 87.3488 38.4573 87.4569C38.4181 87.6923 38.2362 87.8296 38.0917 87.984C37.8726 88.2181 37.6349 88.438 37.3852 88.6393C37.215 88.7766 37.0109 88.8719 36.8132 88.987C36.7508 88.872 36.6973 88.7559 36.6398 88.6322Z" fill="#E95A0F"/>
<path d="M48.1405 85.5901C48.1959 85.6078 48.246 85.6199 48.2875 85.6459C48.7055 85.9078 49.0663 86.2316 49.3566 86.6428C49.1721 86.7905 48.9797 86.9342 48.7758 87.0735C48.7459 87.0407 48.7324 87.007 48.7085 86.9845L47.7124 86.0526L48.078 85.6657C48.0987 85.6436 48.1135 85.616 48.1405 85.5901L48.1405 85.5901Z" fill="#EB5E5B"/>
<path d="M47.3122 98.7692C47.2007 98.6731 47.0907 98.5792 46.9949 98.4727L46.3085 97.6891C46.2862 97.6636 46.2599 97.6417 46.2274 97.6144C46.3943 97.4585 46.5691 97.3065 46.7518 97.1509L47.7638 98.3017C47.6184 98.4617 47.4693 98.6137 47.3122 98.7692Z" fill="#EB5A57"/>
<path d="M47.7045 86.0562L48.7084 86.9846C48.7324 87.0071 48.7459 87.0408 48.7677 87.0775C48.6575 87.1876 48.5438 87.2896 48.4133 87.3887C48.3052 87.3102 48.2199 87.2253 48.1214 87.1605C47.8032 86.951 47.5321 86.6901 47.276 86.4115L47.7045 86.0562Z" fill="#EC6168"/>
<path d="M47.2668 86.4126C47.5321 86.69 47.8032 86.9508 48.1214 87.1603C48.2199 87.2251 48.3051 87.31 48.4044 87.3895C48.3227 87.5027 48.2332 87.6121 48.1358 87.7253C47.9612 87.5919 47.7755 87.4715 47.6331 87.3125C47.5058 87.1702 47.3837 87.0899 47.1875 87.101C47.1202 87.1048 47.0399 87.0292 46.9798 86.9742C46.9019 86.903 46.8383 86.8161 46.7649 86.7279C46.9267 86.6179 47.0922 86.5159 47.2668 86.4126Z" fill="#ED656E"/>
</g>
<path d="M168.951 85.6497C168.951 88.6374 168.92 90.2688 168.847 90.2281C168.795 90.1975 168.576 89.9222 168.368 89.6163C167.16 87.8318 164.912 86.9753 162.111 87.2302C158.915 87.5157 156.718 89.3613 155.833 92.4815C155.511 93.644 155.375 95.3876 155.511 96.7336C155.74 99.0686 156.416 100.639 157.759 101.965C159.165 103.361 160.758 103.953 163.121 103.963C164.61 103.973 165.495 103.8 166.515 103.321C167.212 103.005 168.305 102.087 168.607 101.587C168.774 101.312 168.836 101.292 169.44 101.292H170.096V103.739H172.907V101.098L172.209 101.067L171.501 101.037L171.47 91.0132L171.449 81H168.951V85.6497ZM165.005 89.4021C166.983 89.8202 168.482 91.2783 168.847 93.1239C169.013 93.9805 168.972 97.4474 168.795 98.2121C168.368 99.9965 167.108 101.23 165.265 101.699C162.684 102.342 160.06 101.455 158.915 99.5275C157.676 97.4576 157.676 93.7153 158.925 91.625C159.56 90.5747 160.758 89.7284 162.059 89.4225C162.84 89.2288 164.141 89.2288 165.005 89.4021ZM177.467 91.0132L177.436 101.037L176.738 101.067L176.03 101.098V103.739H178.841V101.292H179.497C180.101 101.292 180.163 101.312 180.319 101.567C180.829 102.413 182.079 103.3 183.265 103.678C185.025 104.228 187.888 104.014 189.512 103.209C191.198 102.362 192.541 100.659 193.093 98.6404C193.562 96.9579 193.562 94.1946 193.093 92.5223C192.593 90.7379 191.49 89.1778 190.074 88.2499C188.856 87.4545 186.857 87.0467 185.004 87.2302C182.964 87.4341 181.444 88.2703 180.434 89.759L180.038 90.33L180.007 85.6599L179.986 81H177.488L177.467 91.0132ZM186.784 89.4123C188.627 89.7896 190.012 91.1152 190.657 93.1443C190.782 93.5216 190.855 94.1946 190.886 95.2245C190.928 96.5398 190.907 96.8763 190.719 97.6615C190.053 100.404 188.158 101.903 185.348 101.903C182.724 101.903 180.642 100.476 180.153 98.3345C179.924 97.3556 179.924 93.7357 180.142 92.8792C180.486 91.625 181.277 90.5849 182.391 89.9425C183.463 89.3307 185.306 89.1064 186.784 89.4123ZM260.148 85.5783C260.148 88.2091 260.106 90.1873 260.054 90.2179C260.002 90.2485 259.836 90.0751 259.68 89.8202C259.076 88.8107 257.858 87.9032 256.556 87.4851C255.765 87.2404 254.297 87.1282 253.225 87.2302C249.665 87.5871 247.395 89.81 246.77 93.5624C246.458 95.4284 246.614 97.5493 247.176 99.191C248.009 101.618 249.883 103.29 252.34 103.8C253.433 104.024 255.411 104.024 256.348 103.79C257.764 103.443 259.159 102.556 259.732 101.648C259.95 101.302 259.981 101.292 260.575 101.292H261.189V103.739H264V101.088H262.647V81H260.148V85.5783ZM256.754 89.5551C258.337 90.1057 259.378 91.1152 259.867 92.5733C260.127 93.3483 260.242 96.5296 260.054 97.7227C259.732 99.7926 258.326 101.281 256.234 101.761C255.276 101.985 253.579 101.903 252.715 101.608C250.997 101.016 249.842 99.6906 249.352 97.7635C249.102 96.7744 249.102 94.3577 249.352 93.44C249.977 91.156 251.309 89.8202 253.433 89.3613C254.152 89.1982 256.067 89.3205 256.754 89.5551ZM84 92.7772V103.739H86.3944V94.0926C86.3944 86.5674 86.4257 84.4567 86.5194 84.4873C86.5922 84.5179 88.5495 88.8515 90.871 94.1334L95.0873 103.739L96.118 103.718L97.1382 103.688L101.375 94.0824C103.697 88.7903 105.633 84.4669 105.685 84.4669C105.727 84.4669 105.758 88.8005 105.758 94.1028V103.739H108.361V81.8157L106.372 81.8361L104.394 81.8667L100.313 91.0744C96.6698 99.3032 96.2221 100.272 96.0868 100.099C96.0139 99.9965 94.1608 95.8567 91.9746 90.8908L87.9977 81.8667L85.9988 81.8361L84 81.8157V92.7772ZM114.316 82.0197C113.243 82.6621 113.337 84.2426 114.482 84.783C115.888 85.456 117.304 83.9978 116.564 82.6417C116.419 82.3766 116.169 82.1216 115.961 82.0095C115.482 81.7546 114.753 81.7648 114.316 82.0197ZM143.767 87.2302C142.195 87.373 140.623 87.9746 139.53 88.8311C137.396 90.5136 136.345 93.3687 136.667 96.5704C136.917 99.0177 137.823 100.884 139.395 102.179C140.655 103.219 142.06 103.759 143.965 103.943C147.765 104.32 150.805 102.729 152.013 99.7416C152.169 99.3745 152.294 99.038 152.294 99.0075C152.294 98.9769 151.711 98.9463 151.003 98.9463H149.712L149.452 99.4867C148.931 100.517 147.88 101.322 146.61 101.648C145.756 101.883 143.976 101.883 143.184 101.648C140.8 100.975 139.374 99.2216 139.093 96.6214L139.01 95.8873H152.502V95.2754C152.502 94.1946 152.283 92.7059 152.023 91.9105C151.274 89.708 149.556 88.0867 147.349 87.4953C146.828 87.3526 144.881 87.0875 144.694 87.1384C144.663 87.1384 144.246 87.1792 143.767 87.2302ZM146.141 89.4123C148.223 89.8406 149.66 91.3599 149.962 93.4604L150.024 93.9499H139.156L139.228 93.6134C139.364 92.9914 139.697 92.1756 140.03 91.625C141.144 89.8202 143.674 88.9025 146.141 89.4123ZM216.33 87.2302C212.925 87.5463 210.437 89.6061 209.532 92.8588C209.209 94.0009 209.188 96.9681 209.49 98.0796C209.938 99.7314 210.635 100.914 211.78 101.985C213.061 103.168 214.477 103.749 216.632 103.953C220.088 104.279 223.065 102.892 224.315 100.364C224.554 99.8946 224.773 99.3847 224.814 99.2216L224.877 98.9463H222.295L222.045 99.4765C221.566 100.506 220.484 101.312 219.099 101.669C218.256 101.883 216.673 101.883 215.809 101.659C213.508 101.077 211.916 99.1298 211.676 96.6112L211.603 95.8873H225.064V94.837C225.054 91.1356 223.149 88.3926 219.942 87.4851C219.453 87.3526 217.464 87.0875 217.256 87.1384C217.225 87.1384 216.809 87.1792 216.33 87.2302ZM218.745 89.4123C220.723 89.8202 222.118 91.2375 222.503 93.2055L222.649 93.9499H211.739L211.801 93.6644C212.353 91.3905 213.842 89.861 215.944 89.4123C216.788 89.2288 217.881 89.2288 218.745 89.4123ZM234.09 87.2302C231.238 87.5361 229.124 88.9637 228.406 91.0744C228.062 92.0635 228 92.0125 229.468 92.0125H230.738L230.925 91.5536C231.54 90.1057 232.716 89.4021 234.757 89.29C238.098 89.0962 239.837 90.6155 239.847 93.7153V94.2354L236.027 94.2864C231.883 94.3272 231.508 94.3781 230.29 94.939C229.603 95.2551 228.698 96.0504 228.333 96.652C227.823 97.5187 227.625 99.2522 227.917 100.333C228.354 101.954 229.593 103.137 231.456 103.718C231.862 103.851 232.393 103.892 233.653 103.892C235.121 103.892 235.402 103.861 236.047 103.657C237.161 103.29 238.057 102.76 238.837 101.985C239.535 101.292 239.535 101.292 240.108 101.292H240.68V103.739H243.491V101.098L242.898 101.067L242.294 101.037L242.231 96.3971C242.169 91.2885 242.179 91.3191 241.482 90.0241C240.555 88.3111 238.598 87.322 235.891 87.1894C235.35 87.1588 234.538 87.1792 234.09 87.2302ZM239.847 96.8356C239.847 98.7016 238.785 100.353 237.026 101.22C235.87 101.781 235.121 101.934 233.757 101.883C231.425 101.781 230.165 100.792 230.165 99.0482C230.165 97.9572 230.509 97.2638 231.29 96.754C232.06 96.2645 232.549 96.2034 236.339 96.2034L239.847 96.1932V96.8356ZM205.721 87.4341C205.242 87.4749 204.555 87.6075 204.191 87.7299C202.994 88.1173 201.724 89.086 201.151 90.0445C200.891 90.483 200.891 90.483 200.276 90.483H199.662V87.5259H196.851V90.0649L197.559 90.0955L198.257 90.1261L198.288 96.9273L198.309 103.739H200.807V99.0177C200.807 93.8479 200.849 93.4604 201.432 92.247C201.817 91.4313 202.817 90.4218 203.618 90.0445C204.43 89.657 205.461 89.4633 206.773 89.4633H207.887V87.322L207.241 87.3322C206.877 87.3424 206.2 87.3832 205.721 87.4341ZM113.879 95.6323V103.739H116.377V87.5259H113.879V95.6323ZM119.563 87.6483C119.625 87.7502 124.695 94.1742 125.559 95.2449C125.632 95.3264 124.674 96.601 122.446 99.4255C120.677 101.659 119.188 103.545 119.146 103.606C119.084 103.708 119.375 103.739 120.458 103.739L121.843 103.729L124.497 100.374C125.955 98.5282 127.183 97.0497 127.225 97.0905C127.267 97.1313 128.464 98.6302 129.89 100.425L132.472 103.688L133.898 103.718C134.679 103.729 135.324 103.718 135.324 103.688C135.324 103.657 133.846 101.771 132.056 99.4969L128.776 95.3672L131.889 91.4517L135.012 87.5259H132.253L129.765 90.6359C128.047 92.7976 127.246 93.7255 127.163 93.6542C127.1 93.6032 125.976 92.2062 124.654 90.5442L122.259 87.5361H120.874C119.792 87.5259 119.5 87.5565 119.563 87.6483Z" fill="black"/>
<defs>
<clipPath id="clip0_4_1114">
<rect width="52" height="52" fill="white" transform="translate(16 66)"/>
</clipPath>
</defs>
</svg>
