<svg width="40" height="40" viewBox="0 0 40 40" fill="none" xmlns="http://www.w3.org/2000/svg">
<path d="M20.2782 38.0001C29.3912 38.0001 36.7787 30.3531 36.7787 20.9201C36.7787 11.4871 29.3912 3.84012 20.2782 3.84012C11.1652 3.84012 3.77765 11.4871 3.77765 20.9201C3.77765 30.3531 11.1652 38.0001 20.2782 38.0001Z" fill="black"/>
<path d="M20.2782 36.5397C28.612 36.5397 35.3678 29.5466 35.3678 20.9201C35.3678 12.2936 28.612 5.30051 20.2782 5.30051C11.9444 5.30051 5.18854 12.2936 5.18854 20.9201C5.18854 29.5466 11.9444 36.5397 20.2782 36.5397Z" fill="#BDC9D4"/>
<path d="M23.354 33.758C31.4427 31.6815 36.4984 23.7306 34.646 15.9991C32.7936 8.26762 24.7347 3.68332 16.646 5.75978C8.55719 7.83625 3.50157 15.7872 5.35393 23.5187C7.20629 31.2502 15.2652 35.8345 23.354 33.758Z" fill="#FBF9F3"/>
<path fill-rule="evenodd" clip-rule="evenodd" d="M26.766 20.5788C26.766 19.4121 27.5251 18.7614 28.5219 18.7614C29.4113 18.7614 30.3774 19.7614 30.3774 20.5788C30.3774 21.3646 30.1474 21.5551 29.718 21.5551H27.6849C27.4166 21.5551 26.766 21.342 26.766 20.5788ZM13.8144 20.5789C13.8144 19.4121 13.0553 18.7614 12.0586 18.7614C11.1692 18.7614 10.2031 19.7614 10.2031 20.5789C10.2031 21.3646 10.4331 21.5551 10.8625 21.5551H12.8955C13.1639 21.5551 13.8144 21.3421 13.8144 20.5789ZM20.1401 23.6345C21.275 23.6345 21.9344 22.7297 21.9344 21.9677C21.9344 21.4916 22.2717 21.3408 22.5401 21.3408C22.8085 21.3408 23.1305 21.5551 23.1305 21.9677C23.1305 22.6979 22.3945 24.8568 20.4009 24.8568C18.6066 24.8568 17.3339 23.6027 17.2572 22.3805C17.1959 21.4026 17.5587 21.2799 17.7785 21.3408C18.0393 21.3408 18.3152 21.3963 18.3152 21.9677C18.3152 22.5392 18.944 23.6345 20.1401 23.6345Z" fill="black"/>
</svg>
