<svg width="32" height="32" viewBox="0 0 32 32" fill="none" xmlns="http://www.w3.org/2000/svg">
<rect width="32" height="32" fill="white"/>
<g clip-path="url(#clip0_5659_4953)">
<path d="M8.57273 19.4723V9.3335H9.16049V22.852H8.57273L6.80944 12.7131V22.852H6.22168V9.3335H6.80944L8.57273 19.4723Z" fill="#3C593D"/>
<path d="M12.154 22.2643C12.3132 22.2643 12.4479 22.2091 12.5581 22.0989C12.6806 21.9887 12.7418 21.8479 12.7418 21.6765V10.509C12.7418 10.3498 12.6806 10.2151 12.5581 10.1049C12.4479 9.98248 12.3132 9.92126 12.154 9.92126C11.9826 9.92126 11.8418 9.98248 11.7316 10.1049C11.6214 10.2151 11.5663 10.3498 11.5663 10.509V21.6765C11.5663 21.8479 11.6214 21.9887 11.7316 22.0989C11.8418 22.2091 11.9826 22.2643 12.154 22.2643ZM12.154 22.852C11.8234 22.852 11.5418 22.7418 11.3091 22.5214C11.0887 22.2887 10.9785 22.0071 10.9785 21.6765V10.509C10.9785 10.1906 11.0887 9.91514 11.3091 9.68248C11.5418 9.44982 11.8234 9.3335 12.154 9.3335C12.4724 9.3335 12.7479 9.44982 12.9806 9.68248C13.2132 9.91514 13.3296 10.1906 13.3296 10.509V21.6765C13.3296 22.0071 13.2132 22.2887 12.9806 22.5214C12.7479 22.7418 12.4724 22.852 12.154 22.852Z" fill="#3C593D"/>
<path d="M18.5276 9.3335H19.1153V22.852H18.5276V11.6845L17.0582 17.5622L15.5887 11.6845V22.852H15.001V9.3335H15.5887L17.0582 15.2111L18.5276 9.3335Z" fill="#3C593D"/>
<path d="M20.8604 22.852V9.3335H21.4481V22.852H20.8604Z" fill="#3C593D"/>
<path d="M24.3684 22.852C24.0378 22.852 23.7562 22.7418 23.5235 22.5214C23.3031 22.2887 23.1929 22.0071 23.1929 21.6765V10.509C23.1929 10.1906 23.3031 9.91514 23.5235 9.68248C23.7562 9.44982 24.0378 9.3335 24.3684 9.3335C24.6868 9.3335 24.9623 9.44982 25.1949 9.68248C25.4276 9.91514 25.5439 10.1906 25.5439 10.509V11.6845H24.9562V10.509C24.9562 10.3498 24.8949 10.2151 24.7725 10.1049C24.6623 9.98248 24.5276 9.92126 24.3684 9.92126C24.197 9.92126 24.0562 9.98248 23.946 10.1049C23.8357 10.2151 23.7806 10.3498 23.7806 10.509V21.6765C23.7806 21.8479 23.8357 21.9887 23.946 22.0989C24.0562 22.2091 24.197 22.2643 24.3684 22.2643C24.5276 22.2643 24.6623 22.2091 24.7725 22.0989C24.8949 21.9887 24.9562 21.8479 24.9562 21.6765V20.501H25.5439V21.6765C25.5439 22.0071 25.4276 22.2887 25.1949 22.5214C24.9623 22.7418 24.6868 22.852 24.3684 22.852Z" fill="#3C593D"/>
</g>
<defs>
<clipPath id="clip0_5659_4953">
<rect width="19.4667" height="13.542" fill="white" transform="translate(6.1333 9.3335)"/>
</clipPath>
</defs>
</svg>
