<svg width="280" height="184" viewBox="0 0 280 184" fill="none" xmlns="http://www.w3.org/2000/svg">
<rect width="280" height="184" fill="white"/>
<g clip-path="url(#clip0_5659_4903)">
<path d="M88.1665 116.093V44.7393H92.303V139.878H88.1665L75.7571 68.524V139.878H71.6206V44.7393H75.7571L88.1665 116.093Z" fill="#3C593D"/>
<path d="M113.373 135.742C114.493 135.742 115.441 135.354 116.216 134.578C117.078 133.802 117.509 132.812 117.509 131.605V53.0122C117.509 51.8919 117.078 50.944 116.216 50.1684C115.441 49.3066 114.493 48.8757 113.373 48.8757C112.166 48.8757 111.175 49.3066 110.399 50.1684C109.624 50.944 109.236 51.8919 109.236 53.0122V131.605C109.236 132.812 109.624 133.802 110.399 134.578C111.175 135.354 112.166 135.742 113.373 135.742ZM113.373 139.878C111.046 139.878 109.064 139.102 107.426 137.551C105.875 135.914 105.1 133.932 105.1 131.605V53.0122C105.1 50.7716 105.875 48.8326 107.426 47.1953C109.064 45.5579 111.046 44.7393 113.373 44.7393C115.613 44.7393 117.552 45.5579 119.189 47.1953C120.827 48.8326 121.646 50.7716 121.646 53.0122V131.605C121.646 133.932 120.827 135.914 119.189 137.551C117.552 139.102 115.613 139.878 113.373 139.878Z" fill="#3C593D"/>
<path d="M158.228 44.7393H162.364V139.878H158.228V61.2852L147.886 102.65L137.545 61.2852V139.878H133.409V44.7393H137.545L147.886 86.104L158.228 44.7393Z" fill="#3C593D"/>
<path d="M174.646 139.878V44.7393H178.782V139.878H174.646Z" fill="#3C593D"/>
<path d="M199.334 139.878C197.008 139.878 195.025 139.102 193.388 137.551C191.837 135.914 191.061 133.932 191.061 131.605V53.0122C191.061 50.7716 191.837 48.8326 193.388 47.1953C195.025 45.5579 197.008 44.7393 199.334 44.7393C201.575 44.7393 203.513 45.5579 205.151 47.1953C206.788 48.8326 207.607 50.7716 207.607 53.0122V61.2852H203.47V53.0122C203.47 51.8919 203.04 50.944 202.178 50.1684C201.402 49.3066 200.454 48.8757 199.334 48.8757C198.127 48.8757 197.137 49.3066 196.361 50.1684C195.585 50.944 195.198 51.8919 195.198 53.0122V131.605C195.198 132.812 195.585 133.802 196.361 134.578C197.137 135.354 198.127 135.742 199.334 135.742C200.454 135.742 201.402 135.354 202.178 134.578C203.04 133.802 203.47 132.812 203.47 131.605V123.332H207.607V131.605C207.607 133.932 206.788 135.914 205.151 137.551C203.513 139.102 201.575 139.878 199.334 139.878Z" fill="#3C593D"/>
</g>
<defs>
<clipPath id="clip0_5659_4903">
<rect width="137" height="95.3043" fill="white" transform="translate(71 44.7393)"/>
</clipPath>
</defs>
</svg>
