<svg width="120" height="120" viewBox="0 0 120 120" fill="none" xmlns="http://www.w3.org/2000/svg">
<rect width="120" height="120" fill="white"/>
<g clip-path="url(#clip0_5659_4703)">
<path d="M94.2648 52.7424C96.0798 47.2949 95.4548 41.3274 92.5523 36.3724C88.1873 28.7724 79.4123 24.8624 70.8423 26.7024C67.0298 22.4074 61.5523 19.9649 55.8098 19.9999C47.0498 19.9799 39.2773 25.6199 36.5823 33.9549C30.9548 35.1074 26.0973 38.6299 23.2548 43.6224C18.8573 51.2024 19.8598 60.7574 25.7348 67.2574C23.9198 72.7049 24.5448 78.6724 27.4473 83.6274C31.8123 91.2274 40.5873 95.1374 49.1573 93.2974C52.9673 97.5924 58.4473 100.035 64.1898 99.9974C72.9548 100.02 80.7298 94.3749 83.4248 86.0324C89.0523 84.8799 93.9098 81.3574 96.7523 76.3649C101.145 68.7849 100.14 59.2374 94.2673 52.7374L94.2648 52.7424ZM64.1948 94.7699C60.6873 94.7749 57.2898 93.5474 54.5973 91.2999C54.7198 91.2349 54.9323 91.1174 55.0698 91.0324L70.9998 81.8324C71.8148 81.3699 72.3148 80.5024 72.3098 79.5649V57.1074L79.0423 60.9949C79.1148 61.0299 79.1623 61.0999 79.1723 61.1799V79.7774C79.1623 88.0474 72.4648 94.7524 64.1948 94.7699ZM31.9848 81.0124C30.2273 77.9774 29.5948 74.4199 30.1973 70.9674C30.3148 71.0374 30.5223 71.1649 30.6698 71.2499L46.5998 80.4499C47.4073 80.9224 48.4073 80.9224 49.2173 80.4499L68.6648 69.2199V76.9949C68.6698 77.0749 68.6323 77.1524 68.5698 77.2024L52.4673 86.4999C45.2948 90.6299 36.1348 88.1749 31.9873 81.0124H31.9848ZM27.7923 46.2399C29.5423 43.1999 32.3048 40.8749 35.5948 39.6674C35.5948 39.8049 35.5873 40.0474 35.5873 40.2174V58.6199C35.5823 59.5549 36.0823 60.4224 36.8948 60.8849L56.3423 72.1124L49.6098 75.9999C49.5423 76.0449 49.4573 76.0524 49.3823 76.0199L33.2773 66.7149C26.1198 62.5699 23.6648 53.4124 27.7898 46.2424L27.7923 46.2399ZM83.1073 59.1124L63.6598 47.8824L70.3923 43.9974C70.4598 43.9524 70.5448 43.9449 70.6198 43.9774L86.7248 53.2749C93.8948 57.4174 96.3523 66.5899 92.2098 73.7599C90.4573 76.7949 87.6973 79.1199 84.4098 80.3299V61.3774C84.4173 60.4424 83.9198 59.5774 83.1098 59.1124H83.1073ZM89.8073 49.0274C89.6898 48.9549 89.4823 48.8299 89.3348 48.7449L73.4048 39.5449C72.5973 39.0724 71.5973 39.0724 70.7873 39.5449L51.3398 50.7749V42.9999C51.3348 42.9199 51.3723 42.8424 51.4348 42.7924L67.5373 33.5024C74.7098 29.3649 83.8798 31.8274 88.0148 39.0024C89.7623 42.0324 90.3948 45.5799 89.8023 49.0274H89.8073ZM47.6798 62.8849L40.9448 58.9974C40.8723 58.9624 40.8248 58.8924 40.8148 58.8124V40.2149C40.8198 31.9349 47.5373 25.2249 55.8173 25.2299C59.3198 25.2299 62.7098 26.4599 65.4023 28.6999C65.2798 28.7649 65.0698 28.8824 64.9298 28.9674L48.9998 38.1674C48.1848 38.6299 47.6848 39.4949 47.6898 40.4324L47.6798 62.8799V62.8849ZM51.3373 54.9999L59.9998 49.9974L68.6623 54.9974V64.9999L59.9998 69.9999L51.3373 64.9999V54.9999Z" fill="black"/>
</g>
<defs>
<clipPath id="clip0_5659_4703">
<rect width="80" height="80" fill="white" transform="translate(20 20)"/>
</clipPath>
</defs>
</svg>
