<svg width="280" height="184" viewBox="0 0 280 184" fill="none" xmlns="http://www.w3.org/2000/svg">
<rect width="280" height="184" fill="white"/>
<g clip-path="url(#clip0_4_1533)">
<path d="M40.895 70.3333H20.3333V90.8992H40.8993V70.3333H40.895Z" fill="#F25022"/>
<path d="M63.6667 70.3333H43.1007V90.8992H63.6667V70.3333Z" fill="#7FBA00"/>
<path d="M40.895 93.1006H20.3333V113.667H40.8993V93.1006H40.895Z" fill="#00A4EF"/>
<path d="M63.6667 93.1006H43.1007V113.667H63.6667V93.1006Z" fill="#FFB900"/>
</g>
<path fill-rule="evenodd" clip-rule="evenodd" d="M121.718 77.3034V108.454H116.308V84.0367H116.221L106.554 108.454H102.969L93.0608 84.0367H92.9963V108.454H88V77.3034H95.7557L104.705 100.397H104.834L114.288 77.3034H121.718ZM126.241 79.6714C126.241 78.8027 126.556 78.0751 127.187 77.4887C127.791 76.9107 128.598 76.5945 129.434 76.6081C130.36 76.6081 131.13 76.909 131.738 77.5091C132.346 78.1108 132.65 78.8316 132.65 79.6714C132.65 80.5247 132.338 81.2438 131.717 81.8201C131.093 82.4014 130.333 82.6904 129.434 82.6904C128.537 82.6904 127.779 82.398 127.165 81.8116C126.868 81.541 126.633 81.2102 126.473 80.8412C126.314 80.4722 126.235 80.0734 126.241 79.6714ZM126.784 108.454H132.041V86.1225H126.784V108.454ZM147.988 104.63C148.77 104.63 149.633 104.453 150.573 104.089C151.504 103.733 152.382 103.25 153.181 102.654V107.543C152.286 108.041 151.323 108.407 150.324 108.629C149.172 108.885 147.996 109.008 146.816 108.998C143.526 108.998 140.855 107.96 138.798 105.881C136.742 103.805 135.713 101.15 135.713 97.92C135.713 94.328 136.764 91.3702 138.864 89.0464C140.964 86.7209 143.94 85.5599 147.793 85.5599C148.777 85.5599 149.774 85.6857 150.78 85.939C151.787 86.1905 152.586 86.4829 153.181 86.8195V91.8581C152.416 91.2903 151.579 90.8262 150.692 90.4777C149.864 90.1558 148.985 89.9903 148.097 89.9899C146.028 89.9899 144.354 90.663 143.077 92.011C141.805 93.3574 141.167 95.1763 141.167 97.4627C141.167 99.7219 141.778 101.483 143.002 102.741C144.227 104.002 145.887 104.63 147.988 104.63ZM168.148 85.7554C168.569 85.7554 168.947 85.7843 169.28 85.8421C169.61 85.8999 169.895 85.9713 170.128 86.0596V91.3821C169.851 91.1781 169.449 90.9877 168.922 90.8075C168.391 90.6239 167.752 90.5355 166.999 90.5355C165.71 90.5355 164.619 91.0795 163.729 92.164C162.838 93.252 162.394 94.9247 162.394 97.1822V108.456H157.136V86.1242H162.394V89.6431H162.479C162.957 88.4259 163.681 87.474 164.651 86.7855C165.621 86.0987 166.788 85.7554 168.148 85.7554ZM170.413 97.6157C170.413 93.9235 171.454 90.9979 173.538 88.8407C175.626 86.6818 178.523 85.6041 182.228 85.6041C185.722 85.6041 188.446 86.6427 190.41 88.7217C192.372 90.8007 193.352 93.6056 193.352 97.1397C193.352 100.761 192.311 103.642 190.225 105.784C188.139 107.929 185.3 108.998 181.708 108.998C178.246 108.998 175.499 107.982 173.465 105.947C171.428 103.912 170.413 101.138 170.413 97.6157ZM175.887 97.444C175.887 99.7729 176.413 101.558 177.473 102.787C178.528 104.018 180.042 104.633 182.013 104.633C183.926 104.633 185.38 104.018 186.379 102.787C187.379 101.558 187.878 99.7321 187.878 97.3131C187.878 94.9077 187.361 93.0939 186.326 91.8734C185.29 90.6477 183.836 90.034 181.971 90.034C180.042 90.034 178.547 90.6749 177.483 91.9584C176.418 93.2401 175.887 95.0675 175.887 97.444ZM201.174 91.9907C201.174 92.7437 201.413 93.3336 201.89 93.762C202.37 94.1869 203.425 94.7275 205.063 95.3786C207.163 96.22 208.638 97.1652 209.485 98.2174C210.333 99.2629 210.755 100.536 210.755 102.025C210.755 104.128 209.948 105.816 208.333 107.089C206.72 108.364 204.534 109 201.783 109C200.75 108.989 199.72 108.877 198.708 108.663C197.586 108.439 196.634 108.153 195.851 107.803V102.636C196.807 103.3 197.835 103.831 198.937 104.222C200.038 104.613 201.037 104.806 201.936 104.806C203.121 104.806 203.998 104.641 204.564 104.307C205.126 103.975 205.411 103.417 205.411 102.637C205.411 101.911 205.119 101.299 204.531 100.8C203.944 100.3 202.835 99.7236 201.196 99.0725C199.256 98.2616 197.879 97.3488 197.068 96.3356C196.259 95.3225 195.851 94.0339 195.851 92.4683C195.851 90.4539 196.653 88.7999 198.252 87.5046C199.853 86.2075 201.927 85.5616 204.476 85.5616C205.256 85.5616 206.135 85.6466 207.105 85.82C208.077 85.9951 208.888 86.2194 209.539 86.4931V91.4909C208.779 90.9956 207.961 90.5944 207.105 90.2958C206.222 89.9706 205.289 89.8015 204.347 89.7961C203.347 89.7961 202.568 89.9916 202.01 90.3825C201.454 90.7735 201.174 91.3107 201.174 91.9907ZM213.016 97.6174C213.016 93.9235 214.057 90.9979 216.143 88.8407C218.229 86.6818 221.124 85.6041 224.833 85.6041C228.325 85.6041 231.051 86.6427 233.014 88.7217C234.977 90.8007 235.957 93.6056 235.957 97.1397C235.957 100.761 234.912 103.642 232.83 105.784C230.744 107.929 227.903 108.998 224.311 108.998C220.851 108.998 218.103 107.982 216.067 105.947C214.031 103.912 213.016 101.136 213.016 97.614V97.6174ZM218.488 97.444C218.488 99.7729 219.019 101.558 220.074 102.787C221.134 104.018 222.647 104.633 224.614 104.633C226.527 104.633 227.984 104.018 228.983 102.787C229.98 101.558 230.481 99.7321 230.481 97.3131C230.481 94.9077 229.965 93.0939 228.927 91.8734C227.894 90.6477 226.439 90.034 224.574 90.034C222.647 90.034 221.151 90.6749 220.086 91.9584C219.021 93.2401 218.488 95.0675 218.488 97.444ZM253.398 90.4267H245.566V108.454H240.248V90.425H236.512V86.1242H240.248V83.0168C240.248 80.6709 241.011 78.7483 242.541 77.249C244.065 75.748 246.026 75 248.416 75C249.053 75 249.616 75.034 250.108 75.0986C250.603 75.1632 251.038 75.2601 251.414 75.391V79.9332C251.121 79.7823 250.814 79.6582 250.498 79.5626C250.014 79.41 249.508 79.3366 249.001 79.345C247.902 79.345 247.054 79.6884 246.46 80.3768C245.867 81.0653 245.566 82.0835 245.566 83.4282V86.1242H253.398V81.1061L258.678 79.498V86.1242H264V90.425H258.678V100.873C258.678 102.25 258.927 103.219 259.428 103.783C259.926 104.351 260.713 104.631 261.787 104.631C262.089 104.631 262.455 104.56 262.884 104.414C263.308 104.269 263.681 104.097 264 103.893V108.238C263.668 108.429 263.113 108.601 262.338 108.76C261.563 108.918 260.801 108.998 260.048 108.998C257.83 108.998 256.17 108.408 255.059 107.225C253.951 106.049 253.397 104.269 253.397 101.894V90.425L253.398 90.4267Z" fill="black"/>
<defs>
<clipPath id="clip0_4_1533">
<rect width="52" height="52" fill="white" transform="translate(16 66)"/>
</clipPath>
</defs>
</svg>
