<svg width="32" height="32" viewBox="0 0 32 32" fill="none" xmlns="http://www.w3.org/2000/svg">
<rect width="32" height="32" fill="white"/>
<path d="M16.7046 3.56336C17.1631 4.36836 17.6193 5.1757 18.0743 5.9842C18.0927 6.01653 18.1194 6.0434 18.1515 6.06205C18.1837 6.08071 18.2203 6.09048 18.2575 6.09036H24.7348C24.9378 6.09036 25.1105 6.2187 25.2551 6.47186L26.9515 9.4702C27.1731 9.86336 27.2315 10.0279 26.9795 10.4467C26.6761 10.9484 26.381 11.4547 26.0928 11.9634L25.6646 12.731C25.541 12.9597 25.4045 13.0577 25.618 13.3284L28.712 18.7382C28.9126 19.0894 28.8415 19.3145 28.6618 19.6365C28.152 20.5524 27.6328 21.4612 27.1043 22.3665C26.9188 22.6839 26.6936 22.804 26.311 22.7982C25.4045 22.7795 24.5003 22.7865 23.5961 22.8169C23.5768 22.8179 23.5579 22.8237 23.5414 22.8339C23.5249 22.8441 23.5112 22.8583 23.5016 22.8752C22.4585 24.7235 21.4065 26.5669 20.3458 28.4052C20.1486 28.747 19.9025 28.8287 19.5 28.8299C18.3368 28.8334 17.1643 28.8345 15.9801 28.8322C15.8699 28.8319 15.7617 28.8025 15.6664 28.747C15.5712 28.6915 15.4923 28.6118 15.4376 28.516L13.8801 25.8059C13.8711 25.7881 13.8572 25.7733 13.84 25.7632C13.8229 25.7531 13.8032 25.7481 13.7833 25.7487H7.81231C7.47981 25.7837 7.16715 25.7475 6.87315 25.6414L5.00298 22.4097C4.94767 22.314 4.91835 22.2055 4.91795 22.095C4.91754 21.9845 4.94605 21.8758 5.00065 21.7797L6.40881 19.3064C6.42887 19.2714 6.43942 19.2318 6.43942 19.1914C6.43942 19.1511 6.42887 19.1115 6.40881 19.0765C5.67529 17.8066 4.94612 16.5341 4.22131 15.2592L3.29965 13.6317C3.11298 13.27 3.09781 13.053 3.41048 12.5059C3.95298 11.5574 4.49198 10.61 5.02865 9.66386C5.18265 9.39086 5.38331 9.2742 5.70998 9.27303C6.71681 9.26879 7.72365 9.2684 8.73048 9.27186C8.75591 9.27167 8.78084 9.26477 8.80276 9.25187C8.82467 9.23896 8.8428 9.22051 8.85531 9.19836L12.129 3.48753C12.1786 3.40065 12.2502 3.32838 12.3367 3.278C12.4231 3.22761 12.5213 3.20089 12.6213 3.20053C13.2326 3.19936 13.8498 3.20053 14.4681 3.19353L15.6546 3.1667C16.0525 3.1632 16.4993 3.20403 16.7046 3.56336ZM12.7006 4.03353C12.6884 4.03352 12.6763 4.03675 12.6656 4.0429C12.655 4.04904 12.6461 4.05788 12.64 4.06853L9.29631 9.91936C9.28026 9.94694 9.25728 9.96984 9.22966 9.9858C9.20203 10.0018 9.17072 10.0102 9.13881 10.0104H5.79515C5.72981 10.0104 5.71348 10.0395 5.74731 10.0967L12.5256 21.9454C12.5548 21.9944 12.5408 22.0177 12.486 22.0189L9.22515 22.0364C9.17748 22.0348 9.13032 22.0466 9.08906 22.0706C9.0478 22.0945 9.0141 22.1295 8.99181 22.1717L7.45181 24.8667C7.40048 24.9577 7.42731 25.0044 7.53115 25.0044L14.1998 25.0137C14.2535 25.0137 14.2931 25.037 14.3211 25.0849L15.958 27.9479C16.0116 28.0424 16.0653 28.0435 16.1201 27.9479L21.9605 17.7279L22.874 16.1155C22.8796 16.1056 22.8877 16.0973 22.8975 16.0915C22.9074 16.0857 22.9186 16.0827 22.93 16.0827C22.9414 16.0827 22.9526 16.0857 22.9624 16.0915C22.9723 16.0973 22.9804 16.1056 22.986 16.1155L24.6473 19.0672C24.6598 19.0893 24.6779 19.1076 24.6999 19.1204C24.7218 19.1331 24.7468 19.1397 24.7721 19.1395L27.9956 19.1162C28.0039 19.1163 28.012 19.1142 28.0192 19.1101C28.0264 19.106 28.0323 19.1 28.0365 19.0929C28.0405 19.0857 28.0426 19.0777 28.0426 19.0695C28.0426 19.0614 28.0405 19.0533 28.0365 19.0462L24.6531 13.1125C24.641 13.0927 24.6345 13.0699 24.6345 13.0466C24.6345 13.0233 24.641 13.0005 24.6531 12.9807L24.995 12.3892L26.3016 10.0827C26.3296 10.0349 26.3156 10.0104 26.2608 10.0104H12.7333C12.6645 10.0104 12.6481 9.98003 12.6831 9.92053L14.3561 6.99803C14.3687 6.97812 14.3753 6.95506 14.3753 6.93153C14.3753 6.908 14.3687 6.88495 14.3561 6.86503L12.7625 4.0697C12.7564 4.05866 12.7474 4.04947 12.7365 4.0431C12.7257 4.03674 12.7133 4.03343 12.7006 4.03353ZM20.039 13.3902C20.0926 13.3902 20.1066 13.4135 20.0786 13.4602L19.108 15.1694L16.0595 20.5185C16.0538 20.5289 16.0453 20.5376 16.035 20.5436C16.0247 20.5495 16.013 20.5526 16.0011 20.5524C15.9893 20.5523 15.9777 20.5492 15.9675 20.5432C15.9572 20.5373 15.9487 20.5288 15.9428 20.5185L11.9143 13.4812C11.891 13.4415 11.9026 13.4205 11.947 13.4182L12.199 13.4042L20.0413 13.3902H20.039Z" fill="url(#paint0_linear_1_487)"/>
<defs>
<linearGradient id="paint0_linear_1_487" x1="-0.240019" y1="23.84" x2="32.8" y2="11.94" gradientUnits="userSpaceOnUse">
<stop stop-color="#00055F" stop-opacity="0.84"/>
<stop offset="1" stop-color="#6F69F7" stop-opacity="0.84"/>
</linearGradient>
</defs>
</svg>
