<svg width="280" height="184" viewBox="0 0 280 184" fill="none" xmlns="http://www.w3.org/2000/svg">
<rect width="280" height="184" fill="white"/>
<path d="M54.3372 59.1317C55.5325 61.2592 56.7218 63.3928 57.9081 65.5296C57.956 65.615 58.0255 65.686 58.1094 65.7353C58.1933 65.7846 58.2886 65.8105 58.3856 65.8102H75.273C75.8022 65.8102 76.2524 66.1493 76.6295 66.8184L81.0521 74.7426C81.63 75.7817 81.7821 76.2164 81.1251 77.3233C80.3343 78.6492 79.5647 79.9873 78.8135 81.3317L77.6972 83.3605C77.3747 83.9648 77.0189 84.2238 77.5755 84.9392L85.642 99.2366C86.1652 100.165 85.9796 100.76 85.5112 101.611C84.182 104.031 82.8285 106.433 81.4506 108.826C80.967 109.664 80.3799 109.982 79.3822 109.967C77.0189 109.917 74.6616 109.936 72.3043 110.016C72.2537 110.019 72.2047 110.034 72.1616 110.061C72.1186 110.088 72.0829 110.125 72.0579 110.17C69.3382 115.055 66.5956 119.927 63.8302 124.785C63.3162 125.688 62.6744 125.904 61.625 125.907C58.5925 125.917 55.5356 125.92 52.4483 125.914C52.1609 125.913 51.8787 125.835 51.6304 125.688C51.382 125.542 51.1763 125.331 51.0339 125.078L46.9733 117.915C46.9497 117.869 46.9134 117.829 46.8687 117.803C46.824 117.776 46.7727 117.763 46.7208 117.764H31.1536C30.2867 117.857 29.4715 117.761 28.705 117.481L23.8292 108.94C23.685 108.687 23.6086 108.4 23.6075 108.108C23.6065 107.816 23.6808 107.529 23.8232 107.275L27.4945 100.738C27.5467 100.646 27.5743 100.541 27.5743 100.434C27.5743 100.328 27.5467 100.223 27.4945 100.131C25.5821 96.7745 23.681 93.4116 21.7913 90.0421L19.3884 85.7408C18.9017 84.785 18.8622 84.2115 19.6774 82.7654C21.0917 80.2587 22.497 77.755 23.8962 75.2544C24.2977 74.5329 24.8208 74.2246 25.6725 74.2215C28.2974 74.2103 30.9224 74.2093 33.5474 74.2184C33.6137 74.2179 33.6787 74.1997 33.7358 74.1656C33.7929 74.1315 33.8402 74.0827 33.8728 74.0242L42.4077 58.9313C42.5371 58.7016 42.7238 58.5106 42.9492 58.3775C43.1745 58.2443 43.4305 58.1737 43.6913 58.1728C45.2852 58.1697 46.8942 58.1728 48.5063 58.1543L51.5997 58.0833C52.6369 58.0741 53.8018 58.182 54.3372 59.1317ZM43.8982 60.3743C43.8661 60.3742 43.8346 60.3828 43.8068 60.399C43.7791 60.4152 43.756 60.4386 43.74 60.4668L35.0226 75.9297C34.9807 76.0025 34.9208 76.0631 34.8488 76.1052C34.7768 76.1474 34.6951 76.1698 34.612 76.1702H25.8945C25.7242 76.1702 25.6816 76.2473 25.7698 76.3983L43.4419 107.713C43.518 107.842 43.4815 107.904 43.3385 107.907L34.837 107.953C34.7128 107.949 34.5898 107.98 34.4822 108.044C34.3747 108.107 34.2868 108.199 34.2287 108.311L30.2137 115.433C30.0799 115.674 30.1498 115.797 30.4205 115.797L47.8067 115.822C47.9466 115.822 48.05 115.884 48.123 116.01L52.3905 123.576C52.5304 123.826 52.6703 123.829 52.8133 123.576L68.0399 96.5664L70.4215 92.3052C70.436 92.2789 70.4572 92.257 70.4829 92.2418C70.5085 92.2265 70.5377 92.2185 70.5675 92.2185C70.5972 92.2185 70.6265 92.2265 70.6521 92.2418C70.6778 92.257 70.699 92.2789 70.7135 92.3052L75.0448 100.106C75.0774 100.164 75.1247 100.213 75.1819 100.247C75.2391 100.28 75.3042 100.298 75.3703 100.297L83.7744 100.236C83.796 100.236 83.8172 100.23 83.8359 100.219C83.8546 100.209 83.8701 100.193 83.8809 100.174C83.8913 100.155 83.8967 100.134 83.8967 100.112C83.8967 100.091 83.8913 100.069 83.8809 100.051L75.06 84.3687C75.0283 84.3163 75.0115 84.256 75.0115 84.1945C75.0115 84.133 75.0283 84.0727 75.06 84.0203L75.9512 82.4571L79.3579 76.3613C79.4309 76.2349 79.3944 76.1702 79.2515 76.1702H43.9833C43.8039 76.1702 43.7613 76.09 43.8525 75.9328L48.2143 68.209C48.247 68.1564 48.2643 68.0954 48.2643 68.0333C48.2643 67.9711 48.247 67.9101 48.2143 67.8575L44.0594 60.4698C44.0435 60.4407 44.0201 60.4164 43.9917 60.3996C43.9634 60.3827 43.931 60.374 43.8982 60.3743ZM63.0302 85.1026C63.1702 85.1026 63.2067 85.1642 63.1337 85.2876L60.603 89.8047L52.6551 103.942C52.6402 103.969 52.6181 103.992 52.5913 104.008C52.5645 104.024 52.534 104.032 52.503 104.031C52.4722 104.031 52.4419 104.023 52.4152 104.007C52.3885 103.991 52.3664 103.969 52.351 103.942L41.8481 85.3431C41.7872 85.2382 41.8177 85.1827 41.9332 85.1766L42.5902 85.1396L63.0363 85.1026H63.0302Z" fill="url(#paint0_linear_2_214)"/>
<path fill-rule="evenodd" clip-rule="evenodd" d="M131.965 97.9023H139.68L142.919 101.574C144.887 100.006 146.456 98.0248 147.508 95.7811C148.6 93.498 149.158 91.0103 149.141 88.4952C149.141 84.343 147.819 81.0007 145.171 78.4623C142.544 75.9055 139.062 74.6291 134.726 74.6291C132.548 74.6291 130.51 75.0095 128.614 75.7705C126.703 76.5232 124.977 77.6533 123.545 79.0882C121.918 80.7021 120.627 82.6035 119.745 84.6886C118.865 86.7589 118.415 88.9759 118.421 91.2136C118.421 95.3107 119.715 98.6652 122.306 101.275C124.896 103.885 128.193 105.19 132.19 105.19C133.016 105.19 133.87 105.127 134.753 105C135.653 104.873 136.592 104.673 137.568 104.401L131.965 97.9023ZM146.042 114L141.536 108.968C139.941 109.568 138.401 110.011 136.918 110.302C135.475 110.606 134.003 110.761 132.527 110.764C126.235 110.764 121.244 109.025 117.546 105.544C113.849 102.063 112 97.3602 112 91.4305C112 88.2048 112.593 85.1877 113.773 82.3773C114.91 79.6148 116.648 77.1204 118.87 75.0627C120.986 73.1024 123.484 71.5685 126.22 70.5505C129 69.5175 131.974 69 135.147 69C141.322 69 146.268 70.7591 149.986 74.2752C153.704 77.7934 155.562 82.4775 155.562 88.3316C155.562 91.9398 154.812 95.2841 153.31 98.3645C151.846 101.401 149.643 104.051 146.889 106.088L153.761 114H146.042ZM158.207 83.983H164.317L168.653 97.1414L168.767 97.4686C169.293 99.0825 169.572 100.277 169.613 101.058C169.818 100.441 170.081 99.7902 170.401 99.0989C170.74 98.3932 171.151 97.6405 171.64 96.8427L180.594 82.0786L184.958 97.2764C185.127 97.8389 185.267 98.4198 185.382 99.017C185.494 99.6164 185.587 100.306 185.663 101.083C185.943 100.322 186.225 99.6348 186.506 99.017C186.807 98.4034 187.1 97.8675 187.379 97.4134L195.463 83.9809H202.333L184.229 111.361L179.723 96.9511C179.546 96.4143 179.396 95.8696 179.272 95.3189C179.15 94.6604 179.047 93.9987 178.963 93.3348C178.603 94.0626 178.236 94.7874 177.864 95.5091C177.546 96.1268 177.302 96.5605 177.133 96.8141L168.066 111.361L158.207 83.983ZM209.878 93.7705H223.647C223.592 92.0318 223.029 90.6614 221.959 89.6652C220.908 88.6486 219.489 88.1414 217.705 88.1414C215.678 88.1414 213.96 88.6486 212.554 89.6652C211.145 90.6798 210.253 92.0482 209.878 93.7705ZM223.308 101.846L227.674 105.135C226.117 107.111 224.427 108.551 222.607 109.459C220.785 110.365 218.693 110.819 216.326 110.819C212.365 110.819 209.166 109.668 206.724 107.365C204.284 105.045 203.063 101.999 203.063 98.2295C203.063 93.8073 204.462 90.1807 207.258 87.3539C210.075 84.5086 213.651 83.085 217.989 83.085C221.612 83.085 224.493 84.1732 226.632 86.3475C228.793 88.5055 229.873 91.4059 229.873 95.0489C229.873 95.3557 229.852 95.7545 229.816 96.2455C229.795 96.7159 229.759 97.2886 229.702 97.9575H209.344C209.344 100.295 209.954 102.163 211.175 103.558C212.395 104.937 214.017 105.624 216.047 105.624C217.453 105.624 218.786 105.299 220.044 104.646C221.337 103.962 222.453 103.004 223.311 101.846H223.308ZM253.637 109.758L255.664 94.9405C255.702 94.6684 255.73 94.3882 255.749 94.0977C255.768 93.7889 255.776 93.345 255.776 92.7641C255.776 91.0786 255.353 89.792 254.51 88.9043C253.664 87.9961 252.434 87.5441 250.821 87.5441C248.305 87.5441 246.335 88.3316 244.907 89.9086C243.481 91.4693 242.551 93.8707 242.119 97.1148L240.431 109.758H234.377L237.895 83.983H243.725L243.274 87.0818C244.814 85.7236 246.401 84.7173 248.034 84.0648C249.706 83.408 251.495 83.0751 253.3 83.085C256.039 83.085 258.172 83.7825 259.691 85.1795C261.231 86.5561 262 88.4973 262 90.9989C262 91.633 261.962 92.3755 261.888 93.2284C261.811 94.0609 261.699 95.0407 261.549 96.1636L259.691 109.76L253.637 109.758Z" fill="black"/>
<defs>
<linearGradient id="paint0_linear_2_214" x1="10.16" y1="112.72" x2="96.5663" y2="82.0196" gradientUnits="userSpaceOnUse">
<stop stop-color="#00055F" stop-opacity="0.84"/>
<stop offset="1" stop-color="#6F69F7" stop-opacity="0.84"/>
</linearGradient>
</defs>
</svg>
