<svg width="120" height="120" viewBox="0 0 120 120" fill="none" xmlns="http://www.w3.org/2000/svg">
<rect width="120" height="120" fill="white"/>
<path d="M62.5167 15.5833C64.1542 18.4583 65.7833 21.3416 67.4083 24.2291C67.474 24.3446 67.5692 24.4406 67.6841 24.5072C67.7991 24.5738 67.9297 24.6087 68.0625 24.6083H91.1958C91.9208 24.6083 92.5375 25.0666 93.0542 25.9708L99.1125 36.6791C99.9042 38.0833 100.113 38.6708 99.2125 40.1666C98.1292 41.9583 97.075 43.7666 96.0458 45.5833L94.5167 48.325C94.075 49.1416 93.5875 49.4916 94.35 50.4583L105.4 69.7791C106.117 71.0333 105.863 71.8375 105.221 72.9875C103.4 76.2583 101.546 79.5041 99.6583 82.7375C98.9958 83.8708 98.1917 84.3 96.825 84.2791C93.5875 84.2125 90.3583 84.2375 87.1292 84.3458C87.0599 84.3494 86.9927 84.3703 86.9337 84.4068C86.8748 84.4432 86.8259 84.4939 86.7917 84.5541C83.066 91.1553 79.309 97.7387 75.5208 104.304C74.8167 105.525 73.9375 105.817 72.5 105.821C68.3458 105.833 64.1583 105.837 59.9292 105.829C59.5354 105.828 59.1489 105.723 58.8088 105.525C58.4686 105.327 58.1867 105.042 57.9917 104.7L52.4292 95.0208C52.3968 94.9575 52.3471 94.9047 52.2859 94.8685C52.2247 94.8324 52.1544 94.8144 52.0833 94.8167H30.7583C29.5708 94.9417 28.4542 94.8125 27.4042 94.4333L20.725 82.8916C20.5275 82.5499 20.4228 82.1625 20.4213 81.7678C20.4199 81.373 20.5217 80.9848 20.7167 80.6416L25.7458 71.8083C25.8175 71.6834 25.8552 71.5419 25.8552 71.3979C25.8552 71.2539 25.8175 71.1124 25.7458 70.9875C23.1261 66.452 20.5219 61.9075 17.9333 57.3541L14.6417 51.5416C13.975 50.25 13.9208 49.475 15.0375 47.5208C16.975 44.1333 18.9 40.75 20.8167 37.3708C21.3667 36.3958 22.0833 35.9791 23.25 35.975C26.8458 35.9598 30.4417 35.9584 34.0375 35.9708C34.1283 35.9701 34.2174 35.9455 34.2956 35.8994C34.3739 35.8533 34.4387 35.7874 34.4833 35.7083L46.175 15.3125C46.3522 15.0022 46.608 14.7441 46.9167 14.5641C47.2254 14.3842 47.576 14.2888 47.9333 14.2875C50.1167 14.2833 52.3208 14.2875 54.5292 14.2625L58.7667 14.1666C60.1875 14.1541 61.7833 14.3 62.5167 15.5833ZM48.2167 17.2625C48.1728 17.2624 48.1296 17.274 48.0916 17.2959C48.0536 17.3179 48.022 17.3494 48 17.3875L36.0583 38.2833C36.001 38.3818 35.9189 38.4636 35.8203 38.5206C35.7216 38.5776 35.6098 38.6078 35.4958 38.6083H23.5542C23.3208 38.6083 23.2625 38.7125 23.3833 38.9166L47.5917 81.2333C47.6958 81.4083 47.6458 81.4916 47.45 81.4958L35.8042 81.5583C35.6339 81.5526 35.4655 81.5949 35.3182 81.6804C35.1708 81.7659 35.0504 81.8911 34.9708 82.0416L29.4708 91.6666C29.2875 91.9916 29.3833 92.1583 29.7542 92.1583L53.5708 92.1916C53.7625 92.1916 53.9042 92.275 54.0042 92.4458L59.85 102.671C60.0417 103.008 60.2333 103.012 60.4292 102.671L81.2875 66.1708L84.55 60.4125C84.5699 60.3769 84.5989 60.3473 84.6341 60.3267C84.6692 60.3061 84.7093 60.2952 84.75 60.2952C84.7908 60.2952 84.8308 60.3061 84.8659 60.3267C84.9011 60.3473 84.9301 60.3769 84.95 60.4125L90.8833 70.9541C90.9279 71.033 90.9927 71.0986 91.0711 71.144C91.1495 71.1894 91.2386 71.213 91.3292 71.2125L102.842 71.1291C102.871 71.1294 102.9 71.1218 102.926 71.1072C102.951 71.0925 102.973 71.0714 102.988 71.0458C103.002 71.0203 103.009 70.9916 103.009 70.9625C103.009 70.9333 103.002 70.9046 102.988 70.8791L90.9042 49.6875C90.8607 49.6166 90.8377 49.5352 90.8377 49.4521C90.8377 49.3689 90.8607 49.2875 90.9042 49.2166L92.125 47.1041L96.7917 38.8666C96.8917 38.6958 96.8417 38.6083 96.6458 38.6083H48.3333C48.0875 38.6083 48.0292 38.5 48.1542 38.2875L54.1292 27.85C54.1739 27.7788 54.1977 27.6965 54.1977 27.6125C54.1977 27.5284 54.1739 27.4461 54.1292 27.375L48.4375 17.3916C48.4157 17.3522 48.3837 17.3194 48.3449 17.2967C48.306 17.2739 48.2617 17.2621 48.2167 17.2625ZM74.425 50.6791C74.6167 50.6791 74.6667 50.7625 74.5667 50.9291L71.1 57.0333L60.2125 76.1375C60.1921 76.1747 60.1618 76.2056 60.1251 76.2268C60.0884 76.2481 60.0466 76.259 60.0042 76.2583C59.9619 76.2581 59.9204 76.2469 59.8839 76.2257C59.8473 76.2045 59.817 76.1741 59.7958 76.1375L45.4083 51.0041C45.325 50.8625 45.3667 50.7875 45.525 50.7791L46.425 50.7291L74.4333 50.6791H74.425Z" fill="url(#paint0_linear_1_486)"/>
<defs>
<linearGradient id="paint0_linear_1_486" x1="2.00002" y1="88" x2="120" y2="45.5" gradientUnits="userSpaceOnUse">
<stop stop-color="#00055F" stop-opacity="0.84"/>
<stop offset="1" stop-color="#6F69F7" stop-opacity="0.84"/>
</linearGradient>
</defs>
</svg>
