<svg width="280" height="184" viewBox="0 0 280 184" fill="none" xmlns="http://www.w3.org/2000/svg">
<rect width="280" height="184" fill="white"/>
<path d="M26.8682 99.8237L22.5 100.951V81.0547L26.8682 82.182V99.8237Z" fill="#2F57C2"/>
<path d="M47.9775 100.983L43.6094 102.11V79.875L47.9775 81.0023V100.983Z" fill="#78DED4"/>
<path d="M33.7978 100.417L29.4297 101.544V89.8203L33.7978 90.9476V100.417Z" fill="#3A8DDE"/>
<path d="M36.6484 88.0726L41.0166 86.9453V98.6971L36.6484 97.5698V88.0726Z" fill="#1ECAD3"/>
<path d="M65.4743 90.8331C65.9534 90.4949 66.348 90.1004 66.6298 89.6213C66.9961 89.0295 67.1652 88.3813 67.1652 87.6486C67.1652 86.8031 66.968 86.014 66.5734 85.3377C66.1789 84.6613 65.6152 84.0977 64.8543 83.6468C64.4034 83.3932 63.868 83.1959 63.2198 83.0832C62.5716 82.9704 61.698 82.9141 60.5989 82.9141H56.4844V99.9922H62.7407C64.3189 99.9922 65.6716 99.5131 66.7425 98.5831C67.8134 97.6531 68.377 96.4694 68.377 95.1167C68.377 94.0176 68.0952 93.0876 67.5316 92.3267C67.0243 91.7067 66.3198 91.1995 65.4743 90.8331ZM63.8962 89.4804C63.3889 89.9031 62.6843 90.1286 61.7262 90.1286H59.0771V85.2531H61.5853C62.628 85.2531 63.3889 85.4504 63.8962 85.8731C64.4034 86.2677 64.6289 86.8877 64.6289 87.7049C64.6289 88.494 64.4034 89.0577 63.8962 89.4804ZM59.0771 92.4677H62.2334C63.3889 92.4677 64.2907 92.6931 64.8825 93.144C65.4462 93.5667 65.728 94.2149 65.728 95.0604C65.728 95.9058 65.4462 96.554 64.8543 97.0049C64.2625 97.4558 63.3607 97.6813 62.1489 97.6813H59.0771V92.4677Z" fill="#2F57C2"/>
<path d="M85.7388 85.3672H83.287V88.1572H78.637L75.5652 95.5126C75.5089 95.6253 75.4243 95.9071 75.2834 96.3299C75.1989 96.5835 75.1143 96.8653 75.0016 97.1753C74.8889 96.8371 74.8325 96.5271 74.748 96.2735C74.5789 95.7099 74.4943 95.569 74.4943 95.4844L71.5071 88.129H68.7734L73.6489 99.768L71.5634 104.728H74.0716L80.4407 90.2426H83.3434V97.3726C83.3434 98.3871 83.597 99.1198 84.0479 99.5707C84.527 100.022 85.3161 100.247 86.387 100.247H87.7397V97.8798H86.4715C86.2179 97.8798 86.077 97.8235 85.9643 97.7108C85.8515 97.598 85.8234 97.4008 85.8234 97.119V90.2144H87.7679V88.0726H85.8234V85.3672H85.7388Z" fill="#2F57C2"/>
<path d="M94.9279 87.875C93.1243 87.875 91.6307 88.4668 90.5034 89.6223C89.3761 90.7777 88.8125 92.2995 88.8125 94.1877C88.8125 94.9768 88.9534 95.7377 89.207 96.4704C89.4607 97.2031 89.8834 97.8231 90.3907 98.3868C90.9543 99.0068 91.6589 99.4859 92.4761 99.824C93.2652 100.162 94.167 100.331 95.0688 100.331C96.1961 100.331 97.2106 100.134 98.0843 99.7113C98.9861 99.2886 99.8034 98.6404 100.564 97.7668L100.705 97.5977L98.9297 96.1604L98.7888 96.3295C98.2815 96.9213 97.7179 97.3722 97.0979 97.654C96.4779 97.964 95.8297 98.105 95.1252 98.105C94.0261 98.105 93.1243 97.7949 92.4198 97.1749C91.7716 96.6113 91.377 95.9068 91.2925 95.005H101.1V94.6386C101.1 92.6377 100.536 91.0032 99.3806 89.7632C98.2815 88.5232 96.7879 87.875 94.9279 87.875ZM92.4761 90.9468C93.1525 90.3832 93.9698 90.0732 94.9279 90.0732C95.8861 90.0732 96.6752 90.355 97.3234 90.9186C97.9152 91.4259 98.2815 92.1022 98.4506 92.8913H91.3489C91.4616 92.1304 91.8561 91.4823 92.4761 90.9468Z" fill="#2F57C2"/>
<path d="M114.77 85.1153C113.108 83.678 110.656 82.9453 107.5 82.9453H103.836V100.023H107.5C110.656 100.023 113.108 99.2907 114.77 97.8534C116.433 96.4162 117.279 94.2743 117.279 91.4844C117.279 88.7226 116.433 86.5807 114.77 85.1153ZM107.838 97.628H106.457V85.3408H107.838C110.092 85.3408 111.811 85.848 112.967 86.8907C114.094 87.9053 114.658 89.4553 114.658 91.4844C114.658 93.5134 114.094 95.0634 112.967 96.078C111.84 97.1207 110.092 97.628 107.838 97.628Z" fill="#2F57C2"/>
<path d="M128.433 89.6488C127.982 89.1697 127.446 88.7751 126.855 88.4933C126.094 88.127 125.248 87.9297 124.346 87.9297C122.543 87.9297 121.077 88.4933 119.978 89.6206C118.879 90.7479 118.344 92.2415 118.344 94.0451C118.344 94.8906 118.485 95.6797 118.766 96.3842C119.048 97.0887 119.471 97.7651 120.006 98.3287C120.57 98.9206 121.246 99.3715 122.007 99.6815C122.74 99.9915 123.529 100.161 124.375 100.161C125.305 100.161 126.122 99.9914 126.855 99.6251C127.39 99.3715 127.897 99.0051 128.292 98.526V100.02H130.744V88.1551H128.433V89.6488ZM127.334 91.2551C128.038 91.9879 128.405 92.946 128.405 94.0733C128.405 95.2006 128.038 96.1587 127.334 96.8915C126.629 97.6242 125.727 97.9906 124.628 97.9906C123.529 97.9906 122.627 97.6242 121.923 96.8915C121.218 96.1587 120.852 95.2287 120.852 94.0733C120.852 92.9179 121.218 91.9879 121.923 91.2551C122.627 90.5224 123.529 90.156 124.628 90.156C125.727 90.156 126.657 90.5224 127.334 91.2551Z" fill="#2F57C2"/>
<path d="M138.272 87.9297C137.596 87.9297 136.976 88.0706 136.384 88.3242C135.933 88.5215 135.51 88.8033 135.088 89.1697V88.1551H132.664V100.02H135.088V93.4815C135.088 92.3542 135.341 91.5088 135.792 90.9733C136.243 90.4379 136.976 90.156 137.906 90.156C138.723 90.156 139.315 90.4097 139.681 90.9169C140.076 91.4242 140.273 92.2697 140.273 93.4251V100.076H142.725V93.2278C142.725 91.6215 142.33 90.3251 141.541 89.3951C140.752 88.4088 139.653 87.9297 138.272 87.9297Z" fill="#2F57C2"/>
<path d="M152.53 96.8979C152.22 97.2924 151.854 97.6024 151.431 97.7715C151.008 97.9688 150.501 98.0815 149.909 98.0815C148.867 98.0815 148.021 97.7152 147.345 96.9824C146.697 96.2497 146.358 95.2633 146.358 94.1079C146.358 92.9243 146.697 91.9661 147.373 91.2052C148.049 90.4443 148.867 90.0779 149.909 90.0779C150.445 90.0779 150.924 90.1625 151.347 90.3315C151.741 90.5006 152.136 90.7825 152.446 91.1488L152.615 91.3179L154.193 89.4861L154.024 89.3452C153.46 88.8379 152.84 88.4434 152.164 88.2179C151.487 87.9643 150.727 87.8516 149.881 87.8516C149.007 87.8516 148.19 87.9925 147.457 88.2743C146.725 88.5561 146.077 89.007 145.541 89.5706C144.949 90.1625 144.527 90.8388 144.217 91.5997C143.907 92.3606 143.766 93.1779 143.766 94.0797C143.766 94.9533 143.907 95.7988 144.217 96.5315C144.527 97.2924 144.949 97.9688 145.541 98.5606C146.077 99.1242 146.753 99.547 147.486 99.8288C148.218 100.111 149.036 100.28 149.909 100.28C150.783 100.28 151.516 100.139 152.192 99.8851C152.868 99.6315 153.516 99.2088 154.136 98.6451L154.306 98.5042L152.699 96.6443L152.53 96.8979Z" fill="#2F57C2"/>
<path d="M167.604 94.6104C167.604 92.6095 167.041 90.975 165.885 89.735C164.758 88.495 163.236 87.875 161.404 87.875C159.544 87.875 158.107 88.4668 156.98 89.6223C155.853 90.7777 155.289 92.2995 155.289 94.1877C155.289 94.9768 155.43 95.7377 155.684 96.4704C155.937 97.2031 156.36 97.8231 156.867 98.3868C157.431 99.0068 158.135 99.4859 158.953 99.824C159.742 100.162 160.644 100.331 161.545 100.331C162.673 100.331 163.687 100.134 164.561 99.7113C165.463 99.2886 166.28 98.6404 167.041 97.7668L167.182 97.5977L165.378 96.1604L165.237 96.3295C164.73 96.9213 164.166 97.3722 163.546 97.654C162.926 97.964 162.278 98.105 161.574 98.105C160.474 98.105 159.573 97.7949 158.868 97.1749C158.22 96.6113 157.825 95.9068 157.741 95.005H167.548L167.604 94.6104ZM158.924 90.9468C159.601 90.3832 160.418 90.0732 161.376 90.0732C162.334 90.0732 163.124 90.355 163.772 90.9186C164.364 91.4259 164.73 92.1022 164.899 92.8913H157.797C157.938 92.1304 158.304 91.4823 158.924 90.9468Z" fill="#2F57C2"/>
<path d="M180.345 82.0469H179.5V101.436H180.345V82.0469Z" fill="#2F57C2"/>
<path d="M197.393 100.336C196.04 99.6878 194.941 98.7578 194.039 97.5742L196.209 95.7705C196.942 96.6442 197.731 97.3205 198.576 97.7996C199.422 98.2787 200.464 98.5041 201.789 98.5041C203.029 98.5041 204.072 98.2505 204.974 97.7714C205.875 97.2923 206.326 96.616 206.326 95.7987C206.326 94.9533 205.904 94.3614 205.03 93.8824C204.184 93.4033 202.944 93.0651 201.338 92.7833C199.084 92.4169 197.364 91.8533 196.209 91.0642C195.054 90.2751 194.462 89.0915 194.462 87.4569C194.462 86.2733 194.8 85.2588 195.476 84.3851C196.153 83.5115 197.054 82.8633 198.182 82.3842C199.309 81.9051 200.521 81.6797 201.817 81.6797C203.367 81.6797 204.748 81.9615 206.016 82.5251C207.284 83.0888 208.299 83.9624 209.088 85.1178L206.918 86.8087C206.298 86.0478 205.594 85.4279 204.776 85.0333C203.959 84.6106 203.001 84.4133 201.874 84.4133C200.605 84.4133 199.534 84.6669 198.633 85.2024C197.731 85.7379 197.308 86.4142 197.308 87.2878C197.308 88.0769 197.703 88.6687 198.464 89.0633C199.224 89.4578 200.521 89.796 202.324 90.0778C204.269 90.416 205.904 91.036 207.228 91.9378C208.553 92.8396 209.201 94.0796 209.201 95.6578C209.201 96.7851 208.863 97.7714 208.158 98.6169C207.454 99.4623 206.552 100.139 205.396 100.59C204.269 101.041 203.029 101.294 201.733 101.294C200.154 101.322 198.717 100.984 197.393 100.336Z" fill="#2F57C2"/>
<path d="M214.36 100.389C213.233 99.713 212.359 98.783 211.739 97.6276C211.091 96.444 210.781 95.1758 210.781 93.7385C210.781 92.3013 211.119 91.0894 211.768 89.934C212.416 88.8067 213.318 87.9049 214.417 87.2285C215.544 86.5804 216.784 86.2422 218.137 86.2422C219.63 86.2422 220.927 86.5522 221.969 87.1722C223.012 87.7922 223.829 88.6658 224.393 89.7649C224.928 90.864 225.21 92.1322 225.21 93.5694C225.21 93.9076 225.182 94.4149 225.098 95.0912L213.571 95.1194C213.74 95.8803 214.079 96.5285 214.558 97.0921C215.037 97.6276 215.6 98.0785 216.22 98.3603C216.84 98.6421 217.488 98.783 218.08 98.783C219.01 98.783 219.884 98.614 220.617 98.2476C221.378 97.9094 221.969 97.4303 222.448 96.8385L224.59 98.2194C223.97 99.2903 223.068 100.079 221.941 100.615C220.814 101.15 219.518 101.404 218.052 101.404C216.699 101.404 215.459 101.066 214.36 100.389ZM221.039 89.934C220.25 89.2013 219.292 88.8631 218.165 88.8631C217.432 88.8631 216.756 89.0322 216.079 89.3422C215.403 89.6522 214.868 90.1031 214.389 90.6949C213.938 91.2867 213.656 91.9631 213.543 92.724H222.505C222.336 91.5967 221.828 90.6667 221.039 89.934Z" fill="#2F57C2"/>
<path d="M229.892 100.389C228.764 99.713 227.891 98.783 227.271 97.6276C226.622 96.444 226.312 95.1758 226.312 93.7385C226.312 92.3013 226.651 91.0894 227.299 89.934C227.947 88.8067 228.849 87.9049 229.948 87.2285C231.075 86.5804 232.315 86.2422 233.668 86.2422C235.162 86.2422 236.458 86.5522 237.501 87.1722C238.572 87.7922 239.361 88.6658 239.924 89.7649C240.46 90.864 240.742 92.1322 240.742 93.5694C240.742 93.9076 240.713 94.4149 240.629 95.0912L229.102 95.1194C229.272 95.8803 229.61 96.5285 230.089 97.0921C230.568 97.6276 231.132 98.0785 231.752 98.3603C232.372 98.6421 233.02 98.783 233.612 98.783C234.542 98.783 235.415 98.614 236.148 98.2476C236.909 97.9094 237.501 97.4303 237.98 96.8385L240.122 98.2194C239.502 99.2903 238.6 100.079 237.472 100.615C236.345 101.15 235.049 101.404 233.583 101.404C232.231 101.404 230.991 101.066 229.892 100.389ZM236.571 89.934C235.782 89.2013 234.823 88.8631 233.696 88.8631C232.963 88.8631 232.287 89.0322 231.611 89.3422C230.962 89.6522 230.399 90.1031 229.92 90.6949C229.469 91.2867 229.187 91.9631 229.074 92.724H238.036C237.839 91.5967 237.36 90.6667 236.571 89.934Z" fill="#2F57C2"/>
<path d="M257.002 81.6501V101.011H254.269V98.7C253.649 99.4891 252.916 100.137 252.042 100.616C251.169 101.095 250.182 101.321 249.083 101.321C247.731 101.321 246.519 100.983 245.392 100.306C244.264 99.63 243.391 98.7282 242.771 97.5446C242.122 96.3891 241.812 95.0928 241.812 93.6837C241.812 92.2746 242.122 91.0628 242.771 89.9073C243.391 88.7801 244.264 87.8501 245.363 87.2019C246.462 86.5256 247.674 86.1874 248.999 86.1874C250.154 86.1874 251.169 86.441 252.042 86.8919C252.916 87.371 253.649 88.0192 254.269 88.8083V81.5938L257.002 81.6501ZM252.014 98.1082C252.747 97.6291 253.311 97.0091 253.733 96.2482C254.156 95.4873 254.353 94.6419 254.353 93.7682C254.353 92.8946 254.156 92.0773 253.733 91.2883C253.311 90.5274 252.747 89.8792 252.014 89.4283C251.282 88.9492 250.464 88.7237 249.562 88.7237C248.576 88.7237 247.731 88.9492 246.97 89.4283C246.209 89.9074 245.645 90.4992 245.222 91.2883C244.8 92.0492 244.602 92.8664 244.602 93.7119C244.602 94.6137 244.8 95.4591 245.222 96.2482C245.645 97.0373 246.209 97.6573 246.97 98.1364C247.731 98.6155 248.576 98.8409 249.562 98.8409C250.464 98.8409 251.282 98.5873 252.014 98.1082Z" fill="#2F57C2"/>
</svg>
