<svg width="280" height="184" viewBox="0 0 280 184" fill="none" xmlns="http://www.w3.org/2000/svg">
<rect width="280" height="184" fill="white"/>
<g clip-path="url(#clip0_2_416)">
<path d="M68.4435 81.0844C67.8826 80.8054 67.6397 81.3387 67.3128 81.6109C67.2002 81.6987 67.1052 81.8134 67.0103 81.9169C66.1888 82.8102 65.2304 83.3952 63.9782 83.3254C62.1475 83.2219 60.584 83.8069 59.2016 85.2334C58.9079 83.4739 57.9318 82.4254 56.4478 81.7504C55.6705 81.3994 54.8843 81.0507 54.3389 80.2879C53.959 79.7457 53.8552 79.1404 53.6653 78.5464C53.5439 78.1864 53.4224 77.8197 53.0183 77.7589C52.5766 77.6892 52.4044 78.0649 52.2321 78.3799C51.5409 79.6669 51.2737 81.0844 51.3002 82.5199C51.3598 85.7509 52.6981 88.3249 55.3591 90.1542C55.6617 90.3634 55.739 90.5749 55.644 90.8809C55.4629 91.5109 55.2465 92.1229 55.0566 92.7552C54.9351 93.1579 54.754 93.2434 54.33 93.0702C52.8974 92.4429 51.596 91.5416 50.4964 90.4152C48.6038 88.5522 46.8946 86.4957 44.7613 84.8847C44.2671 84.5126 43.7595 84.1591 43.2398 83.8249C41.0646 81.6717 43.5269 79.9032 44.0966 79.6939C44.6929 79.4734 44.302 78.7219 42.3763 78.7309C40.4507 78.7399 38.6884 79.3947 36.4425 80.2699C36.1088 80.4002 35.7654 80.5033 35.4157 80.5782C33.3169 80.1753 31.1705 80.0979 29.049 80.3487C24.8863 80.8212 21.5628 82.8282 19.1182 86.2504C16.1811 90.3634 15.4899 95.0389 16.3357 99.9124C17.2256 105.051 19.8005 109.306 23.7557 112.632C27.8587 116.081 32.5824 117.771 37.9729 117.447C41.2457 117.255 44.8916 116.808 49.0013 113.262C50.0392 113.788 51.1257 113.997 52.9322 114.155C54.3234 114.288 55.6617 114.087 56.6974 113.867C58.3205 113.516 58.2079 111.984 57.6227 111.705C52.8637 109.446 53.9082 110.366 52.9565 109.621C55.3768 106.705 59.0205 103.677 60.4471 93.8644C60.5575 93.0837 60.4626 92.5932 60.4471 91.9632C60.4383 91.5807 60.5244 91.4299 60.955 91.3872C62.1498 91.2609 63.3089 90.8978 64.3669 90.3184C67.4497 88.6017 68.6952 85.7847 68.989 82.4052C69.0331 81.8877 68.9801 81.3567 68.4435 81.0844ZM41.5747 111.5C36.9615 107.805 34.7245 106.588 33.8014 106.64C32.9357 106.694 33.0925 107.7 33.2824 108.357C33.4812 109.005 33.7395 109.45 34.1017 110.019C34.3535 110.395 34.5257 110.955 33.8522 111.376C32.366 112.312 29.7844 111.061 29.663 111C26.6574 109.196 24.1421 106.815 22.3732 103.56C20.664 100.425 19.6702 97.0639 19.5068 93.4752C19.4627 92.6067 19.7122 92.3007 20.5602 92.1432C21.6734 91.9261 22.8141 91.8965 23.9367 92.0554C28.6449 92.7574 32.6508 94.9017 36.0119 98.2969C37.9287 100.232 39.3796 102.543 40.8747 104.802C42.4647 107.2 44.1739 109.486 46.3513 111.358C47.1198 112.015 47.7315 112.515 48.319 112.881C46.5479 113.084 43.5931 113.129 41.5747 111.5ZM43.783 97.0099C43.7827 96.8982 43.809 96.788 43.8597 96.6889C43.9105 96.5898 43.9842 96.5048 44.0744 96.4413C44.1646 96.3777 44.2687 96.3374 44.3776 96.324C44.4865 96.3106 44.597 96.3244 44.6995 96.3642C44.8301 96.4119 44.9429 96.5 45.0221 96.6162C45.1013 96.7324 45.1429 96.8708 45.1412 97.0122C45.1415 97.1036 45.1239 97.1941 45.0895 97.2785C45.0552 97.3628 45.0046 97.4394 44.9409 97.5037C44.8772 97.568 44.8016 97.6187 44.7184 97.6529C44.6352 97.6871 44.5462 97.7041 44.4566 97.7029C44.3676 97.7033 44.2794 97.6855 44.1973 97.6506C44.1151 97.6158 44.0406 97.5646 43.9781 97.5001C43.9155 97.4356 43.8663 97.359 43.8332 97.2748C43.8001 97.1907 43.7816 97.1006 43.783 97.0099ZM50.651 100.601C50.2093 100.783 49.7698 100.941 49.348 100.961C48.7135 100.983 48.0908 100.782 47.5858 100.389C46.9807 99.8719 46.5479 99.5839 46.3668 98.6839C46.3044 98.2441 46.3163 97.7967 46.4021 97.3609C46.5567 96.6252 46.3845 96.1527 45.8743 95.7252C45.4614 95.3742 44.9336 95.2774 44.355 95.2774C44.1569 95.2657 43.9645 95.2055 43.7941 95.1019C43.5512 94.9804 43.3524 94.6744 43.5423 94.2964C43.6042 94.1749 43.8957 93.8779 43.9663 93.8239C44.7525 93.3694 45.6601 93.5179 46.4971 93.8599C47.2744 94.1839 47.8618 94.7779 48.7076 95.6194C49.5711 96.6342 49.7279 96.9154 50.2203 97.6759C50.609 98.2722 50.9623 98.8842 51.203 99.5839C51.351 100.023 51.1611 100.38 50.651 100.601Z" fill="#4D6BFE"/>
</g>
<path fill-rule="evenodd" clip-rule="evenodd" d="M245.224 80H240.593V109.106H245.224V80ZM87.5519 87.8225H90.1921V92.0795H87.5519C85.9144 92.0795 84.2624 92.5025 83.1963 93.6815C82.1315 94.859 81.7304 96.6665 81.7304 98.4725C81.7304 100.278 82.1156 102.085 83.1963 103.262C84.2783 104.441 85.9144 104.864 87.5505 104.864C89.188 104.864 90.8399 104.441 91.9047 103.262C92.9709 102.085 93.372 100.277 93.372 98.4725V80.9735H98.0032V109.106H93.372V107.315H92.5222C92.4337 107.418 92.3413 107.518 92.2452 107.614C91.0866 108.713 89.3106 109.106 87.5663 109.106C84.8338 109.106 82.1012 108.398 80.3093 106.436C78.5203 104.471 77.8855 101.455 77.8855 98.4545C77.8855 95.4545 78.5347 92.4545 80.3093 90.4745C82.1012 88.5125 84.8338 87.8195 87.5519 87.8195V87.8225ZM158.05 108.35H155.41V104.094H158.05C159.686 104.094 161.34 103.67 162.403 102.492C163.469 101.315 163.87 99.5075 163.87 97.7015C163.87 95.8955 163.485 94.0895 162.403 92.9105C161.323 91.733 159.686 91.3085 158.05 91.3085C156.414 91.3085 154.761 91.733 153.696 92.9105C152.631 94.0895 152.229 95.8955 152.229 97.7015V115.184H147.598V87.068H152.229V88.859H153.08C153.166 88.7584 153.255 88.6613 153.348 88.568L153.356 88.5605C154.514 87.461 156.29 87.068 158.034 87.068C160.768 87.068 163.5 87.7745 165.292 89.738C167.082 91.703 167.715 94.718 167.715 97.718C167.715 100.718 167.066 103.718 165.292 105.697C163.517 107.677 160.768 108.35 158.05 108.35ZM121.24 99.806V98.096C121.24 95 120.576 91.8905 118.709 89.849C116.856 87.806 114 87.0845 111.174 87.0845C108.349 87.0845 105.507 87.8225 103.64 89.849C101.772 91.874 101.108 95 101.108 98.0945C101.108 101.189 101.786 104.299 103.64 106.342C105.492 108.382 108.349 109.106 111.174 109.106C114 109.106 116.856 108.367 118.709 106.342C119.666 105.304 120.299 103.968 120.7 102.492H116.13C115.994 102.683 115.85 102.867 115.697 103.043C114.586 104.267 112.872 104.708 111.174 104.708C109.476 104.708 107.762 104.252 106.65 103.043C105.539 101.833 105.138 99.9485 105.138 98.0945C105.138 96.2405 105.539 94.3715 106.651 93.1475C107.762 91.922 109.476 91.4825 111.174 91.4825C112.872 91.4825 114.586 91.922 115.698 93.1475C116.47 93.995 116.902 95.1575 117.088 96.398H108.905V99.806H121.24ZM144.494 98.0945V99.806H132.159V96.398H140.341C140.155 95.1575 139.723 93.995 138.951 93.1475C137.84 91.922 136.125 91.4825 134.427 91.4825C132.729 91.4825 131.015 91.922 129.902 93.1475C128.791 94.3715 128.389 96.242 128.389 98.0945C128.389 99.9485 128.791 101.833 129.904 103.043C131.015 104.252 132.729 104.708 134.427 104.708C136.125 104.708 137.839 104.267 138.951 103.043C139.106 102.869 139.244 102.681 139.383 102.492H143.953C143.552 103.97 142.919 105.304 141.962 106.342C140.108 108.367 137.253 109.106 134.427 109.106C131.6 109.106 128.745 108.383 126.893 106.342C125.039 104.299 124.359 101.189 124.359 98.0945C124.359 95 125.023 91.874 126.891 89.849C128.761 87.8225 131.6 87.0845 134.427 87.0845C137.253 87.0845 140.108 87.806 141.961 89.849C143.831 91.889 144.494 95 144.494 98.0945ZM188.45 107.473C186.598 108.682 183.743 109.106 180.916 109.106C178.092 109.106 175.265 108.665 173.397 107.471C171.528 106.278 170.865 104.426 170.865 102.602H176.3C176.3 103.31 176.624 104.032 177.489 104.488C178.354 104.944 179.71 105.116 181.041 105.116C182.368 105.116 183.711 104.943 184.59 104.486C185.471 104.031 185.78 103.31 185.78 102.602C185.78 101.897 185.471 101.174 184.591 100.718C183.711 100.262 182.244 100.089 180.916 100.089C178.353 100.089 175.776 99.65 174.092 98.4545C172.409 97.262 171.807 95.4095 171.807 93.587C171.807 91.7645 172.409 89.927 174.092 88.718C175.776 87.5075 178.353 87.083 180.916 87.083C183.479 87.083 186.058 87.524 187.741 88.718C189.424 89.9105 190.026 91.7645 190.026 93.587H185.317C185.317 92.8805 185.024 92.174 184.236 91.7015C183.448 91.247 182.229 91.073 181.025 91.073C179.82 91.073 178.601 91.2305 177.813 91.703C177.011 92.1575 176.731 92.8805 176.731 93.587C176.731 94.292 177.025 95 177.813 95.471C178.599 95.927 179.712 96.101 180.916 96.101C183.743 96.101 186.598 96.539 188.45 97.733C190.319 98.927 190.984 100.781 190.984 102.602C190.984 104.424 190.304 106.262 188.45 107.473ZM214.235 98.0945V99.806H201.9V96.398H210.083C209.897 95.1575 209.464 93.995 208.694 93.1475C207.581 91.922 205.867 91.4825 204.169 91.4825C202.471 91.4825 200.756 91.922 199.645 93.1475C198.534 94.3715 198.133 96.242 198.133 98.0945C198.133 99.9485 198.534 101.833 199.645 103.043C200.756 104.252 202.471 104.708 204.168 104.708C205.867 104.708 207.581 104.267 208.694 103.043C208.847 102.869 208.987 102.681 209.127 102.492H213.696C213.293 103.97 212.661 105.304 211.705 106.342C209.852 108.367 206.994 109.106 204.168 109.106C201.344 109.106 198.486 108.383 196.634 106.342C194.781 104.299 194.103 101.189 194.103 98.0945C194.103 95 194.767 91.874 196.634 89.849C198.504 87.8225 201.344 87.0845 204.168 87.0845C206.996 87.0845 209.852 87.806 211.705 89.849C213.572 91.889 214.235 95 214.235 98.0945ZM237.488 99.806V98.096C237.488 95 236.824 91.8905 234.957 89.849C233.104 87.806 230.247 87.0845 227.422 87.0845C224.596 87.0845 221.755 87.8225 219.888 89.849C218.018 91.874 217.355 95 217.355 98.0945C217.355 101.189 218.034 104.299 219.888 106.342C221.74 108.382 224.596 109.106 227.422 109.106C230.247 109.106 233.104 108.367 234.957 106.342C235.914 105.304 236.547 103.968 236.948 102.492H232.378L232.361 102.516C232.226 102.696 232.094 102.877 231.945 103.042C230.834 104.267 229.122 104.707 227.422 104.707C225.724 104.707 224.01 104.252 222.898 103.042C221.787 101.833 221.384 99.9485 221.384 98.0945C221.384 96.2405 221.787 94.3715 222.898 93.1475C224.01 91.922 225.724 91.4825 227.422 91.4825C229.122 91.4825 230.834 91.922 231.945 93.1475C232.718 93.995 233.151 95.1575 233.336 96.398H225.153V99.806H237.488ZM260.725 109.106L253.13 97.436L260.725 88.058H254.997L247.401 97.4345L254.997 109.104L260.725 109.106Z" fill="black"/>
<defs>
<clipPath id="clip0_2_416">
<rect width="53" height="54" fill="white" transform="translate(16 71)"/>
</clipPath>
</defs>
</svg>
