<svg width="32" height="32" viewBox="0 0 32 32" fill="none" xmlns="http://www.w3.org/2000/svg">
<rect width="32" height="32" fill="white"/>
<g clip-path="url(#clip0_2_504)">
<path d="M4.18152 15.5583C4.18152 11.4284 6.42037 7.61378 10.0532 5.54827C11.8435 4.53344 13.8663 4 15.9243 4C17.9822 4 20.005 4.53344 21.7954 5.54827C25.4282 7.61378 27.667 11.4284 27.667 15.5583C27.667 21.9415 22.4099 27.1162 15.9249 27.1162C9.43985 27.1162 4.18152 21.9403 4.18152 15.5583Z" fill="#FF9D0B"/>
<path d="M15.9249 25.9233C21.7396 25.9233 26.4549 21.282 26.4549 15.5581C26.4549 9.83435 21.7396 5.19421 15.9249 5.19421C10.109 5.19421 5.39368 9.83435 5.39368 15.5581C5.39368 21.282 10.109 25.9221 15.9249 25.9221V25.9233Z" fill="#FFD21E"/>
<path d="M15.8485 19.8954C18.8268 19.8954 19.788 17.282 19.788 15.9401C19.788 15.2419 19.3117 15.4625 18.548 15.8322C17.8425 16.1753 16.8934 16.6505 15.8522 16.6505C13.6727 16.6505 11.9127 14.5983 11.9127 15.9401C11.9127 17.282 12.8703 19.8954 15.8522 19.8954H15.8485Z" fill="#FF323D"/>
<path d="M19.3456 12.74C19.7335 12.8709 19.885 13.6527 20.2753 13.4491C20.8171 13.1666 21.1323 12.5909 21.0741 11.9896C21.0439 11.6941 20.9265 11.4142 20.7367 11.1856C20.547 10.957 20.2935 10.7901 20.0086 10.706C19.7226 10.6194 19.4175 10.6185 19.131 10.7034C18.8445 10.7883 18.5892 10.9552 18.3964 11.1835C18.0061 11.649 17.9395 12.2987 18.2267 12.8321C18.4122 13.1751 19.0001 12.6175 19.348 12.7363L19.3456 12.74ZM12.2096 12.74C11.8217 12.8709 11.6666 13.6527 11.2787 13.4491C11.0154 13.3131 10.7987 13.1014 10.6566 12.8414C10.5145 12.5813 10.4533 12.2847 10.4811 11.9896C10.5393 11.3896 10.9599 10.8829 11.5453 10.706C11.8313 10.6194 12.1364 10.6185 12.4229 10.7034C12.7094 10.7883 12.9648 10.9552 13.1575 11.1835C13.5478 11.649 13.6145 12.2987 13.3272 12.8321C13.143 13.1751 12.5514 12.6175 12.206 12.7363L12.2096 12.74ZM13.5672 19.2129C13.7288 18.8913 13.9547 18.6063 14.231 18.3757C14.5073 18.145 14.828 17.9737 15.1733 17.8722C15.2582 17.848 15.3479 17.9449 15.4388 18.0795L15.6715 18.4504C15.7552 18.5716 15.84 18.6625 15.9249 18.6625C16.0146 18.6625 16.1067 18.5728 16.1952 18.4541L16.4437 18.088C16.5406 17.9546 16.634 17.8601 16.7273 17.888C17.3782 18.0916 17.9225 18.5377 18.2425 19.1317C19.3722 18.254 19.788 16.8225 19.788 15.94C19.788 15.3243 19.4171 15.4237 18.8062 15.7097L18.0595 16.0685C17.4291 16.3595 16.6679 16.6504 15.8485 16.6504C15.0291 16.6504 14.2703 16.3595 13.6387 16.0685L12.9248 15.7255C12.2945 15.4249 11.909 15.3109 11.909 15.94C11.909 16.7922 12.2969 18.1595 13.3478 19.0432L13.566 19.2129H13.5672Z" fill="#3A3B45"/>
<path d="M23.0451 14.1413C23.1735 14.1424 23.3008 14.1182 23.4199 14.07C23.5389 14.0219 23.6473 13.9508 23.7388 13.8607C23.8304 13.7706 23.9032 13.6634 23.9533 13.5452C24.0034 13.4269 24.0296 13.2999 24.0306 13.1715C24.0306 12.637 23.5893 12.2018 23.0451 12.2018C22.9168 12.2009 22.7895 12.2252 22.6706 12.2734C22.5517 12.3216 22.4435 12.3928 22.3521 12.4828C22.2607 12.5729 22.1879 12.68 22.1379 12.7982C22.088 12.9164 22.0618 13.0432 22.0608 13.1715C22.0608 13.7073 22.502 14.1413 23.0451 14.1413ZM8.95497 14.1413C9.08327 14.1422 9.21051 14.1179 9.32941 14.0697C9.44831 14.0215 9.55655 13.9503 9.64795 13.8603C9.73935 13.7702 9.81211 13.663 9.86209 13.5449C9.91207 13.4267 9.93829 13.2998 9.93924 13.1715C9.93924 12.637 9.49802 12.2018 8.95497 12.2018C8.82657 12.2007 8.6992 12.2249 8.58016 12.273C8.46112 12.3212 8.35273 12.3923 8.26121 12.4824C8.16968 12.5725 8.0968 12.6797 8.04675 12.7979C7.99669 12.9162 7.97044 13.0431 7.96949 13.1715C7.96949 13.7073 8.41071 14.1413 8.95497 14.1413ZM6.92703 17.4226C6.43611 17.4226 5.99973 17.6189 5.69427 17.9802C5.4337 18.2958 5.291 18.6922 5.29062 19.1014C5.09966 19.0448 4.90186 19.0147 4.70273 19.0117C4.23362 19.0117 3.80937 19.1887 3.50875 19.5075C3.24166 19.7787 3.07277 20.1314 3.02885 20.5095C2.98494 20.8876 3.06851 21.2696 3.26632 21.5948C2.99924 21.809 2.80907 22.1043 2.72449 22.4361C2.65176 22.7052 2.57903 23.2724 2.96692 23.8494C2.82138 24.0686 2.73457 24.3215 2.71483 24.5838C2.69509 24.8462 2.74308 25.1092 2.85419 25.3477C3.14268 25.9937 3.83603 26.5089 5.14516 27.0507L5.43608 27.1671C6.36702 27.5307 7.22159 27.7635 7.22765 27.7659C8.30647 28.0605 9.41923 28.2205 10.5393 28.2435C12.3151 28.2435 13.5854 27.7065 14.3151 26.6507C15.4424 25.024 15.3358 23.5294 13.983 22.0894L13.8 21.9027C12.9611 21.0736 12.3999 19.8542 12.2848 19.5851C12.0484 18.7911 11.4241 17.9087 10.3914 17.9087C9.83378 17.9171 9.31377 18.1911 8.99739 18.642C8.69436 18.2662 8.39738 17.9717 8.1307 17.8008C7.77336 17.5633 7.35596 17.4322 6.92703 17.4226ZM25.073 17.4226C25.5639 17.4226 26.0027 17.6189 26.3058 17.9802C26.5676 18.2978 26.7094 18.6929 26.7094 19.1014C26.9009 19.0444 27.0997 19.0153 27.2997 19.0117C27.7701 19.0117 28.1943 19.1887 28.4937 19.5075C28.7608 19.7787 28.9297 20.1314 28.9736 20.5095C29.0175 20.8876 28.934 21.2696 28.7361 21.5948C29.0028 21.8106 29.1931 22.1063 29.2756 22.4361C29.3483 22.7052 29.421 23.2724 29.0331 23.8494C29.3289 24.2979 29.3713 24.8628 29.1459 25.3477C28.8574 25.9937 28.164 26.5089 26.8561 27.0507L26.5664 27.1671C25.633 27.5307 24.7785 27.7635 24.7724 27.7659C23.6936 28.0605 22.5808 28.2205 21.4608 28.2435C19.685 28.2435 18.4146 27.7065 17.6849 26.6507C16.5576 25.024 16.6643 23.5294 18.017 22.0894L18.2001 21.9027C19.0425 21.0736 19.6025 19.8542 19.7177 19.5851C19.9541 18.7911 20.5759 17.9087 21.6087 17.9087C22.1663 17.9171 22.6863 18.1911 23.0026 18.642C23.3057 18.2662 23.6027 17.9717 23.873 17.8008C24.1687 17.6044 24.5069 17.4795 24.8597 17.4371L25.073 17.4226Z" fill="#FF9D0B"/>
<path d="M13.3151 25.9792C14.149 24.7743 14.0884 23.87 12.9454 22.7464C11.7999 21.6215 11.1332 19.9729 11.1332 19.9729C11.1332 19.9729 10.8847 19.0178 10.3186 19.1075C9.75133 19.1972 9.33678 20.6227 10.5247 21.4966C11.709 22.3706 10.2883 22.9633 9.83012 22.1439C9.37557 21.3233 8.12705 19.2153 7.47854 18.8093C6.83367 18.4068 6.37912 18.6299 6.53064 19.465C6.68216 20.2978 9.38769 22.3136 9.12465 22.7464C8.8604 23.1852 7.9331 22.2372 7.9331 22.2372C7.9331 22.2372 5.03362 19.6372 4.39966 20.316C3.76934 20.9924 4.8821 21.5597 6.46033 22.5015C8.04583 23.4446 8.16947 23.6955 7.94522 24.0531C7.71855 24.4106 4.2239 21.5075 3.89662 22.7403C3.56934 23.9658 7.464 24.3209 7.22399 25.1719C6.98156 26.0204 4.47846 23.567 3.96935 24.5209C3.45418 25.4786 7.50036 26.6034 7.53309 26.6119C8.83616 26.9465 12.155 27.6532 13.3151 25.9792ZM18.6874 25.9792C17.8546 24.7743 17.9116 23.87 19.0571 22.7464C20.2001 21.6215 20.8668 19.9729 20.8668 19.9729C20.8668 19.9729 21.1153 19.0178 21.685 19.1075C22.2487 19.1972 22.6632 20.6227 21.4789 21.4966C20.291 22.3706 21.7153 22.9633 22.1699 22.1439C22.6269 21.3233 23.8754 19.2153 24.5215 18.8093C25.1663 18.4068 25.6245 18.6299 25.4694 19.465C25.3178 20.2978 22.6147 22.3136 22.879 22.7464C23.1396 23.1852 24.0669 22.2372 24.0669 22.2372C24.0669 22.2372 26.97 19.6372 27.6003 20.316C28.2307 20.9924 27.1215 21.5597 25.5397 22.5015C23.9542 23.4446 23.833 23.6955 24.0548 24.0531C24.2815 24.4106 27.7761 21.5075 28.1034 22.7403C28.4307 23.9658 24.5396 24.3209 24.7784 25.1719C25.0209 26.0204 27.5215 23.567 28.0331 24.5209C28.5458 25.4786 24.5033 26.6034 24.4693 26.6119C23.1638 26.9465 19.845 27.6532 18.6874 25.9792Z" fill="#FFD21E"/>
</g>
<defs>
<clipPath id="clip0_2_504">
<rect width="26.6667" height="26.6667" fill="white" transform="translate(2.66669 2.66663)"/>
</clipPath>
</defs>
</svg>
