<svg width="280" height="184" viewBox="0 0 280 184" fill="none" xmlns="http://www.w3.org/2000/svg">
<rect width="280" height="184" fill="white"/>
<path d="M18.7267 101.205C18.7267 93.7712 22.7566 86.9048 29.2957 83.1869C32.5183 81.3602 36.1593 80.4 39.8636 80.4C43.5679 80.4 47.209 81.3602 50.4316 83.1869C56.9707 86.9048 61.0006 93.7712 61.0006 101.205C61.0006 112.695 51.5378 122.009 39.8647 122.009C28.1917 122.009 18.7267 112.692 18.7267 101.205Z" fill="#FF9D0B"/>
<path d="M39.8647 119.862C50.3312 119.862 58.8187 111.508 58.8187 101.205C58.8187 90.9019 50.3312 82.5497 39.8647 82.5497C29.3961 82.5497 20.9085 90.9019 20.9085 101.205C20.9085 111.508 29.3961 119.86 39.8647 119.86V119.862Z" fill="#FFD21E"/>
<path d="M39.7273 109.012C45.0881 109.012 46.8184 104.308 46.8184 101.892C46.8184 100.635 45.9609 101.033 44.5863 101.698C43.3165 102.315 41.608 103.171 39.7338 103.171C35.8108 103.171 32.6427 99.4768 32.6427 101.892C32.6427 104.308 34.3664 109.012 39.7338 109.012H39.7273Z" fill="#FF323D"/>
<path d="M46.022 96.1319C46.7202 96.3675 46.9929 97.7748 47.6955 97.4083C48.6708 96.8999 49.2381 95.8635 49.1334 94.7813C49.079 94.2493 48.8676 93.7456 48.5261 93.3341C48.1846 92.9226 47.7283 92.6221 47.2155 92.4707C46.7007 92.3149 46.1515 92.3133 45.6358 92.4661C45.1201 92.6188 44.6605 92.9193 44.3136 93.3304C43.611 94.1682 43.491 95.3377 44.0081 96.2977C44.3419 96.9152 45.4002 95.9115 46.0264 96.1253L46.022 96.1319ZM33.1773 96.1319C32.4791 96.3675 32.1998 97.7748 31.5016 97.4083C31.0276 97.1635 30.6377 96.7826 30.3818 96.3144C30.126 95.8463 30.016 95.3124 30.0659 94.7813C30.1706 93.7013 30.9277 92.7892 31.9816 92.4707C32.4964 92.3149 33.0455 92.3133 33.5612 92.4661C34.0769 92.6188 34.5366 92.9193 34.8835 93.3304C35.5861 94.1682 35.7061 95.3377 35.1889 96.2977C34.8573 96.9152 33.7925 95.9115 33.1707 96.1253L33.1773 96.1319ZM35.621 107.783C35.9117 107.204 36.3184 106.691 36.8157 106.276C37.313 105.861 37.8904 105.553 38.512 105.37C38.6647 105.326 38.8261 105.501 38.9898 105.743L39.4087 106.411C39.5593 106.629 39.712 106.793 39.8647 106.793C40.0262 106.793 40.192 106.631 40.3513 106.417L40.7986 105.758C40.9731 105.518 41.1411 105.348 41.3091 105.398C42.4808 105.765 43.4605 106.568 44.0365 107.637C46.07 106.057 46.8184 103.48 46.8184 101.892C46.8184 100.784 46.1507 100.963 45.0511 101.477L43.707 102.123C42.5724 102.647 41.2022 103.171 39.7273 103.171C38.2523 103.171 36.8865 102.647 35.7497 102.123L34.4646 101.506C33.33 100.965 32.6361 100.76 32.6361 101.892C32.6361 103.426 33.3344 105.887 35.226 107.478L35.6188 107.783H35.621Z" fill="#3A3B45"/>
<path d="M52.6811 98.6542C52.9122 98.6562 53.1415 98.6126 53.3558 98.526C53.57 98.4393 53.7651 98.3112 53.9299 98.1491C54.0946 97.987 54.2258 97.794 54.3159 97.5812C54.406 97.3683 54.4532 97.1398 54.455 96.9087C54.455 95.9464 53.6608 95.1632 52.6811 95.1632C52.4501 95.1614 52.2211 95.2052 52.0071 95.292C51.7931 95.3788 51.5982 95.5069 51.4337 95.669C51.2692 95.831 51.1382 96.024 51.0483 96.2367C50.9583 96.4494 50.9111 96.6777 50.9094 96.9087C50.9094 97.873 51.7036 98.6542 52.6811 98.6542ZM27.3189 98.6542C27.5499 98.6559 27.7789 98.6121 27.9929 98.5253C28.2069 98.4385 28.4018 98.3104 28.5663 98.1484C28.7308 97.9863 28.8618 97.7934 28.9517 97.5807C29.0417 97.3679 29.0889 97.1396 29.0906 96.9087C29.0906 95.9464 28.2964 95.1632 27.3189 95.1632C27.0878 95.1611 26.8585 95.2047 26.6442 95.2914C26.43 95.378 26.2349 95.5061 26.0701 95.6682C25.9054 95.8303 25.7742 96.0233 25.6841 96.2362C25.594 96.449 25.5468 96.6775 25.545 96.9087C25.545 97.873 26.3392 98.6542 27.3189 98.6542ZM23.6686 104.561C22.785 104.561 21.9995 104.914 21.4496 105.564C20.9806 106.132 20.7238 106.846 20.7231 107.582C20.3794 107.481 20.0233 107.426 19.6649 107.421C18.8205 107.421 18.0568 107.74 17.5157 108.313C17.035 108.802 16.7309 109.436 16.6519 110.117C16.5728 110.798 16.7233 111.485 17.0793 112.071C16.5986 112.456 16.2563 112.988 16.104 113.585C15.9731 114.069 15.8422 115.09 16.5404 116.129C16.2784 116.523 16.1222 116.979 16.0867 117.451C16.0511 117.923 16.1375 118.396 16.3375 118.826C16.8568 119.989 18.1048 120.916 20.4613 121.891L20.9849 122.101C22.6606 122.755 24.1988 123.174 24.2097 123.179C26.1516 123.709 28.1546 123.997 30.1706 124.038C33.3671 124.038 35.6537 123.072 36.9672 121.171C38.9963 118.243 38.8043 115.553 36.3694 112.961L36.0399 112.625C34.53 111.132 33.5198 108.937 33.3125 108.453C32.8871 107.024 31.7634 105.435 29.9044 105.435C28.9008 105.451 27.9647 105.944 27.3953 106.755C26.8498 106.079 26.3152 105.549 25.8352 105.241C25.192 104.814 24.4407 104.578 23.6686 104.561ZM56.3314 104.561C57.215 104.561 58.0049 104.914 58.5504 105.564C59.0216 106.136 59.2769 106.847 59.2769 107.582C59.6217 107.48 59.9795 107.428 60.3395 107.421C61.1861 107.421 61.9497 107.74 62.4886 108.313C62.9694 108.802 63.2734 109.436 63.3525 110.117C63.4315 110.798 63.2811 111.485 62.925 112.071C63.405 112.459 63.7476 112.991 63.896 113.585C64.0269 114.069 64.1578 115.09 63.4596 116.129C63.992 116.936 64.0683 117.953 63.6625 118.826C63.1432 119.989 61.8952 120.916 59.5409 121.891L59.0195 122.101C57.3394 122.755 55.8012 123.174 55.7903 123.179C53.8484 123.709 51.8454 123.997 49.8294 124.038C46.6329 124.038 44.3463 123.072 43.0328 121.171C41.0037 118.243 41.1957 115.553 43.6306 112.961L43.9601 112.625C45.4765 111.132 46.4846 108.937 46.6918 108.453C47.1173 107.024 48.2366 105.435 50.0956 105.435C51.0992 105.451 52.0353 105.944 52.6047 106.755C53.1502 106.079 53.6848 105.549 54.1713 105.241C54.7037 104.888 55.3124 104.663 55.9474 104.587L56.3314 104.561Z" fill="#FF9D0B"/>
<path d="M35.1671 119.963C36.6683 117.794 36.5592 116.166 34.5017 114.144C32.4398 112.119 31.2398 109.151 31.2398 109.151C31.2398 109.151 30.7925 107.432 29.7735 107.594C28.7524 107.755 28.0062 110.321 30.1444 111.894C32.2761 113.467 29.719 114.534 28.8942 113.059C28.076 111.582 25.8287 107.788 24.6614 107.057C23.5006 106.332 22.6824 106.734 22.9552 108.237C23.2279 109.736 28.0978 113.365 27.6244 114.144C27.1487 114.933 25.4796 113.227 25.4796 113.227C25.4796 113.227 20.2605 108.547 19.1194 109.769C17.9848 110.986 19.9878 112.007 22.8286 113.703C25.6825 115.4 25.9051 115.852 25.5014 116.496C25.0934 117.139 18.803 111.914 18.2139 114.133C17.6248 116.339 24.6352 116.978 24.2032 118.509C23.7668 120.037 19.2612 115.621 18.3448 117.338C17.4175 119.061 24.7007 121.086 24.7596 121.102C27.1051 121.704 33.0791 122.976 35.1671 119.963ZM44.8372 119.963C43.3383 117.794 43.4408 116.166 45.5027 114.144C47.5602 112.119 48.7603 109.151 48.7603 109.151C48.7603 109.151 49.2075 107.432 50.233 107.594C51.2476 107.755 51.9938 110.321 49.8621 111.894C47.7239 113.467 50.2876 114.534 51.1058 113.059C51.9283 111.582 54.1757 107.788 55.3386 107.057C56.4994 106.332 57.3241 106.734 57.0449 108.237C56.7721 109.736 51.9065 113.365 52.3822 114.144C52.8513 114.933 54.5204 113.227 54.5204 113.227C54.5204 113.227 59.746 108.547 60.8806 109.769C62.0152 110.986 60.0188 112.007 57.1714 113.703C54.3175 115.4 54.0993 115.852 54.4986 116.496C54.9066 117.139 61.197 111.914 61.7861 114.133C62.3752 116.339 55.3714 116.978 55.8012 118.509C56.2376 120.037 60.7388 115.621 61.6595 117.338C62.5825 119.061 55.3059 121.086 55.2448 121.102C52.8949 121.704 46.9209 122.976 44.8372 119.963Z" fill="#FFD21E"/>
<path fill-rule="evenodd" clip-rule="evenodd" d="M80 109.674V90.128H84.6266V97.653H91.7071V90.128H96.3644V109.674H91.7071V101.519H84.6266V109.674H80ZM105.522 110.035C103.823 110.035 102.59 109.499 101.825 108.431C101.059 107.361 100.677 105.897 100.677 104.038V94.8052H105.301V103.469C105.301 104.548 105.458 105.288 105.774 105.688C106.088 106.087 106.58 106.287 107.252 106.287C107.818 106.287 108.312 106.157 108.731 105.897C109.151 105.638 109.581 105.218 110.021 104.638V94.8052H114.647V109.674H110.872L110.525 107.606H110.431C109.828 108.306 109.104 108.904 108.29 109.374C107.514 109.814 106.591 110.035 105.522 110.035ZM124.28 116C123.064 116 121.956 115.865 120.96 115.595C119.963 115.326 119.177 114.916 118.599 114.367C118.022 113.816 117.734 113.102 117.734 112.222C117.734 111.604 117.928 111.044 118.316 110.543C118.704 110.044 119.255 109.604 119.969 109.225V109.105C119.562 108.837 119.214 108.497 118.946 108.102C118.663 107.691 118.521 107.186 118.521 106.586C118.521 106.047 118.689 105.533 119.024 105.043C119.36 104.553 119.78 104.138 120.283 103.799V103.679C119.717 103.319 119.223 102.799 118.805 102.12C118.385 101.44 118.175 100.671 118.175 99.8113C118.175 98.633 118.479 97.6437 119.087 96.8433C119.694 96.0453 120.522 95.423 121.48 95.0455C122.475 94.6441 123.545 94.44 124.626 94.4458C125.053 94.4448 125.479 94.4748 125.901 94.5357C126.31 94.5952 126.693 94.685 127.049 94.8052H132.746V98.0135H130.133V98.1325C130.342 98.3927 130.501 98.6773 130.605 98.9877C130.711 99.2968 130.763 99.641 130.763 100.021C130.763 101.141 130.49 102.065 129.944 102.794C129.399 103.524 128.66 104.068 127.726 104.428C126.793 104.788 125.759 104.968 124.626 104.968C124.354 104.968 124.06 104.942 123.746 104.893C123.405 104.838 123.069 104.762 122.738 104.668C122.57 104.805 122.426 104.967 122.314 105.148C122.219 105.307 122.171 105.517 122.171 105.778C122.171 106.137 122.35 106.412 122.707 106.601C123.063 106.791 123.672 106.886 124.532 106.886H127.049C128.98 106.886 130.454 107.181 131.471 107.77C132.489 108.361 132.998 109.324 132.998 110.664C132.998 111.683 132.641 112.598 131.928 113.406C131.214 114.216 130.207 114.851 128.906 115.31C127.605 115.77 126.063 116 124.28 116ZM124.626 102.3C125.046 102.3 125.412 102.205 125.728 102.015C126.042 101.825 126.294 101.551 126.483 101.19C126.671 100.831 126.766 100.371 126.766 99.8113C126.766 99.0122 126.562 98.4125 126.152 98.0123C125.955 97.8173 125.718 97.6633 125.455 97.5602C125.193 97.4572 124.91 97.4073 124.626 97.4138C124.018 97.4138 123.509 97.6122 123.1 98.0123C122.691 98.4125 122.485 99.0122 122.485 99.8113C122.485 100.371 122.586 100.831 122.785 101.19C122.984 101.551 123.242 101.825 123.556 102.015C123.871 102.205 124.227 102.3 124.626 102.3ZM125.003 113.242C125.696 113.242 126.31 113.161 126.846 113.002C127.38 112.842 127.804 112.622 128.119 112.342C128.434 112.062 128.592 111.753 128.592 111.414C128.592 110.933 128.382 110.619 127.962 110.469C127.542 110.32 126.955 110.244 126.2 110.244H124.594L123.992 110.237L123.612 110.222C123.201 110.203 122.793 110.151 122.392 110.064C122.097 110.304 121.882 110.539 121.746 110.769C121.609 111.002 121.539 111.266 121.542 111.533C121.542 112.093 121.862 112.517 122.501 112.807C123.141 113.097 123.975 113.242 125.003 113.242ZM141.084 116C139.868 116 138.76 115.865 137.764 115.595C136.767 115.326 135.981 114.916 135.404 114.367C134.826 113.816 134.538 113.102 134.538 112.222C134.538 111.604 134.732 111.044 135.12 110.543C135.508 110.044 136.059 109.604 136.773 109.225V109.105C136.366 108.837 136.018 108.497 135.75 108.102C135.467 107.691 135.325 107.186 135.325 106.586C135.325 106.047 135.493 105.533 135.829 105.043C136.164 104.553 136.584 104.138 137.087 103.799V103.679C136.521 103.319 136.027 102.799 135.609 102.12C135.189 101.44 134.979 100.671 134.979 99.8113C134.979 98.633 135.283 97.6437 135.891 96.8433C136.498 96.0453 137.326 95.423 138.284 95.0455C139.279 94.6441 140.349 94.44 141.43 94.4458C141.857 94.4448 142.283 94.4748 142.705 94.5357C143.114 94.5952 143.496 94.685 143.853 94.8052H149.55V98.0135H146.936V98.1325C147.145 98.3927 147.303 98.6773 147.408 98.9877C147.513 99.2968 147.565 99.641 147.565 100.021C147.565 101.141 147.292 102.065 146.747 102.794C146.202 103.524 145.462 104.068 144.529 104.428C143.596 104.788 142.561 104.968 141.429 104.968C141.156 104.968 140.863 104.942 140.547 104.893C140.207 104.838 139.871 104.762 139.54 104.668C139.372 104.805 139.229 104.967 139.116 105.148C139.022 105.307 138.974 105.517 138.974 105.778C138.974 106.137 139.152 106.412 139.509 106.601C139.866 106.791 140.475 106.886 141.334 106.886H143.852C145.782 106.886 147.256 107.181 148.274 107.77C149.291 108.361 149.8 109.324 149.8 110.664C149.8 111.683 149.444 112.598 148.729 113.406C148.017 114.216 147.01 114.851 145.708 115.31C144.409 115.77 142.867 116 141.084 116ZM141.43 102.3C141.849 102.3 142.216 102.205 142.532 102.015C142.846 101.825 143.097 101.551 143.287 101.19C143.475 100.831 143.57 100.371 143.57 99.8113C143.57 99.0122 143.366 98.4125 142.956 98.0123C142.759 97.8173 142.522 97.6633 142.259 97.5602C141.997 97.4572 141.714 97.4073 141.43 97.4138C140.821 97.4138 140.313 97.6122 139.904 98.0123C139.495 98.4125 139.29 99.0122 139.29 99.8113C139.29 100.371 139.39 100.831 139.589 101.19C139.788 101.551 140.045 101.825 140.361 102.015C140.675 102.205 141.032 102.3 141.43 102.3ZM141.807 113.242C142.5 113.242 143.114 113.161 143.65 113.002C144.184 112.842 144.608 112.622 144.923 112.342C145.238 112.062 145.395 111.753 145.395 111.414C145.395 110.933 145.186 110.619 144.766 110.469C144.346 110.32 143.759 110.244 143.004 110.244H141.398L140.797 110.237L140.416 110.222C140.005 110.203 139.597 110.151 139.196 110.064C138.901 110.304 138.687 110.539 138.55 110.769C138.413 111.002 138.343 111.266 138.346 111.533C138.346 112.093 138.666 112.517 139.306 112.807C139.945 113.097 140.779 113.242 141.807 113.242ZM152.319 109.674V94.8052H156.945V109.674H152.319ZM154.616 92.6177C153.84 92.6177 153.211 92.4077 152.728 91.9877C152.246 91.5677 152.004 91.0077 152.004 90.3077C152.004 89.6088 152.246 89.0488 152.728 88.63C153.211 88.21 153.84 88 154.616 88C155.392 88 156.022 88.21 156.504 88.63C156.987 89.05 157.228 89.6088 157.228 90.3088C157.228 91.0088 156.987 91.5677 156.504 91.9877C156.022 92.4077 155.392 92.6177 154.616 92.6177ZM161.005 109.674V94.8052H164.781L165.096 96.694H165.222C165.876 96.0713 166.618 95.5367 167.425 95.105C168.243 94.6652 169.176 94.4458 170.225 94.4458C171.946 94.4458 173.184 94.9802 173.939 96.0488C174.695 97.1187 175.072 98.5828 175.072 100.441V109.674H170.446V101.011C170.446 99.9315 170.294 99.1918 169.989 98.7928C169.685 98.3927 169.197 98.1932 168.527 98.1932C167.938 98.1932 167.435 98.318 167.016 98.5665C166.518 98.8763 166.053 99.2332 165.63 99.6317V109.674H161.005ZM184.577 116C183.359 116 182.253 115.865 181.255 115.595C180.259 115.326 179.472 114.916 178.895 114.367C178.318 113.816 178.03 113.102 178.03 112.222C178.03 111.604 178.224 111.044 178.612 110.543C179.001 110.044 179.551 109.604 180.264 109.225V109.105C179.857 108.837 179.51 108.497 179.241 108.102C178.959 107.691 178.816 107.186 178.816 106.586C178.816 106.047 178.985 105.533 179.32 105.043C179.656 104.553 180.075 104.138 180.579 103.799V103.679C180.014 103.319 179.52 102.799 179.1 102.12C178.68 101.44 178.471 100.671 178.471 99.8113C178.471 98.633 178.775 97.6437 179.384 96.8433C179.99 96.0455 180.818 95.4232 181.775 95.0455C182.77 94.6441 183.841 94.44 184.922 94.4458C185.348 94.4448 185.775 94.4748 186.197 94.5357C186.605 94.5952 186.989 94.685 187.345 94.8052H193.041V98.0135H190.429V98.1325C190.639 98.3927 190.797 98.6773 190.902 98.9877C191.006 99.2968 191.059 99.641 191.059 100.021C191.059 101.141 190.786 102.065 190.241 102.794C189.696 103.524 188.955 104.068 188.022 104.428C187.088 104.788 186.055 104.968 184.922 104.968C184.649 104.968 184.357 104.942 184.041 104.893C183.701 104.838 183.365 104.762 183.034 104.668C182.865 104.805 182.722 104.967 182.609 105.148C182.514 105.307 182.468 105.517 182.468 105.778C182.468 106.137 182.646 106.412 183.002 106.601C183.358 106.791 183.967 106.886 184.828 106.886H187.346C189.274 106.886 190.749 107.181 191.768 107.77C192.784 108.361 193.293 109.324 193.293 110.664C193.293 111.683 192.937 112.598 192.223 113.406C191.511 114.216 190.504 114.851 189.202 115.31C187.901 115.77 186.36 116 184.577 116ZM184.922 102.3C185.342 102.3 185.709 102.205 186.023 102.015C186.338 101.825 186.59 101.551 186.779 101.19C186.968 100.831 187.061 100.371 187.061 99.8113C187.061 99.0122 186.857 98.4125 186.448 98.0123C186.252 97.8171 186.014 97.663 185.751 97.56C185.489 97.4569 185.206 97.4071 184.922 97.4138C184.314 97.4138 183.804 97.6122 183.396 98.0123C182.987 98.4125 182.782 99.0122 182.782 99.8113C182.782 100.371 182.882 100.831 183.081 101.19C183.281 101.551 183.537 101.825 183.852 102.015C184.166 102.205 184.524 102.3 184.922 102.3ZM185.3 113.242C185.993 113.242 186.605 113.161 187.141 113.002C187.675 112.842 188.1 112.622 188.416 112.342C188.73 112.062 188.887 111.753 188.887 111.414C188.887 110.933 188.679 110.619 188.257 110.469C187.839 110.32 187.25 110.244 186.496 110.244H184.891L184.289 110.237L183.907 110.222C183.497 110.203 183.088 110.151 182.688 110.064C182.394 110.304 182.179 110.539 182.043 110.769C181.905 111.002 181.835 111.265 181.838 111.533C181.838 112.093 182.157 112.517 182.798 112.807C183.437 113.097 184.272 113.242 185.3 113.242ZM202.482 109.674V90.128H215.416V93.8462H207.109V98.3728H214.22V102.09H207.109V109.674H202.482ZM222.529 110.035C221.585 110.035 220.761 109.834 220.059 109.435C219.37 109.05 218.808 108.489 218.438 107.816C218.061 107.137 217.873 106.377 217.873 105.537C217.873 103.939 218.564 102.705 219.948 101.835C221.334 100.965 223.568 100.381 226.652 100.081C226.631 99.6422 226.531 99.2665 226.353 98.9573C226.171 98.6438 225.89 98.3921 225.55 98.2375C225.194 98.0683 224.743 97.9832 224.197 97.9832C223.546 97.9832 222.886 98.0928 222.214 98.3122C221.461 98.5682 220.734 98.8896 220.043 99.2723L218.407 96.3942C219.078 95.994 219.77 95.6498 220.483 95.3593C221.197 95.07 221.937 94.846 222.702 94.685C223.483 94.5238 224.28 94.4436 225.078 94.4458C226.421 94.4458 227.548 94.6908 228.461 95.1808C229.373 95.6697 230.071 96.4093 230.554 97.3975C231.036 98.388 231.278 99.6515 231.278 101.19V109.674H227.502L227.187 108.146H227.061C226.422 108.684 225.713 109.143 224.952 109.51C224.199 109.864 223.369 110.044 222.529 110.035ZM224.071 106.586C224.596 106.586 225.058 106.476 225.456 106.257C225.855 106.037 226.254 105.737 226.652 105.358V102.839C225.561 102.979 224.695 103.16 224.055 103.379C223.416 103.598 222.965 103.863 222.702 104.173C222.447 104.464 222.308 104.829 222.309 105.207C222.309 105.667 222.471 106.012 222.796 106.242C223.122 106.472 223.546 106.586 224.071 106.586ZM242.072 110.035C240.604 110.035 239.276 109.724 238.092 109.105C236.909 108.488 235.937 107.562 235.291 106.437C234.608 105.277 234.268 103.878 234.268 102.24C234.268 100.601 234.645 99.2023 235.4 98.0427C236.124 96.9119 237.157 95.9896 238.391 95.3745C239.622 94.7568 240.995 94.4377 242.387 94.4458C243.351 94.4458 244.217 94.5905 244.984 94.8798C245.709 95.146 246.375 95.5376 246.95 96.0348L244.779 98.7625C244.5 98.5388 244.187 98.3567 243.85 98.2223C243.476 98.0774 243.075 98.0059 242.671 98.0123C241.935 98.0123 241.295 98.1827 240.75 98.5222C240.205 98.8617 239.775 99.3517 239.461 99.9922C239.145 100.631 238.988 101.38 238.988 102.24C238.988 103.099 239.145 103.849 239.461 104.488C239.775 105.128 240.2 105.618 240.734 105.957C241.27 106.297 241.873 106.467 242.545 106.467C243.069 106.467 243.561 106.377 244.023 106.196C244.481 106.019 244.915 105.787 245.313 105.508L247.139 108.205C246.488 108.765 245.723 109.209 244.842 109.54C243.96 109.87 243.02 110.038 242.072 110.035ZM256.359 94.4458C257.849 94.4458 259.087 94.7608 260.073 95.3897C261.059 96.0197 261.793 96.8737 262.277 97.9528C262.759 99.032 263 100.242 263 101.581C263 101.96 262.979 102.335 262.937 102.705L262.887 103.113C262.862 103.299 262.837 103.457 262.811 103.589H253.482C253.588 104.093 253.757 104.522 253.984 104.878C254.393 105.517 254.912 105.972 255.541 106.242C256.164 106.511 256.841 106.649 257.525 106.647C258.133 106.647 258.715 106.562 259.271 106.391C259.847 106.213 260.4 105.978 260.923 105.688L262.434 108.385C261.625 108.919 260.733 109.329 259.79 109.598C258.853 109.881 257.877 110.029 256.895 110.035C255.405 110.035 254.062 109.724 252.866 109.105C251.674 108.489 250.692 107.564 250.034 106.437C249.341 105.277 248.996 103.878 248.996 102.24C248.996 100.621 249.347 99.2315 250.05 98.073C250.753 96.9133 251.671 96.0197 252.804 95.3897C253.936 94.7597 255.122 94.4458 256.359 94.4458ZM256.454 97.8327C255.95 97.8327 255.458 97.9633 254.975 98.2223C254.492 98.4825 254.094 98.9317 253.779 99.5722C253.644 99.8475 253.538 100.171 253.466 100.54H256.204L259.034 100.531C259.034 99.7518 258.835 99.1078 258.437 98.598C258.038 98.0882 257.377 97.8327 256.454 97.8327Z" fill="black"/>
</svg>
