<svg width="120" height="120" viewBox="0 0 120 120" fill="none" xmlns="http://www.w3.org/2000/svg">
<rect width="120" height="120" fill="white"/>
<g clip-path="url(#clip0_5659_4717)">
<path d="M33.8205 75.0444H17V77.4609H33.8205V75.0444Z" fill="#1F70C1"/>
<path d="M33.8205 70.4297H17V72.8461H33.8205V70.4297Z" fill="#1F70C1"/>
<path d="M29.0133 65.8198H21.7983V68.2363H29.0133V65.8198Z" fill="#1F70C1"/>
<path d="M29.0133 61.21H21.7983V63.6264H29.0133V61.21Z" fill="#1F70C1"/>
<path d="M29.0133 56.5991H21.7983V59.0156H29.0133V56.5991Z" fill="#1F70C1"/>
<path d="M29.0133 51.9814H21.7983V54.3979H29.0133V51.9814Z" fill="#1F70C1"/>
<path d="M33.8205 47.3711H17V49.7875H33.8205V47.3711Z" fill="#1F70C1"/>
<path d="M33.8205 42.7612H17V45.1777H33.8205V42.7612Z" fill="#1F70C1"/>
<path d="M36.2202 77.4391L54.1376 77.4648C56.537 77.4648 58.7048 76.5394 60.3243 75.0483H36.2205L36.2202 77.4391Z" fill="#1F70C1"/>
<path d="M36.2202 72.8461H62.0898C62.5268 72.1007 62.8524 71.2866 63.0495 70.4297H36.2206L36.2202 72.8461Z" fill="#1F70C1"/>
<path d="M48.2333 65.8198H41.0269V68.2363H48.2333V65.8198Z" fill="#1F70C1"/>
<path d="M55.4482 65.8198V68.2363H63.3145C63.3145 67.4051 63.2031 66.5911 62.9889 65.8198H55.4482Z" fill="#1F70C1"/>
<path d="M60.0759 61.21H41.0269V63.6264H62.089C61.5405 62.7009 60.8635 61.8869 60.0752 61.21H60.0759Z" fill="#1F70C1"/>
<path d="M41.0269 56.5991V59.0156H60.0759C60.8814 58.3386 61.5582 57.5245 62.0896 56.5991H41.0269Z" fill="#1F70C1"/>
<path d="M48.2333 51.9814H41.0269V54.3979H48.2333V51.9814Z" fill="#1F70C1"/>
<path d="M55.4482 54.3979H62.9889C63.2031 53.6267 63.3145 52.8126 63.3145 51.9814H55.4482V54.3979Z" fill="#1F70C1"/>
<path d="M62.0898 47.3711H36.2202V49.7875H63.0492C62.8264 48.9306 62.5008 48.1167 62.0895 47.3711H62.0898Z" fill="#1F70C1"/>
<path d="M54.1376 42.7612H36.2202V45.1777H60.3163C58.7054 43.6866 56.5203 42.7612 54.1382 42.7612H54.1376Z" fill="#1F70C1"/>
<path d="M65.063 49.7875H81.2493L80.4179 47.3711H65.063V49.7875Z" fill="#1F70C1"/>
<path d="M65.063 45.1777H79.6558L78.8244 42.7612H65.063V45.1777Z" fill="#1F70C1"/>
<path d="M91.4888 77.4666V75.0503H103.511V77.4666H91.4888Z" fill="#1F70C1"/>
<path d="M91.4888 72.846V70.4297H103.511V72.846H91.4888Z" fill="#1F70C1"/>
<path d="M84.2828 58.5526L83.6063 56.5991H77.0764H69.8613V59.0154H77.0764V56.7964L77.8394 59.0154H90.7271L91.4892 56.7964V59.0154H98.7043V56.5991H91.4892H84.9602L84.2828 58.5526Z" fill="#1F70C1"/>
<path d="M98.7041 51.9814H86.5535L85.7222 54.3977H98.7041V51.9814Z" fill="#1F70C1"/>
<path d="M103.512 45.1777V42.7612H89.7503L88.9189 45.1777H103.512Z" fill="#1F70C1"/>
<path d="M83.4526 75.0488L84.2831 77.4391L85.1145 75.0488H83.4526Z" fill="#1F70C1"/>
<path d="M81.8408 70.4297L82.6895 72.846H85.8775L86.7339 70.4297H81.8408Z" fill="#1F70C1"/>
<path d="M80.2212 65.8198L81.0699 68.2361H87.4968L88.3446 65.8198H80.2212Z" fill="#1F70C1"/>
<path d="M79.4583 63.6262H89.1156L89.9383 61.21H78.627L79.4583 63.6262Z" fill="#1F70C1"/>
<path d="M69.8613 54.3977H82.8433L82.0127 51.9814H69.8613V54.3977Z" fill="#1F70C1"/>
<path d="M103.512 47.3711H88.1471L87.3252 49.7875H103.512V47.3711Z" fill="#1F70C1"/>
<path d="M77.0855 75.0488H65.063V77.4653H77.0855V75.0488Z" fill="#1F70C1"/>
<path d="M77.0855 70.4297H65.063V72.8461H77.0855V70.4297Z" fill="#1F70C1"/>
<path d="M77.0763 65.8198H69.8613V68.2363H77.0763V65.8198Z" fill="#1F70C1"/>
<path d="M77.0763 61.21H69.8613V63.6264H77.0763V61.21Z" fill="#1F70C1"/>
<path d="M98.7038 61.21H91.4888V63.6264H98.7038V61.21Z" fill="#1F70C1"/>
<path d="M98.7038 65.8198H91.4888V68.2363H98.7038V65.8198Z" fill="#1F70C1"/>
<path d="M108.01 73.6582C107.505 73.6582 107.021 73.8587 106.664 74.2157C106.307 74.5726 106.107 75.0567 106.107 75.5615C106.107 76.0662 106.307 76.5503 106.664 76.9073C107.021 77.2642 107.505 77.4647 108.01 77.4647C108.515 77.4647 108.999 77.2642 109.356 76.9073C109.713 76.5503 109.913 76.0662 109.913 75.5615C109.913 75.0567 109.713 74.5726 109.356 74.2157C108.999 73.8587 108.515 73.6582 108.01 73.6582ZM108.01 74.0042C108.423 74.0042 108.819 74.1683 109.111 74.4603C109.403 74.7524 109.567 75.1485 109.567 75.5615C109.567 75.9745 109.403 76.3705 109.111 76.6626C108.819 76.9546 108.423 77.1187 108.01 77.1187C107.597 77.1187 107.201 76.9546 106.909 76.6626C106.617 76.3705 106.453 75.9745 106.453 75.5615C106.453 75.1485 106.617 74.7524 106.909 74.4603C107.201 74.1683 107.597 74.0042 108.01 74.0042ZM107.202 74.5919V76.531H107.673V75.8622H107.941L108.301 76.531H108.819L108.384 75.7886C108.597 75.7051 108.736 75.5103 108.736 75.2046C108.736 74.8515 108.514 74.5919 108.08 74.5919H107.202ZM107.673 74.963H108.024C108.172 74.963 108.255 75.0279 108.255 75.1668V75.3063C108.255 75.4452 108.172 75.5104 108.024 75.5104H107.673V74.963Z" fill="#1F70C1"/>
</g>
<defs>
<clipPath id="clip0_5659_4717">
<rect width="93" height="34.7041" fill="white" transform="translate(17 42.7612)"/>
</clipPath>
</defs>
</svg>
