<svg width="32" height="32" viewBox="0 0 32 32" fill="none" xmlns="http://www.w3.org/2000/svg">
<rect width="32" height="32" fill="white"/>
<g clip-path="url(#clip0_2_317)">
<path d="M10.33 7.11108H10.3034L10.2689 10.0166H10.2934C12.1989 10.0166 13.6778 11.5244 16.8934 16.9566L17.0878 17.2866L17.1011 17.3089L18.9011 14.6L18.8878 14.5789C18.4945 13.9349 18.0877 13.2992 17.6678 12.6722C17.2544 12.0534 16.8189 11.4497 16.3623 10.8622C14.2367 8.14664 12.4589 7.11108 10.33 7.11108Z" fill="url(#paint0_linear_2_317)"/>
<path d="M10.3034 7.11108C8.16669 7.1222 6.27447 8.50886 4.91114 10.6333C4.90742 10.6396 4.90371 10.6459 4.90002 10.6522L7.40447 12.02L7.41669 12.0011C8.21447 10.7978 9.20558 10.03 10.27 10.0178H10.2934L10.3289 7.11108H10.3034Z" fill="url(#paint1_linear_2_317)"/>
<path d="M4.91002 10.6333L4.8978 10.6522C4.00002 12.0522 3.33113 13.7722 2.97113 15.6266L2.96558 15.6511L5.78113 16.3177L5.78558 16.2933C6.08558 14.6633 6.65891 13.1511 7.40335 12.0211L7.41558 12.0022L4.91002 10.6333Z" fill="url(#paint2_linear_2_317)"/>
<path d="M5.78558 16.2933L2.97113 15.6266L2.96558 15.651C2.76891 16.671 2.66891 17.7077 2.66669 18.7466V18.7721L5.55335 19.031V19.0055C5.54285 18.0963 5.621 17.1883 5.78669 16.2944L5.78558 16.2933Z" fill="url(#paint3_linear_2_317)"/>
<path d="M5.64115 19.93C5.58938 19.6315 5.56004 19.3295 5.55337 19.0266V19.0022L2.6667 18.7422V18.7689C2.66346 19.3844 2.71777 19.9989 2.82892 20.6044L5.64559 19.9544C5.64409 19.9463 5.64261 19.9381 5.64115 19.93Z" fill="url(#paint4_linear_2_317)"/>
<path d="M6.30002 21.4333C5.98446 21.0889 5.76224 20.5933 5.64557 19.9578L5.64113 19.9344L2.82446 20.5844L2.82891 20.6078C3.04224 21.73 3.46002 22.6633 4.0578 23.3711L4.07335 23.39L6.31557 21.4511C6.30999 21.4452 6.30554 21.4393 6.30002 21.4333Z" fill="url(#paint5_linear_2_317)"/>
<path d="M14.6445 13.3933C12.9467 16.0044 11.9178 17.6433 11.9178 17.6433C9.65669 21.1989 8.87447 21.9955 7.61669 21.9955C7.36934 22.002 7.12351 21.9549 6.89606 21.8575C6.66861 21.76 6.46491 21.6146 6.29891 21.4311L4.0578 23.3689L4.07336 23.3878C4.90002 24.3533 6.06447 24.8889 7.50669 24.8889C9.6878 24.8889 11.2556 23.8578 14.0445 18.9666L16.0067 15.4889C15.5714 14.7781 15.1179 14.0793 14.6445 13.3933Z" fill="#0082FB"/>
<path d="M17.6689 9.27333L17.6511 9.29111C17.2067 9.76888 16.7778 10.3 16.3622 10.8644C16.7822 11.4011 17.2156 12.0022 17.6678 12.6756C18.2011 11.85 18.6989 11.1811 19.1867 10.6678L19.2045 10.65L17.6689 9.27333Z" fill="url(#paint6_linear_2_317)"/>
<path d="M25.9089 9.01442C24.7256 7.81442 23.3145 7.11108 21.8056 7.11108C20.2145 7.11108 18.8756 7.98553 17.6689 9.27108L17.6511 9.28886L19.1867 10.6666L19.2045 10.6478C19.9989 9.81775 20.7689 9.40331 21.6222 9.40331C22.54 9.40331 23.4 9.83664 24.1445 10.5978L24.1611 10.6155L25.9267 9.0322L25.9089 9.01442Z" fill="#0082FB"/>
<path d="M29.3311 18.3611C29.2645 14.5088 27.92 11.0655 25.9267 9.03218L25.9089 9.0144L24.1445 10.5966L24.1611 10.6144C25.6611 12.1611 26.6911 15.0366 26.7845 18.36V18.3855H29.3311V18.3611Z" fill="url(#paint7_linear_2_317)"/>
<path d="M29.3312 18.3888V18.3633H26.7845V18.3877C26.7889 18.5433 26.7912 18.7011 26.7912 18.8588C26.7912 19.7644 26.6567 20.4966 26.3823 21.0255L26.3701 21.0499L28.2678 23.0299L28.2823 23.0077C28.9712 21.9411 29.3334 20.4599 29.3334 18.6633C29.3334 18.5711 29.3334 18.4799 29.3312 18.3888Z" fill="url(#paint8_linear_2_317)"/>
<path d="M26.3822 21.0222L26.37 21.0444C26.1322 21.4911 25.7934 21.7889 25.3511 21.9189L26.2156 24.6544C26.3822 24.5981 26.5448 24.5306 26.7022 24.4522C27.3175 24.1412 27.8408 23.6746 28.22 23.0989L28.2689 23.0267L28.2822 23.0044L26.3822 21.0222Z" fill="url(#paint9_linear_2_317)"/>
<path d="M24.8 21.9922C24.5089 21.9922 24.2534 21.9489 24.0023 21.8367L23.1156 24.6389C23.6145 24.8089 24.1456 24.8856 24.7378 24.8856C25.2845 24.8856 25.7856 24.8044 26.24 24.6467L25.3734 21.9111C25.1878 21.9667 24.9956 21.9944 24.8 21.9922Z" fill="url(#paint10_linear_2_317)"/>
<path d="M23.0256 21.0378L23.01 21.0189L20.97 23.1456L20.9878 23.1645C21.6956 23.9223 22.3723 24.3923 23.14 24.65L24.0256 21.85C23.7023 21.7111 23.3889 21.4578 23.0256 21.0378Z" fill="url(#paint11_linear_2_317)"/>
<path d="M23.0101 21.0167C22.3989 20.3033 21.6412 19.1144 20.4512 17.1944L18.9001 14.5989L18.8878 14.5767L17.0878 17.2855L17.1012 17.3078L18.2001 19.1611C19.2656 20.95 20.1334 22.2433 20.9701 23.1444L20.9878 23.1622L23.0256 21.0355C23.0204 21.0293 23.0152 21.023 23.0101 21.0167Z" fill="url(#paint12_linear_2_317)"/>
</g>
<defs>
<linearGradient id="paint0_linear_2_317" x1="665.429" y1="916.743" x2="130.135" y2="213.059" gradientUnits="userSpaceOnUse">
<stop offset="0.0006" stop-color="#0867DF"/>
<stop offset="0.4539" stop-color="#0668E1"/>
<stop offset="0.8591" stop-color="#0064E0"/>
</linearGradient>
<linearGradient id="paint1_linear_2_317" x1="122.544" y1="379.568" x2="504.487" y2="88.8706" gradientUnits="userSpaceOnUse">
<stop offset="0.1323" stop-color="#0064DF"/>
<stop offset="0.9988" stop-color="#0064E0"/>
</linearGradient>
<linearGradient id="paint2_linear_2_317" x1="173.236" y1="517.271" x2="328.947" y2="124.112" gradientUnits="userSpaceOnUse">
<stop offset="0.0147" stop-color="#0072EC"/>
<stop offset="0.6881" stop-color="#0064DF"/>
</linearGradient>
<linearGradient id="paint3_linear_2_317" x1="149.407" y1="322.673" x2="168.402" y2="69.4567" gradientUnits="userSpaceOnUse">
<stop offset="0.0731" stop-color="#007CF6"/>
<stop offset="0.9943" stop-color="#0072EC"/>
</linearGradient>
<linearGradient id="paint4_linear_2_317" x1="158.038" y1="127.312" x2="152.579" y2="86.5617" gradientUnits="userSpaceOnUse">
<stop offset="0.0731" stop-color="#007FF9"/>
<stop offset="1" stop-color="#007CF6"/>
</linearGradient>
<linearGradient id="paint5_linear_2_317" x1="134.401" y1="63.1358" x2="217.731" y2="240.452" gradientUnits="userSpaceOnUse">
<stop offset="0.0731" stop-color="#007FF9"/>
<stop offset="1" stop-color="#0082FB"/>
</linearGradient>
<linearGradient id="paint6_linear_2_317" x1="115.294" y1="243.622" x2="215.785" y2="104.229" gradientUnits="userSpaceOnUse">
<stop offset="0.2799" stop-color="#007FF8"/>
<stop offset="0.9141" stop-color="#0082FB"/>
</linearGradient>
<linearGradient id="paint7_linear_2_317" x1="251.123" y1="67.4433" x2="474.335" y2="891.166" gradientUnits="userSpaceOnUse">
<stop stop-color="#0082FB"/>
<stop offset="0.9995" stop-color="#0081FA"/>
</linearGradient>
<linearGradient id="paint8_linear_2_317" x1="204.333" y1="40.1146" x2="73.3788" y2="305.62" gradientUnits="userSpaceOnUse">
<stop offset="0.0619" stop-color="#0081FA"/>
<stop offset="1" stop-color="#0080F9"/>
</linearGradient>
<linearGradient id="paint9_linear_2_317" x1="114.111" y1="236.486" x2="219.774" y2="164.294" gradientUnits="userSpaceOnUse">
<stop stop-color="#027AF3"/>
<stop offset="1" stop-color="#0080F9"/>
</linearGradient>
<linearGradient id="paint10_linear_2_317" x1="86.9574" y1="174.284" x2="279.67" y2="174.284" gradientUnits="userSpaceOnUse">
<stop stop-color="#0377EF"/>
<stop offset="0.9994" stop-color="#0279F1"/>
</linearGradient>
<linearGradient id="paint11_linear_2_317" x1="144.118" y1="149.19" x2="252.62" y2="213.242" gradientUnits="userSpaceOnUse">
<stop offset="0.0019" stop-color="#0471E9"/>
<stop offset="1" stop-color="#0377EF"/>
</linearGradient>
<linearGradient id="paint12_linear_2_317" x1="208.605" y1="183.875" x2="563.021" y2="630.847" gradientUnits="userSpaceOnUse">
<stop offset="0.2765" stop-color="#0867DF"/>
<stop offset="1" stop-color="#0471E9"/>
</linearGradient>
<clipPath id="clip0_2_317">
<rect width="26.6667" height="26.6667" fill="white" transform="translate(2.66669 2.66663)"/>
</clipPath>
</defs>
</svg>
