<svg width="280" height="184" viewBox="0 0 280 184" fill="none" xmlns="http://www.w3.org/2000/svg">
<rect width="280" height="184" fill="white"/>
<g clip-path="url(#clip0_2_334)">
<path d="M36.1162 71.6666H36.0462L35.9558 79.2937H36.02C41.0221 79.2937 44.9042 83.2516 53.345 97.5112L53.8554 98.3775L53.8904 98.4358L58.6154 91.325L58.5804 91.2695C57.5479 89.5791 56.4801 87.9104 55.3779 86.2645C54.2927 84.6403 53.1496 83.0556 51.9508 81.5133C46.3712 74.385 41.7046 71.6666 36.1162 71.6666Z" fill="url(#paint0_linear_2_334)"/>
<path d="M36.0462 71.6666C30.4375 71.6958 25.4704 75.3358 21.8917 80.9125C21.8819 80.929 21.8722 80.9455 21.8625 80.962L28.4367 84.5525L28.4687 84.5029C30.5629 81.3441 33.1646 79.3287 35.9587 79.2966H36.02L36.1133 71.6666H36.0462Z" fill="url(#paint1_linear_2_334)"/>
<path d="M21.8887 80.9125L21.8567 80.9621C19.5 84.6371 17.7442 89.1521 16.7992 94.02L16.7846 94.0841L24.1754 95.8341L24.1871 95.77C24.9746 91.4912 26.4796 87.5216 28.4337 84.5554L28.4658 84.5058L21.8887 80.9125Z" fill="url(#paint2_linear_2_334)"/>
<path d="M24.1871 95.77L16.7992 94.02L16.7846 94.0842C16.2683 96.7617 16.0058 99.4829 16 102.21V102.277L23.5775 102.957V102.89C23.5499 100.503 23.7551 98.1196 24.19 95.7729L24.1871 95.77Z" fill="url(#paint3_linear_2_334)"/>
<path d="M23.8079 105.316C23.672 104.533 23.595 103.74 23.5775 102.945V102.881L16 102.198V102.268C15.9915 103.884 16.1341 105.497 16.4258 107.087L23.8196 105.38C23.8156 105.359 23.8117 105.338 23.8079 105.316Z" fill="url(#paint4_linear_2_334)"/>
<path d="M25.5375 109.262C24.7092 108.358 24.1258 107.057 23.8196 105.389L23.8079 105.328L16.4142 107.034L16.4258 107.095C16.9858 110.041 18.0825 112.491 19.6517 114.349L19.6925 114.399L25.5783 109.309C25.5637 109.294 25.552 109.278 25.5375 109.262Z" fill="url(#paint5_linear_2_334)"/>
<path d="M47.4417 88.1575C42.985 95.0116 40.2842 99.3137 40.2842 99.3137C34.3487 108.647 32.2954 110.738 28.9937 110.738C28.3444 110.755 27.6991 110.632 27.1021 110.376C26.505 110.12 25.9703 109.738 25.5346 109.257L19.6517 114.343L19.6925 114.393C21.8625 116.927 24.9192 118.333 28.705 118.333C34.4304 118.333 38.5458 115.627 45.8667 102.787L51.0175 93.6583C49.8748 91.7925 48.6843 89.9582 47.4417 88.1575Z" fill="#0082FB"/>
<path d="M55.3808 77.3425L55.3342 77.3892C54.1675 78.6433 53.0417 80.0375 51.9508 81.5192C53.0533 82.9279 54.1908 84.5058 55.3779 86.2733C56.7779 84.1063 58.0846 82.3504 59.365 81.0029L59.4117 80.9563L55.3808 77.3425Z" fill="url(#paint6_linear_2_334)"/>
<path d="M77.0108 76.6629C73.9046 73.5129 70.2004 71.6666 66.2396 71.6666C62.0629 71.6666 58.5483 73.962 55.3808 77.3366L55.3342 77.3833L59.365 81L59.4117 80.9504C61.4971 78.7716 63.5183 77.6837 65.7583 77.6837C68.1675 77.6837 70.425 78.8212 72.3792 80.8191L72.4229 80.8658L77.0575 76.7095L77.0108 76.6629Z" fill="#0082FB"/>
<path d="M85.9942 101.198C85.8192 91.0858 82.29 82.047 77.0575 76.7095L77.0108 76.6628L72.3792 80.8162L72.4229 80.8628C76.3604 84.9228 79.0642 92.4712 79.3092 101.195V101.262H85.9942V101.198Z" fill="url(#paint7_linear_2_334)"/>
<path d="M85.9942 101.271V101.204H79.3092V101.268C79.3208 101.676 79.3267 102.09 79.3267 102.505C79.3267 104.882 78.9738 106.804 78.2533 108.192L78.2213 108.256L83.2029 113.454L83.2408 113.395C85.0492 110.595 86 106.707 86 101.991C86 101.749 86 101.51 85.9942 101.271Z" fill="url(#paint8_linear_2_334)"/>
<path d="M78.2533 108.183L78.2212 108.242C77.5971 109.414 76.7075 110.196 75.5467 110.537L77.8158 117.718C78.2532 117.57 78.68 117.393 79.0933 117.187C80.7084 116.371 82.0819 115.146 83.0775 113.635L83.2058 113.445L83.2408 113.387L78.2533 108.183Z" fill="url(#paint9_linear_2_334)"/>
<path d="M74.1 110.729C73.3358 110.729 72.665 110.616 72.0058 110.321L69.6783 117.677C70.9879 118.123 72.3821 118.325 73.9367 118.325C75.3717 118.325 76.6871 118.112 77.88 117.697L75.605 110.517C75.1179 110.662 74.6133 110.735 74.1 110.729Z" fill="url(#paint10_linear_2_334)"/>
<path d="M69.4421 108.224L69.4012 108.175L64.0462 113.757L64.0929 113.807C65.9508 115.796 67.7271 117.03 69.7425 117.706L72.0671 110.356C71.2183 109.992 70.3958 109.327 69.4421 108.224Z" fill="url(#paint11_linear_2_334)"/>
<path d="M69.4012 108.169C67.7971 106.296 65.8079 103.175 62.6842 98.1353L58.6125 91.322L58.5804 91.2637L53.8554 98.3745L53.8904 98.4328L56.775 103.298C59.5721 107.994 61.85 111.389 64.0462 113.754L64.0929 113.801L69.4421 108.218C69.4284 108.202 69.4148 108.185 69.4012 108.169Z" fill="url(#paint12_linear_2_334)"/>
</g>
<path fill-rule="evenodd" clip-rule="evenodd" d="M101 116.392V73.8225H107.607V110.25H130.519V116.392H101ZM137.094 116.392V72H143.27V116.392H137.094ZM159.202 117C155.952 117 153.424 116.174 151.622 114.523C149.822 112.869 148.922 110.698 148.922 108C148.922 105.322 149.934 103.084 151.962 101.281C153.991 99.477 157.228 98.5747 161.673 98.5747H170.073V98.4847C170.073 93.375 167.685 90.8212 162.91 90.8212C160.913 90.8212 159.23 91.1768 157.859 91.8855C156.508 92.5792 155.364 93.6059 154.54 94.8645L150.311 91.4895C151.589 89.5179 153.386 87.9212 155.513 86.868C157.664 85.7947 160.109 85.257 162.846 85.257H163.525C167.313 85.257 170.36 86.3303 172.665 88.479C174.972 90.6278 176.125 93.8407 176.125 98.118V116.392H170.195V111.436C169.05 113.175 167.465 114.595 165.594 115.555C163.721 116.518 161.59 117 159.202 117ZM160.562 111.589C162.949 111.589 164.935 111.056 166.521 109.991C168.105 108.927 169.29 107.482 170.073 105.658V103.347H161.921C159.492 103.347 157.756 103.729 156.718 104.488C155.678 105.248 155.157 106.277 155.157 107.575C155.157 110.25 156.96 111.589 160.562 111.589ZM183.134 116.392V85.986H189.309V90.972C190.42 89.19 191.8 87.7905 193.446 86.778C195.092 85.7655 196.998 85.257 199.158 85.257H199.838C202.225 85.257 204.232 85.8352 205.86 86.9895C207.485 88.146 208.688 89.8065 209.471 91.9755C210.665 89.8875 212.189 88.2473 214.039 87.0503C215.894 85.8555 217.993 85.257 220.339 85.257H221.019C224.478 85.257 227.118 86.4427 228.939 88.8142C230.762 91.1857 231.671 94.5202 231.671 98.8177V116.39H225.495V99.5468C225.495 93.7912 223.48 90.9112 219.444 90.9112H218.826C216.79 90.9112 215.066 91.5457 213.656 92.8125C212.244 94.0793 211.19 95.6768 210.49 97.6005V116.392H204.314V99.5468C204.314 93.7912 202.296 90.9112 198.263 90.9112H197.645C195.607 90.9112 193.882 91.5457 192.473 92.8125C191.063 94.0793 190.007 95.6768 189.309 97.6005V116.392H183.134ZM247.08 117C243.827 117 241.299 116.174 239.499 114.523C237.697 112.869 236.797 110.698 236.797 108C236.797 105.322 237.812 103.084 239.839 101.281C241.866 99.477 245.103 98.5747 249.55 98.5747H257.948V98.4847C257.948 93.375 255.561 90.8212 250.786 90.8212C248.788 90.8212 247.105 91.1768 245.735 91.8855C244.384 92.5795 243.241 93.6062 242.417 94.8645L238.186 91.4895C239.464 89.5179 241.261 87.9212 243.389 86.868C245.54 85.7947 247.985 85.257 250.724 85.257H251.403C255.191 85.257 258.235 86.3303 260.54 88.479C262.85 90.63 264 93.8407 264 98.118V116.392H258.072V111.436C256.928 113.175 255.343 114.595 253.472 115.555C251.598 116.518 249.468 117 247.08 117ZM248.437 111.589C250.825 111.589 252.813 111.056 254.397 109.991C255.981 108.927 257.165 107.482 257.948 105.658V103.347H249.798C247.367 103.347 245.634 103.729 244.594 104.488C243.554 105.248 243.033 106.277 243.033 107.575C243.033 110.25 244.835 111.589 248.437 111.589Z" fill="black"/>
<defs>
<linearGradient id="paint0_linear_2_334" x1="1755.75" y1="2459.45" x2="350.606" y2="612.28" gradientUnits="userSpaceOnUse">
<stop offset="0.0006" stop-color="#0867DF"/>
<stop offset="0.4539" stop-color="#0668E1"/>
<stop offset="0.8591" stop-color="#0064E0"/>
</linearGradient>
<linearGradient id="paint1_linear_2_334" x1="330.678" y1="1049.37" x2="1333.28" y2="286.285" gradientUnits="userSpaceOnUse">
<stop offset="0.1323" stop-color="#0064DF"/>
<stop offset="0.9988" stop-color="#0064E0"/>
</linearGradient>
<linearGradient id="paint2_linear_2_334" x1="463.744" y1="1410.84" x2="872.487" y2="378.793" gradientUnits="userSpaceOnUse">
<stop offset="0.0147" stop-color="#0072EC"/>
<stop offset="0.6881" stop-color="#0064DF"/>
</linearGradient>
<linearGradient id="paint3_linear_2_334" x1="401.192" y1="900.018" x2="451.055" y2="235.324" gradientUnits="userSpaceOnUse">
<stop offset="0.0731" stop-color="#007CF6"/>
<stop offset="0.9943" stop-color="#0072EC"/>
</linearGradient>
<linearGradient id="paint4_linear_2_334" x1="423.849" y1="387.193" x2="409.519" y2="280.224" gradientUnits="userSpaceOnUse">
<stop offset="0.0731" stop-color="#007FF9"/>
<stop offset="1" stop-color="#007CF6"/>
</linearGradient>
<linearGradient id="paint5_linear_2_334" x1="361.802" y1="218.731" x2="580.543" y2="684.186" gradientUnits="userSpaceOnUse">
<stop offset="0.0731" stop-color="#007FF9"/>
<stop offset="1" stop-color="#0082FB"/>
</linearGradient>
<linearGradient id="paint6_linear_2_334" x1="311.647" y1="692.509" x2="575.436" y2="326.601" gradientUnits="userSpaceOnUse">
<stop offset="0.2799" stop-color="#007FF8"/>
<stop offset="0.9141" stop-color="#0082FB"/>
</linearGradient>
<linearGradient id="paint7_linear_2_334" x1="668.199" y1="230.039" x2="1254.13" y2="2392.31" gradientUnits="userSpaceOnUse">
<stop stop-color="#0082FB"/>
<stop offset="0.9995" stop-color="#0081FA"/>
</linearGradient>
<linearGradient id="paint8_linear_2_334" x1="545.374" y1="158.301" x2="201.619" y2="855.253" gradientUnits="userSpaceOnUse">
<stop offset="0.0619" stop-color="#0081FA"/>
<stop offset="1" stop-color="#0080F9"/>
</linearGradient>
<linearGradient id="paint9_linear_2_334" x1="308.541" y1="673.775" x2="585.907" y2="484.271" gradientUnits="userSpaceOnUse">
<stop stop-color="#027AF3"/>
<stop offset="1" stop-color="#0080F9"/>
</linearGradient>
<linearGradient id="paint10_linear_2_334" x1="237.263" y1="510.496" x2="743.134" y2="510.496" gradientUnits="userSpaceOnUse">
<stop stop-color="#0377EF"/>
<stop offset="0.9994" stop-color="#0279F1"/>
</linearGradient>
<linearGradient id="paint11_linear_2_334" x1="387.31" y1="444.623" x2="672.127" y2="612.761" gradientUnits="userSpaceOnUse">
<stop offset="0.0019" stop-color="#0471E9"/>
<stop offset="1" stop-color="#0377EF"/>
</linearGradient>
<linearGradient id="paint12_linear_2_334" x1="556.588" y1="535.672" x2="1486.93" y2="1708.97" gradientUnits="userSpaceOnUse">
<stop offset="0.2765" stop-color="#0867DF"/>
<stop offset="1" stop-color="#0471E9"/>
</linearGradient>
<clipPath id="clip0_2_334">
<rect width="70" height="70" fill="white" transform="translate(16 60)"/>
</clipPath>
</defs>
</svg>
