<svg width="280" height="184" viewBox="0 0 280 184" fill="none" xmlns="http://www.w3.org/2000/svg">
<rect width="280" height="184" fill="white"/>
<g clip-path="url(#clip0_1_218)">
<path d="M120.74 65.6303H126.13L128.354 73.6611L129.117 76.7947H129.257L130.011 73.6611L132.245 65.6303H137.635V88.2918H133.289V81.2766L133.291 80.9107C133.329 78.2289 133.748 73.0876 133.977 70.7498H133.873L132.131 76.8322L130.364 82.2911H127.871L126.073 76.8322L124.448 70.7498H124.328L124.383 71.2917C124.644 73.9386 125.016 78.8989 125.016 81.2766V88.2918H120.74V65.6303ZM142.221 83.9915H147.523V69.9308H142.221V65.6301H157.964V69.9308H152.663V83.9915H157.964V88.2922H142.221V83.9915ZM162.302 85.4367L165.251 81.9143C166.968 83.3171 169.086 84.279 171.287 84.279C173.468 84.279 174.475 83.4363 174.475 82.3286C174.475 80.6967 173.125 80.3022 170.977 79.4042L168.019 78.144C165.503 77.1899 163.206 75.2644 163.206 71.9658C163.206 68.2127 166.593 65.2129 171.528 65.2129C174.259 65.2129 177.018 66.2352 179.069 68.1799L176.48 71.413C174.88 70.2668 173.465 69.6426 171.246 69.6426C169.554 69.6426 168.405 70.3433 168.405 71.6665C168.405 73.0298 169.927 73.529 172.105 74.3436L174.883 75.5184C177.857 76.6308 179.734 78.4818 179.734 81.68C179.734 85.4471 176.567 88.7088 170.946 88.7088C167.878 88.7088 164.71 87.5886 162.302 85.4367ZM189.335 69.9308H182.528V65.6302H201.281V69.9308H194.475V88.2922H189.335V69.9308ZM209.926 69.7007H212.431C215.13 69.7007 216.579 70.4529 216.579 72.6906C216.579 74.9092 215.13 76.0689 212.431 76.0689H209.926V69.7007ZM222.707 88.2921L217.571 79.226C219.995 78.1318 221.618 76.0205 221.618 72.6906C221.618 67.3529 217.738 65.6639 212.994 65.6306L204.776 65.6301V88.2921H209.926V80.1395H212.623L216.958 88.2921H222.707ZM231.237 78.9065L231.774 76.8186L233.536 69.5103H233.675C234.065 71.2184 234.529 73.0606 234.972 74.7985L236.022 78.9065H231.237ZM238.42 88.2917H243.868L236.796 65.6303H230.636L223.564 88.2917H228.822L230.209 82.9026H237.043L238.42 88.2917ZM247.883 65.6303H253.012V83.9917H263.119V88.2918H247.883V65.6303Z" fill="black"/>
<path d="M126.708 115.261L127.245 113.173L129.007 105.864H129.147C129.537 107.572 130.001 109.415 130.444 111.153L131.493 115.261H126.708ZM133.889 124.655H139.34L132.265 101.984H126.103L119.028 124.655H124.288L125.676 119.263H132.512L133.889 124.655ZM142.221 120.346H147.523V106.285H142.221V101.984H157.964V106.285H152.663V120.346H157.964V124.647H142.221V120.346ZM162.534 126.902H179.354V130.808H162.534V126.902Z" fill="black"/>
</g>
<g clip-path="url(#clip1_1_218)">
<path d="M44.5281 65H31.8212V77.5984H44.5281V65Z" fill="black"/>
<path d="M95.3707 65H82.6637V77.5984H95.3707V65Z" fill="black"/>
<path d="M57.2349 77.5975H31.8212V90.1959H57.2349V77.5975Z" fill="black"/>
<path d="M95.3753 77.5975H69.9617V90.1959H95.3753V77.5975Z" fill="black"/>
<path d="M95.3636 90.195H31.8212V102.793H95.3636V90.195Z" fill="black"/>
<path d="M44.5281 102.797H31.8212V115.395H44.5281V102.797Z" fill="black"/>
<path d="M69.9493 102.797H57.2425V115.395H69.9493V102.797Z" fill="black"/>
<path d="M95.3707 102.797H82.6637V115.395H95.3707V102.797Z" fill="black"/>
<path d="M57.2475 115.403H19.119V128.001H57.2475V115.403Z" fill="black"/>
<path d="M108.09 115.403H69.9617V128.001H108.09V115.403Z" fill="black"/>
<path d="M44.5322 65H31.8254V77.5984H44.5322V65Z" fill="#FFD800"/>
<path d="M95.3664 65H82.6596V77.5984H95.3664V65Z" fill="#FFD800"/>
<path d="M57.2392 77.5975H31.8254V90.1959H57.2392V77.5975Z" fill="#FFAF00"/>
<path d="M95.3668 77.5975H69.9532V90.1959H95.3668V77.5975Z" fill="#FFAF00"/>
<path d="M95.3677 90.195H31.8254V102.793H95.3677V90.195Z" fill="#FF8205"/>
<path d="M44.5322 102.797H31.8254V115.395H44.5322V102.797Z" fill="#FA500F"/>
<path d="M69.9493 102.797H57.2425V115.395H69.9493V102.797Z" fill="#FA500F"/>
<path d="M95.3664 102.797H82.6596V115.395H95.3664V102.797Z" fill="#FA500F"/>
<path d="M57.2475 115.403H19.119V128.001H57.2475V115.403Z" fill="#E10500"/>
<path d="M108.082 115.403H69.9532V128.001H108.082V115.403Z" fill="#E10500"/>
</g>
<defs>
<clipPath id="clip0_1_218">
<rect width="247" height="79" fill="white" transform="translate(16.119 52)"/>
</clipPath>
<clipPath id="clip1_1_218">
<rect width="89" height="63" fill="white" transform="translate(19.119 65)"/>
</clipPath>
</defs>
</svg>
