<svg width="32" height="32" viewBox="0 0 32 32" fill="none" xmlns="http://www.w3.org/2000/svg">
<rect width="32" height="32" fill="white"/>
<g clip-path="url(#clip0_1_147)">
<path d="M10.5848 6.93332H6.89172V10.6129H10.5848V6.93332Z" fill="black"/>
<path d="M25.3616 6.93332H21.6685V10.6129H25.3616V6.93332Z" fill="black"/>
<path d="M14.2779 10.6126H6.89172V14.2921H14.2779V10.6126Z" fill="black"/>
<path d="M25.3629 10.6126H17.9767V14.2921H25.3629V10.6126Z" fill="black"/>
<path d="M25.3595 14.2919H6.89172V17.9714H25.3595V14.2919Z" fill="black"/>
<path d="M10.5848 17.9723H6.89172V21.6518H10.5848V17.9723Z" fill="black"/>
<path d="M17.9732 17.9723H14.2801V21.6518H17.9732V17.9723Z" fill="black"/>
<path d="M25.3616 17.9723H21.6685V21.6518H25.3616V17.9723Z" fill="black"/>
<path d="M14.2815 21.6541H3.20001V25.3336H14.2815V21.6541Z" fill="black"/>
<path d="M29.0583 21.6541H17.9767V25.3336H29.0583V21.6541Z" fill="black"/>
<path d="M10.586 6.93332H6.89294V10.6129H10.586V6.93332Z" fill="#FFD800"/>
<path d="M25.3603 6.93332H21.6672V10.6129H25.3603V6.93332Z" fill="#FFD800"/>
<path d="M14.2791 10.6126H6.89294V14.2921H14.2791V10.6126Z" fill="#FFAF00"/>
<path d="M25.3604 10.6126H17.9743V14.2921H25.3604V10.6126Z" fill="#FFAF00"/>
<path d="M25.3607 14.2919H6.89294V17.9714H25.3607V14.2919Z" fill="#FF8205"/>
<path d="M10.586 17.9723H6.89294V21.6518H10.586V17.9723Z" fill="#FA500F"/>
<path d="M17.9732 17.9723H14.2801V21.6518H17.9732V17.9723Z" fill="#FA500F"/>
<path d="M25.3603 17.9723H21.6672V21.6518H25.3603V17.9723Z" fill="#FA500F"/>
<path d="M14.2815 21.6541H3.20001V25.3336H14.2815V21.6541Z" fill="#E10500"/>
<path d="M29.0558 21.6541H17.9743V25.3336H29.0558V21.6541Z" fill="#E10500"/>
</g>
<defs>
<clipPath id="clip0_1_147">
<rect width="25.8667" height="18.4" fill="white" transform="translate(3.20001 6.93332)"/>
</clipPath>
</defs>
</svg>
