<svg width="32" height="32" viewBox="0 0 32 32" fill="none" xmlns="http://www.w3.org/2000/svg">
<rect width="32" height="32" fill="white"/>
<g clip-path="url(#clip0_4_480)">
<g clip-path="url(#clip1_4_480)">
<path d="M7.58973 16.7524C7.57142 16.4836 7.53571 16.2146 7.5389 15.946C7.54358 15.5489 7.62963 15.1653 7.81946 14.811C7.95791 14.5526 8.13748 14.3249 8.35626 14.1309C8.57268 13.9391 8.80956 13.7739 9.07356 13.6533C9.27454 13.5615 9.48288 13.4868 9.70497 13.4663C9.86086 13.4518 10.0185 13.4331 10.1739 13.442C10.478 13.4595 10.7697 13.5378 11.0486 13.6631C11.263 13.7595 11.4644 13.8765 11.6512 14.0192C11.8228 14.1501 11.9735 14.3013 12.1022 14.4747C12.2571 14.6835 12.3774 14.9109 12.4452 15.1614C12.491 15.3306 12.5302 15.5037 12.5479 15.6776C12.5707 15.9008 12.5696 16.1265 12.5774 16.3511C12.5831 16.5129 12.5804 16.6752 12.5922 16.8364C12.6143 17.1391 12.6458 17.4406 12.748 17.7302C12.8189 17.9313 12.913 18.1203 13.0231 18.3068L12.7818 18.5752C12.7615 18.5977 12.7449 18.6235 12.7256 18.6471L12.4706 18.9577C12.2876 18.8858 12.1082 18.8019 11.9206 18.7454C11.7408 18.6912 11.5537 18.6561 11.3674 18.6296C11.166 18.6009 10.9621 18.5837 10.7588 18.5761C10.4476 18.5645 10.136 18.5622 9.82453 18.5625C9.68119 18.5627 9.53776 18.5772 9.39457 18.5879C9.32378 18.5932 9.25344 18.6045 9.17722 18.6074C9.14081 18.5061 9.10746 18.4112 9.07996 18.3146C9.03894 18.1705 9.02287 18.0169 8.90624 17.9041C8.87194 17.871 8.83932 17.8336 8.81537 17.7927C8.73133 17.649 8.65062 17.5033 8.57021 17.3576C8.51505 17.2576 8.45917 17.1678 8.34558 17.1126C8.20907 17.0462 8.08765 16.949 7.95863 16.8669C7.91674 16.8402 7.87396 16.8099 7.82725 16.7969C7.74993 16.7754 7.6691 16.7666 7.58975 16.7524L7.58973 16.7524Z" fill="#E95A0F"/>
<path d="M21.8581 18.5591C21.6994 18.5597 21.5406 18.5602 21.3758 18.5542C21.3739 18.4415 21.3788 18.3354 21.3818 18.2293C21.3822 18.2138 21.3776 18.1899 21.3675 18.1844C21.3569 18.1787 21.3361 18.1889 21.321 18.1951C21.3097 18.1998 21.3004 18.2093 21.2737 18.2284C21.2705 18.1848 21.2649 18.1547 21.2668 18.1251C21.2733 18.0255 21.296 17.9249 21.2873 17.8269C21.2739 17.6757 21.3058 17.6343 21.1245 17.6365C21.0745 17.6372 21.0768 17.5995 21.0805 17.5662C21.0871 17.5078 21.0997 17.45 21.1039 17.3915C21.108 17.3345 21.1048 17.277 21.1048 17.2217C21.0711 17.2156 21.0477 17.2103 21.024 17.2072C20.9657 17.1995 20.9441 17.1775 20.9572 17.1107C20.9733 17.0278 20.9684 16.9409 20.974 16.8558C20.9765 16.8181 20.9612 16.7968 20.9239 16.7931C20.8696 16.7877 20.8151 16.7791 20.7609 16.7802C20.6993 16.7814 20.6923 16.7502 20.6981 16.7008C20.7078 16.6186 20.7147 16.5361 20.7229 16.4536L20.7374 16.3151C20.6595 16.311 20.5903 16.3045 20.5211 16.3048C20.4773 16.305 20.4528 16.2863 20.4477 16.2467C20.4322 16.1283 20.4149 16.0098 20.408 15.8908C20.4046 15.8316 20.3825 15.8155 20.3288 15.8146C20.2062 15.8125 20.0837 15.8068 19.9612 15.802C19.8656 15.7983 19.8274 15.7655 19.812 15.6713C19.8022 15.6109 19.7762 15.5684 19.7094 15.563C19.6072 15.5548 19.5046 15.5499 19.403 15.5371C19.3063 15.5249 19.2104 15.5052 19.1145 15.4872C19.0482 15.4748 18.9824 15.4597 18.9164 15.4458C18.976 15.1428 19.0897 14.8599 19.2634 14.6064C19.5018 14.2586 19.8105 13.9827 20.1757 13.7708C20.3849 13.6494 20.6052 13.5559 20.8407 13.4989C21.0606 13.4456 21.2845 13.4234 21.509 13.441C21.949 13.4754 22.3517 13.6252 22.729 13.8522C22.9384 13.9782 23.1282 14.1276 23.287 14.311C23.3941 14.4348 23.4877 14.5722 23.5737 14.7118C23.7159 14.9426 23.7961 15.1992 23.8458 15.4642C23.8693 15.5896 23.8829 15.7178 23.8896 15.8454C23.8996 16.0378 23.8995 16.2308 23.8982 16.4303L23.2177 16.6945C23.115 16.7349 23.0085 16.7655 22.9305 16.8578C22.8681 16.9317 22.7898 16.994 22.7121 17.0528C22.5814 17.1518 22.4687 17.2639 22.381 17.4044C22.337 17.4748 22.2767 17.5414 22.2094 17.5897C22.0595 17.6972 21.9797 17.8402 21.9504 18.0177L21.8582 18.5591L21.8581 18.5591Z" fill="#ED6D7B"/>
<path d="M6.53285 20.7268C6.52358 20.9603 6.52187 21.1945 6.50308 21.4273C6.48065 21.7053 6.42001 21.9754 6.30779 22.2336C6.18897 22.507 6.02143 22.7444 5.7996 22.9409C5.58736 23.129 5.3428 23.2599 5.06913 23.3428C4.78278 23.4294 4.49073 23.45 4.19767 23.429C3.89706 23.4074 3.6184 23.306 3.36942 23.1293C3.10245 22.9397 2.90022 22.6947 2.73476 22.4151C2.60819 22.2012 2.52217 21.9722 2.48129 21.7284C2.45041 21.5444 2.45083 21.3587 2.47597 21.1716C2.51065 20.9136 2.59505 20.6739 2.7131 20.4446C2.86646 20.1468 3.07372 19.8926 3.35181 19.7038C3.56064 19.562 3.79342 19.4704 4.04414 19.4338C4.15991 19.4168 4.27775 19.412 4.39487 19.4066C4.55005 19.3995 4.70555 19.3992 4.86073 19.392C4.97354 19.3867 5.08604 19.3749 5.20651 19.3699C5.22432 19.3932 5.23609 19.4121 5.24394 19.4325C5.30634 19.5943 5.38354 19.7475 5.48996 19.886C5.59223 20.0192 5.68574 20.1591 5.78962 20.2909C5.84135 20.3565 5.90011 20.4224 5.96927 20.4671C6.07107 20.5331 6.18364 20.5832 6.29425 20.6344C6.3715 20.6701 6.45315 20.6963 6.53285 20.7268Z" fill="#EC663E"/>
<path d="M19.2993 10.6931C19.3494 10.3003 19.4818 9.94271 19.7315 9.62936C19.9472 9.35867 20.2069 9.14749 20.5195 9.00079C20.7131 8.90995 20.9152 8.84675 21.1295 8.83249C21.2625 8.82366 21.3967 8.8116 21.5289 8.8211C21.7481 8.83682 21.9599 8.89254 22.1613 8.98312C22.4173 9.09826 22.6423 9.25732 22.829 9.46701C23.0308 9.69357 23.1632 9.95782 23.2447 10.2497C23.3161 10.505 23.328 10.7666 23.3069 11.0262C23.2756 11.4097 23.1506 11.7645 22.9049 12.0676C22.7661 12.2388 22.6081 12.3909 22.414 12.5118C22.3444 12.4377 22.2819 12.3647 22.2221 12.2894C22.1474 12.1955 22.0774 12.0976 22.0006 12.0054C21.9403 11.9331 21.8745 11.865 21.8075 11.7987C21.7601 11.7519 21.7097 11.7068 21.655 11.669C21.5885 11.623 21.5156 11.5864 21.4465 11.544C21.3348 11.4754 21.2219 11.4164 21.0902 11.3869C20.9295 11.351 20.7623 11.3265 20.6199 11.2307C20.601 11.218 20.5746 11.215 20.5511 11.2104C20.3812 11.177 20.2151 11.1359 20.0631 11.0457C19.9943 11.0049 19.9104 10.9904 19.8385 10.9538C19.7751 10.9215 19.7227 10.8666 19.6584 10.8369C19.5414 10.783 19.4193 10.7404 19.2993 10.6931V10.6931Z" fill="#EA580E"/>
<path d="M9.26357 12.6484C9.13868 12.5734 9.00598 12.5086 8.89073 12.4209C8.72073 12.2915 8.57349 12.136 8.4589 11.9534C8.31009 11.7163 8.20009 11.463 8.16976 11.1824C8.15272 11.0247 8.13763 10.8646 8.14508 10.7067C8.15594 10.4763 8.20988 10.2531 8.29796 10.0374C8.4144 9.75219 8.59169 9.51207 8.82031 9.31045C9.05823 9.10062 9.3373 8.96629 9.64343 8.88362C9.89716 8.81511 10.1562 8.80208 10.414 8.82192C10.7282 8.84609 11.0154 8.96268 11.2729 9.1453C11.4999 9.30629 11.6912 9.50287 11.8392 9.74757C11.6886 9.85709 11.5404 9.96033 11.3891 10.0589C11.1634 10.206 10.9368 10.3508 10.755 10.5544C10.6388 10.6844 10.5279 10.8216 10.3968 10.935C10.1742 11.1276 10.0305 11.3813 9.85482 11.6086C9.69819 11.8112 9.58204 12.0457 9.45411 12.2697C9.3841 12.3922 9.32666 12.522 9.26356 12.6485L9.26357 12.6484Z" fill="#F8AB00"/>
<path d="M16.3282 23.3538C16.2308 23.3756 16.1344 23.4078 16.0359 23.4167C15.8838 23.4303 15.73 23.4357 15.5775 23.4306C15.3221 23.422 15.0758 23.3685 14.8403 23.2636C14.6413 23.1749 14.4627 23.0593 14.3047 22.9093C13.9877 22.6082 13.7496 22.2596 13.651 21.8276C13.6319 21.744 13.6252 21.6566 13.6215 21.5705C13.6137 21.3867 13.6186 21.2021 13.6052 21.0188C13.5931 20.8538 13.5635 20.69 13.547 20.5197C13.5675 20.5015 13.5884 20.4923 13.5969 20.4765C13.6593 20.3605 13.7571 20.2764 13.8488 20.1857C13.9264 20.1089 13.9899 20.0173 14.0705 19.9442C14.1628 19.8606 14.2271 19.7647 14.2601 19.6457L14.3729 19.2498C14.4787 19.2733 14.5839 19.3002 14.6905 19.3195C14.798 19.339 14.9066 19.3537 15.0153 19.3657C15.1269 19.3779 15.2391 19.3842 15.3571 19.4001C15.3718 19.6125 15.3778 19.8181 15.3903 20.0234C15.3993 20.1692 15.4088 20.3158 15.433 20.4596C15.465 20.6488 15.5084 20.8362 15.5528 21.0229C15.599 21.2171 15.606 21.418 15.6903 21.6063C15.8244 21.9056 15.9318 22.2168 16.0637 22.5172C16.1584 22.733 16.2286 22.9525 16.2627 23.1854C16.2712 23.2435 16.3057 23.2978 16.3283 23.3538L16.3282 23.3538Z" fill="#EA5227"/>
<path d="M16.3335 23.3535C16.3057 23.2977 16.2712 23.2434 16.2627 23.1854C16.2286 22.9525 16.1584 22.7329 16.0637 22.5172C15.9318 22.2168 15.8244 21.9056 15.6903 21.6062C15.606 21.418 15.599 21.217 15.5528 21.0229C15.5084 20.8361 15.465 20.6487 15.433 20.4595C15.4088 20.3158 15.3993 20.1691 15.3903 20.0233C15.3778 19.8181 15.3718 19.6124 15.363 19.4009C15.4761 19.3986 15.5894 19.4074 15.7024 19.4047L16.2551 19.3862C16.2671 19.4357 16.2715 19.4792 16.2799 19.5219L16.3941 20.0856C16.406 20.1399 16.4249 20.1968 16.4561 20.2418C16.5507 20.3783 16.6516 20.5105 16.7526 20.6424C16.8082 20.7152 16.862 20.7916 16.9289 20.853C17.043 20.9577 17.1674 21.051 17.2863 21.1505C17.4449 21.2832 17.6091 21.4053 17.8164 21.4522C17.7945 21.5987 17.7848 21.7484 17.7481 21.8912C17.6848 22.1372 17.5846 22.3692 17.439 22.5805C17.2667 22.8305 17.055 23.0381 16.7839 23.1753C16.6419 23.2471 16.4876 23.2947 16.3336 23.3535L16.3335 23.3535Z" fill="#EA5330"/>
<path d="M28.5922 20.2107C28.6608 20.3268 28.7435 20.4371 28.7947 20.5604C28.865 20.7298 28.9233 20.9064 28.9646 21.085C29.0035 21.2534 29.0072 21.427 28.9908 21.6027C28.9725 21.8004 28.9295 21.9891 28.8542 22.1708C28.778 22.3548 28.6763 22.5234 28.5486 22.6778C28.3619 22.9036 28.1365 23.0799 27.8779 23.2123C27.6883 23.3094 27.4875 23.3813 27.274 23.405C27.1381 23.4201 27.0004 23.4362 26.8644 23.43C26.5439 23.4155 26.2407 23.3317 25.965 23.1625C25.8845 23.1131 25.8075 23.058 25.7309 22.9996C25.8011 22.9259 25.8677 22.8563 25.9381 22.7908L26.4275 22.3419C26.4403 22.3301 26.4554 22.3207 26.4681 22.3088C26.5597 22.2237 26.6631 22.1478 26.7395 22.0506C26.8567 21.9017 27.0043 21.7914 27.1506 21.6771C27.2074 21.6328 27.2702 21.5933 27.3179 21.5404C27.3954 21.4545 27.4609 21.358 27.5347 21.2687C27.6248 21.1596 27.7159 21.0511 27.8112 20.9466C27.8648 20.8877 27.9299 20.8394 27.9861 20.7826C28.1815 20.5849 28.3659 20.3756 28.5922 20.2107V20.2107Z" fill="#F8AA05"/>
<path d="M18.9156 15.4512C18.9824 15.4597 19.0482 15.4748 19.1145 15.4872C19.2104 15.5052 19.3062 15.5249 19.403 15.5371C19.5046 15.5499 19.6072 15.5547 19.7093 15.5629C19.7762 15.5683 19.8022 15.6109 19.812 15.6713C19.8274 15.7655 19.8656 15.7983 19.9612 15.802L20.3287 15.8146C20.3825 15.8155 20.4046 15.8316 20.408 15.8908C20.4149 16.0098 20.4322 16.1283 20.4476 16.2467C20.4528 16.2863 20.4773 16.305 20.5211 16.3048C20.5903 16.3044 20.6595 16.311 20.7374 16.315L20.7229 16.4536L20.6981 16.7008C20.6923 16.7502 20.6993 16.7814 20.7608 16.7802C20.8151 16.7791 20.8696 16.7877 20.9239 16.793C20.9612 16.7967 20.9765 16.818 20.974 16.8558C20.9683 16.9408 20.9733 17.0278 20.9571 17.1106C20.9441 17.1774 20.9657 17.1994 21.024 17.2071C21.0477 17.2103 21.0711 17.2155 21.1048 17.2216C21.1048 17.2769 21.108 17.3344 21.1039 17.3914C21.0997 17.4499 21.0871 17.5077 21.0805 17.5661C21.0768 17.5995 21.0744 17.6371 21.1245 17.6365C21.3058 17.6342 21.2739 17.6757 21.2873 17.8268C21.296 17.9248 21.2732 18.0255 21.2668 18.125C21.2649 18.1546 21.2705 18.1847 21.2737 18.2284C21.3004 18.2092 21.3097 18.1998 21.321 18.1951C21.3361 18.1889 21.3568 18.1787 21.3675 18.1844C21.3776 18.1899 21.3822 18.2137 21.3817 18.2293L21.3696 18.5532C21.2216 18.5641 21.0733 18.5651 20.9256 18.5753L20.3454 18.6207C20.331 18.581 20.3148 18.5471 20.3151 18.5135C20.3162 18.3907 20.2561 18.2946 20.1951 18.1951C20.1439 18.1118 20.0794 18.0228 20.0699 17.9313C20.0558 17.7941 19.9945 17.7209 19.8734 17.6807C19.8589 17.6759 19.8448 17.6696 19.8309 17.6632C19.7322 17.6179 19.6257 17.5851 19.5793 17.4687C19.5674 17.4387 19.5311 17.4188 19.5072 17.3931C19.4751 17.3584 19.4463 17.3202 19.4121 17.2877C19.3771 17.2545 19.3414 17.2171 19.2987 17.1982C19.2354 17.1702 19.1657 17.1562 19.0984 17.1375L18.89 17.0827C18.8936 16.9125 18.9127 16.7408 18.8971 16.5723C18.8754 16.3375 18.8515 16.1033 18.8634 15.868C18.8704 15.7304 18.8969 15.5937 18.9155 15.4512L18.9156 15.4512Z" fill="#ED6876"/>
<path d="M9.266 12.6528C9.32669 12.5221 9.38412 12.3924 9.45414 12.2699C9.58207 12.0459 9.69823 11.8114 9.85485 11.6087C10.0305 11.3814 10.1743 11.1278 10.3968 10.9352C10.5279 10.8218 10.6389 10.6845 10.755 10.5545C10.9368 10.3509 11.1635 10.2062 11.3891 10.0591C11.5404 9.96051 11.6886 9.85727 11.8412 9.75171C11.9957 9.97275 12.1015 10.2194 12.1387 10.4872C12.1681 10.6993 12.1682 10.9155 12.175 11.136C12.1122 11.1574 12.0524 11.1655 12 11.1895C11.9151 11.2285 11.839 11.2887 11.7521 11.3208C11.4899 11.4176 11.3058 11.6158 11.1194 11.8064C11.0157 11.9125 10.9411 12.0476 10.8569 12.1721C10.7984 12.2587 10.7335 12.3442 10.6938 12.4395C10.6377 12.5739 10.6021 12.7168 10.5578 12.8561C10.3951 12.8568 10.2312 12.8696 10.0698 12.8554C9.80233 12.8319 9.53873 12.7819 9.29414 12.6615C9.28664 12.6578 9.27704 12.6584 9.26599 12.6528L9.266 12.6528Z" fill="#F6A200"/>
<path d="M28.5916 20.2061C28.3659 20.3757 28.1815 20.5849 27.9861 20.7826C27.9299 20.8394 27.8649 20.8877 27.8112 20.9466C27.7159 21.0512 27.6248 21.1596 27.5347 21.2687C27.4609 21.3581 27.3954 21.4546 27.3179 21.5404C27.2702 21.5933 27.2075 21.6328 27.1506 21.6772C27.0044 21.7914 26.8567 21.9017 26.7395 22.0507C26.6631 22.1478 26.5597 22.2237 26.4682 22.3088C26.4554 22.3207 26.4404 22.3301 26.4275 22.3419L25.9381 22.7909C25.8677 22.8563 25.8011 22.9259 25.7287 22.9955C25.4462 22.7682 25.2342 22.4881 25.0869 22.156C25.1331 22.1325 25.1808 22.1217 25.2165 22.0948C25.3313 22.0086 25.4857 21.9839 25.5769 21.861C25.5892 21.8444 25.6118 21.8349 25.6305 21.8237C25.8666 21.6813 26.1103 21.55 26.336 21.393C26.4721 21.2984 26.5821 21.1655 26.7002 21.0463C26.7506 20.9954 26.7983 20.9395 26.8361 20.8789C26.9983 20.6191 27.1587 20.3581 27.3692 20.1334C27.5306 19.9612 27.5971 19.7436 27.6668 19.5271C27.876 19.5825 28.0604 19.6872 28.2296 19.8186C28.3693 19.9271 28.4907 20.0547 28.5916 20.2061L28.5916 20.2061Z" fill="#F7A80D"/>
<path d="M21.8642 18.5598C21.8889 18.3785 21.9206 18.1982 21.9504 18.0175C21.9796 17.84 22.0594 17.697 22.2093 17.5895C22.2766 17.5412 22.3369 17.4746 22.3809 17.4042C22.4686 17.2637 22.5813 17.1516 22.712 17.0526C22.7898 16.9938 22.868 16.9315 22.9305 16.8576C23.0084 16.7653 23.115 16.7347 23.2177 16.6944L23.8973 16.4363C23.9072 16.5927 23.9059 16.7503 23.9189 16.9067C23.9423 17.1886 23.9727 17.4701 24.074 17.7378C24.0763 17.7438 24.0754 17.7508 24.0738 17.7663C23.9821 17.8209 23.8907 17.8632 23.804 17.9134C23.752 17.9435 23.7016 17.9807 23.6605 18.0241C23.5811 18.1078 23.5144 18.2039 23.4323 18.2845C23.3122 18.4023 23.2634 18.5576 23.1923 18.7015C23.1896 18.7069 23.1913 18.7145 23.191 18.7211C23.0789 18.6984 22.9674 18.6724 22.8547 18.6538C22.7268 18.6327 22.5982 18.6131 22.4692 18.6017C22.2699 18.5841 22.07 18.574 21.8642 18.5598L21.8642 18.5598Z" fill="#EF7A72"/>
<path d="M14.9802 18.6645C14.7117 18.5924 14.4681 18.4672 14.2448 18.3047C14.1366 18.226 14.0409 18.13 13.9418 18.0358C13.981 17.9896 14.0152 17.9464 14.0553 17.9096C14.1488 17.8235 14.2042 17.7127 14.2639 17.6039C14.329 17.4852 14.4004 17.3697 14.4614 17.2489C14.4963 17.1799 14.5347 17.1036 14.5366 17.0296C14.5381 16.9682 14.5391 16.9117 14.5706 16.8614C14.6831 16.6816 14.775 16.4914 14.8184 16.2845C14.8463 16.1518 14.9226 16.0366 14.9215 15.8907C14.9207 15.7708 14.9782 15.6503 15.0104 15.5302C15.0528 15.372 15.1077 15.216 15.1357 15.0554C15.178 14.813 15.2034 14.5676 15.2327 14.3231L15.2971 13.7185C15.3854 13.7223 15.4738 13.7261 15.5682 13.7365C15.5699 13.7822 15.5628 13.8211 15.5617 13.8602L15.5467 14.4225C15.5388 14.575 15.5194 14.7269 15.506 14.8792L15.4552 15.4663C15.4428 15.601 15.4317 15.7361 15.4119 15.8697C15.3992 15.9551 15.353 16.0367 15.3969 16.1256C15.4015 16.1349 15.3913 16.1506 15.391 16.1634C15.388 16.2943 15.3119 16.4199 15.362 16.5548C15.3633 16.5585 15.3615 16.5635 15.3608 16.5678L15.2493 17.1777C15.233 17.2631 15.2105 17.3473 15.1916 17.4322C15.1718 17.5214 15.1573 17.6121 15.1328 17.6999C15.0853 17.8706 14.9921 18.0339 15.0585 18.221C15.0634 18.2347 15.0616 18.252 15.0588 18.2669L14.9802 18.6645H14.9802Z" fill="#E94E3B"/>
<path d="M14.9847 18.667C15.0065 18.5321 15.033 18.3996 15.0587 18.267C15.0616 18.2521 15.0633 18.2348 15.0585 18.2211C14.9921 18.034 15.0852 17.8707 15.1328 17.7C15.1572 17.6122 15.1718 17.5216 15.1916 17.4324C15.2104 17.3474 15.2329 17.2633 15.2492 17.1779L15.3607 16.5679C15.3615 16.5636 15.3633 16.5586 15.3619 16.5549C15.3118 16.42 15.3879 16.2945 15.3909 16.1635C15.3912 16.1507 15.4014 16.1351 15.3968 16.1257C15.3529 16.0368 15.3991 15.9552 15.4118 15.8699C15.4317 15.7362 15.4427 15.6011 15.4551 15.4665L15.5059 14.8793C15.5193 14.7271 15.5387 14.5752 15.5466 14.4227C15.5563 14.2355 15.5561 14.0478 15.5616 13.8603C15.5627 13.8212 15.5699 13.7823 15.5742 13.7376C15.6449 13.7312 15.7157 13.7306 15.7925 13.7365C15.8219 13.9358 15.817 14.129 15.814 14.3227C15.8119 14.4556 15.833 14.5886 15.8373 14.7218C15.8417 14.8569 15.8369 14.9923 15.8389 15.1275C15.84 15.2029 15.8493 15.2783 15.8502 15.3537C15.8509 15.4103 15.844 15.467 15.841 15.5237C15.84 15.5412 15.8391 15.5588 15.8405 15.5762L15.874 16.0304L15.8515 16.5095L15.8263 17.1522C15.8239 17.2592 15.8394 17.3666 15.837 17.4736C15.8334 17.633 15.8201 17.7921 15.8134 17.9515C15.812 17.9834 15.8121 18.0213 15.8274 18.0468C15.8845 18.1422 15.8863 18.2477 15.8899 18.3518C15.8947 18.4911 15.8911 18.6307 15.891 18.7702C15.74 18.8046 15.5895 18.7793 15.4408 18.7581C15.2892 18.7365 15.1397 18.6996 14.9847 18.667V18.667Z" fill="#EA5043"/>
<path d="M7.58869 16.7585C7.66903 16.7667 7.74988 16.7755 7.8272 16.7971C7.87392 16.8101 7.91669 16.8403 7.95858 16.867C8.08759 16.9492 8.20902 17.0463 8.34552 17.1127C8.45913 17.1679 8.51501 17.2577 8.57016 17.3577L8.81532 17.7928C8.83926 17.8337 8.87188 17.8711 8.90618 17.9042C9.02282 18.017 9.03888 18.1706 9.07991 18.3147C9.1074 18.4113 9.14076 18.5063 9.17161 18.6068C8.78254 18.6467 8.39314 18.6805 8.01538 18.8078C7.99974 18.7774 7.99169 18.7502 7.97883 18.7255C7.92077 18.614 7.89034 18.4856 7.78157 18.4047C7.74843 18.3801 7.71421 18.3544 7.68854 18.3227C7.57821 18.1863 7.46375 18.055 7.30872 17.9666C7.36711 17.815 7.43147 17.6655 7.48233 17.5115C7.54049 17.3353 7.57109 17.1527 7.57471 16.9661C7.576 16.8989 7.5832 16.8318 7.5887 16.7585H7.58869Z" fill="#EB5D19"/>
<path d="M15.2912 13.7178C15.2758 13.9202 15.2567 14.1221 15.2327 14.3233C15.2034 14.5678 15.1779 14.8132 15.1357 15.0555C15.1077 15.2162 15.0528 15.3722 15.0104 15.5304C14.9782 15.6505 14.9207 15.7709 14.9215 15.8909C14.9226 16.0368 14.8463 16.152 14.8184 16.2847C14.775 16.4916 14.683 16.6818 14.5706 16.8616C14.5391 16.9119 14.5381 16.9684 14.5366 17.0298C14.5346 17.1037 14.4963 17.18 14.4614 17.2491C14.4004 17.3699 14.329 17.4854 14.2639 17.6041C14.2042 17.7129 14.1488 17.8237 14.0553 17.9098C14.0152 17.9466 13.981 17.9898 13.94 18.0319C13.7789 17.8921 13.6618 17.7198 13.5531 17.5403C13.4527 17.3744 13.3778 17.1976 13.3203 17.0074C13.4959 16.9164 13.6619 16.8242 13.7865 16.6732C13.7959 16.6617 13.812 16.6559 13.8222 16.6448C13.8886 16.5735 13.9611 16.5065 14.0183 16.4284C14.0994 16.3178 14.1617 16.1932 14.2455 16.085C14.354 15.9449 14.4258 15.7861 14.5098 15.6301C14.5685 15.6218 14.5986 15.5877 14.6169 15.5391C14.6361 15.4881 14.6518 15.4349 14.6778 15.3874C14.7358 15.2811 14.8051 15.1807 14.8587 15.0724C14.903 14.9831 14.9315 14.8861 14.967 14.7925C15.0426 14.5934 15.0631 14.3799 15.1323 14.1776C15.1812 14.0346 15.1738 13.8724 15.1914 13.7188L15.2912 13.7178V13.7178Z" fill="#E94C32"/>
<path d="M27.6622 19.5246C27.5971 19.7435 27.5306 19.961 27.3692 20.1332C27.1586 20.358 26.9983 20.6189 26.8361 20.8787C26.7983 20.9393 26.7506 20.9952 26.7002 21.0461C26.582 21.1654 26.472 21.2982 26.336 21.3928C26.1102 21.5499 25.8665 21.6811 25.6305 21.8235C25.6118 21.8348 25.5892 21.8442 25.5769 21.8608C25.4857 21.9837 25.3313 22.0084 25.2165 22.0947C25.1808 22.1215 25.1331 22.1324 25.0862 22.1512C25.0411 22.0216 24.9949 21.8927 24.9626 21.7604C24.9424 21.6775 24.9431 21.5894 24.9406 21.4975C24.9659 21.4872 24.9852 21.4836 25.0041 21.4786C25.213 21.4242 25.4198 21.3727 25.5826 21.2104C25.7073 21.0859 25.8515 20.981 25.9857 20.8658C26.0668 20.7962 26.1576 20.7331 26.2227 20.6503C26.4182 20.4015 26.6039 20.1449 26.7918 19.8902C26.8264 19.8432 26.8645 19.7943 26.882 19.7401C26.9174 19.6304 26.9397 19.5165 26.9675 19.4043C27.2036 19.408 27.4339 19.4463 27.6622 19.5246Z" fill="#F7A617"/>
<path d="M17.8174 21.4467C17.6091 21.4054 17.4449 21.2833 17.2863 21.1506C17.1674 21.0511 17.043 20.9578 16.9289 20.8531C16.862 20.7917 16.8082 20.7152 16.7526 20.6425C16.6516 20.5105 16.5507 20.3784 16.4561 20.2419C16.4249 20.1969 16.406 20.14 16.3941 20.0857C16.3529 19.8985 16.3169 19.7101 16.2799 19.522C16.2715 19.4793 16.2671 19.4358 16.2607 19.3872C16.4619 19.3583 16.663 19.3348 16.8734 19.313C16.9089 19.3883 16.9378 19.4611 16.9609 19.5358C16.9992 19.6596 17.0636 19.7628 17.1594 19.8533C17.2525 19.9412 17.335 20.0422 17.4121 20.145C17.5377 20.3123 17.7159 20.3966 17.8994 20.4757C17.8855 20.574 17.8674 20.6718 17.8589 20.7705C17.8463 20.9179 17.8405 21.0658 17.8318 21.2135L17.8173 21.4467H17.8174Z" fill="#EA553A"/>
<path d="M17.6882 17.8355C17.6353 17.903 17.5867 17.9745 17.5288 18.0374C17.3592 18.2213 17.1637 18.3733 16.936 18.4933C16.8942 18.418 16.8613 18.3443 16.8279 18.2656C16.784 18.0959 16.7453 17.9299 16.6964 17.7669C16.6356 17.5645 16.5564 17.3684 16.5465 17.1522C16.5424 17.0615 16.5297 16.9636 16.4526 16.8929C16.4388 16.8802 16.4356 16.8526 16.4333 16.8312L16.3793 16.3042C16.372 16.2349 16.3742 16.1612 16.3501 16.0979C16.3023 15.9725 16.2901 15.8438 16.2882 15.7129C16.287 15.6323 16.3023 15.5511 16.2985 15.4708C16.2897 15.2822 16.2753 15.0939 16.2602 14.9057C16.2516 14.7972 16.2345 14.6893 16.2264 14.5807C16.2203 14.4997 16.2226 14.4181 16.225 14.3403C16.2377 14.4173 16.2392 14.4925 16.2571 14.5636C16.2836 14.669 16.3261 14.7703 16.3538 14.8755C16.3963 15.037 16.3742 15.2085 16.4426 15.3687C16.4995 15.502 16.5269 15.6477 16.5711 15.7867C16.6005 15.8794 16.6525 15.9679 16.6651 16.0622C16.6798 16.1727 16.7456 16.2466 16.802 16.3356L16.8288 16.4752C16.8514 16.5969 16.8704 16.7166 16.9409 16.8264C17.0253 16.9577 17.0907 17.1012 17.1646 17.2393C17.2177 17.3385 17.2464 17.4515 17.3352 17.5306L17.6582 17.8244C17.6655 17.8311 17.678 17.832 17.6882 17.8355L17.6882 17.8355Z" fill="#EA5453"/>
<path d="M19.2983 10.6988C19.4193 10.7403 19.5415 10.7829 19.6584 10.8368C19.7227 10.8665 19.7751 10.9214 19.8386 10.9537C19.9105 10.9902 19.9943 11.0048 20.0631 11.0456C20.2151 11.1358 20.3812 11.1769 20.5512 11.2103C20.5747 11.2149 20.601 11.2179 20.62 11.2306C20.7623 11.3264 20.9295 11.3509 21.0902 11.3868C21.2219 11.4163 21.3348 11.4753 21.4465 11.5439C21.5156 11.5863 21.5886 11.6229 21.6551 11.6689C21.7097 11.7067 21.7602 11.7518 21.8075 11.7986C21.8746 11.8649 21.9403 11.933 22.0006 12.0053C22.0775 12.0975 22.1474 12.1954 22.2221 12.2893C22.2819 12.3646 22.3445 12.4376 22.4099 12.5136C22.2778 12.5902 22.1449 12.6721 22.0043 12.7373C21.9028 12.7844 21.791 12.8094 21.6784 12.8385C21.6404 12.7449 21.6078 12.6571 21.575 12.5693C21.5644 12.5409 21.5586 12.5092 21.542 12.4849C21.482 12.3964 21.4138 12.3133 21.3571 12.2228C21.269 12.0826 21.1546 11.9729 21.013 11.8879C20.8895 11.8136 20.7705 11.7318 20.6481 11.6557C20.5631 11.6029 20.4778 11.55 20.3886 11.5051C20.3209 11.4711 20.2419 11.4584 20.1767 11.421C19.9498 11.2908 19.713 11.1849 19.4634 11.1073C19.4053 11.0892 19.3453 11.0773 19.2861 11.0626L19.2983 10.6987V10.6988Z" fill="#EA5B15"/>
<path d="M16.8284 18.2706L16.9312 18.4936C16.7327 18.616 16.513 18.6917 16.2819 18.7312C16.157 18.7525 16.0295 18.7589 15.8971 18.7711C15.8911 18.6306 15.8947 18.491 15.8899 18.3517C15.8863 18.2476 15.8845 18.142 15.8274 18.0467C15.8121 18.0212 15.8121 17.9833 15.8134 17.9514L15.837 17.4735C15.8394 17.3665 15.8239 17.2591 15.8263 17.1521C15.8311 16.9378 15.8428 16.7236 15.8515 16.5094C15.8579 16.3509 15.8639 16.1925 15.8776 16.0332C15.9512 16.1677 16.018 16.3028 16.0826 16.4389C16.0974 16.47 16.1168 16.506 16.1135 16.5377C16.0932 16.7333 16.1911 16.892 16.2846 17.0437C16.4167 17.2581 16.5013 17.4865 16.553 17.7297C16.5832 17.8717 16.6154 18.0121 16.7109 18.1279L16.8284 18.2706Z" fill="#EA504B"/>
<path d="M26.9642 19.3998C26.9398 19.5166 26.9174 19.6305 26.882 19.7402C26.8645 19.7944 26.8265 19.8433 26.7918 19.8903L26.2227 20.6504C26.1576 20.7332 26.0668 20.7963 25.9857 20.8659C25.8515 20.9811 25.7074 21.086 25.5826 21.2105C25.4199 21.3728 25.213 21.4243 25.0041 21.4788C24.9852 21.4837 24.9659 21.4873 24.9415 21.4918C24.9269 21.2669 24.9175 21.0419 24.9141 20.8112C24.9308 20.8041 24.9429 20.8055 24.9522 20.801C25.0921 20.7341 25.2268 20.6551 25.3824 20.6258C25.4047 20.6216 25.426 20.6053 25.4448 20.5907L25.8001 20.312C25.866 20.2591 25.9481 20.2144 25.9899 20.1458C26.1389 19.9016 26.2851 19.6539 26.3467 19.3687L26.8225 19.3926C26.8686 19.3947 26.9147 19.3944 26.9642 19.3998Z" fill="#F6A320"/>
<path d="M6.53728 20.7236C6.45314 20.6962 6.37147 20.6701 6.29422 20.6343C6.18361 20.5831 6.07104 20.533 5.96924 20.4671C5.90008 20.4223 5.84132 20.3564 5.78959 20.2908C5.68569 20.159 5.59219 20.0191 5.48993 19.886C5.38351 19.7475 5.30631 19.5943 5.24391 19.4324C5.23605 19.412 5.22429 19.3932 5.21246 19.3693C5.30276 19.3482 5.3946 19.3294 5.48714 19.3151C5.73601 19.2766 5.96811 19.1897 6.19654 19.0798C6.20574 19.0916 6.20828 19.1004 6.2136 19.1069L6.45018 19.396C6.50483 19.4612 6.55658 19.5305 6.61998 19.5862C6.69483 19.652 6.78083 19.7051 6.86201 19.7637C6.74403 19.9787 6.64522 20.2017 6.58879 20.4411C6.56717 20.5329 6.55708 20.6273 6.53727 20.7237L6.53728 20.7236Z" fill="#EC6333"/>
<path d="M10.564 12.8569C10.6022 12.7168 10.6377 12.5738 10.6938 12.4395C10.7335 12.3442 10.7984 12.2587 10.8569 12.1721C10.9411 12.0476 11.0157 11.9124 11.1194 11.8064C11.3058 11.6158 11.4899 11.4175 11.7521 11.3208C11.839 11.2887 11.9151 11.2284 12 11.1895C12.0524 11.1655 12.1122 11.1574 12.174 11.1421C12.1997 11.3871 12.2169 11.6325 12.2837 11.8772C12.0797 11.9819 11.9028 12.1161 11.7496 12.2732C11.6121 12.4142 11.4973 12.5783 11.3798 12.7376C11.337 12.7955 11.3152 12.8689 11.2839 12.9352C11.0489 12.8826 10.8117 12.8494 10.564 12.8569V12.8569Z" fill="#F49700"/>
<path d="M16.8278 18.2656C16.7892 18.2231 16.75 18.1755 16.7108 18.128C16.6154 18.0122 16.5832 17.8717 16.553 17.7297C16.5013 17.4865 16.4167 17.2582 16.2846 17.0437C16.1911 16.8921 16.0932 16.7334 16.1135 16.5377C16.1168 16.5061 16.0974 16.4701 16.0826 16.4389L15.8815 16.0294L15.8405 15.5761C15.8391 15.5587 15.84 15.5411 15.841 15.5236C15.844 15.4669 15.8509 15.4102 15.8502 15.3536C15.8493 15.2782 15.84 15.2029 15.8389 15.1275L15.8373 14.7217C15.833 14.5886 15.8119 14.4555 15.814 14.3227C15.817 14.129 15.8219 13.9357 15.7986 13.7373C15.9223 13.7267 16.0461 13.7217 16.1756 13.7231C16.1947 13.9319 16.2079 14.1343 16.2211 14.3367C16.2226 14.4181 16.2203 14.4997 16.2263 14.5807C16.2344 14.6893 16.2515 14.7972 16.2602 14.9057L16.2985 15.4708C16.3022 15.5511 16.287 15.6323 16.2881 15.7129C16.29 15.8437 16.3022 15.9725 16.35 16.0979C16.3741 16.1612 16.3719 16.2349 16.3792 16.3042L16.4332 16.8312C16.4355 16.8526 16.4387 16.8802 16.4526 16.8929C16.5296 16.9636 16.5423 17.0615 16.5465 17.1522C16.5564 17.3684 16.6356 17.5645 16.6963 17.7669C16.7452 17.9299 16.784 18.0959 16.8278 18.2656H16.8278Z" fill="#EA544C"/>
<path d="M18.2388 16.0397C18.2553 16.3744 18.2167 16.7019 18.1045 17.0247C17.991 16.9602 17.8646 16.9097 17.783 16.8189C17.6848 16.7094 17.5992 16.5886 17.4969 16.4794C17.3847 16.3597 17.276 16.2296 17.2186 16.0687C17.2114 16.0487 17.1962 16.0317 17.1843 16.0085C17.1235 15.8864 17.0826 15.7637 17.0792 15.6244C17.0682 15.5301 17.0632 15.4404 17.0448 15.3535C17.0156 15.2155 16.9705 15.0829 16.9511 14.9403C16.9179 14.6971 16.8559 14.4583 16.8805 14.2096C16.8836 14.1775 16.8782 14.1442 16.8742 14.1118L16.8152 13.6525C16.8511 13.6475 16.8871 13.6425 16.9285 13.6437C16.9516 13.7597 16.9675 13.8697 16.9872 13.979C17.0112 14.1115 17.0353 14.2442 17.0656 14.3753C17.0793 14.4345 17.1178 14.4885 17.128 14.5478C17.1517 14.6847 17.1905 14.8151 17.2504 14.9408C17.2889 15.0214 17.3133 15.1086 17.3494 15.1904C17.3872 15.2762 17.4321 15.3588 17.4728 15.4433C17.5225 15.5464 17.574 15.6415 17.6853 15.7C17.7847 15.7521 17.8664 15.8369 17.9624 15.897C18.05 15.9518 18.1463 15.9927 18.2387 16.0397L18.2388 16.0397Z" fill="#EC5C61"/>
<path d="M17.3928 13.5478C17.6354 13.4837 17.871 13.3998 18.1054 13.2974C18.1479 13.3418 18.1806 13.3864 18.2205 13.4229C18.2513 13.4511 18.2925 13.4899 18.327 13.4879C18.4276 13.4823 18.4902 13.5234 18.5555 13.5964C18.6285 13.678 18.7237 13.7397 18.8093 13.81C18.7417 13.905 18.6712 13.998 18.607 14.0953C18.4263 14.369 18.3035 14.6663 18.2534 14.992C18.2463 15.0386 18.2365 15.0849 18.2222 15.1362C18.034 15.0514 17.8735 14.9387 17.7901 14.7427C17.7758 14.709 17.7558 14.6777 17.7377 14.6457C17.7153 14.6061 17.6906 14.5679 17.6698 14.5276C17.649 14.4872 17.6312 14.4451 17.6131 14.4033C17.5924 14.3555 17.5668 14.3088 17.5541 14.2588C17.5375 14.1937 17.5457 14.1193 17.5181 14.0606C17.4412 13.897 17.4196 13.7223 17.3928 13.5478H17.3928Z" fill="#ED676F"/>
<path d="M18.8892 17.0884C18.9595 17.1009 19.0292 17.1184 19.0984 17.1375C19.1658 17.1561 19.2354 17.1702 19.2987 17.1982C19.3415 17.2171 19.3772 17.2545 19.4121 17.2877C19.4463 17.3202 19.4751 17.3583 19.5073 17.3931C19.5311 17.4188 19.5674 17.4387 19.5794 17.4686C19.6257 17.585 19.7322 17.6179 19.831 17.6632C19.8449 17.6695 19.8589 17.6759 19.8734 17.6807C19.9945 17.7209 20.0558 17.794 20.07 17.9312C20.0794 18.0228 20.144 18.1118 20.1951 18.1951C20.2561 18.2945 20.3162 18.3907 20.3151 18.5134C20.3148 18.5471 20.3311 18.5809 20.3398 18.6198C20.0776 18.6535 19.8145 18.6765 19.5531 18.7398L19.4 18.4335C19.3854 18.4048 19.3667 18.376 19.3431 18.3546C19.2461 18.2662 19.1469 18.1802 19.0478 18.0942L18.8192 17.9006C18.7826 17.8709 18.7409 17.8475 18.7015 17.8213L18.8547 17.3172C18.8746 17.2453 18.8777 17.1686 18.8892 17.0884Z" fill="#ED656E"/>
<path d="M17.387 13.5476C17.4196 13.7222 17.4412 13.8969 17.5181 14.0606C17.5457 14.1192 17.5375 14.1937 17.5541 14.2587C17.5669 14.3087 17.5924 14.3554 17.6131 14.4033C17.6312 14.445 17.649 14.4871 17.6698 14.5275C17.6906 14.5678 17.7154 14.6061 17.7377 14.6456C17.7558 14.6776 17.7758 14.709 17.7901 14.7427C17.8735 14.9386 18.034 15.0514 18.221 15.1415C18.2219 15.2091 18.2144 15.2762 18.2153 15.3431L18.2283 15.8463C18.2303 15.9068 18.2364 15.9673 18.2397 16.0338C18.1463 15.9928 18.05 15.9519 17.9624 15.8971C17.8665 15.837 17.7848 15.7522 17.6854 15.7001C17.5741 15.6416 17.5225 15.5464 17.4729 15.4434C17.4321 15.3589 17.3873 15.2763 17.3494 15.1905C17.3133 15.1087 17.2889 15.0215 17.2505 14.9409C17.1905 14.8152 17.1518 14.6848 17.1281 14.5479C17.1178 14.4886 17.0793 14.4346 17.0656 14.3754C17.0354 14.2443 17.0112 14.1116 16.9873 13.9791C16.9676 13.8698 16.9517 13.7598 16.934 13.6447C17.0706 13.6122 17.2073 13.5851 17.344 13.5578C17.3566 13.5553 17.3689 13.551 17.3871 13.5476L17.387 13.5476Z" fill="#EC6168"/>
<path d="M14.505 15.6304C14.4257 15.786 14.354 15.9447 14.2454 16.0849C14.1617 16.1931 14.0994 16.3177 14.0183 16.4282C13.961 16.5063 13.8886 16.5733 13.8222 16.6447C13.812 16.6557 13.7959 16.6616 13.7864 16.673C13.6618 16.824 13.4959 16.9163 13.3197 17.0021C13.264 16.8584 13.228 16.7097 13.2246 16.5545L13.2178 15.9005C13.316 15.8623 13.4086 15.8319 13.4994 15.797C13.5225 15.7881 13.5403 15.7653 13.5602 15.7484C13.6493 15.6726 13.7298 15.5817 13.8296 15.5247C13.9315 15.4666 14.0196 15.4046 14.077 15.3018C14.0853 15.287 14.0993 15.2744 14.113 15.2638C14.208 15.1908 14.2791 15.0987 14.3362 14.994C14.3452 14.9775 14.3691 14.9692 14.3904 14.959C14.4278 14.9776 14.4599 14.9972 14.4945 15.0104C14.546 15.03 14.5525 15.0621 14.5319 15.1086C14.5125 15.1524 14.4967 15.1978 14.4782 15.242C14.4617 15.2813 14.4724 15.3112 14.51 15.3284C14.547 15.3453 14.5513 15.3698 14.5339 15.4023L14.4428 15.5713L14.505 15.6304Z" fill="#E94C28"/>
<path d="M17.1848 16.0132C17.1963 16.0317 17.2114 16.0487 17.2186 16.0687C17.2761 16.2296 17.3847 16.3597 17.4969 16.4794C17.5992 16.5886 17.6848 16.7094 17.7831 16.8189C17.8646 16.9097 17.9911 16.9602 18.1022 17.0292C18.022 17.3238 17.8821 17.5895 17.6922 17.8336C17.678 17.8319 17.6655 17.831 17.6581 17.8244L17.3352 17.5305C17.2464 17.4514 17.2176 17.3385 17.1646 17.2392C17.0907 17.1011 17.0253 16.9576 16.9409 16.8263C16.8703 16.7166 16.8513 16.5969 16.8288 16.4752C16.8204 16.4304 16.811 16.3858 16.8058 16.332C16.8009 16.2486 16.7922 16.1744 16.7828 16.0937L16.8665 16.147L16.8835 16.1381L16.8552 15.935L16.98 15.9509V15.8381L17.1848 16.0132Z" fill="#EB5659"/>
<path d="M26.3409 19.3678C26.2851 19.654 26.1389 19.9017 25.9899 20.1459C25.9481 20.2144 25.866 20.2592 25.8001 20.312L25.4448 20.5908C25.426 20.6054 25.4047 20.6217 25.3824 20.6259C25.2268 20.6551 25.0921 20.7342 24.9522 20.8011C24.9429 20.8056 24.9308 20.8042 24.9149 20.8056C24.8736 20.6186 24.8372 20.4306 24.8058 20.2417C24.8672 20.2135 24.9293 20.2003 24.981 20.1695C25.0547 20.1257 25.1304 20.0779 25.1879 20.0157C25.2928 19.9022 25.3783 19.7705 25.4843 19.6582C25.5971 19.5388 25.6674 19.3989 25.7263 19.25L26.3409 19.3678V19.3678Z" fill="#F5A02D"/>
<path d="M17.1843 16.0086C17.1172 15.9555 17.0496 15.8977 16.98 15.8383V15.9511L16.8552 15.9351L16.8835 16.1382L16.8665 16.1471L16.7828 16.0938C16.7922 16.1746 16.8009 16.2488 16.8058 16.3266C16.7456 16.2467 16.6798 16.1728 16.6651 16.0622C16.6525 15.968 16.6005 15.8795 16.5711 15.7868C16.5269 15.6478 16.4995 15.5021 16.4426 15.3687C16.3742 15.2085 16.3963 15.037 16.3538 14.8756C16.326 14.7704 16.2836 14.669 16.2571 14.5636C16.2392 14.4925 16.2377 14.4174 16.225 14.3404L16.1815 13.724C16.3023 13.7089 16.4238 13.6997 16.5455 13.6965C16.5734 13.8599 16.5936 14.0174 16.6178 14.1744C16.6343 14.2814 16.6552 14.3879 16.6762 14.4942C16.6947 14.588 16.7157 14.6813 16.7363 14.7746C16.7558 14.8632 16.7399 14.9595 16.797 15.0398C16.8683 15.1401 16.8917 15.2579 16.922 15.3743C16.9477 15.4735 16.9986 15.5625 17.0793 15.6305C17.0826 15.7638 17.1236 15.8865 17.1844 16.0086L17.1843 16.0086Z" fill="#EB5A57"/>
<path d="M14.3684 19.2476C14.3352 19.3818 14.2968 19.5135 14.2601 19.6458C14.2271 19.7648 14.1628 19.8606 14.0705 19.9443C13.9899 20.0173 13.9264 20.109 13.8488 20.1858C13.7571 20.2765 13.6593 20.3605 13.5968 20.4766C13.5883 20.4924 13.5675 20.5015 13.5479 20.5143C13.5164 20.4097 13.4938 20.3032 13.4613 20.1998C13.3893 19.9711 13.2975 19.7513 13.1522 19.5551L13.4377 19.2766C13.4797 19.2332 13.5107 19.1792 13.5472 19.1303L13.6879 18.9434C13.8137 19.0065 13.9378 19.0734 14.0658 19.1314C14.1625 19.1753 14.2643 19.2078 14.3684 19.2476L14.3684 19.2476Z" fill="#EA541C"/>
<path d="M19.2851 11.0684C19.3452 11.0775 19.4053 11.0893 19.4634 11.1074C19.7129 11.185 19.9498 11.2909 20.1767 11.4212C20.2419 11.4586 20.3209 11.4712 20.3885 11.5052C20.4777 11.5501 20.5631 11.603 20.648 11.6558L21.013 11.888C21.1545 11.9731 21.269 12.0827 21.3571 12.223C21.4138 12.3134 21.482 12.3965 21.542 12.485C21.5586 12.5094 21.5644 12.541 21.575 12.5694L21.6732 12.8378C21.519 12.861 21.3646 12.8792 21.2041 12.8911C21.1944 12.8635 21.191 12.8421 21.1871 12.8208C21.1454 12.5956 21.0016 12.4226 20.883 12.238C20.843 12.1758 20.7802 12.1254 20.7202 12.0796C20.5968 11.9857 20.4693 11.897 20.3414 11.8091C20.2536 11.7488 20.1657 11.687 20.0717 11.6375C19.9655 11.5815 19.8542 11.5339 19.7418 11.4911C19.5871 11.4321 19.4293 11.3811 19.2728 11.3267L19.2851 11.0684Z" fill="#EB5D19"/>
<path d="M19.2719 11.3323C19.4293 11.3811 19.5871 11.4321 19.7419 11.491C19.8542 11.5338 19.9655 11.5815 20.0718 11.6375C20.1658 11.687 20.2536 11.7487 20.3415 11.8091C20.4693 11.897 20.5968 11.9857 20.7202 12.0796C20.7802 12.1253 20.8431 12.1758 20.883 12.2379C21.0016 12.4226 21.1454 12.5955 21.1871 12.8207C21.191 12.842 21.1945 12.8635 21.1981 12.8902C21.0216 12.8874 20.845 12.8791 20.6626 12.8648C20.6239 12.737 20.602 12.615 20.5004 12.5196C20.2948 12.3262 20.0991 12.1222 19.8989 11.923C19.8899 11.914 19.8775 11.9077 19.8657 11.9021L19.2428 11.6035L19.2719 11.3323Z" fill="#EB5E24"/>
<path d="M14.3862 14.9571C14.3691 14.9692 14.3452 14.9775 14.3362 14.9939C14.2791 15.0986 14.208 15.1907 14.113 15.2637C14.0993 15.2743 14.0853 15.2869 14.077 15.3017C14.0196 15.4045 13.9315 15.4665 13.8296 15.5247C13.7298 15.5817 13.6493 15.6725 13.5602 15.7484C13.5403 15.7653 13.5225 15.7881 13.4994 15.797C13.4086 15.8319 13.316 15.8623 13.2187 15.8944C13.217 15.7471 13.2214 15.5999 13.2237 15.4527C13.2241 15.4277 13.2158 15.4026 13.2177 15.3719C13.3989 15.3488 13.5291 15.2462 13.657 15.1387C13.6938 15.1079 13.7372 15.0838 13.7696 15.0492L14.1532 14.6286C14.1736 14.606 14.1983 14.5837 14.2089 14.5565C14.2837 14.365 14.3606 14.174 14.4259 13.9792C14.4631 13.8682 14.4797 13.7503 14.5055 13.6355C14.5721 13.6449 14.6386 13.6543 14.7106 13.6702C14.6986 13.7886 14.6801 13.9004 14.6638 14.0125C14.632 14.231 14.5867 14.446 14.5055 14.6523L14.3862 14.9571Z" fill="#E9511F"/>
<path d="M17.9037 20.4731C17.7159 20.3967 17.5377 20.3125 17.4122 20.1451C17.335 20.0423 17.2525 19.9413 17.1594 19.8533C17.0636 19.7629 16.9992 19.6597 16.9609 19.5359C16.9378 19.4612 16.9089 19.3884 16.8784 19.311C17.0777 19.2581 17.2772 19.1971 17.4719 19.106L17.8463 19.586C17.9267 19.6918 18.0196 19.7807 18.1463 19.8285C18.0485 20.0196 17.9668 20.2168 17.9155 20.4258C17.9119 20.4404 17.9105 20.4555 17.9037 20.4731Z" fill="#EA5741"/>
<path d="M14.3904 14.959C14.4259 14.8555 14.4655 14.7538 14.5055 14.6523C14.5867 14.4461 14.632 14.231 14.6638 14.0125L14.7161 13.6711C14.8162 13.6753 14.9164 13.6848 15.0164 13.6949C15.0715 13.7004 15.1264 13.7071 15.1864 13.7159C15.1737 13.8722 15.1812 14.0344 15.1323 14.1774C15.0631 14.3797 15.0426 14.5931 14.967 14.7923C14.9315 14.8858 14.903 14.9829 14.8587 15.0722C14.805 15.1805 14.7358 15.2809 14.6777 15.3872C14.6518 15.4347 14.6361 15.4879 14.6169 15.5389C14.5986 15.5875 14.5685 15.6216 14.5098 15.6298C14.4835 15.6099 14.4619 15.5895 14.4428 15.5712L14.5339 15.4023C14.5513 15.3698 14.547 15.3453 14.51 15.3283C14.4724 15.3111 14.4617 15.2813 14.4781 15.2419C14.4966 15.1977 14.5125 15.1523 14.5319 15.1085C14.5524 15.0621 14.546 15.03 14.4945 15.0103C14.4599 14.9971 14.4278 14.9775 14.3904 14.9589V14.959Z" fill="#EA522A"/>
<path d="M7.30466 17.9688C7.46377 18.0551 7.57823 18.1863 7.68856 18.3227C7.71424 18.3545 7.74846 18.3802 7.78159 18.4048C7.89037 18.4857 7.92079 18.6141 7.97885 18.7256C7.99171 18.7503 7.99976 18.7775 8.01021 18.8086C7.91589 18.8577 7.81704 18.8945 7.72789 18.9475C7.60108 19.0229 7.48138 19.1103 7.35264 19.1904C7.30767 19.1411 7.27038 19.0926 7.22941 19.0473L6.82031 18.6003C6.97685 18.4473 7.1156 18.2798 7.23028 18.093C7.25483 18.053 7.27718 18.0116 7.30463 17.9688L7.30466 17.9688Z" fill="#EB5E24"/>
<path d="M13.686 18.9393C13.641 19.0058 13.5939 19.0679 13.5472 19.1304C13.5107 19.1793 13.4797 19.2333 13.4377 19.2768C13.3468 19.3707 13.2504 19.4594 13.1519 19.5508C12.9774 19.3174 12.7636 19.1321 12.5159 18.9847C12.5031 18.9771 12.4886 18.9724 12.4727 18.9621C12.5556 18.8544 12.6408 18.751 12.7257 18.6473C12.7449 18.6238 12.7615 18.598 12.7818 18.5754L13.0239 18.3118C13.0887 18.3823 13.1509 18.4535 13.2098 18.5274C13.3381 18.6883 13.4977 18.8121 13.6698 18.9217C13.6752 18.9251 13.6794 18.9306 13.686 18.9393Z" fill="#E95514"/>
<path d="M6.81632 18.6018L7.22943 19.0471C7.27041 19.0924 7.30769 19.1409 7.34856 19.1921C7.17846 19.3455 7.02449 19.5107 6.90105 19.703C6.88953 19.721 6.88045 19.7405 6.86614 19.7615C6.78087 19.7051 6.69487 19.652 6.62002 19.5862C6.55662 19.5305 6.50487 19.4611 6.45022 19.3959L6.21364 19.1069C6.20832 19.1003 6.20579 19.0915 6.20142 19.0791C6.42238 18.9404 6.63152 18.7904 6.81631 18.6018L6.81632 18.6018Z" fill="#EB5F2D"/>
<path d="M11.289 12.9363C11.3153 12.8689 11.337 12.7955 11.3798 12.7376C11.4973 12.5783 11.6121 12.4143 11.7496 12.2732C11.9028 12.1161 12.0797 11.9819 12.2843 11.8826C12.3487 12.0362 12.4087 12.1916 12.4648 12.3524C12.3888 12.4063 12.3127 12.4502 12.2457 12.5049C12.1875 12.5526 12.1385 12.6118 12.087 12.6673C12.0164 12.7435 11.9442 12.8185 11.8787 12.899C11.8268 12.9627 11.784 13.0337 11.7372 13.1015L11.289 12.9363L11.289 12.9363Z" fill="#F28D00"/>
<path d="M23.1938 18.7251C23.1913 18.7145 23.1896 18.7069 23.1923 18.7015C23.2634 18.5576 23.3122 18.4023 23.4323 18.2845C23.5144 18.204 23.5811 18.1078 23.6605 18.0241C23.7016 17.9807 23.752 17.9435 23.804 17.9134C23.8907 17.8632 23.9821 17.8209 24.0741 17.7715C24.0975 17.8141 24.1168 17.8613 24.1394 17.9068L24.3009 18.2368C24.2829 18.2627 24.2667 18.2802 24.249 18.2961C24.1454 18.3895 24.0336 18.4752 23.94 18.5776C23.848 18.6782 23.7743 18.7956 23.6926 18.9057L23.1939 18.7251L23.1938 18.7251Z" fill="#F08369"/>
<path d="M23.695 18.9096C23.7743 18.7957 23.848 18.6782 23.94 18.5776C24.0336 18.4752 24.1455 18.3895 24.249 18.2962C24.2667 18.2802 24.2829 18.2627 24.3018 18.2412L24.6846 18.6865C24.7096 18.7156 24.743 18.7376 24.7725 18.7709C24.6871 18.8698 24.6013 18.9603 24.5163 19.0515L24.2733 19.3149C24.1023 19.1511 23.9105 19.017 23.695 18.9096Z" fill="#F18B5E"/>
<path d="M25.7211 19.2489C25.6674 19.3988 25.5971 19.5386 25.4843 19.6581C25.3783 19.7704 25.2928 19.902 25.1879 20.0156C25.1304 20.0777 25.0547 20.1255 24.981 20.1694C24.9293 20.2002 24.8672 20.2134 24.8052 20.2363C24.7484 20.1052 24.6962 19.9723 24.6454 19.8304C24.708 19.7726 24.7765 19.7304 24.8287 19.6733C24.9257 19.5674 25.0148 19.4541 25.1041 19.3415C25.1688 19.2601 25.2286 19.1749 25.2906 19.0913L25.7211 19.2489H25.7211Z" fill="#F49C3A"/>
<path d="M11.7407 13.1047C11.784 13.0337 11.8268 12.9626 11.8787 12.8989C11.9442 12.8185 12.0164 12.7435 12.087 12.6673C12.1385 12.6117 12.1875 12.5525 12.2457 12.5049C12.3128 12.4501 12.3888 12.4063 12.4653 12.3572C12.5714 12.5126 12.6739 12.6703 12.7727 12.8304C12.7084 12.9127 12.645 12.9874 12.5796 13.0604L12.247 13.4274C12.0924 13.3005 11.9245 13.1945 11.7407 13.1047Z" fill="#F08000"/>
<path d="M12.249 13.4313C12.3579 13.305 12.4694 13.1832 12.5796 13.0603C12.645 12.9873 12.7084 12.9126 12.7745 12.8345C12.8686 12.9167 12.9579 13.0066 13.0542 13.0883C13.1254 13.1486 13.2057 13.198 13.2857 13.2588C13.2129 13.3626 13.1454 13.469 13.0579 13.5549C12.9406 13.67 12.8079 13.7692 12.6818 13.8752C12.6065 13.7883 12.5346 13.698 12.4548 13.6154C12.392 13.5504 12.3193 13.495 12.249 13.4313L12.249 13.4313Z" fill="#ED6E04"/>
<path d="M14.5026 13.631C14.4797 13.7503 14.4631 13.8682 14.4259 13.9792C14.3606 14.174 14.2837 14.365 14.2089 14.5566C14.1983 14.5838 14.1736 14.6061 14.1532 14.6286L13.7696 15.0492C13.7372 15.0839 13.6938 15.1079 13.657 15.1388C13.5291 15.2462 13.3989 15.3488 13.2186 15.3664C13.1952 15.2379 13.1771 15.1095 13.1646 14.9756L13.6416 14.7543C13.6492 14.7508 13.6554 14.7436 13.6617 14.7375C13.7678 14.6361 13.8763 14.537 13.9787 14.4319C14.0361 14.3729 14.1002 14.3112 14.1317 14.238C14.2193 14.0344 14.3303 13.838 14.3597 13.6128C14.4064 13.6173 14.4531 13.6219 14.5027 13.631L14.5026 13.631Z" fill="#EA541C"/>
<path d="M25.2864 19.0893C25.2286 19.175 25.1688 19.2603 25.1042 19.3417C25.0148 19.4543 24.9257 19.5676 24.8287 19.6735C24.7765 19.7305 24.708 19.7728 24.6449 19.8258C24.5388 19.6481 24.4275 19.4714 24.2753 19.319C24.3543 19.2273 24.4349 19.1391 24.5163 19.0517L24.7744 18.7751L25.2864 19.0893Z" fill="#F3944D"/>
<path d="M18.6975 17.8237C18.7408 17.8476 18.7825 17.8709 18.8192 17.9006C18.8968 17.9633 18.9723 18.0288 19.0477 18.0942L19.3431 18.3546C19.3666 18.376 19.3853 18.4048 19.3999 18.4335C19.4507 18.5329 19.4986 18.6337 19.5477 18.7389C19.4056 18.8005 19.2634 18.8574 19.1161 18.9103L18.816 18.549C18.7896 18.5171 18.762 18.4862 18.7343 18.4554C18.6876 18.4034 18.6428 18.3492 18.5925 18.3009C18.5586 18.2684 18.5164 18.2444 18.478 18.2165L18.6975 17.8237L18.6975 17.8237Z" fill="#EC6168"/>
<path d="M20.1684 12.9353L19.7922 13.0717C19.7883 13.0731 19.7852 13.0765 19.7764 13.0752C19.6303 12.8241 19.4197 12.6454 19.1926 12.483C19.1363 12.4428 19.0771 12.4065 19.0192 12.3684L19.1446 12.0449C19.2774 12.0986 19.4063 12.1535 19.5303 12.218C19.583 12.2454 19.6266 12.2914 19.6722 12.3315C19.7128 12.3671 19.748 12.4092 19.7901 12.443C19.8444 12.4866 19.9193 12.5135 19.9567 12.5675C20.037 12.6834 20.0989 12.8119 20.1684 12.9353Z" fill="#EC663E"/>
<path d="M18.474 18.2185C18.5165 18.2443 18.5586 18.2683 18.5926 18.3009C18.6429 18.3491 18.6876 18.4033 18.7344 18.4553L18.8161 18.549L19.1116 18.9108C18.9393 19.001 18.7775 19.1037 18.6267 19.2298L18.1075 18.6397L18.4309 18.2721C18.445 18.2559 18.457 18.2378 18.474 18.2185L18.474 18.2185Z" fill="#EB5E5B"/>
<path d="M13.8977 13.5073C13.9753 13.5251 14.0528 13.5429 14.1329 13.5706C14.1222 13.6401 14.0974 13.6998 14.098 13.7593C14.0997 13.9107 14.0392 14.0284 13.93 14.1271C13.9026 14.1519 13.8817 14.1837 13.8552 14.2096L13.5541 14.4996C13.5482 14.5052 13.5381 14.506 13.5301 14.5096L13.225 14.6467L13.0946 14.7063C13.0642 14.6259 13.0338 14.5455 13.0073 14.4598C13.1082 14.3959 13.2128 14.347 13.3001 14.2766C13.4281 14.1734 13.55 14.0606 13.6624 13.9406C13.7365 13.8614 13.8298 13.791 13.8499 13.6703C13.8591 13.6148 13.8814 13.5616 13.8977 13.5073L13.8977 13.5073Z" fill="#EA580E"/>
<path d="M13.0938 14.7114C13.1381 14.6864 13.1815 14.6663 13.225 14.6466L13.5302 14.5095C13.5381 14.5059 13.5483 14.5051 13.5541 14.4995L13.8552 14.2095C13.8817 14.1836 13.9026 14.1518 13.93 14.127C14.0392 14.0283 14.0997 13.9106 14.0981 13.7592C14.0974 13.6997 14.1222 13.64 14.1356 13.575C14.2073 13.5823 14.2787 13.5951 14.3549 13.6103C14.3303 13.838 14.2193 14.0343 14.1317 14.238C14.1002 14.3112 14.0361 14.3729 13.9787 14.4319C13.8763 14.537 13.7678 14.636 13.6617 14.7375C13.6554 14.7436 13.6493 14.7508 13.6416 14.7543L13.1654 14.9702C13.138 14.8857 13.1155 14.8011 13.0938 14.7114Z" fill="#E95514"/>
<path d="M12.6825 13.88C12.8079 13.7693 12.9407 13.6701 13.0579 13.555C13.1454 13.4691 13.2129 13.3628 13.2899 13.261C13.4123 13.314 13.5342 13.3715 13.6581 13.4383C13.6036 13.5316 13.5523 13.6202 13.4887 13.6988C13.4124 13.7931 13.3289 13.8825 13.2423 13.9677C13.1368 14.0716 13.0249 14.169 12.9158 14.2692L12.6825 13.88H12.6825Z" fill="#EB620B"/>
<path d="M18.1484 19.8242C18.0196 19.7805 17.9267 19.6916 17.8463 19.5858L17.4767 19.1051C17.5902 19.0266 17.7057 18.9524 17.8299 18.8796C17.8512 18.8932 17.8648 18.9044 17.8762 18.9175L18.2282 19.3193C18.2773 19.3739 18.3337 19.4221 18.3868 19.4732L18.1484 19.8242L18.1484 19.8242Z" fill="#EA544C"/>
<path d="M20.1738 12.9362C20.099 12.812 20.037 12.6834 19.9567 12.5675C19.9193 12.5136 19.8444 12.4866 19.7901 12.443C19.748 12.4093 19.7129 12.3672 19.6722 12.3315C19.6266 12.2915 19.5831 12.2454 19.5303 12.218C19.4063 12.1536 19.2774 12.0987 19.1456 12.0398C19.1612 11.968 19.1816 11.8963 19.2091 11.8206C19.3665 11.8823 19.5287 11.9296 19.6641 12.0181C19.8521 12.1409 20.0471 12.2617 20.1868 12.4466C20.2183 12.4883 20.2544 12.5269 20.2909 12.5644C20.3775 12.6537 20.4249 12.7615 20.4456 12.8825L20.1738 12.9362Z" fill="#EC6333"/>
<path d="M17.0792 15.6244C16.9985 15.5624 16.9477 15.4734 16.9219 15.3742C16.8917 15.2578 16.8682 15.14 16.7969 15.0397C16.7398 14.9594 16.7557 14.8631 16.7362 14.7745L16.6761 14.4941C16.6552 14.3878 16.6343 14.2813 16.6178 14.1743L16.5513 13.6973C16.6355 13.6784 16.7199 13.6648 16.8098 13.6519C16.8349 13.8056 16.855 13.9587 16.8742 14.1118C16.8782 14.1442 16.8836 14.1775 16.8805 14.2095C16.8559 14.4582 16.9179 14.6971 16.9511 14.9403C16.9705 15.0829 17.0155 15.2155 17.0448 15.3535C17.0632 15.4403 17.0682 15.53 17.0792 15.6244L17.0792 15.6244Z" fill="#EB5E5B"/>
<path d="M19.0151 12.3706C19.0771 12.4064 19.1363 12.4427 19.1926 12.4829C19.4197 12.6452 19.6304 12.824 19.7718 13.0758C19.6659 13.1381 19.5593 13.196 19.444 13.2523C19.2904 13.0419 19.1054 12.8759 18.891 12.7415C18.8698 12.7282 18.8441 12.722 18.8205 12.7125C18.8512 12.6617 18.8834 12.6116 18.9124 12.5597L19.0151 12.3706Z" fill="#EC644B"/>
<path d="M20.4516 12.8833C20.4248 12.7614 20.3775 12.6537 20.2909 12.5644C20.2544 12.5268 20.2183 12.4883 20.1868 12.4466C20.0471 12.2616 19.8521 12.1408 19.6641 12.018C19.5287 11.9295 19.3664 11.8822 19.2115 11.8159C19.2158 11.7466 19.2248 11.678 19.2382 11.6064L19.8657 11.9021C19.8774 11.9077 19.8898 11.914 19.8989 11.923L20.5004 12.5196C20.6019 12.6151 20.6239 12.737 20.6568 12.8639C20.5904 12.8741 20.5239 12.8792 20.4516 12.8833V12.8833Z" fill="#EB5F2D"/>
<path d="M12.9178 14.2729C13.0249 14.1688 13.1368 14.0715 13.2422 13.9676C13.3288 13.8823 13.4123 13.793 13.4887 13.6986C13.5523 13.62 13.6035 13.5315 13.6604 13.4424C13.7362 13.46 13.8117 13.4827 13.8925 13.5063C13.8814 13.5615 13.8591 13.6148 13.8499 13.6702C13.8298 13.7909 13.7365 13.8613 13.6624 13.9405C13.55 14.0605 13.4282 14.1733 13.3001 14.2765C13.2128 14.3469 13.1082 14.3958 13.0068 14.4549C12.9748 14.3959 12.9474 14.3363 12.9178 14.2729Z" fill="#E95A0F"/>
<path d="M18.8157 12.7129C18.8441 12.722 18.8698 12.7282 18.891 12.7415C19.1054 12.8758 19.2904 13.0419 19.4393 13.2528C19.3447 13.3285 19.246 13.4022 19.1415 13.4736C19.1261 13.4568 19.1192 13.4395 19.1069 13.428L18.5961 12.9501L18.7836 12.7517C18.7942 12.7403 18.8018 12.7262 18.8157 12.7129L18.8157 12.7129Z" fill="#EB5E5B"/>
<path d="M18.3909 19.4715C18.3337 19.4222 18.2774 19.3741 18.2282 19.3194L17.8762 18.9176C17.8648 18.9045 17.8513 18.8933 17.8346 18.8793C17.9202 18.7994 18.0099 18.7214 18.1035 18.6416L18.6225 19.2318C18.548 19.3138 18.4715 19.3918 18.3909 19.4715Z" fill="#EB5A57"/>
<path d="M18.5921 12.9519L19.1069 13.428C19.1192 13.4396 19.1261 13.4568 19.1373 13.4757C19.0808 13.5321 19.0225 13.5844 18.9555 13.6353C18.9001 13.595 18.8564 13.5515 18.8059 13.5182C18.6427 13.4108 18.5036 13.277 18.3723 13.1341L18.5921 12.9519Z" fill="#EC6168"/>
<path d="M18.3676 13.1348C18.5037 13.277 18.6427 13.4108 18.8059 13.5182C18.8564 13.5514 18.9001 13.595 18.951 13.6357C18.9091 13.6938 18.8632 13.7499 18.8133 13.808C18.7237 13.7395 18.6285 13.6778 18.5555 13.5962C18.4902 13.5233 18.4276 13.4821 18.327 13.4878C18.2924 13.4897 18.2513 13.451 18.2205 13.4228C18.1805 13.3862 18.1479 13.3417 18.1102 13.2965C18.1932 13.2401 18.2781 13.1878 18.3676 13.1348Z" fill="#ED656E"/>
</g>
</g>
<defs>
<clipPath id="clip0_4_480">
<rect width="26.6667" height="26.6667" fill="white" transform="translate(2.66669 2.66675)"/>
</clipPath>
<clipPath id="clip1_4_480">
<rect width="26.6667" height="26.6667" fill="white" transform="translate(2.33337 2.66675)"/>
</clipPath>
</defs>
</svg>
