<svg width="120" height="120" viewBox="0 0 120 120" fill="none" xmlns="http://www.w3.org/2000/svg">
<rect width="120" height="120" fill="white"/>
<g clip-path="url(#clip0_4_344)">
<path d="M29.7112 62.8214C29.6426 61.8134 29.5087 60.8046 29.5206 59.7976C29.5382 58.3082 29.8608 56.8699 30.5727 55.5414C31.0919 54.5724 31.7653 53.7185 32.5857 52.9911C33.3973 52.2716 34.2856 51.6522 35.2756 51.1999C36.0292 50.8556 36.8105 50.5757 37.6434 50.4985C38.228 50.4444 38.8192 50.3741 39.402 50.4077C40.5422 50.4733 41.6362 50.7668 42.6819 51.2369C43.4859 51.5982 44.2412 52.0371 44.9419 52.572C45.5853 53.0631 46.1504 53.6299 46.6329 54.2803C47.2137 55.0633 47.665 55.9158 47.9193 56.8555C48.091 57.4896 48.2381 58.139 48.3044 58.791C48.3897 59.628 48.3857 60.4743 48.4151 61.3168C48.4362 61.9233 48.4262 62.532 48.4704 63.1367C48.5534 64.2718 48.6715 65.4022 49.0545 66.4882C49.3207 67.2426 49.6733 67.951 50.0865 68.6506L49.1815 69.6569C49.1054 69.7416 49.0431 69.8384 48.9709 69.9266L48.0143 71.0916C47.3282 70.8219 46.6556 70.5073 45.9521 70.2953C45.2777 70.092 44.5762 69.9604 43.8776 69.8609C43.1223 69.7533 42.3577 69.6888 41.5951 69.6604C40.4283 69.6169 39.2596 69.6082 38.0917 69.6095C37.5542 69.6101 37.0163 69.6647 36.4793 69.7048C36.2139 69.7246 35.9501 69.767 35.6643 69.778C35.5278 69.398 35.4027 69.0421 35.2996 68.6799C35.1457 68.1393 35.0855 67.5633 34.6481 67.1405C34.5195 67.0162 34.3972 66.8761 34.3074 66.7226C33.9922 66.1837 33.6895 65.6376 33.388 65.0909C33.1812 64.716 32.9716 64.3793 32.5456 64.1722C32.0338 63.9232 31.5784 63.5589 31.0946 63.2508C30.9375 63.1508 30.7771 63.0374 30.6019 62.9886C30.312 62.9079 30.0089 62.8747 29.7113 62.8215L29.7112 62.8214Z" fill="#E95A0F"/>
<path d="M83.2178 69.596C82.6225 69.5981 82.0272 69.6002 81.409 69.5776C81.4021 69.155 81.4204 68.7573 81.4314 68.3594C81.433 68.301 81.4158 68.2116 81.3779 68.1911C81.338 68.1696 81.2603 68.2078 81.2037 68.2312C81.1614 68.2487 81.1264 68.2841 81.0261 68.356C81.0142 68.1922 80.9932 68.0794 81.0004 67.9685C81.0245 67.595 81.1099 67.2177 81.0773 66.8502C81.027 66.2833 81.1465 66.1279 80.4668 66.1364C80.279 66.1388 80.2878 65.9977 80.3019 65.8725C80.3266 65.6536 80.3736 65.4367 80.3895 65.2174C80.4049 65.0037 80.3929 64.7881 80.3929 64.5807C80.2664 64.5578 80.1787 64.5381 80.0899 64.5264C79.8713 64.4974 79.7903 64.4149 79.8391 64.1645C79.8997 63.8536 79.8811 63.5277 79.9023 63.2087C79.9117 63.0672 79.8542 62.9873 79.7145 62.9734C79.5109 62.9533 79.3065 62.9211 79.103 62.9252C78.8722 62.9298 78.846 62.8127 78.8678 62.6276C78.9041 62.3192 78.9298 62.0096 78.9606 61.7005L79.0152 61.181C78.7228 61.1657 78.4634 61.1411 78.204 61.1425C78.0397 61.1433 77.9479 61.0731 77.9285 60.9246C77.8705 60.4807 77.8058 60.0363 77.7799 59.59C77.7671 59.368 77.6841 59.3076 77.4827 59.3041C77.023 59.2963 76.5637 59.2747 76.1043 59.257C75.7458 59.2431 75.6025 59.1201 75.5449 58.7669C75.5079 58.5404 75.4105 58.3807 75.1599 58.3606C74.7768 58.3299 74.392 58.3115 74.011 58.2635C73.6483 58.2179 73.2889 58.144 72.9292 58.0766C72.6806 58.03 72.434 57.9733 72.1865 57.9211C72.41 56.7849 72.8361 55.724 73.4876 54.7732C74.3814 53.4691 75.5391 52.4347 76.9085 51.6399C77.693 51.1846 78.5195 50.8341 79.4024 50.6201C80.2269 50.4203 81.0666 50.3372 81.9084 50.403C83.5586 50.5321 85.0686 51.0939 86.4834 51.9451C87.2688 52.4177 87.9805 52.9778 88.576 53.6658C88.9776 54.1299 89.3285 54.645 89.6511 55.1687C90.1844 56.0343 90.4851 56.9966 90.6715 57.9901C90.7597 58.4605 90.8108 58.9413 90.8357 59.4196C90.8732 60.1413 90.8731 60.8649 90.8679 61.6132L88.3162 62.6039C87.9311 62.7554 87.5317 62.8701 87.2393 63.2161C87.0051 63.4932 86.7117 63.7268 86.4201 63.9475C85.93 64.3185 85.5074 64.7389 85.1784 65.2658C85.0134 65.53 84.7873 65.7797 84.5349 65.9608C83.9727 66.3639 83.6736 66.9 83.5638 67.5659L83.2179 69.5961L83.2178 69.596Z" fill="#ED6D7B"/>
<path d="M25.748 77.7251C25.7133 78.601 25.7068 79.4792 25.6364 80.3522C25.5523 81.3944 25.3249 82.4073 24.9041 83.3756C24.4585 84.4009 23.8302 85.2911 22.9983 86.0282C22.2024 86.7334 21.2853 87.2244 20.2591 87.535C19.1852 87.86 18.0901 87.9374 16.9911 87.8584C15.8638 87.7774 14.8188 87.3971 13.8851 86.7344C12.884 86.0237 12.1256 85.1048 11.5052 84.0564C11.0305 83.2542 10.708 82.3955 10.5547 81.4814C10.4389 80.7911 10.4404 80.0947 10.5347 79.3932C10.6648 78.4256 10.9813 77.5269 11.424 76.6671C11.9991 75.55 12.7763 74.5969 13.8191 73.8889C14.6022 73.3573 15.4751 73.0137 16.4153 72.8763C16.8495 72.8129 17.2914 72.7948 17.7306 72.7746C18.3125 72.7478 18.8956 72.7468 19.4776 72.7196C19.9006 72.6999 20.3225 72.6557 20.7743 72.6367C20.841 72.7243 20.8852 72.7951 20.9146 72.8715C21.1486 73.4785 21.4381 74.0529 21.8372 74.5724C22.2207 75.0716 22.5713 75.5963 22.9609 76.0905C23.1549 76.3366 23.3752 76.5835 23.6346 76.7515C24.0163 76.9987 24.4385 77.1867 24.8533 77.3786C25.143 77.5126 25.4492 77.6109 25.748 77.7251Z" fill="#EC663E"/>
<path d="M73.6221 40.0989C73.8101 38.6261 74.3065 37.285 75.2429 36.1099C76.0518 35.0948 77.0257 34.3029 78.1982 33.7528C78.9242 33.4121 79.6819 33.1751 80.4857 33.1217C80.9841 33.0885 81.4876 33.0433 81.9835 33.0789C82.8053 33.1379 83.5996 33.3469 84.3548 33.6865C85.3147 34.1183 86.1587 34.7148 86.8588 35.5011C87.6153 36.3507 88.1119 37.3417 88.4177 38.4361C88.6853 39.3936 88.7301 40.3747 88.6506 41.3482C88.5333 42.7861 88.0647 44.1167 87.1432 45.2534C86.6228 45.8952 86.0302 46.4656 85.3025 46.9192C85.0415 46.6413 84.8071 46.3673 84.5828 46.0852C84.3025 45.7328 84.0403 45.3658 83.7521 45.0202C83.5259 44.749 83.2794 44.4935 83.0281 44.2451C82.8504 44.0694 82.6612 43.9004 82.4563 43.7586C82.2069 43.5861 81.9333 43.449 81.6742 43.2899C81.2554 43.0327 80.8321 42.8112 80.3382 42.7009C79.7356 42.5662 79.1086 42.4742 78.5747 42.115C78.5036 42.0671 78.4048 42.056 78.3166 42.0387C77.6795 41.9135 77.0565 41.7595 76.4865 41.4213C76.2286 41.2683 75.9141 41.2136 75.6444 41.0765C75.4064 40.9555 75.21 40.7495 74.9689 40.6383C74.5303 40.4361 74.0721 40.2764 73.6221 40.0989V40.0989Z" fill="#EA580E"/>
<path d="M35.9883 47.4316C35.5199 47.1503 35.0223 46.9073 34.5901 46.5784C33.9526 46.0932 33.4004 45.5102 32.9707 44.8253C32.4127 43.936 32.0002 42.9864 31.8865 41.9341C31.8226 41.3424 31.766 40.7423 31.7939 40.1502C31.8346 39.2863 32.0369 38.4491 32.3672 37.6402C32.8039 36.5707 33.4687 35.6703 34.326 34.9142C35.2182 34.1273 36.2647 33.6236 37.4127 33.3136C38.3642 33.0566 39.3356 33.0078 40.3023 33.0822C41.4807 33.1728 42.5578 33.6101 43.5232 34.2949C44.3744 34.8986 45.0919 35.6358 45.6467 36.5534C45.0822 36.9641 44.5262 37.3513 43.959 37.721C43.1127 38.2726 42.2628 38.8154 41.5809 39.5788C41.1455 40.0664 40.7294 40.5811 40.2378 41.0064C39.4032 41.7284 38.8643 42.6797 38.2054 43.5321C37.6181 44.2919 37.1825 45.1715 36.7028 46.0113C36.4402 46.4709 36.2248 46.9573 35.9882 47.4317L35.9883 47.4316Z" fill="#F8AB00"/>
<path d="M62.4807 87.5766C62.1155 87.6583 61.7538 87.7792 61.3843 87.8124C60.8141 87.8636 60.2375 87.8838 59.6653 87.8646C58.7078 87.8326 57.7841 87.6319 56.901 87.2384C56.1546 86.9057 55.4849 86.4725 54.8926 85.9098C53.7038 84.7806 52.8107 83.4734 52.4412 81.8536C52.3696 81.5399 52.3443 81.2121 52.3305 80.8894C52.3013 80.2 52.3197 79.5078 52.2693 78.8203C52.224 78.2015 52.1129 77.5875 52.0511 76.9488C52.1281 76.8804 52.2062 76.8461 52.2381 76.7869C52.4722 76.3518 52.8392 76.0365 53.1828 75.6963C53.4739 75.4083 53.7119 75.0646 54.0143 74.7907C54.3605 74.4771 54.6014 74.1177 54.7254 73.6713L55.1483 72.1865C55.545 72.2749 55.9396 72.3757 56.3392 72.4482C56.7424 72.5214 57.1497 72.5764 57.5571 72.6211C57.9756 72.667 58.3965 72.6908 58.8389 72.7503C58.8943 73.5468 58.9165 74.318 58.9637 75.0876C58.9971 75.6344 59.0328 76.1843 59.1238 76.7234C59.2435 77.4328 59.4063 78.1356 59.573 78.836C59.7462 79.5639 59.7724 80.3176 60.0886 81.0235C60.5914 82.146 60.9941 83.3131 61.4887 84.4395C61.8439 85.2485 62.107 86.0719 62.2351 86.9452C62.267 87.1631 62.3963 87.3666 62.4808 87.5767L62.4807 87.5766Z" fill="#EA5227"/>
<path d="M62.5006 87.5758C62.3962 87.3666 62.2669 87.163 62.235 86.9452C62.1069 86.0718 61.8437 85.2485 61.4886 84.4395C60.994 83.313 60.5914 82.146 60.0885 81.0235C59.7723 80.3176 59.7462 79.564 59.5729 78.836C59.4063 78.1356 59.2434 77.4327 59.1237 76.7234C59.0327 76.1843 58.9971 75.6343 58.9636 75.0876C58.9165 74.3179 58.8942 73.5468 58.8612 72.7536C59.2854 72.7447 59.71 72.7777 60.1337 72.7678L62.2064 72.6985C62.2513 72.8839 62.268 73.047 62.2995 73.2072L62.7277 75.3213C62.7724 75.5246 62.8433 75.7382 62.9602 75.9069C63.3149 76.4186 63.6933 76.9143 64.0719 77.4091C64.2807 77.682 64.4823 77.9687 64.7333 78.1989C65.1611 78.5914 65.6276 78.9413 66.0735 79.3144C66.6681 79.812 67.284 80.2699 68.0612 80.4458C67.9792 80.9954 67.9428 81.5567 67.8051 82.092C67.5679 83.0146 67.1922 83.8845 66.6461 84.6769C65.9999 85.6145 65.2062 86.3928 64.1893 86.9073C63.6568 87.1768 63.0783 87.3553 62.5007 87.5757L62.5006 87.5758Z" fill="#EA5330"/>
<path d="M108.471 75.7896C108.728 76.2249 109.038 76.6385 109.23 77.101C109.493 77.7363 109.712 78.3984 109.867 79.0682C110.013 79.6997 110.027 80.3507 109.965 81.0097C109.897 81.7509 109.736 82.4586 109.453 83.1401C109.167 83.8298 108.786 84.4622 108.307 85.0413C107.607 85.8881 106.762 86.5492 105.792 87.0457C105.081 87.4096 104.328 87.6792 103.528 87.7682C103.018 87.8248 102.501 87.885 101.991 87.8619C100.79 87.8075 99.6524 87.4934 98.6185 86.8588C98.3167 86.6736 98.0281 86.4669 97.7407 86.2478C98.004 85.9716 98.2536 85.7106 98.5177 85.4651L100.353 83.7815C100.401 83.7373 100.458 83.702 100.505 83.6575C100.849 83.3383 101.236 83.0535 101.523 82.6894C101.962 82.1307 102.516 81.7171 103.065 81.2888C103.278 81.1223 103.513 80.9743 103.692 80.776C103.983 80.454 104.228 80.0921 104.505 79.7571C104.843 79.348 105.185 78.9412 105.542 78.5491C105.743 78.3283 105.987 78.1471 106.198 77.9341C106.93 77.1927 107.622 76.4081 108.471 75.7897V75.7896Z" fill="#F8AA05"/>
<path d="M72.1831 57.9415C72.4338 57.9732 72.6805 58.0299 72.929 58.0765C73.2888 58.1439 73.6482 58.2178 74.0109 58.2635C74.3919 58.3115 74.7766 58.3298 75.1597 58.3606C75.4103 58.3807 75.5078 58.5403 75.5447 58.7668C75.6023 59.1201 75.7457 59.2431 76.1041 59.2569L77.4825 59.3041C77.6839 59.3075 77.7669 59.368 77.7798 59.5899C77.8056 60.0363 77.8703 60.4806 77.9283 60.9246C77.9478 61.0731 78.0395 61.1432 78.2039 61.1424C78.4633 61.1411 78.7227 61.1656 79.015 61.1809L78.9605 61.7005L78.8677 62.6275C78.8459 62.8126 78.872 62.9297 79.1029 62.9251C79.3063 62.9211 79.5107 62.9532 79.7143 62.9734C79.8541 62.9872 79.9116 63.067 79.9022 63.2087C79.881 63.5277 79.8996 63.8536 79.839 64.1644C79.7902 64.4149 79.8712 64.4973 80.0897 64.5263C80.1785 64.5381 80.2663 64.5577 80.3927 64.5807C80.3927 64.788 80.4047 65.0037 80.3893 65.2173C80.3735 65.4367 80.3265 65.6535 80.3017 65.8724C80.2876 65.9976 80.2789 66.1387 80.4667 66.1364C81.1463 66.1278 81.0269 66.2833 81.0772 66.8502C81.1097 67.2176 81.0244 67.595 81.0002 67.9684C80.9931 68.0794 81.0141 68.1921 81.0259 68.3559C81.1262 68.284 81.1612 68.2486 81.2036 68.2311C81.2601 68.2077 81.3379 68.1695 81.3778 68.191C81.4157 68.2115 81.4329 68.301 81.4313 68.3593L81.3859 69.5741C80.8307 69.6147 80.2745 69.6186 79.7207 69.657L77.5449 69.8271C77.4911 69.6781 77.4301 69.5513 77.4312 69.4251C77.4354 68.9648 77.21 68.6041 76.9812 68.2312C76.7895 67.9189 76.5473 67.5851 76.5119 67.2418C76.4589 66.7273 76.2289 66.4528 75.7748 66.3022C75.7205 66.2842 75.6679 66.2604 75.6157 66.2365C75.2455 66.0668 74.846 65.9435 74.6722 65.507C74.6275 65.3947 74.4912 65.3202 74.4019 65.2237C74.2812 65.0934 74.1734 64.9502 74.0451 64.8283C73.914 64.7038 73.7801 64.5637 73.6199 64.4928C73.3823 64.3878 73.1212 64.3352 72.8686 64.2653L72.0872 64.0596C72.1008 63.4212 72.1725 62.7774 72.1139 62.1457C72.0324 61.2653 71.9428 60.3869 71.9875 59.5045C72.0136 58.9883 72.1132 58.4759 72.183 57.9414L72.1831 57.9415Z" fill="#ED6876"/>
<path d="M35.9973 47.4472C36.2249 46.9572 36.4403 46.4707 36.7028 46.0112C37.1826 45.1714 37.6182 44.2919 38.2055 43.532C38.8644 42.6796 39.4033 41.7283 40.2379 41.0063C40.7295 40.581 41.1455 40.0662 41.581 39.5787C42.2629 38.8152 43.1128 38.2725 43.959 37.7209C44.5263 37.3511 45.0822 36.964 45.6542 36.5681C46.2337 37.397 46.6303 38.3218 46.7698 39.3264C46.8802 40.1217 46.8805 40.9324 46.906 41.7592C46.6706 41.8394 46.4464 41.8698 46.2497 41.96C45.9313 42.1059 45.646 42.3319 45.3203 42.4522C44.3369 42.8151 43.6467 43.5586 42.9477 44.2732C42.5586 44.6709 42.2788 45.1779 41.9632 45.6447C41.7437 45.9694 41.5006 46.2901 41.3514 46.6474C41.1411 47.1512 41.0079 47.6872 40.8417 48.2094C40.2313 48.212 39.6169 48.2602 39.0115 48.207C38.0086 48.1187 37.0201 47.9314 36.1028 47.4797C36.0747 47.4659 36.0387 47.4681 35.9973 47.4472L35.9973 47.4472Z" fill="#F6A200"/>
<path d="M108.468 75.7723C107.622 76.4082 106.931 77.1928 106.198 77.9341C105.987 78.1472 105.743 78.3284 105.542 78.5492C105.185 78.9413 104.843 79.3481 104.505 79.7572C104.228 80.0922 103.983 80.4541 103.692 80.7761C103.513 80.9743 103.278 81.1224 103.065 81.2888C102.516 81.7172 101.963 82.1308 101.523 82.6894C101.236 83.0536 100.849 83.3384 100.505 83.6576C100.458 83.7021 100.401 83.7375 100.353 83.7816L98.5177 85.4652C98.2537 85.7107 98.0041 85.9717 97.7326 86.2328C96.6732 85.3804 95.8781 84.3298 95.3256 83.0846C95.499 82.9965 95.6779 82.9557 95.8118 82.8551C96.2423 82.5315 96.8214 82.4389 97.1632 81.9782C97.2094 81.9159 97.2942 81.8805 97.3644 81.8382C98.2495 81.3043 99.1633 80.812 100.01 80.2231C100.52 79.8683 100.933 79.3701 101.376 78.9231C101.565 78.7322 101.744 78.5225 101.885 78.2953C102.493 77.321 103.095 76.3425 103.885 75.4997C104.49 74.8538 104.739 74.0381 105 73.2261C105.785 73.4336 106.476 73.8265 107.111 74.3191C107.635 74.726 108.09 75.2044 108.468 75.7722L108.468 75.7723Z" fill="#F7A80D"/>
<path d="M83.2406 69.5994C83.3333 68.9195 83.4519 68.2433 83.5637 67.5659C83.6735 66.9001 83.9726 66.364 84.5347 65.9608C84.7871 65.7798 85.0133 65.5301 85.1782 65.2659C85.5072 64.739 85.9298 64.3186 86.4199 63.9475C86.7114 63.7268 87.0049 63.4933 87.2391 63.2161C87.5315 62.8701 87.9309 62.7554 88.316 62.604L90.8645 61.6362C90.9018 62.2228 90.8971 62.8138 90.9457 63.4004C91.0334 64.4575 91.1475 65.5129 91.5273 66.517C91.5357 66.5392 91.5326 66.5658 91.5264 66.6239C91.1826 66.8285 90.84 66.9871 90.5146 67.1755C90.3198 67.2883 90.1309 67.4278 89.9766 67.5905C89.679 67.9045 89.4289 68.265 89.1208 68.5671C88.6705 69.0087 88.4876 69.5911 88.2208 70.1308C88.2108 70.1511 88.2172 70.1795 88.216 70.2041C87.7958 70.119 87.3776 70.0219 86.9548 69.952C86.4752 69.8727 85.9932 69.7993 85.5093 69.7565C84.762 69.6904 84.0122 69.6525 83.2405 69.5994L83.2406 69.5994Z" fill="#EF7A72"/>
<path d="M57.4255 69.9919C56.4187 69.7213 55.5051 69.252 54.6679 68.6427C54.262 68.3473 53.903 67.9874 53.5314 67.6343C53.6784 67.4608 53.8068 67.299 53.957 67.1609C54.3078 66.8382 54.5156 66.4226 54.7392 66.0147C54.9834 65.5693 55.2513 65.1363 55.4801 64.6834C55.6109 64.4244 55.7547 64.1383 55.7618 63.8611C55.7678 63.6308 55.7714 63.4189 55.8894 63.2303C56.3112 62.556 56.6559 61.8429 56.8188 61.0667C56.9233 60.5692 57.2093 60.1373 57.2055 59.5902C57.2023 59.1403 57.4179 58.6885 57.5387 58.2381C57.6977 57.6449 57.9035 57.06 58.0086 56.4575C58.1671 55.5487 58.2627 54.6285 58.3722 53.7117L58.6137 51.4443C58.9451 51.4586 59.2764 51.4728 59.6306 51.5119C59.637 51.6831 59.6103 51.8291 59.606 51.9758L59.5498 54.0844C59.5202 54.6563 59.4475 55.2259 59.3971 55.7968L59.2068 57.9987C59.1603 58.5037 59.1187 59.0102 59.0442 59.5114C58.9967 59.8314 58.8235 60.1375 58.988 60.471C59.0052 60.5059 58.9669 60.5647 58.9658 60.6128C58.9547 61.1037 58.6693 61.5745 58.8571 62.0804C58.8622 62.0942 58.8555 62.1129 58.8526 62.129L58.4344 64.4164C58.3735 64.7367 58.2891 65.0524 58.2184 65.3708C58.1441 65.7053 58.0896 66.0451 57.9978 66.3746C57.8195 67.0147 57.4702 67.6271 57.7192 68.3286C57.7375 68.3799 57.7308 68.445 57.7201 68.5007L57.4256 69.9919H57.4255Z" fill="#E94E3B"/>
<path d="M57.4427 70.0008C57.5242 69.495 57.6239 68.9982 57.7201 68.5007C57.7308 68.4451 57.7375 68.3799 57.7192 68.3286C57.4702 67.6272 57.8195 67.0148 57.9978 66.3747C58.0896 66.0452 58.1441 65.7054 58.2184 65.3709C58.2891 65.0524 58.3735 64.7367 58.4344 64.4165L58.8525 62.1291C58.8555 62.1129 58.8623 62.0942 58.8571 62.0804C58.6693 61.5746 58.9547 61.1038 58.9658 60.6128C58.9669 60.5648 59.0052 60.506 58.988 60.471C58.8234 60.1375 58.9967 59.8315 59.0442 59.5115C59.1187 59.0102 59.1603 58.5038 59.2068 57.9987L59.3971 55.7969C59.4475 55.226 59.5203 54.6564 59.5498 54.0845C59.5861 53.3825 59.5855 52.6787 59.606 51.9758C59.6103 51.8291 59.637 51.6831 59.6533 51.5154C59.9185 51.4916 60.1837 51.4893 60.472 51.5114C60.5821 52.2588 60.5638 52.9833 60.5524 53.7098C60.5446 54.208 60.6236 54.7069 60.6399 55.2063C60.6565 55.713 60.6382 56.2207 60.6457 56.7277C60.6498 57.0106 60.6847 57.293 60.6883 57.5758C60.691 57.7881 60.6651 58.0008 60.6535 58.2133C60.65 58.2788 60.6467 58.345 60.652 58.4101L60.7775 60.1133L60.6929 61.91L60.5985 64.3204C60.5895 64.7216 60.6477 65.1242 60.6386 65.5254C60.6252 66.1232 60.5755 66.7201 60.5502 67.3178C60.5451 67.4373 60.5452 67.5793 60.6026 67.6752C60.8169 68.0326 60.8236 68.4284 60.8371 68.8189C60.8552 69.3413 60.8415 69.8648 60.8414 70.3878C60.275 70.5167 59.7107 70.4219 59.1529 70.3425C58.5843 70.2616 58.0239 70.123 57.4427 70.0008V70.0008Z" fill="#EA5043"/>
<path d="M29.7075 62.844C30.0088 62.8745 30.3119 62.9078 30.6019 62.9884C30.7771 63.0372 30.9375 63.1507 31.0945 63.2507C31.5784 63.5588 32.0337 63.9231 32.5456 64.172C32.9716 64.3791 33.1812 64.7159 33.388 65.0908L34.3073 66.7224C34.3971 66.876 34.5194 67.016 34.6481 67.1404C35.0854 67.5633 35.1457 68.1391 35.2995 68.6797C35.4026 69.042 35.5277 69.3979 35.6434 69.7751C34.1844 69.9247 32.7241 70.0515 31.3076 70.5287C31.2489 70.4147 31.2187 70.3128 31.1705 70.2201C30.9528 69.8019 30.8387 69.3204 30.4308 69.0172C30.3065 68.9248 30.1782 68.8284 30.0819 68.7094C29.6682 68.1979 29.2389 67.7056 28.6576 67.3741C28.8765 66.8059 29.1179 66.2451 29.3086 65.6675C29.5267 65.0067 29.6415 64.322 29.655 63.6223C29.6599 63.3702 29.6869 63.1185 29.7075 62.844H29.7075Z" fill="#EB5D19"/>
<path d="M58.5919 51.4409C58.5339 52.2002 58.4624 52.957 58.3722 53.7117C58.2627 54.6285 58.1671 55.5487 58.0086 56.4575C57.9035 57.06 57.6977 57.6449 57.5387 58.2381C57.4179 58.6885 57.2023 59.1403 57.2055 59.5902C57.2093 60.1373 56.9233 60.5692 56.8189 61.0667C56.6559 61.8428 56.3112 62.5559 55.8894 63.2303C55.7714 63.4189 55.7677 63.6308 55.7618 63.8611C55.7547 64.1383 55.6109 64.4244 55.4801 64.6834C55.2513 65.1363 54.9834 65.5693 54.7392 66.0147C54.5156 66.4226 54.3078 66.8382 53.957 67.1609C53.8068 67.299 53.6784 67.4609 53.5246 67.619C52.9208 67.0945 52.4815 66.4485 52.074 65.7755C51.6974 65.1532 51.4165 64.4902 51.2009 63.777C51.8595 63.4359 52.4818 63.0899 52.949 62.5237C52.9845 62.4807 53.0447 62.4588 53.0832 62.4175C53.3319 62.1499 53.6037 61.8986 53.8185 61.6057C54.1225 61.1912 54.3562 60.7239 54.6703 60.3182C55.0772 59.7926 55.3464 59.1973 55.6616 58.612C55.8818 58.581 55.9947 58.453 56.0633 58.2709C56.1353 58.0795 56.1941 57.88 56.2914 57.702C56.5091 57.3034 56.7687 56.9268 56.97 56.5208C57.1361 56.1861 57.2429 55.822 57.3761 55.471C57.6596 54.7243 57.7364 53.924 57.996 53.1651C58.1793 52.6291 58.1513 52.0208 58.2177 51.4447L58.5919 51.4411V51.4409Z" fill="#E94C32"/>
<path d="M104.983 73.2173C104.739 74.0381 104.49 74.8538 103.884 75.4997C103.095 76.3425 102.493 77.321 101.885 78.2953C101.743 78.5225 101.564 78.7322 101.375 78.923C100.932 79.3701 100.52 79.8683 100.01 80.2231C99.1632 80.812 98.2493 81.3043 97.3643 81.8381C97.294 81.8805 97.2092 81.9159 97.163 81.9781C96.8213 82.4389 96.2422 82.5315 95.8117 82.8551C95.6778 82.9557 95.4989 82.9965 95.3229 83.067C95.1539 82.5808 94.9805 82.0976 94.8595 81.6016C94.7836 81.2905 94.7866 80.9601 94.7771 80.6158C94.8718 80.5772 94.9441 80.5634 95.0152 80.5449C95.7985 80.3409 96.5742 80.1475 97.1844 79.5388C97.6523 79.0722 98.1929 78.6788 98.696 78.2469C99.0003 77.9857 99.3408 77.7493 99.5848 77.4387C100.318 76.5056 101.014 75.5434 101.719 74.5881C101.849 74.4121 101.992 74.2285 102.057 74.0254C102.19 73.614 102.274 73.1868 102.378 72.7661C103.263 72.7799 104.127 72.9235 104.983 73.2173Z" fill="#F7A617"/>
<path d="M68.0649 80.4249C67.2839 80.2701 66.6681 79.8121 66.0734 79.3145C65.6276 78.9414 65.1611 78.5915 64.7333 78.199C64.4823 77.9688 64.2807 77.682 64.0718 77.4092C63.6933 76.9144 63.3149 76.4187 62.9602 75.907C62.8433 75.7383 62.7724 75.5248 62.7277 75.3214C62.5733 74.6192 62.4382 73.9128 62.2994 73.2073C62.2679 73.0471 62.2512 72.884 62.2275 72.7019C62.9817 72.5935 63.736 72.5054 64.525 72.4236C64.6582 72.706 64.7667 72.9791 64.8532 73.259C64.9968 73.7234 65.2381 74.1102 65.5975 74.4496C65.9468 74.7794 66.2562 75.158 66.5453 75.5436C67.0161 76.1712 67.6844 76.4872 68.3724 76.7839C68.3205 77.1522 68.2523 77.5192 68.2206 77.8893C68.1733 78.4419 68.1517 78.9967 68.119 79.5506L68.0648 80.4249H68.0649Z" fill="#EA553A"/>
<path d="M67.5803 66.883C67.3821 67.1362 67.1999 67.4043 66.9826 67.64C66.3468 68.3298 65.6136 68.8998 64.7597 69.3498C64.603 69.0673 64.4797 68.7911 64.3543 68.4958C64.1899 67.8593 64.0444 67.2369 63.8611 66.6258C63.6334 65.8669 63.3363 65.1313 63.2992 64.3207C63.2837 63.9806 63.2361 63.6135 62.9471 63.3483C62.8952 63.3007 62.8831 63.1971 62.8745 63.1171L62.672 61.1405C62.6445 60.8808 62.653 60.6044 62.5626 60.3671C62.3833 59.8966 62.3375 59.4139 62.3305 58.9234C62.3261 58.6208 62.3834 58.3166 62.3692 58.0152C62.336 57.3083 62.2821 56.6021 62.2256 55.8964C62.1931 55.4894 62.129 55.0848 62.0987 54.6776C62.076 54.3738 62.0846 54.0676 62.0936 53.7761C62.141 54.0648 62.1468 54.3467 62.2138 54.6132C62.3132 55.0085 62.4725 55.3886 62.5764 55.7831C62.7359 56.3885 62.653 57.0316 62.9094 57.6324C63.1229 58.1323 63.2257 58.6787 63.3912 59.2001C63.5015 59.5477 63.6965 59.8794 63.7437 60.233C63.7991 60.6476 64.0457 60.9247 64.2574 61.2585L64.3577 61.7821C64.4424 62.2383 64.5136 62.6872 64.7782 63.0988C65.0947 63.5912 65.34 64.1293 65.617 64.6472C65.816 65.0194 65.9238 65.443 66.2568 65.7395L67.4678 66.8415C67.4953 66.8664 67.5424 66.8697 67.5804 66.8831L67.5803 66.883Z" fill="#EA5453"/>
<path d="M73.6184 40.1205C74.0721 40.2763 74.5302 40.436 74.9689 40.6382C75.21 40.7494 75.4064 40.9554 75.6444 41.0764C75.914 41.2135 76.2286 41.2682 76.4865 41.4212C77.0565 41.7594 77.6794 41.9134 78.3166 42.0386C78.4047 42.0559 78.5036 42.0671 78.5747 42.1149C79.1086 42.4741 79.7355 42.5661 80.3382 42.7008C80.8321 42.8112 81.2554 43.0326 81.6742 43.2898C81.9333 43.4489 82.2069 43.586 82.4563 43.7585C82.6612 43.9003 82.8504 44.0693 83.0281 44.245C83.2794 44.4935 83.5259 44.749 83.7521 45.0201C84.0403 45.3657 84.3025 45.7327 84.5828 46.0851C84.8071 46.3672 85.0415 46.6412 85.2868 46.9261C84.7915 47.2135 84.2933 47.5203 83.7661 47.7648C83.3852 47.9415 82.9659 48.0353 82.5439 48.1445C82.4014 47.7936 82.279 47.4642 82.1561 47.135C82.1164 47.0285 82.0946 46.9097 82.0325 46.8183C81.8073 46.4866 81.5517 46.1748 81.3389 45.8358C81.0086 45.3097 80.5795 44.8987 80.0486 44.5796C79.5854 44.3011 79.1394 43.9942 78.6801 43.7089C78.3615 43.5111 78.0414 43.3126 77.7069 43.1443C77.4533 43.0167 77.157 42.9693 76.9125 42.829C76.0617 42.3407 75.1734 41.9435 74.2377 41.6524C74.0198 41.5846 73.7945 41.5402 73.5726 41.485L73.6184 40.1204V40.1205Z" fill="#EA5B15"/>
<path d="M64.3564 68.5149L64.742 69.3511C63.9975 69.8102 63.1738 70.0939 62.3072 70.242C61.8387 70.322 61.3605 70.3458 60.864 70.3914C60.8414 69.8649 60.8551 69.3414 60.8371 68.819C60.8236 68.4285 60.8169 68.0327 60.6027 67.6753C60.5452 67.5794 60.5451 67.4374 60.5502 67.3179L60.6387 65.5255C60.6477 65.1243 60.5895 64.7216 60.5985 64.3205C60.6166 63.5167 60.6605 62.7135 60.693 61.9101C60.7169 61.316 60.7396 60.7219 60.791 60.1245C61.0667 60.629 61.3173 61.1354 61.5597 61.6457C61.6152 61.7626 61.6878 61.8977 61.6755 62.0164C61.5994 62.75 61.9666 63.3451 62.3172 63.9139C62.8126 64.7179 63.1299 65.5743 63.3237 66.4864C63.4368 67.0189 63.5578 67.5455 63.9156 67.9797L64.3564 68.5149Z" fill="#EA504B"/>
<path d="M102.365 72.7489C102.274 73.1868 102.19 73.614 102.057 74.0254C101.992 74.2285 101.849 74.4121 101.719 74.5882L99.5849 77.4387C99.3408 77.7493 99.0003 77.9857 98.6961 78.2469C98.193 78.6789 97.6524 79.0722 97.1845 79.5389C96.5742 80.1475 95.7985 80.3409 95.0153 80.5449C94.9442 80.5635 94.8718 80.5772 94.7804 80.5938C94.7256 79.7506 94.6905 78.9068 94.6775 78.0415C94.7401 78.015 94.7856 78.0203 94.8205 78.0036C95.345 77.7525 95.8502 77.4561 96.4336 77.3465C96.5173 77.3308 96.5973 77.2694 96.6679 77.2147L98 76.1695C98.2471 75.9713 98.5551 75.8035 98.7119 75.5464C99.2706 74.6306 99.819 73.7017 100.05 72.6321L101.834 72.7217C102.007 72.7299 102.18 72.7287 102.365 72.7489Z" fill="#F6A320"/>
<path d="M25.7648 77.7135C25.4492 77.6109 25.143 77.5126 24.8533 77.3786C24.4385 77.1867 24.0163 76.9987 23.6346 76.7515C23.3753 76.5836 23.1549 76.3366 22.9609 76.0905C22.5713 75.5963 22.2207 75.0716 21.8372 74.5724C21.4381 74.0529 21.1486 73.4785 20.9146 72.8715C20.8852 72.7951 20.841 72.7244 20.7967 72.6347C21.1353 72.5556 21.4797 72.4851 21.8267 72.4314C22.76 72.2873 23.6304 71.9615 24.487 71.5493C24.5215 71.5933 24.531 71.6263 24.5509 71.6509L25.4381 72.7348C25.6431 72.9793 25.8371 73.2393 26.0749 73.4483C26.3556 73.695 26.6781 73.8942 26.9825 74.114C26.5401 74.92 26.1695 75.7564 25.9579 76.6541C25.8768 76.9982 25.839 77.3524 25.7647 77.7136L25.7648 77.7135Z" fill="#EC6333"/>
<path d="M40.8647 48.2129C41.0079 47.6873 41.1412 47.1512 41.3515 46.6474C41.5007 46.2901 41.7438 45.9694 41.9633 45.6448C42.2789 45.1779 42.5586 44.671 42.9477 44.2732C43.6467 43.5587 44.337 42.8151 45.3203 42.4522C45.6461 42.332 45.9314 42.106 46.2497 41.96C46.4465 41.8699 46.6707 41.8395 46.9025 41.7822C46.9989 42.7009 47.0633 43.6213 47.3137 44.539C46.5487 44.9316 45.8854 45.4346 45.3108 46.0239C44.7951 46.5528 44.3648 47.168 43.924 47.7652C43.7637 47.9825 43.682 48.2577 43.5645 48.5065C42.6831 48.3091 41.7938 48.1848 40.8647 48.2129V48.2129Z" fill="#F49700"/>
<path d="M64.3543 68.4958C64.2095 68.3364 64.0625 68.158 63.9156 67.9797C63.5577 67.5455 63.4367 67.0188 63.3236 66.4864C63.1298 65.5743 62.8125 64.7179 62.3171 63.9139C61.9665 63.345 61.5994 62.75 61.6754 62.0164C61.6877 61.8976 61.6152 61.7626 61.5596 61.6457L60.8056 60.1101L60.6519 58.4102C60.6466 58.345 60.6499 58.2788 60.6535 58.2134C60.665 58.0008 60.6909 57.7881 60.6882 57.5758C60.6847 57.293 60.6498 57.0106 60.6456 56.7278L60.6399 55.2064C60.6236 54.7069 60.5445 54.208 60.5523 53.7098C60.5637 52.9834 60.582 52.2588 60.4948 51.5147C60.9586 51.475 61.4226 51.4563 61.9086 51.4615C61.9802 52.2444 62.0297 53.0034 62.0792 53.7624C62.0845 54.0675 62.076 54.3737 62.0986 54.6775C62.129 55.0847 62.193 55.4893 62.2256 55.8964L62.3691 58.0152C62.3833 58.3165 62.3261 58.6208 62.3304 58.9233C62.3374 59.4139 62.3832 59.8966 62.5625 60.367C62.6529 60.6043 62.6445 60.8807 62.6719 61.1404L62.8745 63.117C62.883 63.197 62.8951 63.3007 62.947 63.3482C63.2361 63.6134 63.2836 63.9805 63.2992 64.3207C63.3362 65.1313 63.6333 65.8668 63.861 66.6257C64.0444 67.2368 64.1898 67.8593 64.3542 68.4958H64.3543Z" fill="#EA544C"/>
<path d="M69.6453 60.1489C69.7074 61.4039 69.5624 62.6321 69.1419 63.8425C68.7163 63.6008 68.2421 63.4114 67.9363 63.0707C67.568 62.6604 67.2467 62.2073 66.8633 61.7979C66.4426 61.3488 66.035 60.8609 65.8195 60.2577C65.7928 60.1828 65.7358 60.1187 65.6911 60.0317C65.4631 59.5739 65.3096 59.1137 65.297 58.5916C65.2557 58.2377 65.2369 57.9013 65.1679 57.5756C65.0582 57.0581 64.8893 56.561 64.8163 56.026C64.6919 55.1142 64.4595 54.2185 64.5516 53.2858C64.5635 53.1655 64.5432 53.0408 64.528 52.9194L64.3068 51.197C64.4416 51.1783 64.5764 51.1595 64.7318 51.164C64.8184 51.5987 64.878 52.0113 64.952 52.4214C65.0418 52.9183 65.1322 53.4156 65.2458 53.9074C65.2971 54.1292 65.4415 54.3318 65.4799 54.5541C65.5687 55.0678 65.7141 55.5567 65.939 56.0279C66.0832 56.3301 66.1746 56.6572 66.31 56.9641C66.4519 57.2857 66.6201 57.5956 66.7729 57.9125C66.9592 58.2988 67.1525 58.6557 67.5699 58.8749C67.9426 59.0705 68.2488 59.3885 68.6087 59.6137C68.9372 59.8192 69.2984 59.9726 69.6452 60.149L69.6453 60.1489Z" fill="#EC5C61"/>
<path d="M66.4727 50.8034C67.3826 50.5629 68.2659 50.2485 69.145 49.8643C69.3045 50.031 69.4268 50.1981 69.5766 50.3351C69.6921 50.4408 69.8465 50.5861 69.976 50.5789C70.3533 50.5576 70.588 50.7119 70.8328 50.9855C71.1067 51.2915 71.4637 51.5229 71.7845 51.7867C71.531 52.1428 71.2667 52.4917 71.026 52.8563C70.3482 53.883 69.8878 54.9977 69.7001 56.219C69.6732 56.3941 69.6367 56.5677 69.583 56.7599C68.8772 56.4421 68.2755 56.0193 67.9626 55.2845C67.9088 55.1581 67.8341 55.0404 67.7662 54.9203C67.6823 54.7722 67.5895 54.6288 67.5116 54.4776C67.4334 54.326 67.3669 54.1683 67.2989 54.0116C67.2212 53.8324 67.1254 53.657 67.0776 53.4698C67.0154 53.2257 67.0462 52.9464 66.9427 52.7265C66.6541 52.1128 66.5731 51.4578 66.4726 50.8034H66.4727Z" fill="#ED676F"/>
<path d="M72.0843 64.0811C72.3479 64.1279 72.6092 64.1935 72.8688 64.2653C73.1213 64.3351 73.3825 64.3878 73.6201 64.4928C73.7803 64.5637 73.9142 64.7038 74.0453 64.8283C74.1736 64.9502 74.2814 65.0934 74.402 65.2237C74.4914 65.3202 74.6276 65.3947 74.6724 65.507C74.8462 65.9435 75.2457 66.0668 75.6159 66.2365C75.668 66.2604 75.7207 66.2842 75.775 66.3022C76.2291 66.4528 76.4591 66.7273 76.5121 67.2417C76.5475 67.5851 76.7897 67.9189 76.9813 68.2312C77.2102 68.6041 77.4356 68.9648 77.4314 69.4251C77.4303 69.5513 77.4913 69.6781 77.5242 69.8238C76.541 69.9503 75.5541 70.0365 74.5738 70.2738L73.9998 69.1252C73.945 69.0178 73.8747 68.9097 73.7866 68.8294C73.4227 68.498 73.0508 68.1755 72.679 67.853L71.8219 67.1268C71.6845 67.0157 71.5281 66.9279 71.3803 66.8296L71.955 64.9393C72.0297 64.6693 72.0411 64.3819 72.0843 64.0811Z" fill="#ED656E"/>
<path d="M66.4512 50.8032C66.5732 51.458 66.6543 52.1131 66.9429 52.7268C67.0463 52.9466 67.0156 53.2259 67.0778 53.47C67.1256 53.6573 67.2214 53.8326 67.2991 54.0119C67.367 54.1685 67.4335 54.3263 67.5117 54.4779C67.5896 54.629 67.6824 54.7724 67.7663 54.9206C67.8342 55.0406 67.909 55.1584 67.9628 55.2847C68.2756 56.0196 68.8773 56.4423 69.5787 56.7804C69.582 57.0339 69.5539 57.2854 69.5571 57.5363L69.6059 59.4233C69.6134 59.6504 69.6364 59.8769 69.6489 60.1263C69.2986 59.9727 68.9374 59.8193 68.6089 59.6138C68.2491 59.3886 67.9428 59.0706 67.5702 58.875C67.1526 58.6557 66.9594 58.2989 66.7731 57.9125C66.6203 57.5956 66.4521 57.2858 66.3103 56.9642C66.1749 56.6572 66.0834 56.3302 65.9392 56.028C65.7143 55.5568 65.569 55.0679 65.4802 54.5542C65.4417 54.3318 65.2973 54.1294 65.246 53.9074C65.1324 53.4157 65.042 52.9183 64.9522 52.4214C64.8782 52.0114 64.8186 51.5988 64.7524 51.1672C65.2648 51.0454 65.7774 50.9439 66.2898 50.8414C66.3371 50.8319 66.3832 50.8159 66.4514 50.8033L66.4512 50.8032Z" fill="#EC6168"/>
<path d="M55.6436 58.6138C55.3464 59.1971 55.0772 59.7925 54.6703 60.3181C54.3562 60.7239 54.1225 61.1911 53.8185 61.6056C53.6037 61.8985 53.332 62.1498 53.0832 62.4174C53.0447 62.4587 52.9845 62.4807 52.949 62.5237C52.4817 63.0899 51.8595 63.4359 51.1987 63.7578C50.9898 63.2189 50.855 62.661 50.842 62.0793L50.8165 59.6267C51.1849 59.4835 51.532 59.3695 51.8727 59.2386C51.9593 59.2053 52.0262 59.1197 52.1006 59.0563C52.4347 58.7719 52.7365 58.4312 53.1108 58.2175C53.493 57.9994 53.8233 57.767 54.0386 57.3814C54.0696 57.3259 54.1222 57.2786 54.1737 57.239C54.53 56.9651 54.7966 56.6197 55.0106 56.2272C55.0443 56.1655 55.1342 56.1343 55.2139 56.0959C55.3542 56.1657 55.4746 56.2391 55.6042 56.2886C55.7974 56.3624 55.8216 56.4828 55.7444 56.6569C55.6716 56.8211 55.6123 56.9913 55.543 57.1572C55.4812 57.3048 55.5214 57.4167 55.6624 57.4811C55.8013 57.5446 55.8171 57.6366 55.7522 57.7584L55.4102 58.392L55.6436 58.6138Z" fill="#E94C28"/>
<path d="M65.6928 60.0494C65.7358 60.1185 65.7927 60.1826 65.8195 60.2575C66.035 60.8607 66.4426 61.3486 66.8632 61.7977C67.2467 62.2071 67.568 62.6602 67.9363 63.0705C68.242 63.4112 68.7163 63.6006 69.133 63.8593C68.8324 64.964 68.3075 65.9605 67.5955 66.8759C67.5423 66.8695 67.4952 66.8661 67.4677 66.8412L66.2567 65.7392C65.9237 65.4427 65.8159 65.0191 65.6169 64.6469C65.3399 64.129 65.0946 63.5909 64.7781 63.0986C64.5135 62.6869 64.4423 62.238 64.3576 61.7818C64.3264 61.6138 64.2909 61.4465 64.2716 61.2448C64.2532 60.9322 64.2206 60.654 64.1852 60.3511L64.499 60.5511L64.5628 60.5177L64.4567 59.756L64.9247 59.8158V59.3928L65.6928 60.0494Z" fill="#EB5659"/>
<path d="M100.028 72.6285C99.819 73.7017 99.2706 74.6306 98.7119 75.5464C98.5551 75.8035 98.2471 75.9713 98 76.1694L96.6679 77.2147C96.5974 77.2693 96.5173 77.3308 96.4336 77.3465C95.8502 77.4561 95.345 77.7525 94.8205 78.0036C94.7856 78.0203 94.7401 78.015 94.6807 78.0201C94.5258 77.3191 94.3894 76.6141 94.2717 75.9058C94.5017 75.7999 94.7347 75.7504 94.9286 75.635C95.2049 75.4705 95.4888 75.2914 95.7043 75.0582C96.0979 74.6325 96.4184 74.1388 96.816 73.7176C97.2387 73.2697 97.5025 72.7452 97.7232 72.1868L100.028 72.6285V72.6285Z" fill="#F5A02D"/>
<path d="M65.6911 60.0317C65.4393 59.8329 65.1857 59.6161 64.9249 59.3931V59.8161L64.4568 59.7563L64.5629 60.5179L64.4992 60.5513L64.1853 60.3513C64.2207 60.6542 64.2534 60.9325 64.2717 61.2242C64.0457 60.9247 63.7992 60.6476 63.7438 60.2329C63.6966 59.8794 63.5016 59.5476 63.3913 59.2001C63.2257 58.6787 63.1229 58.1323 62.9095 57.6323C62.653 57.0316 62.7359 56.3885 62.5764 55.7831C62.4725 55.3886 62.3132 55.0085 62.2139 54.6132C62.1469 54.3466 62.1411 54.0647 62.0936 53.7761L61.9305 51.4647C62.3835 51.4078 62.839 51.3734 63.2954 51.3616C63.4001 51.9743 63.4759 52.565 63.5666 53.1534C63.6285 53.5549 63.7068 53.9541 63.7855 54.3529C63.855 54.7045 63.9336 55.0543 64.0108 55.4044C64.084 55.7364 64.0243 56.0976 64.2385 56.3989C64.5059 56.775 64.5938 57.2166 64.7072 57.6532C64.8039 58.0252 64.9945 58.3588 65.2971 58.6139C65.3097 59.1137 65.4632 59.5739 65.6912 60.0317L65.6911 60.0317Z" fill="#EB5A57"/>
<path d="M55.1312 72.1782C55.0069 72.6814 54.863 73.1755 54.7253 73.6714C54.6014 74.1177 54.3604 74.4772 54.0142 74.7908C53.7118 75.0647 53.4738 75.4083 53.1827 75.6964C52.839 76.0365 52.4721 76.3518 52.238 76.787C52.2061 76.8462 52.128 76.8805 52.0546 76.9284C51.9363 76.5363 51.8516 76.1368 51.7295 75.749C51.4597 74.8915 51.1155 74.0671 50.5704 73.3315L51.6411 72.2872C51.7986 72.1243 51.9149 71.9217 52.0517 71.7385L52.5796 71.0374C53.0513 71.274 53.5165 71.5249 53.9967 71.7427C54.3592 71.9071 54.741 72.029 55.1312 72.1782L55.1312 72.1782Z" fill="#EA541C"/>
<path d="M73.5689 41.5061C73.7945 41.5403 74.0197 41.5847 74.2377 41.6525C75.1734 41.9436 76.0617 42.3408 76.9125 42.8291C77.157 42.9694 77.4533 43.0168 77.7069 43.1444C78.0414 43.3127 78.3615 43.5112 78.6801 43.709L80.0486 44.5797C80.5794 44.8988 81.0086 45.3098 81.3389 45.8359C81.5517 46.1749 81.8073 46.4867 82.0325 46.8184C82.0945 46.9099 82.1164 47.0286 82.1561 47.1351L82.5245 48.1416C81.946 48.2284 81.3671 48.2967 80.7654 48.3414C80.729 48.2378 80.7162 48.1575 80.7014 48.0776C80.5451 47.2332 80.0059 46.5845 79.5611 45.8921C79.4112 45.659 79.1756 45.4699 78.9505 45.2984C78.4878 44.9462 78.0097 44.6136 77.5303 44.284C77.2009 44.0576 76.8713 43.8261 76.5189 43.6404C76.1204 43.4305 75.7031 43.2517 75.2818 43.0913C74.7015 42.8703 74.1098 42.679 73.523 42.475L73.5689 41.5061Z" fill="#EB5D19"/>
<path d="M73.5193 42.4958C74.1098 42.679 74.7015 42.8702 75.2818 43.0912C75.7031 43.2517 76.1205 43.4305 76.5189 43.6403C76.8714 43.826 77.201 44.0576 77.5303 44.284C78.0097 44.6135 78.4879 44.9461 78.9505 45.2984C79.1757 45.4698 79.4113 45.6589 79.5611 45.8921C80.006 46.5844 80.5451 47.2331 80.7014 48.0775C80.7162 48.1575 80.729 48.2378 80.7428 48.3381C80.0808 48.3274 79.4186 48.2965 78.7347 48.2429C78.5894 47.7636 78.5071 47.3062 78.1265 46.9482C77.3553 46.2229 76.6215 45.458 75.8708 44.7109C75.8369 44.6771 75.7903 44.6537 75.7463 44.6325L73.4103 43.513L73.5193 42.4958Z" fill="#EB5E24"/>
<path d="M55.198 56.0892C55.1342 56.1345 55.0443 56.1656 55.0107 56.2274C54.7966 56.6199 54.53 56.9653 54.1737 57.2392C54.1222 57.2788 54.0696 57.3261 54.0386 57.3817C53.8233 57.7672 53.493 57.9996 53.1109 58.2178C52.7365 58.4315 52.4347 58.7722 52.1006 59.0566C52.0262 59.1199 51.9592 59.2055 51.8727 59.2388C51.532 59.3696 51.1849 59.4837 50.8201 59.604C50.8138 59.052 50.8301 58.4999 50.8388 57.9479C50.8403 57.8542 50.8091 57.76 50.8162 57.6449C51.4958 57.558 51.984 57.1733 52.4637 56.7705C52.6015 56.6548 52.7644 56.5645 52.8859 56.4346L54.3244 54.8574C54.4009 54.7728 54.4936 54.689 54.5333 54.5872C54.8138 53.8689 55.1021 53.1527 55.347 52.422C55.4864 52.0058 55.5487 51.5637 55.6457 51.1333C55.8951 51.1686 56.1446 51.2039 56.4148 51.2634C56.3698 51.7075 56.3004 52.1267 56.2392 52.5472C56.1199 53.3665 55.9501 54.1729 55.6456 54.9462L55.198 56.0892Z" fill="#E9511F"/>
<path d="M68.3887 76.7736C67.6845 76.4871 67.0161 76.1711 66.5454 75.5435C66.2562 75.158 65.9469 74.7793 65.5975 74.4495C65.2382 74.1101 64.9968 73.7234 64.8532 73.2589C64.7667 72.979 64.6583 72.7059 64.5436 72.4157C65.2911 72.2172 66.0393 71.9885 66.7693 71.6467L68.1736 73.4467C68.4751 73.8435 68.8233 74.1769 69.2983 74.3564C68.9318 75.0728 68.6251 75.8124 68.433 76.5962C68.4196 76.6509 68.4141 76.7076 68.3887 76.7736Z" fill="#EA5741"/>
<path d="M55.2139 56.0962C55.3472 55.7082 55.4957 55.3269 55.6456 54.9462C55.9502 54.1728 56.12 53.3664 56.2393 52.5471L56.4354 51.2668C56.8108 51.2825 57.1863 51.3179 57.5616 51.3558C57.7681 51.3766 57.9741 51.4017 58.1991 51.4348C58.1514 52.0208 58.1794 52.6291 57.996 53.1652C57.7364 53.9241 57.6597 54.7244 57.3761 55.471C57.2429 55.822 57.1361 56.1861 56.9701 56.5208C56.7687 56.9268 56.5091 57.3035 56.2914 57.702C56.1942 57.8801 56.1353 58.0796 56.0633 58.2709C55.9947 58.4531 55.8818 58.5811 55.6616 58.612C55.5629 58.5372 55.4822 58.4606 55.4103 58.3922L55.7522 57.7586C55.8172 57.6367 55.8013 57.5448 55.6624 57.4813C55.5214 57.4168 55.4812 57.3049 55.543 57.1573C55.6123 56.9915 55.6716 56.8213 55.7444 56.657C55.8215 56.4829 55.7974 56.3626 55.6042 56.2888C55.4746 56.2393 55.3542 56.1658 55.2139 56.0961V56.0962Z" fill="#EA522A"/>
<path d="M28.6423 67.3821C29.239 67.7057 29.6682 68.198 30.0819 68.7095C30.1782 68.8285 30.3065 68.925 30.4308 69.0173C30.8387 69.3205 30.9528 69.802 31.1705 70.2202C31.2187 70.3129 31.2489 70.4149 31.2881 70.5316C30.9344 70.7157 30.5637 70.8535 30.2294 71.0523C29.7539 71.3351 29.305 71.6629 28.8222 71.9631C28.6536 71.7785 28.5138 71.5963 28.3601 71.4268L26.826 69.7504C27.413 69.1765 27.9333 68.5485 28.3634 67.8479C28.4554 67.6979 28.5393 67.5428 28.6422 67.3821L28.6423 67.3821Z" fill="#EB5E24"/>
<path d="M52.5724 71.0216C52.4036 71.271 52.2268 71.5041 52.0518 71.7385C51.915 71.9217 51.7986 72.1243 51.6411 72.2872C51.3003 72.6395 50.9388 72.972 50.5693 73.3146C49.9148 72.4395 49.113 71.7448 48.1843 71.192C48.1363 71.1635 48.0819 71.1457 48.0224 71.1074C48.3333 70.7035 48.6527 70.3156 48.9709 69.9267C49.0431 69.8385 49.1055 69.7417 49.1815 69.657L50.0892 68.6685C50.3323 68.9328 50.5654 69.2 50.7863 69.477C51.2675 70.0805 51.8662 70.5446 52.5114 70.9556C52.5318 70.9686 52.5473 70.989 52.5724 71.0216Z" fill="#E95514"/>
<path d="M26.811 69.7569L28.3601 71.4268C28.5138 71.5964 28.6536 71.7785 28.8069 71.9704C28.169 72.5455 27.5916 73.1654 27.1287 73.8864C27.0855 73.9537 27.0515 74.0268 26.9978 74.1056C26.6781 73.8942 26.3555 73.695 26.0748 73.4483C25.8371 73.2393 25.6431 72.9793 25.4381 72.7348L24.5509 71.6508C24.531 71.6263 24.5215 71.5933 24.5051 71.5466C25.3337 71.0266 26.118 70.464 26.8109 69.7568L26.811 69.7569Z" fill="#EB5F2D"/>
<path d="M43.5836 48.5105C43.682 48.2578 43.7637 47.9825 43.924 47.7654C44.3647 47.1681 44.795 46.5529 45.3107 46.024C45.8853 45.4347 46.5487 44.9318 47.316 44.5591C47.5573 45.1351 47.7823 45.7181 47.9928 46.3211C47.7077 46.5232 47.4226 46.6875 47.1713 46.893C46.9528 47.0716 46.7691 47.2936 46.5761 47.502C46.3114 47.7877 46.0404 48.069 45.7948 48.3706C45.6003 48.6094 45.4398 48.876 45.2643 49.1302L43.5836 48.5105L43.5836 48.5105Z" fill="#F28D00"/>
<path d="M88.2268 70.2191C88.2173 70.1794 88.2108 70.1509 88.2209 70.1307C88.4877 69.5909 88.6706 69.0086 89.1209 68.567C89.429 68.2649 89.6791 67.9044 89.9767 67.5904C90.131 67.4276 90.3199 67.2882 90.5147 67.1753C90.8401 66.9869 91.1827 66.8284 91.5277 66.6431C91.6154 66.803 91.6879 66.9799 91.7728 67.1505L92.3784 68.3878C92.3107 68.4851 92.2499 68.5508 92.1836 68.6105C91.7952 68.9605 91.3759 69.282 91.0248 69.666C90.6797 70.0434 90.4035 70.4837 90.097 70.8964L88.2268 70.2192L88.2268 70.2191Z" fill="#F08369"/>
<path d="M90.106 70.9109C90.4034 70.4837 90.6797 70.0434 91.0248 69.666C91.3759 69.2821 91.7952 68.9606 92.1835 68.6106C92.2498 68.5509 92.3107 68.4851 92.3814 68.4045L93.8169 70.0745C93.9107 70.1837 94.0359 70.2659 94.1466 70.391C93.8262 70.7619 93.5046 71.1012 93.186 71.4433L92.2748 72.431C91.6333 71.8167 90.9141 71.3138 90.106 70.9109Z" fill="#F18B5E"/>
<path d="M97.7038 72.1832C97.5025 72.7453 97.2387 73.2698 96.816 73.7176C96.4184 74.1388 96.0979 74.6325 95.7043 75.0582C95.4888 75.2914 95.2049 75.4706 94.9285 75.6351C94.7347 75.7505 94.5017 75.8 94.2692 75.886C94.0565 75.3946 93.8606 74.896 93.6702 74.3641C93.9049 74.1472 94.1615 73.9887 94.3575 73.7748C94.7211 73.3777 95.0552 72.9528 95.3903 72.5307C95.6328 72.2253 95.8571 71.9056 96.0895 71.5923L97.7038 72.1832H97.7038Z" fill="#F49C3A"/>
<path d="M45.2773 49.1424C45.4398 48.876 45.6003 48.6095 45.7948 48.3707C46.0404 48.0691 46.3113 47.7878 46.576 47.502C46.7691 47.2936 46.9528 47.0716 47.1712 46.8931C47.4226 46.6876 47.7077 46.5233 47.9948 46.3391C48.3926 46.9218 48.7769 47.5135 49.1476 48.1138C48.9063 48.4224 48.6686 48.7026 48.4233 48.9762L47.176 50.3525C46.5962 49.8765 45.9665 49.479 45.2773 49.1424Z" fill="#F08000"/>
<path d="M47.1837 50.3672C47.592 49.8937 48.01 49.437 48.4233 48.976C48.6686 48.7024 48.9063 48.4222 49.1543 48.1292C49.5072 48.4374 49.842 48.7747 50.2032 49.0809C50.47 49.307 50.7713 49.4924 51.071 49.7205C50.7983 50.1097 50.5452 50.5086 50.2169 50.8307C49.7772 51.2622 49.2793 51.6343 48.8065 52.0319C48.5242 51.7058 48.2547 51.3672 47.9553 51.0576C47.7198 50.814 47.4474 50.606 47.1837 50.3673L47.1837 50.3672Z" fill="#ED6E04"/>
<path d="M55.6348 51.1161C55.5487 51.5636 55.4866 52.0057 55.3471 52.4219C55.1022 53.1526 54.8138 53.8688 54.5334 54.5871C54.4936 54.6889 54.4009 54.7727 54.3244 54.8573L52.886 56.4345C52.7644 56.5644 52.6016 56.6547 52.4637 56.7704C51.984 57.1731 51.4959 57.5579 50.8198 57.6237C50.732 57.1421 50.664 56.6605 50.6172 56.1583L52.4059 55.3285C52.4346 55.3153 52.4576 55.2883 52.4814 55.2657C52.879 54.8851 53.2862 54.5137 53.67 54.1195C53.8854 53.8984 54.1256 53.6669 54.2437 53.3923C54.5723 52.6287 54.9886 51.8924 55.0988 51.0479C55.2739 51.0649 55.4489 51.0819 55.6349 51.116L55.6348 51.1161Z" fill="#EA541C"/>
<path d="M96.0737 71.584C95.8571 71.9055 95.6328 72.2252 95.3904 72.5306C95.0552 72.9527 94.7211 73.3776 94.3575 73.7747C94.1615 73.9886 93.905 74.1471 93.6681 74.346C93.2703 73.6794 92.853 73.017 92.282 72.4456C92.5785 72.1015 92.8808 71.7709 93.1861 71.4431L94.1537 70.406L96.0737 71.584Z" fill="#F3944D"/>
<path d="M71.3655 66.8386C71.5279 66.928 71.6843 67.0157 71.8218 67.1268C72.1128 67.3622 72.396 67.6076 72.6788 67.853L73.7864 68.8294C73.8746 68.9097 73.9448 69.0178 73.9996 69.1252C74.1899 69.498 74.3698 69.8762 74.5538 70.2705C74.0209 70.5017 73.4878 70.7147 72.9355 70.9132L71.8101 69.5584C71.7109 69.4388 71.6073 69.3229 71.5034 69.2073C71.3282 69.0122 71.1605 68.8091 70.9718 68.628C70.8445 68.506 70.6865 68.416 70.5423 68.3117L71.3654 66.8387L71.3655 66.8386Z" fill="#EC6168"/>
<path d="M76.8815 48.507L75.4706 49.0184C75.4561 49.0237 75.4443 49.0365 75.4115 49.0314C74.8637 48.09 74.0736 47.4196 73.2222 46.8109C73.0109 46.6599 72.7889 46.524 72.5718 46.3811L73.0423 45.168C73.5401 45.3694 74.0236 45.5752 74.4884 45.8169C74.6863 45.9198 74.8497 46.0924 75.0207 46.2425C75.1731 46.3762 75.305 46.5342 75.4626 46.6607C75.6664 46.8243 75.9471 46.9253 76.0874 47.1276C76.3885 47.5621 76.6209 48.0443 76.8815 48.507Z" fill="#EC663E"/>
<path d="M70.5271 68.3194C70.6866 68.4161 70.8446 68.5061 70.9719 68.6281C71.1606 68.8092 71.3284 69.0124 71.5036 69.2074L71.8102 69.5585L72.9183 70.9154C72.272 71.2538 71.6654 71.6388 71.0997 72.1115L69.153 69.8986L70.3656 68.5201C70.4187 68.4595 70.4633 68.3915 70.5272 68.3193L70.5271 68.3194Z" fill="#EB5E5B"/>
<path d="M53.3664 50.6521C53.6571 50.7188 53.9479 50.7855 54.2481 50.8892C54.208 51.1499 54.1151 51.3739 54.1175 51.597C54.1236 52.1647 53.8968 52.606 53.4873 52.9763C53.3846 53.0692 53.3062 53.1885 53.2067 53.2856L52.0776 54.3731C52.0557 54.394 52.0176 54.3972 51.9878 54.4106L50.8436 54.9249L50.3548 55.1483C50.2407 54.8469 50.1266 54.5453 50.0273 54.2238C50.4056 53.9843 50.798 53.801 51.1254 53.537C51.6054 53.1498 52.0625 52.727 52.4839 52.2769C52.7618 51.9799 53.1116 51.7159 53.1869 51.2632C53.2216 51.0553 53.305 50.8556 53.3663 50.6521L53.3664 50.6521Z" fill="#EA580E"/>
<path d="M50.3516 55.1675C50.5178 55.0738 50.6804 54.9985 50.8437 54.9248L51.9879 54.4105C52.0176 54.3972 52.0558 54.3939 52.0777 54.373L53.2068 53.2856C53.3062 53.1884 53.3846 53.0692 53.4874 52.9763C53.8969 52.606 54.1237 52.1647 54.1176 51.5969C54.1151 51.3739 54.2081 51.1498 54.2585 50.906C54.5272 50.9337 54.7949 50.9816 55.0807 51.0387C54.9885 51.8924 54.5722 52.6287 54.2436 53.3923C54.1254 53.6669 53.8852 53.8984 53.6699 54.1196C53.2861 54.5137 52.8789 54.8851 52.4813 55.2657C52.4576 55.2884 52.4345 55.3153 52.4058 55.3285L50.6202 56.1382C50.5174 55.8213 50.4329 55.504 50.3516 55.1675Z" fill="#E95514"/>
<path d="M48.8091 52.0495C49.2793 51.6343 49.7772 51.2621 50.2169 50.8307C50.5451 50.5085 50.7982 50.1097 51.0869 49.728C51.5459 49.9268 52.0028 50.1426 52.4677 50.3929C52.2631 50.7429 52.0709 51.075 51.8324 51.3697C51.5461 51.7236 51.233 52.0586 50.9084 52.3784C50.5128 52.7679 50.0932 53.133 49.6841 53.5087L48.8091 52.0495H48.8091Z" fill="#EB620B"/>
<path d="M69.3062 74.341C68.8232 74.1771 68.475 73.8437 68.1735 73.4469L66.7874 71.6441C67.2131 71.3501 67.6462 71.0717 68.112 70.7988C68.192 70.8496 68.2427 70.8917 68.2855 70.9407L69.6055 72.4476C69.7898 72.6525 70.0013 72.833 70.2004 73.0246L69.3062 74.341L69.3062 74.341Z" fill="#EA544C"/>
<path d="M76.9015 48.51C76.621 48.0442 76.3886 47.5621 76.0874 47.1276C75.9471 46.9252 75.6664 46.8242 75.4626 46.6606C75.305 46.5341 75.1731 46.3762 75.0208 46.2425C74.8498 46.0923 74.6863 45.9197 74.4884 45.8168C74.0235 45.5752 73.5401 45.3693 73.046 45.1485C73.1044 44.8792 73.181 44.6103 73.2841 44.3264C73.8741 44.5578 74.4825 44.7354 74.9902 45.0671C75.6951 45.5277 76.4264 45.9806 76.9504 46.6742C77.0685 46.8306 77.2039 46.9751 77.3407 47.116C77.6656 47.4508 77.843 47.8549 77.921 48.3087L76.9015 48.51Z" fill="#EC6333"/>
<path d="M65.2971 58.5915C64.9944 58.3587 64.8037 58.0252 64.7071 57.6531C64.5936 57.2166 64.5058 56.7749 64.2384 56.3988C64.0242 56.0976 64.0839 55.7364 64.0107 55.4044L63.7855 54.3529C63.7068 53.9541 63.6284 53.5549 63.5666 53.1533L63.3172 51.3648C63.6331 51.294 63.9497 51.2429 64.2866 51.1943C64.381 51.7709 64.4562 52.3448 64.5281 52.9192C64.5433 53.0406 64.5636 53.1654 64.5517 53.2856C64.4596 54.2183 64.692 55.114 64.8164 56.0258C64.8894 56.5608 65.0582 57.0579 65.1679 57.5754C65.237 57.9011 65.2558 58.2375 65.2971 58.5914L65.2971 58.5915Z" fill="#EB5E5B"/>
<path d="M72.5563 46.3896C72.7888 46.524 73.0109 46.6598 73.2222 46.8109C74.0736 47.4195 74.8636 48.0899 75.3941 49.034C74.9968 49.2679 74.5973 49.4848 74.1649 49.696C73.589 48.907 72.8952 48.2844 72.0912 47.7807C72.0116 47.7308 71.9152 47.7074 71.8267 47.6718C71.942 47.4811 72.0626 47.2933 72.1712 47.0989L72.5563 46.3896Z" fill="#EC644B"/>
<path d="M77.9432 48.3121C77.843 47.8551 77.6656 47.451 77.3406 47.1161C77.2039 46.9752 77.0685 46.8308 76.9503 46.6744C76.4264 45.9808 75.6951 45.5278 74.9902 45.0672C74.4825 44.7355 73.8741 44.5579 73.293 44.3092C73.3091 44.0495 73.3427 43.7922 73.3933 43.5239L75.7462 44.6325C75.7903 44.6537 75.8368 44.6771 75.8708 44.711L78.1264 46.9482C78.5071 47.3063 78.5894 47.7637 78.713 48.2395C78.4639 48.2778 78.2147 48.2966 77.9432 48.3121V48.3121Z" fill="#EB5F2D"/>
<path d="M49.6919 53.5233C50.0933 53.1331 50.5129 52.768 50.9084 52.3785C51.233 52.0587 51.5461 51.7237 51.8324 51.3698C52.0709 51.0751 52.2631 50.743 52.4765 50.4089C52.7607 50.4752 53.044 50.56 53.3469 50.6484C53.3051 50.8555 53.2216 51.0553 53.187 51.2632C53.1117 51.7159 52.7619 51.9799 52.484 52.2768C52.0626 52.727 51.6056 53.1498 51.1255 53.537C50.7981 53.801 50.4057 53.9843 50.0253 54.2058C49.9054 53.9845 49.8026 53.7613 49.6919 53.5233Z" fill="#E95A0F"/>
<path d="M71.8086 47.6733C71.9152 47.7074 72.0116 47.7307 72.0912 47.7807C72.8952 48.2843 73.589 48.907 74.1473 49.6978C73.7925 49.9818 73.4225 50.2582 73.0303 50.5261C72.9729 50.4629 72.947 50.3981 72.9009 50.3548L70.9854 48.5627L71.6885 47.8187C71.7282 47.7762 71.7568 47.7232 71.8086 47.6734L71.8086 47.6733Z" fill="#EB5E5B"/>
<path d="M70.2158 73.0176C70.0014 72.8328 69.7899 72.6523 69.6056 72.4474L68.2856 70.9405C68.2427 70.8916 68.1921 70.8495 68.1296 70.7969C68.4505 70.4972 68.7868 70.2048 69.138 69.9055L71.0843 72.1186C70.8047 72.4263 70.5179 72.7186 70.2158 73.0176Z" fill="#EB5A57"/>
<path d="M70.9702 48.5693L72.9008 50.3548C72.9469 50.3981 72.9729 50.4628 73.0148 50.5334C72.8028 50.7452 72.5841 50.9413 72.3332 51.132C72.1253 50.9809 71.9613 50.8177 71.7719 50.693C71.16 50.2902 70.6386 49.7885 70.1461 49.2528L70.9702 48.5693Z" fill="#EC6168"/>
<path d="M70.1286 49.2552C70.6386 49.7886 71.16 50.2902 71.7719 50.693C71.9613 50.8177 72.1253 50.9809 72.3161 51.1337C72.1591 51.3514 71.9869 51.5619 71.7997 51.7796C71.4638 51.5229 71.1067 51.2916 70.8329 50.9856C70.588 50.712 70.3533 50.5577 69.976 50.5789C69.8465 50.5862 69.6921 50.4409 69.5766 50.3352C69.4268 50.1981 69.3045 50.0311 69.1633 49.8616C69.4745 49.65 69.7927 49.4538 70.1286 49.2552Z" fill="#ED656E"/>
</g>
<defs>
<clipPath id="clip0_4_344">
<rect width="100" height="100" fill="white" transform="translate(10 10)"/>
</clipPath>
</defs>
</svg>
