<svg width="120" height="120" viewBox="0 0 120 120" fill="none" xmlns="http://www.w3.org/2000/svg">
<rect width="120" height="120" fill="white"/>
<g clip-path="url(#clip0_5659_4853)">
<path d="M32.147 73.0207V35H34.3511V85.6944H32.147L25.5347 47.6736V85.6944H23.3306V35H25.5347L32.147 73.0207Z" fill="#3C593D"/>
<path d="M45.5781 83.4903C46.1751 83.4903 46.6802 83.2837 47.0935 82.8704C47.5527 82.4571 47.7822 81.9291 47.7822 81.2862V39.4082C47.7822 38.8113 47.5527 38.3062 47.0935 37.8929C46.6802 37.4337 46.1751 37.2041 45.5781 37.2041C44.9353 37.2041 44.4072 37.4337 43.9939 37.8929C43.5807 38.3062 43.374 38.8113 43.374 39.4082V81.2862C43.374 81.9291 43.5807 82.4571 43.9939 82.8704C44.4072 83.2837 44.9353 83.4903 45.5781 83.4903ZM45.5781 85.6944C44.3383 85.6944 43.2822 85.2811 42.4098 84.4545C41.5832 83.582 41.1699 82.5262 41.1699 81.2862V39.4082C41.1699 38.2143 41.5832 37.1811 42.4098 36.3087C43.2822 35.4362 44.3383 35 45.5781 35C46.7721 35 47.8052 35.4362 48.6777 36.3087C49.5501 37.1811 49.9863 38.2143 49.9863 39.4082V81.2862C49.9863 82.5262 49.5501 83.582 48.6777 84.4545C47.8052 85.2811 46.7721 85.6944 45.5781 85.6944Z" fill="#3C593D"/>
<path d="M69.4791 35H71.6832V85.6944H69.4791V43.8164L63.9688 65.8575L58.4585 43.8164V85.6944H56.2544V35H58.4585L63.9688 57.0411L69.4791 35Z" fill="#3C593D"/>
<path d="M78.2271 85.6944V35H80.4312V85.6944H78.2271Z" fill="#3C593D"/>
<path d="M91.3823 85.6944C90.1427 85.6944 89.0865 85.2811 88.2141 84.4545C87.3874 83.582 86.9741 82.5262 86.9741 81.2862V39.4082C86.9741 38.2143 87.3874 37.1811 88.2141 36.3087C89.0865 35.4362 90.1427 35 91.3823 35C92.5764 35 93.6094 35.4362 94.4818 36.3087C95.3543 37.1811 95.7905 38.2143 95.7905 39.4082V43.8164H93.5864V39.4082C93.5864 38.8113 93.3569 38.3062 92.8977 37.8929C92.4844 37.4337 91.9794 37.2041 91.3823 37.2041C90.7394 37.2041 90.2115 37.4337 89.7982 37.8929C89.3849 38.3062 89.1782 38.8113 89.1782 39.4082V81.2862C89.1782 81.9291 89.3849 82.4571 89.7982 82.8704C90.2115 83.2837 90.7394 83.4903 91.3823 83.4903C91.9794 83.4903 92.4844 83.2837 92.8977 82.8704C93.3569 82.4571 93.5864 81.9291 93.5864 81.2862V76.878H95.7905V81.2862C95.7905 82.5262 95.3543 83.582 94.4818 84.4545C93.6094 85.2811 92.5764 85.6944 91.3823 85.6944Z" fill="#3C593D"/>
</g>
<defs>
<clipPath id="clip0_5659_4853">
<rect width="73" height="50.7826" fill="white" transform="translate(23 35)"/>
</clipPath>
</defs>
</svg>
