<svg width="280" height="184" viewBox="0 0 280 184" fill="none" xmlns="http://www.w3.org/2000/svg">
<rect width="280" height="184" fill="white"/>
<g clip-path="url(#clip0_5659_4705)">
<path d="M192.254 80.9319C195.022 72.6245 194.068 63.524 189.642 55.9677C182.985 44.3777 169.604 38.4149 156.534 41.2209C150.72 34.671 142.367 30.9462 133.61 30.9996C120.251 30.9691 108.398 39.5701 104.288 52.281C95.7059 54.0385 88.2982 59.4103 83.9634 67.0239C77.2572 78.5834 78.786 93.1548 87.7454 103.067C84.9775 111.375 85.9307 120.475 90.357 128.032C97.0136 139.622 110.395 145.584 123.465 142.778C129.275 149.328 137.632 153.053 146.389 152.996C159.756 153.03 171.613 144.421 175.723 131.699C184.305 129.942 191.712 124.57 196.047 116.956C202.746 105.397 201.213 90.8368 192.257 80.9243L192.254 80.9319ZM146.397 145.024C141.048 145.031 135.867 143.16 131.761 139.732C131.948 139.633 132.272 139.454 132.481 139.324L156.775 125.294C158.017 124.589 158.78 123.266 158.772 121.836V87.5885L169.039 93.517C169.15 93.5703 169.222 93.6771 169.238 93.7991V122.16C169.222 134.772 159.009 144.997 146.397 145.024ZM97.2767 124.044C94.5965 119.415 93.6319 113.99 94.5507 108.725C94.7299 108.832 95.0463 109.026 95.2713 109.156L119.565 123.186C120.796 123.906 122.321 123.906 123.556 123.186L153.214 106.06V117.917C153.221 118.039 153.164 118.157 153.069 118.233L128.512 132.412C117.574 138.71 103.605 134.966 97.2805 124.044H97.2767ZM90.8831 71.0156C93.5518 66.3796 97.7647 62.834 102.782 60.9925C102.782 61.2022 102.77 61.572 102.77 61.8313V89.8951C102.763 91.321 103.525 92.6439 104.764 93.3492L134.422 110.471L124.155 116.4C124.052 116.468 123.922 116.48 123.808 116.43L99.2477 102.24C88.3325 95.9188 84.5887 81.9537 90.8793 71.0194L90.8831 71.0156ZM175.238 90.6461L145.581 73.5204L155.848 67.5958C155.951 67.5272 156.081 67.5157 156.195 67.5653L180.755 81.744C191.689 88.0613 195.437 102.049 189.12 112.984C186.447 117.612 182.238 121.158 177.225 123.003V94.1003C177.236 92.6744 176.478 91.3553 175.242 90.6461H175.238ZM185.456 75.2665C185.277 75.156 184.96 74.9653 184.735 74.8357L160.442 60.8057C159.211 60.0852 157.686 60.0852 156.45 60.8057L126.793 77.9315V66.0746C126.785 65.9526 126.843 65.8344 126.938 65.7582L151.494 51.5909C162.432 45.2812 176.417 49.0365 182.722 59.9784C185.387 64.5992 186.352 70.0091 185.448 75.2665H185.456ZM121.212 96.3992L110.941 90.4708C110.83 90.4174 110.758 90.3106 110.742 90.1886V61.8275C110.75 49.2005 120.994 38.9677 133.621 38.9753C138.963 38.9753 144.132 40.8511 148.238 44.2671C148.052 44.3662 147.731 44.5454 147.518 44.675L123.225 58.705C121.982 59.4103 121.219 60.7295 121.227 62.1592L121.212 96.3916V96.3992ZM126.789 84.3746L140 76.7458L153.21 84.3708V99.6246L140 107.25L126.789 99.6246V84.3746Z" fill="black"/>
</g>
<defs>
<clipPath id="clip0_5659_4705">
<rect width="122" height="122" fill="white" transform="translate(79 31)"/>
</clipPath>
</defs>
</svg>
