<svg width="32" height="32" viewBox="0 0 32 32" fill="none" xmlns="http://www.w3.org/2000/svg">
<rect width="32" height="32" fill="white"/>
<g clip-path="url(#clip0_5659_4714)">
<path d="M25.1371 14.0644C25.6211 12.6118 25.4544 11.0204 24.6804 9.69911C23.5164 7.67244 21.1764 6.62977 18.8911 7.12044C17.8744 5.97511 16.4138 5.32377 14.8824 5.33311C12.5464 5.32777 10.4738 6.83177 9.75511 9.05444C8.25444 9.36177 6.95911 10.3011 6.20111 11.6324C5.02844 13.6538 5.29578 16.2018 6.86244 17.9351C6.37844 19.3878 6.54511 20.9791 7.31911 22.3004C8.48311 24.3271 10.8231 25.3698 13.1084 24.8791C14.1244 26.0244 15.5858 26.6758 17.1171 26.6658C19.4544 26.6718 21.5278 25.1664 22.2464 22.9418C23.7471 22.6344 25.0424 21.6951 25.8004 20.3638C26.9718 18.3424 26.7038 15.7964 25.1378 14.0631L25.1371 14.0644ZM17.1184 25.2718C16.1831 25.2731 15.2771 24.9458 14.5591 24.3464C14.5918 24.3291 14.6484 24.2978 14.6851 24.2751L18.9331 21.8218C19.1504 21.6984 19.2838 21.4671 19.2824 21.2171V15.2284L21.0778 16.2651C21.0971 16.2744 21.1098 16.2931 21.1124 16.3144V21.2738C21.1098 23.4791 19.3238 25.2671 17.1184 25.2718ZM8.52911 21.6031C8.06044 20.7938 7.89178 19.8451 8.05244 18.9244C8.08378 18.9431 8.13911 18.9771 8.17844 18.9998L12.4264 21.4531C12.6418 21.5791 12.9084 21.5791 13.1244 21.4531L18.3104 18.4584V20.5318C18.3118 20.5531 18.3018 20.5738 18.2851 20.5871L13.9911 23.0664C12.0784 24.1678 9.63578 23.5131 8.52978 21.6031H8.52911ZM7.41111 12.3304C7.87778 11.5198 8.61444 10.8998 9.49178 10.5778C9.49178 10.6144 9.48978 10.6791 9.48978 10.7244V15.6318C9.48844 15.8811 9.62178 16.1124 9.83844 16.2358L15.0244 19.2298L13.2291 20.2664C13.2111 20.2784 13.1884 20.2804 13.1684 20.2718L8.87378 17.7904C6.96511 16.6851 6.31044 14.2431 7.41044 12.3311L7.41111 12.3304ZM22.1618 15.7631L16.9758 12.7684L18.7711 11.7324C18.7891 11.7204 18.8118 11.7184 18.8318 11.7271L23.1264 14.2064C25.0384 15.3111 25.6938 17.7571 24.5891 19.6691C24.1218 20.4784 23.3858 21.0984 22.5091 21.4211V16.3671C22.5111 16.1178 22.3784 15.8871 22.1624 15.7631H22.1618ZM23.9484 13.0738C23.9171 13.0544 23.8618 13.0211 23.8224 12.9984L19.5744 10.5451C19.3591 10.4191 19.0924 10.4191 18.8764 10.5451L13.6904 13.5398V11.4664C13.6891 11.4451 13.6991 11.4244 13.7158 11.4111L18.0098 8.93377C19.9224 7.83044 22.3678 8.48711 23.4704 10.4004C23.9364 11.2084 24.1051 12.1544 23.9471 13.0738H23.9484ZM12.7144 16.7691L10.9184 15.7324C10.8991 15.7231 10.8864 15.7044 10.8838 15.6831V10.7238C10.8851 8.51577 12.6764 6.72644 14.8844 6.72777C15.8184 6.72777 16.7224 7.05577 17.4404 7.65311C17.4078 7.67044 17.3518 7.70177 17.3144 7.72444L13.0664 10.1778C12.8491 10.3011 12.7158 10.5318 12.7171 10.7818L12.7144 16.7678V16.7691ZM13.6898 14.6664L15.9998 13.3324L18.3098 14.6658V17.3331L15.9998 18.6664L13.6898 17.3331V14.6664Z" fill="black"/>
</g>
<defs>
<clipPath id="clip0_5659_4714">
<rect width="21.3333" height="21.3333" fill="white" transform="translate(5.3335 5.3335)"/>
</clipPath>
</defs>
</svg>
